<svg version="1.1" xmlns="http://www.w3.org/2000/svg" xmlns:xlink="http://www.w3.org/1999/xlink" width="417.59054" height="46.74017" viewBox="0,0,417.59054,46.74017"><defs><linearGradient x1="31.20474" y1="196.03895" x2="31.20463" y2="149.29658" gradientUnits="userSpaceOnUse" id="color-1"><stop offset="0" stop-color="#88ff88" stop-opacity="0"/><stop offset="1" stop-color="#88ff88"/></linearGradient></defs><g transform="translate(-31.20473,-149.29658)"><g data-paper-data="{&quot;isPaintingLayer&quot;:true}" stroke="none" stroke-width="1" stroke-linecap="square" stroke-linejoin="miter" stroke-miterlimit="10" stroke-dasharray="" stroke-dashoffset="0" style="mix-blend-mode: normal"><path d="M31.20473,157.08677c0,-4.3024 2.39711,-7.79019 5.3541,-7.79019h406.88234c2.95698,0 5.3541,3.48779 5.3541,7.79019v31.15979c0,2.0661 -0.56408,4.04754 -1.56817,5.50848c-1.00409,1.46094 -2.36595,2.28171 -3.78592,2.28171h-406.88234c-2.95699,0 -5.3541,-3.48779 -5.3541,-7.79019v0z" data-paper-data="{&quot;index&quot;:null}" fill="url(#color-1)" fill-rule="evenodd"/><path d="M49.71135,165.28386c0.32291,0.15625 0.51041,0.41146 0.5625,0.76563c0.05209,0.34375 -0.03646,0.66146 -0.26562,0.95313c-0.16666,0.21875 -0.38021,0.34375 -0.64062,0.375c-0.25,0.02083 -0.50521,-0.03125 -0.76562,-0.15625c-0.29166,-0.13542 -0.60416,-0.23958 -0.9375,-0.3125c-0.33334,-0.07292 -0.67709,-0.10937 -1.03125,-0.10937c-0.67709,0 -1.28125,0.10417 -1.8125,0.3125c-0.52084,0.20833 -0.96875,0.51042 -1.34375,0.90625c-0.375,0.38542 -0.66146,0.84896 -0.85937,1.39063c-0.1875,0.53125 -0.28125,1.11979 -0.28125,1.76563c0,0.76041 0.10938,1.42188 0.32813,1.98438c0.21875,0.55209 0.52084,1.01563 0.90625,1.39063c0.38541,0.375 0.83854,0.65625 1.35938,0.84375c0.52084,0.17709 1.08854,0.26563 1.70313,0.26563c0.33334,0 0.66666,-0.03125 1,-0.09375c0.33334,-0.0625 0.65625,-0.17709 0.96875,-0.34375c0.26041,-0.125 0.51563,-0.16666 0.76563,-0.125c0.26041,0.03125 0.47916,0.16146 0.65625,0.39063c0.25,0.3125 0.33854,0.63541 0.26563,0.96875c-0.0625,0.32291 -0.25,0.55729 -0.5625,0.70313c-0.32291,0.16666 -0.65625,0.30209 -1,0.40625c-0.34375,0.10416 -0.69271,0.18229 -1.04687,0.23438c-0.34375,0.0625 -0.69271,0.09375 -1.04687,0.09375c-0.89584,0 -1.74479,-0.14062 -2.54687,-0.42187c-0.80209,-0.29166 -1.52084,-0.71354 -2.15625,-1.26562c-0.625,-0.5625 -1.11979,-1.26562 -1.48437,-2.10937c-0.35416,-0.84375 -0.53125,-1.81771 -0.53125,-2.92187c0,-0.95834 0.16146,-1.83854 0.48438,-2.64062c0.33334,-0.8125 0.80209,-1.51042 1.40625,-2.09375c0.60416,-0.59375 1.3125,-1.05729 2.125,-1.39062c0.82291,-0.33334 1.72396,-0.5 2.70313,-0.5c0.54166,0 1.07291,0.0625 1.59375,0.1875c0.52084,0.125 1.01563,0.30729 1.48438,0.54688zM61.6588,172.72136c0,1.02084 -0.22916,1.92188 -0.6875,2.70313c-0.44791,0.77084 -1.05729,1.375 -1.82812,1.8125c-0.76041,0.4375 -1.60937,0.65625 -2.54687,0.65625c-0.94791,0 -1.80729,-0.21875 -2.57812,-0.65625c-0.76041,-0.4375 -1.36979,-1.04166 -1.82812,-1.8125c-0.44791,-0.78125 -0.67187,-1.68229 -0.67187,-2.70312c0,-1.02084 0.22396,-1.91666 0.67188,-2.6875c0.45834,-0.78125 1.06771,-1.39062 1.82813,-1.82812c0.77084,-0.44792 1.63021,-0.67187 2.57813,-0.67187c0.9375,0 1.78646,0.22396 2.54688,0.67188c0.77084,0.4375 1.38021,1.04688 1.82813,1.82813c0.45834,0.77084 0.6875,1.66666 0.6875,2.6875zM59.42442,172.72136c0,-0.63541 -0.13021,-1.18229 -0.39062,-1.64062c-0.25,-0.46875 -0.58854,-0.83334 -1.01562,-1.09375c-0.42709,-0.26042 -0.90104,-0.39062 -1.42187,-0.39062c-0.53125,0 -1.01041,0.13021 -1.4375,0.39063c-0.42709,0.26041 -0.77084,0.625 -1.03125,1.09375c-0.25,0.45834 -0.375,1.00521 -0.375,1.64063c0,0.625 0.125,1.17188 0.375,1.64063c0.26041,0.45834 0.60416,0.82291 1.03125,1.09375c0.42709,0.26041 0.90625,0.39063 1.4375,0.39063c0.52084,0 0.99479,-0.13021 1.42188,-0.39062c0.42709,-0.27084 0.76563,-0.63541 1.01563,-1.09375c0.26041,-0.46875 0.39063,-1.01562 0.39063,-1.64062zM68.86375,167.53386c0.91666,0 1.61459,0.19271 2.09375,0.57813c0.47916,0.38542 0.80729,0.90104 0.98438,1.54688c0.1875,0.63541 0.28125,1.34896 0.28125,2.14063v4.76563c0,0.32291 -0.10937,0.59375 -0.32812,0.8125c-0.20834,0.21875 -0.47396,0.32813 -0.79687,0.32813c-0.32291,0 -0.58854,-0.10937 -0.79687,-0.32812c-0.20834,-0.21875 -0.3125,-0.48959 -0.3125,-0.8125v-4.76562c0,-0.41666 -0.05729,-0.78646 -0.17187,-1.10937c-0.10416,-0.33334 -0.29166,-0.59896 -0.5625,-0.79687c-0.27084,-0.19792 -0.66146,-0.29687 -1.17187,-0.29687c-0.5,0 -0.92187,0.09896 -1.26562,0.29688c-0.33334,0.19791 -0.59375,0.46354 -0.78125,0.79688c-0.17709,0.32291 -0.26562,0.69271 -0.26562,1.10938v4.76563c0,0.32291 -0.10937,0.59375 -0.32812,0.8125c-0.20834,0.21875 -0.47396,0.32813 -0.79687,0.32813c-0.32291,0 -0.58854,-0.10937 -0.79687,-0.32812c-0.20834,-0.21875 -0.3125,-0.48959 -0.3125,-0.8125v-7.70312c0,-0.32292 0.10416,-0.59375 0.3125,-0.8125c0.20834,-0.21875 0.47396,-0.32812 0.79688,-0.32812c0.32291,0 0.58854,0.10938 0.79688,0.32813c0.21875,0.21875 0.32813,0.48958 0.32813,0.8125v0.79688l-0.28125,-0.04687c0.11459,-0.20833 0.27604,-0.43229 0.48438,-0.67187c0.20834,-0.25 0.45313,-0.47917 0.73438,-0.6875c0.29166,-0.21875 0.61459,-0.39062 0.96875,-0.51562c0.36459,-0.13542 0.76041,-0.20312 1.1875,-0.20312zM78.70161,167.53386c0.52084,0 0.99479,0.08333 1.42188,0.25c0.4375,0.15625 0.8125,0.35938 1.125,0.60938c0.32291,0.25 0.57291,0.50521 0.75,0.76563c0.1875,0.25 0.28125,0.46354 0.28125,0.64063l-0.48437,0.23438v-1.35937c0,-0.32292 0.10416,-0.59375 0.3125,-0.8125c0.21875,-0.21875 0.48959,-0.32812 0.8125,-0.32812c0.32291,0 0.58854,0.10938 0.79688,0.32813c0.20834,0.20833 0.3125,0.47917 0.3125,0.8125v8.29688c0,1.08334 -0.23437,1.95313 -0.70312,2.60938c-0.45834,0.65625 -1.06771,1.13021 -1.82812,1.42188c-0.76041,0.29166 -1.57812,0.4375 -2.45312,0.4375c-0.23959,0 -0.5625,-0.03125 -0.96875,-0.09375c-0.39584,-0.0625 -0.77604,-0.14062 -1.14062,-0.23437c-0.35416,-0.08334 -0.625,-0.16146 -0.8125,-0.23437c-0.375,-0.16666 -0.63541,-0.36979 -0.78125,-0.60937c-0.13541,-0.23959 -0.16146,-0.49479 -0.07812,-0.76562c0.11459,-0.36459 0.29688,-0.61459 0.54688,-0.75c0.25,-0.125 0.51041,-0.14062 0.78125,-0.04687c0.125,0.04166 0.32813,0.11979 0.60938,0.23438c0.29166,0.11459 0.60416,0.21354 0.9375,0.29688c0.34375,0.09375 0.64584,0.14063 0.90625,0.14063c0.9375,0 1.63021,-0.1875 2.07813,-0.5625c0.44791,-0.36459 0.67188,-0.875 0.67188,-1.53125v-1.625l0.21875,0.15625c0,0.16666 -0.08334,0.36459 -0.25,0.59375c-0.16666,0.22916 -0.39584,0.45834 -0.6875,0.6875c-0.29166,0.21875 -0.64062,0.40625 -1.04687,0.5625c-0.39584,0.15625 -0.81771,0.23438 -1.26562,0.23438c-0.875,0 -1.66666,-0.21875 -2.375,-0.65625c-0.70834,-0.44791 -1.27084,-1.05729 -1.6875,-1.82812c-0.40625,-0.78125 -0.60937,-1.67709 -0.60937,-2.6875c0,-1.02084 0.20313,-1.91666 0.60938,-2.6875c0.41666,-0.78125 0.96875,-1.39062 1.65625,-1.82812c0.69791,-0.44792 1.47916,-0.67187 2.34375,-0.67187zM79.04536,169.59636c-0.55209,0 -1.04166,0.13542 -1.46875,0.40625c-0.42709,0.27084 -0.76041,0.64584 -1,1.125c-0.22916,0.46875 -0.34375,1 -0.34375,1.59375c0,0.58334 0.11459,1.11459 0.34375,1.59375c0.23959,0.46875 0.57291,0.84375 1,1.125c0.42709,0.27084 0.91666,0.40625 1.46875,0.40625c0.57291,0 1.07291,-0.13541 1.5,-0.40625c0.42709,-0.28125 0.75521,-0.65625 0.98438,-1.125c0.23959,-0.47916 0.35938,-1.01041 0.35938,-1.59375c0,-0.59375 -0.11979,-1.125 -0.35937,-1.59375c-0.22916,-0.47916 -0.55729,-0.85416 -0.98437,-1.125c-0.42709,-0.27083 -0.92709,-0.40625 -1.5,-0.40625zM87.57353,177.70573c-0.32291,0 -0.58854,-0.10937 -0.79687,-0.32812c-0.20834,-0.21875 -0.3125,-0.48959 -0.3125,-0.8125v-7.70312c0,-0.32292 0.10416,-0.59375 0.3125,-0.8125c0.20834,-0.21875 0.47396,-0.32812 0.79688,-0.32812c0.32291,0 0.58854,0.10938 0.79688,0.32813c0.21875,0.21875 0.32813,0.48958 0.32813,0.8125v1.75l-0.125,-1.25c0.13541,-0.29167 0.30729,-0.55208 0.51563,-0.78125c0.21875,-0.23958 0.46354,-0.43229 0.73438,-0.57812c0.28125,-0.15625 0.57813,-0.27083 0.89063,-0.34375c0.3125,-0.08333 0.625,-0.125 0.9375,-0.125c0.36459,0 0.67188,0.10938 0.92188,0.32813c0.26041,0.20833 0.39063,0.45313 0.39063,0.73438c0,0.41667 -0.10416,0.71354 -0.3125,0.89063c-0.20834,0.17708 -0.4375,0.26563 -0.6875,0.26563c-0.23959,0 -0.45834,-0.04167 -0.65625,-0.125c-0.1875,-0.08333 -0.40625,-0.125 -0.65625,-0.125c-0.21875,0 -0.44271,0.05208 -0.67187,0.15625c-0.22916,0.10417 -0.44271,0.27084 -0.64062,0.5c-0.1875,0.21875 -0.34375,0.49479 -0.46875,0.82813c-0.11459,0.32291 -0.17187,0.70834 -0.17187,1.15625v4.42188c0,0.32291 -0.10937,0.59375 -0.32812,0.8125c-0.20834,0.21875 -0.47396,0.32813 -0.79687,0.32813zM102.41508,167.53386c0.32291,0 0.58854,0.10938 0.79688,0.32813c0.20834,0.20833 0.3125,0.47917 0.3125,0.8125v7.89063c0,0.32291 -0.10416,0.59375 -0.3125,0.8125c-0.20834,0.21875 -0.47396,0.32813 -0.79687,0.32813c-0.32291,0 -0.59375,-0.10937 -0.8125,-0.32812c-0.20834,-0.21875 -0.3125,-0.48959 -0.3125,-0.8125v-0.90625l0.40625,0.15625c0,0.16666 -0.08854,0.36459 -0.26562,0.59375c-0.16666,0.22916 -0.40104,0.45834 -0.70312,0.6875c-0.30209,0.21875 -0.65625,0.40625 -1.0625,0.5625c-0.39584,0.15625 -0.82812,0.23438 -1.29687,0.23438c-0.86459,0 -1.64584,-0.21875 -2.34375,-0.65625c-0.69791,-0.44791 -1.25,-1.05729 -1.65625,-1.82812c-0.39584,-0.78125 -0.59375,-1.67709 -0.59375,-2.6875c0,-1.02084 0.19791,-1.91666 0.59375,-2.6875c0.40625,-0.78125 0.95313,-1.39062 1.64063,-1.82812c0.6875,-0.44792 1.44791,-0.67187 2.28125,-0.67187c0.53125,0 1.02084,0.08333 1.46875,0.25c0.44791,0.15625 0.83334,0.35938 1.15625,0.60938c0.33334,0.25 0.58854,0.50521 0.76563,0.76563c0.1875,0.25 0.28125,0.46354 0.28125,0.64063l-0.67187,0.23438v-1.35937c0,-0.32292 0.10416,-0.59375 0.3125,-0.8125c0.21875,-0.21875 0.48959,-0.32812 0.8125,-0.32812zM98.63383,175.84636c0.55209,0 1.03125,-0.13541 1.4375,-0.40625c0.41666,-0.28125 0.73959,-0.65625 0.96875,-1.125c0.22916,-0.47916 0.34375,-1.01041 0.34375,-1.59375c0,-0.59375 -0.11459,-1.125 -0.34375,-1.59375c-0.22916,-0.47916 -0.55209,-0.85416 -0.96875,-1.125c-0.40625,-0.27083 -0.88541,-0.40625 -1.4375,-0.40625c-0.53125,0 -1.00521,0.13542 -1.42187,0.40625c-0.40625,0.27084 -0.72396,0.64584 -0.95312,1.125c-0.22916,0.46875 -0.34375,1 -0.34375,1.59375c0,0.58334 0.11459,1.11459 0.34375,1.59375c0.22916,0.46875 0.54688,0.84375 0.95313,1.125c0.41666,0.27084 0.89063,0.40625 1.42188,0.40625zM106.0692,167.90886h4.42188c0.29166,0 0.53646,0.09896 0.73438,0.29688c0.20834,0.19792 0.3125,0.44792 0.3125,0.75c0,0.28125 -0.10416,0.52083 -0.3125,0.71875c-0.19791,0.1875 -0.44271,0.28125 -0.73437,0.28125h-4.42187c-0.30209,0 -0.55209,-0.09896 -0.75,-0.29687c-0.19791,-0.19792 -0.29687,-0.44271 -0.29687,-0.73437c0,-0.29167 0.09896,-0.53125 0.29688,-0.71875c0.19791,-0.19792 0.44791,-0.29687 0.75,-0.29687zM108.0692,165.58073c0.32291,0 0.58334,0.10938 0.78125,0.32813c0.20834,0.21875 0.3125,0.48958 0.3125,0.8125v8.29688c0,0.17709 0.03125,0.32291 0.09375,0.4375c0.07291,0.10416 0.16666,0.18229 0.28125,0.23438c0.125,0.05209 0.25521,0.07813 0.39063,0.07813c0.14584,0 0.28125,-0.02604 0.40625,-0.07812c0.125,-0.0625 0.27084,-0.09375 0.4375,-0.09375c0.16666,0 0.32291,0.08334 0.46875,0.25c0.14584,0.15625 0.21875,0.38021 0.21875,0.67188c0,0.34375 -0.19271,0.63021 -0.57812,0.85938c-0.375,0.21875 -0.78125,0.32813 -1.21875,0.32813c-0.26041,0 -0.55209,-0.02084 -0.875,-0.0625c-0.3125,-0.04166 -0.60937,-0.14584 -0.89062,-0.3125c-0.27084,-0.17709 -0.5,-0.4375 -0.6875,-0.78125c-0.1875,-0.34375 -0.28125,-0.82291 -0.28125,-1.4375v-8.39062c0,-0.32292 0.10416,-0.59375 0.3125,-0.8125c0.21875,-0.21875 0.49479,-0.32812 0.82813,-0.32812zM120.99647,167.72136c0.32291,0 0.58854,0.10938 0.79688,0.32813c0.20834,0.21875 0.3125,0.48958 0.3125,0.8125v4.73438c0,1.32291 -0.36979,2.36979 -1.10937,3.14063c-0.72916,0.77084 -1.78125,1.15625 -3.15625,1.15625c-1.38541,0 -2.44271,-0.38541 -3.17187,-1.15625c-0.71875,-0.77084 -1.07812,-1.81771 -1.07812,-3.14062v-4.73437c0,-0.32292 0.10416,-0.59375 0.3125,-0.8125c0.20834,-0.21875 0.47396,-0.32812 0.79688,-0.32812c0.32291,0 0.58854,0.10938 0.79688,0.32813c0.21875,0.21875 0.32813,0.48958 0.32813,0.8125v4.73438c0,0.76041 0.16666,1.32813 0.5,1.70313c0.33334,0.36459 0.83854,0.54688 1.51563,0.54688c0.6875,0 1.19791,-0.18229 1.53125,-0.54687c0.33334,-0.375 0.5,-0.94271 0.5,-1.70312v-4.73437c0,-0.32292 0.10416,-0.59375 0.3125,-0.8125c0.21875,-0.21875 0.48959,-0.32812 0.8125,-0.32812zM126.9633,176.56511c0,0.32291 -0.10937,0.59375 -0.32812,0.8125c-0.21875,0.21875 -0.48959,0.32813 -0.8125,0.32813c-0.3125,0 -0.57291,-0.10937 -0.78125,-0.32812c-0.20834,-0.21875 -0.3125,-0.48959 -0.3125,-0.8125v-11.53125c0,-0.32291 0.10416,-0.59375 0.3125,-0.8125c0.21875,-0.21875 0.48959,-0.32812 0.8125,-0.32812c0.32291,0 0.58854,0.10938 0.79688,0.32813c0.20834,0.21875 0.3125,0.48959 0.3125,0.8125zM137.65675,167.53386c0.32291,0 0.58854,0.10938 0.79688,0.32813c0.20834,0.20833 0.3125,0.47917 0.3125,0.8125v7.89063c0,0.32291 -0.10416,0.59375 -0.3125,0.8125c-0.20834,0.21875 -0.47396,0.32813 -0.79687,0.32813c-0.32291,0 -0.59375,-0.10937 -0.8125,-0.32812c-0.20834,-0.21875 -0.3125,-0.48959 -0.3125,-0.8125v-0.90625l0.40625,0.15625c0,0.16666 -0.08854,0.36459 -0.26562,0.59375c-0.16666,0.22916 -0.40104,0.45834 -0.70312,0.6875c-0.30209,0.21875 -0.65625,0.40625 -1.0625,0.5625c-0.39584,0.15625 -0.82812,0.23438 -1.29687,0.23438c-0.86459,0 -1.64584,-0.21875 -2.34375,-0.65625c-0.69791,-0.44791 -1.25,-1.05729 -1.65625,-1.82812c-0.39584,-0.78125 -0.59375,-1.67709 -0.59375,-2.6875c0,-1.02084 0.19791,-1.91666 0.59375,-2.6875c0.40625,-0.78125 0.95313,-1.39062 1.64063,-1.82812c0.6875,-0.44792 1.44791,-0.67187 2.28125,-0.67187c0.53125,0 1.02084,0.08333 1.46875,0.25c0.44791,0.15625 0.83334,0.35938 1.15625,0.60938c0.33334,0.25 0.58854,0.50521 0.76563,0.76563c0.1875,0.25 0.28125,0.46354 0.28125,0.64063l-0.67187,0.23438v-1.35937c0,-0.32292 0.10416,-0.59375 0.3125,-0.8125c0.21875,-0.21875 0.48959,-0.32812 0.8125,-0.32812zM133.8755,175.84636c0.55209,0 1.03125,-0.13541 1.4375,-0.40625c0.41666,-0.28125 0.73959,-0.65625 0.96875,-1.125c0.22916,-0.47916 0.34375,-1.01041 0.34375,-1.59375c0,-0.59375 -0.11459,-1.125 -0.34375,-1.59375c-0.22916,-0.47916 -0.55209,-0.85416 -0.96875,-1.125c-0.40625,-0.27083 -0.88541,-0.40625 -1.4375,-0.40625c-0.53125,0 -1.00521,0.13542 -1.42187,0.40625c-0.40625,0.27084 -0.72396,0.64584 -0.95312,1.125c-0.22916,0.46875 -0.34375,1 -0.34375,1.59375c0,0.58334 0.11459,1.11459 0.34375,1.59375c0.22916,0.46875 0.54688,0.84375 0.95313,1.125c0.41666,0.27084 0.89063,0.40625 1.42188,0.40625zM141.31084,167.90886h4.42188c0.29166,0 0.53646,0.09896 0.73438,0.29688c0.20834,0.19792 0.3125,0.44792 0.3125,0.75c0,0.28125 -0.10416,0.52083 -0.3125,0.71875c-0.19791,0.1875 -0.44271,0.28125 -0.73437,0.28125h-4.42187c-0.30209,0 -0.55209,-0.09896 -0.75,-0.29687c-0.19791,-0.19792 -0.29687,-0.44271 -0.29687,-0.73437c0,-0.29167 0.09896,-0.53125 0.29688,-0.71875c0.19791,-0.19792 0.44791,-0.29687 0.75,-0.29687zM143.31084,165.58073c0.32291,0 0.58334,0.10938 0.78125,0.32813c0.20834,0.21875 0.3125,0.48958 0.3125,0.8125v8.29688c0,0.17709 0.03125,0.32291 0.09375,0.4375c0.07291,0.10416 0.16666,0.18229 0.28125,0.23438c0.125,0.05209 0.25521,0.07813 0.39063,0.07813c0.14584,0 0.28125,-0.02604 0.40625,-0.07812c0.125,-0.0625 0.27084,-0.09375 0.4375,-0.09375c0.16666,0 0.32291,0.08334 0.46875,0.25c0.14584,0.15625 0.21875,0.38021 0.21875,0.67188c0,0.34375 -0.19271,0.63021 -0.57812,0.85938c-0.375,0.21875 -0.78125,0.32813 -1.21875,0.32813c-0.26041,0 -0.55209,-0.02084 -0.875,-0.0625c-0.3125,-0.04166 -0.60937,-0.14584 -0.89062,-0.3125c-0.27084,-0.17709 -0.5,-0.4375 -0.6875,-0.78125c-0.1875,-0.34375 -0.28125,-0.82291 -0.28125,-1.4375v-8.39062c0,-0.32292 0.10416,-0.59375 0.3125,-0.8125c0.21875,-0.21875 0.49479,-0.32812 0.82813,-0.32812zM150.94124,176.56511c0,0.32291 -0.10937,0.59375 -0.32812,0.8125c-0.20834,0.21875 -0.47396,0.32813 -0.79687,0.32813c-0.32291,0 -0.59375,-0.10937 -0.8125,-0.32812c-0.20834,-0.21875 -0.3125,-0.48959 -0.3125,-0.8125v-7.70312c0,-0.32292 0.10416,-0.59375 0.3125,-0.8125c0.21875,-0.21875 0.48959,-0.32812 0.8125,-0.32812c0.32291,0 0.58854,0.10938 0.79688,0.32813c0.21875,0.21875 0.32813,0.48958 0.32813,0.8125zM149.70686,166.51823c-0.42709,0 -0.72916,-0.06771 -0.90625,-0.20312c-0.16666,-0.14583 -0.25,-0.39062 -0.25,-0.73437v-0.35937c0,-0.35416 0.09375,-0.59375 0.28125,-0.71875c0.19791,-0.13541 0.49479,-0.20312 0.89063,-0.20312c0.4375,0 0.73959,0.06771 0.90625,0.20313c0.17709,0.13541 0.26563,0.375 0.26563,0.71875v0.35938c0,0.36458 -0.09375,0.61458 -0.28125,0.75c-0.1875,0.125 -0.48959,0.1875 -0.90625,0.1875zM162.81288,172.72136c0,1.02084 -0.22916,1.92188 -0.6875,2.70313c-0.44791,0.77084 -1.05729,1.375 -1.82812,1.8125c-0.76041,0.4375 -1.60937,0.65625 -2.54687,0.65625c-0.94791,0 -1.80729,-0.21875 -2.57812,-0.65625c-0.76041,-0.4375 -1.36979,-1.04166 -1.82812,-1.8125c-0.44791,-0.78125 -0.67187,-1.68229 -0.67187,-2.70312c0,-1.02084 0.22396,-1.91666 0.67188,-2.6875c0.45834,-0.78125 1.06771,-1.39062 1.82813,-1.82812c0.77084,-0.44792 1.63021,-0.67187 2.57813,-0.67187c0.9375,0 1.78646,0.22396 2.54688,0.67188c0.77084,0.4375 1.38021,1.04688 1.82813,1.82813c0.45834,0.77084 0.6875,1.66666 0.6875,2.6875zM160.57851,172.72136c0,-0.63541 -0.13021,-1.18229 -0.39062,-1.64062c-0.25,-0.46875 -0.58854,-0.83334 -1.01562,-1.09375c-0.42709,-0.26042 -0.90104,-0.39062 -1.42187,-0.39062c-0.53125,0 -1.01041,0.13021 -1.4375,0.39063c-0.42709,0.26041 -0.77084,0.625 -1.03125,1.09375c-0.25,0.45834 -0.375,1.00521 -0.375,1.64063c0,0.625 0.125,1.17188 0.375,1.64063c0.26041,0.45834 0.60416,0.82291 1.03125,1.09375c0.42709,0.26041 0.90625,0.39063 1.4375,0.39063c0.52084,0 0.99479,-0.13021 1.42188,-0.39062c0.42709,-0.27084 0.76563,-0.63541 1.01563,-1.09375c0.26041,-0.46875 0.39063,-1.01562 0.39063,-1.64062zM170.01781,167.53386c0.91666,0 1.61459,0.19271 2.09375,0.57813c0.47916,0.38542 0.80729,0.90104 0.98438,1.54688c0.1875,0.63541 0.28125,1.34896 0.28125,2.14063v4.76563c0,0.32291 -0.10937,0.59375 -0.32812,0.8125c-0.20834,0.21875 -0.47396,0.32813 -0.79687,0.32813c-0.32291,0 -0.58854,-0.10937 -0.79687,-0.32812c-0.20834,-0.21875 -0.3125,-0.48959 -0.3125,-0.8125v-4.76562c0,-0.41666 -0.05729,-0.78646 -0.17187,-1.10937c-0.10416,-0.33334 -0.29166,-0.59896 -0.5625,-0.79687c-0.27084,-0.19792 -0.66146,-0.29687 -1.17187,-0.29687c-0.5,0 -0.92187,0.09896 -1.26562,0.29688c-0.33334,0.19791 -0.59375,0.46354 -0.78125,0.79688c-0.17709,0.32291 -0.26562,0.69271 -0.26562,1.10938v4.76563c0,0.32291 -0.10937,0.59375 -0.32812,0.8125c-0.20834,0.21875 -0.47396,0.32813 -0.79687,0.32813c-0.32291,0 -0.58854,-0.10937 -0.79687,-0.32812c-0.20834,-0.21875 -0.3125,-0.48959 -0.3125,-0.8125v-7.70312c0,-0.32292 0.10416,-0.59375 0.3125,-0.8125c0.20834,-0.21875 0.47396,-0.32812 0.79688,-0.32812c0.32291,0 0.58854,0.10938 0.79688,0.32813c0.21875,0.21875 0.32813,0.48958 0.32813,0.8125v0.79688l-0.28125,-0.04687c0.11459,-0.20833 0.27604,-0.43229 0.48438,-0.67187c0.20834,-0.25 0.45313,-0.47917 0.73438,-0.6875c0.29166,-0.21875 0.61459,-0.39062 0.96875,-0.51562c0.36459,-0.13542 0.76041,-0.20312 1.1875,-0.20312zM175.2307,176.15886c-0.125,-0.17709 -0.18229,-0.40104 -0.17187,-0.67187c0.01041,-0.27084 0.17188,-0.50521 0.48438,-0.70312c0.19791,-0.125 0.40625,-0.17709 0.625,-0.15625c0.22916,0.01041 0.44791,0.11979 0.65625,0.32813c0.36459,0.36459 0.74479,0.64584 1.14063,0.84375c0.39584,0.19791 0.89584,0.29688 1.5,0.29688c0.1875,-0.01041 0.39063,-0.03646 0.60938,-0.07812c0.22916,-0.04166 0.42709,-0.14062 0.59375,-0.29687c0.16666,-0.15625 0.25,-0.39584 0.25,-0.71875c0,-0.27084 -0.09375,-0.48437 -0.28125,-0.64062c-0.1875,-0.16666 -0.4375,-0.30729 -0.75,-0.42187c-0.30209,-0.11459 -0.63541,-0.21875 -1,-0.3125c-0.38541,-0.11459 -0.78125,-0.23959 -1.1875,-0.375c-0.40625,-0.14584 -0.77604,-0.32291 -1.10937,-0.53125c-0.33334,-0.21875 -0.60937,-0.51041 -0.82812,-0.875c-0.20834,-0.36459 -0.3125,-0.81771 -0.3125,-1.35937c0,-0.625 0.17188,-1.15104 0.51563,-1.57812c0.35416,-0.4375 0.80729,-0.77604 1.35938,-1.01562c0.55209,-0.23958 1.13541,-0.35937 1.75,-0.35937c0.38541,0 0.78646,0.04688 1.20313,0.14063c0.42709,0.09375 0.83334,0.24479 1.21875,0.45313c0.38541,0.20833 0.70834,0.47917 0.96875,0.8125c0.13541,0.1875 0.21354,0.41146 0.23438,0.67188c0.03125,0.26042 -0.08334,0.49479 -0.34375,0.70313c-0.1875,0.15625 -0.40625,0.22396 -0.65625,0.20313c-0.25,-0.02084 -0.45312,-0.10416 -0.60937,-0.25c-0.21875,-0.28125 -0.50521,-0.5 -0.85937,-0.65625c-0.35416,-0.16667 -0.76041,-0.25 -1.21875,-0.25c-0.1875,0 -0.39062,0.02604 -0.60937,0.07813c-0.21875,0.04167 -0.41146,0.13542 -0.57812,0.28125c-0.15625,0.13542 -0.23437,0.35938 -0.23437,0.67188c0,0.28125 0.09375,0.51041 0.28125,0.6875c0.1875,0.16666 0.4375,0.30209 0.75,0.40625c0.32291,0.10416 0.66666,0.20834 1.03125,0.3125c0.36459,0.09375 0.73959,0.20834 1.125,0.34375c0.38541,0.13541 0.73959,0.31771 1.0625,0.54688c0.33334,0.21875 0.59896,0.50521 0.79688,0.85938c0.19791,0.35416 0.29688,0.80729 0.29688,1.35938c0,0.63541 -0.1875,1.17709 -0.5625,1.625c-0.375,0.44791 -0.84375,0.78646 -1.40625,1.01563c-0.55209,0.22916 -1.11979,0.34375 -1.70312,0.34375c-0.73959,0 -1.47916,-0.125 -2.21875,-0.375c-0.72916,-0.26041 -1.33334,-0.71354 -1.8125,-1.35937zM186.08238,173.58073c-0.42709,0 -0.65625,-0.23437 -0.6875,-0.70312l-0.54687,-6.875c-0.02084,-0.38542 0.08334,-0.70834 0.3125,-0.96875c0.22916,-0.26041 0.53125,-0.39062 0.90625,-0.39062c0.375,0 0.67709,0.13021 0.90625,0.39063c0.23959,0.26041 0.33854,0.58333 0.29688,0.96875l-0.51562,6.875c-0.04166,0.46875 -0.26562,0.70313 -0.67187,0.70313zM185.95738,177.70573c-0.36459,0 -0.64584,-0.09375 -0.84375,-0.28125c-0.1875,-0.19791 -0.28125,-0.47916 -0.28125,-0.84375v-0.3125c0,-0.36459 0.09375,-0.64062 0.28125,-0.82812c0.19791,-0.19791 0.47916,-0.29687 0.84375,-0.29687h0.23438c0.36459,0 0.64063,0.09896 0.82813,0.29688c0.19791,0.1875 0.29688,0.46354 0.29688,0.82813v0.3125c0,0.36459 -0.09896,0.64584 -0.29687,0.84375c-0.1875,0.1875 -0.46354,0.28125 -0.82812,0.28125zM203.50609,164.59636c0.29166,0 0.55209,0.10938 0.78125,0.32813c0.22916,0.20834 0.34375,0.48438 0.34375,0.82813c0,0.10417 -0.01562,0.21875 -0.04687,0.34375c-0.03125,0.11458 -0.08334,0.22917 -0.15625,0.34375l-4.23437,6.0625l0.32813,-1.29687v5.35938c0,0.32291 -0.10937,0.59375 -0.32812,0.8125c-0.21875,0.21875 -0.46875,0.32813 -0.75,0.32813c-0.3125,0 -0.57812,-0.10937 -0.79687,-0.32812c-0.21875,-0.21875 -0.32812,-0.48959 -0.32812,-0.8125v-5.20312l0.15625,0.59375l-4.03125,-5.34375c-0.125,-0.16667 -0.21354,-0.32292 -0.26562,-0.46875c-0.05209,-0.15625 -0.07812,-0.29687 -0.07812,-0.42187c0,-0.33333 0.13021,-0.60416 0.39063,-0.8125c0.26041,-0.20834 0.53125,-0.3125 0.8125,-0.3125c0.34375,0 0.64584,0.17188 0.90625,0.51563l3.57813,4.9375l-0.51562,-0.0625l3.29688,-4.84375c0.26041,-0.36459 0.57291,-0.54687 0.9375,-0.54687zM214.938,172.72136c0,1.02084 -0.22917,1.92188 -0.6875,2.70313c-0.44792,0.77084 -1.05729,1.375 -1.82812,1.8125c-0.76042,0.4375 -1.60937,0.65625 -2.54687,0.65625c-0.94791,0 -1.80729,-0.21875 -2.57812,-0.65625c-0.76041,-0.4375 -1.36979,-1.04166 -1.82812,-1.8125c-0.44791,-0.78125 -0.67187,-1.68229 -0.67187,-2.70312c0,-1.02084 0.22396,-1.91666 0.67188,-2.6875c0.45834,-0.78125 1.06771,-1.39062 1.82813,-1.82812c0.77084,-0.44792 1.63021,-0.67187 2.57813,-0.67187c0.9375,0 1.78646,0.22396 2.54687,0.67188c0.77083,0.4375 1.38021,1.04688 1.82813,1.82813c0.45833,0.77084 0.6875,1.66666 0.6875,2.6875zM212.70363,172.72136c0,-0.63541 -0.13021,-1.18229 -0.39062,-1.64062c-0.25,-0.46875 -0.58854,-0.83334 -1.01562,-1.09375c-0.42708,-0.26042 -0.90104,-0.39062 -1.42187,-0.39062c-0.53125,0 -1.01041,0.13021 -1.4375,0.39063c-0.42709,0.26041 -0.77084,0.625 -1.03125,1.09375c-0.25,0.45834 -0.375,1.00521 -0.375,1.64063c0,0.625 0.125,1.17188 0.375,1.64063c0.26041,0.45834 0.60416,0.82291 1.03125,1.09375c0.42709,0.26041 0.90625,0.39063 1.4375,0.39063c0.52084,0 0.99479,-0.13021 1.42187,-0.39062c0.42708,-0.27084 0.76563,-0.63541 1.01563,-1.09375c0.26042,-0.46875 0.39063,-1.01562 0.39063,-1.64062zM224.22108,167.72136c0.32292,0 0.58854,0.10938 0.79688,0.32813c0.20833,0.21875 0.3125,0.48958 0.3125,0.8125v4.73438c0,1.32291 -0.36979,2.36979 -1.10937,3.14063c-0.72917,0.77084 -1.78125,1.15625 -3.15625,1.15625c-1.38542,0 -2.44271,-0.38541 -3.17187,-1.15625c-0.71875,-0.77084 -1.07812,-1.81771 -1.07812,-3.14062v-4.73437c0,-0.32292 0.10417,-0.59375 0.3125,-0.8125c0.20833,-0.21875 0.47396,-0.32812 0.79688,-0.32812c0.32292,0 0.58854,0.10938 0.79688,0.32813c0.21875,0.21875 0.32813,0.48958 0.32813,0.8125v4.73438c0,0.76041 0.16667,1.32813 0.5,1.70313c0.33333,0.36459 0.83854,0.54688 1.51563,0.54688c0.6875,0 1.19792,-0.18229 1.53125,-0.54687c0.33333,-0.375 0.5,-0.94271 0.5,-1.70312v-4.73437c0,-0.32292 0.10417,-0.59375 0.3125,-0.8125c0.21875,-0.21875 0.48958,-0.32812 0.8125,-0.32812zM238.2242,167.53386c0.89583,0 1.57813,0.19271 2.04688,0.57813c0.46875,0.38542 0.78646,0.90104 0.95313,1.54688c0.17708,0.63541 0.26563,1.34896 0.26563,2.14063v4.76563c0,0.32291 -0.10937,0.59375 -0.32812,0.8125c-0.20833,0.21875 -0.47396,0.32813 -0.79687,0.32813c-0.32292,0 -0.58854,-0.10937 -0.79687,-0.32812c-0.20833,-0.21875 -0.3125,-0.48959 -0.3125,-0.8125v-4.76562c0,-0.41666 -0.05208,-0.78646 -0.15625,-1.10937c-0.09375,-0.33334 -0.27083,-0.59896 -0.53125,-0.79687c-0.26042,-0.19792 -0.63542,-0.29687 -1.125,-0.29687c-0.46875,0 -0.875,0.09896 -1.21875,0.29688c-0.33333,0.19791 -0.58333,0.46354 -0.75,0.79688c-0.16667,0.32291 -0.25,0.69271 -0.25,1.10938v4.76563c0,0.32291 -0.10937,0.59375 -0.32812,0.8125c-0.20833,0.21875 -0.47396,0.32813 -0.79687,0.32813c-0.32292,0 -0.58854,-0.10937 -0.79687,-0.32812c-0.20833,-0.21875 -0.3125,-0.48959 -0.3125,-0.8125v-11.53125c0,-0.32291 0.10417,-0.59375 0.3125,-0.8125c0.20833,-0.21875 0.47396,-0.32812 0.79688,-0.32812c0.32292,0 0.58854,0.10938 0.79688,0.32813c0.21875,0.21875 0.32813,0.48959 0.32813,0.8125v4.625l-0.28125,-0.04687c0.11458,-0.20833 0.27083,-0.43229 0.46875,-0.67187c0.19792,-0.25 0.4375,-0.47917 0.71875,-0.6875c0.29167,-0.21875 0.60938,-0.39062 0.95313,-0.51562c0.35417,-0.13542 0.73438,-0.20312 1.14063,-0.20312zM252.0005,167.53386c0.32292,0 0.58854,0.10938 0.79688,0.32813c0.20833,0.20833 0.3125,0.47917 0.3125,0.8125v7.89063c0,0.32291 -0.10417,0.59375 -0.3125,0.8125c-0.20833,0.21875 -0.47396,0.32813 -0.79687,0.32813c-0.32292,0 -0.59375,-0.10937 -0.8125,-0.32812c-0.20833,-0.21875 -0.3125,-0.48959 -0.3125,-0.8125v-0.90625l0.40625,0.15625c0,0.16666 -0.08854,0.36459 -0.26562,0.59375c-0.16667,0.22916 -0.40104,0.45834 -0.70312,0.6875c-0.30208,0.21875 -0.65625,0.40625 -1.0625,0.5625c-0.39583,0.15625 -0.82812,0.23438 -1.29687,0.23438c-0.86458,0 -1.64583,-0.21875 -2.34375,-0.65625c-0.69792,-0.44791 -1.25,-1.05729 -1.65625,-1.82812c-0.39583,-0.78125 -0.59375,-1.67709 -0.59375,-2.6875c0,-1.02084 0.19792,-1.91666 0.59375,-2.6875c0.40625,-0.78125 0.95313,-1.39062 1.64063,-1.82812c0.6875,-0.44792 1.44792,-0.67187 2.28125,-0.67187c0.53125,0 1.02083,0.08333 1.46875,0.25c0.44792,0.15625 0.83333,0.35938 1.15625,0.60938c0.33333,0.25 0.58854,0.50521 0.76563,0.76563c0.1875,0.25 0.28125,0.46354 0.28125,0.64063l-0.67187,0.23438v-1.35937c0,-0.32292 0.10417,-0.59375 0.3125,-0.8125c0.21875,-0.21875 0.48958,-0.32812 0.8125,-0.32812zM248.21925,175.84636c0.55208,0 1.03125,-0.13541 1.4375,-0.40625c0.41667,-0.28125 0.73958,-0.65625 0.96875,-1.125c0.22917,-0.47916 0.34375,-1.01041 0.34375,-1.59375c0,-0.59375 -0.11458,-1.125 -0.34375,-1.59375c-0.22917,-0.47916 -0.55208,-0.85416 -0.96875,-1.125c-0.40625,-0.27083 -0.88542,-0.40625 -1.4375,-0.40625c-0.53125,0 -1.00521,0.13542 -1.42187,0.40625c-0.40625,0.27084 -0.72396,0.64584 -0.95312,1.125c-0.22917,0.46875 -0.34375,1 -0.34375,1.59375c0,0.58334 0.11458,1.11459 0.34375,1.59375c0.22917,0.46875 0.54688,0.84375 0.95313,1.125c0.41667,0.27084 0.89063,0.40625 1.42188,0.40625zM255.75874,167.72136c0.23958,0 0.45833,0.0625 0.65625,0.1875c0.19792,0.11458 0.34896,0.29167 0.45313,0.53125l2.73438,6.26563l-0.40625,0.1875l2.79688,-6.4375c0.20833,-0.5 0.53646,-0.73958 0.98438,-0.71875c0.3125,0 0.5625,0.09896 0.75,0.29688c0.19792,0.1875 0.29688,0.42708 0.29688,0.71875c0,0.08333 -0.01562,0.17708 -0.04687,0.28125c-0.03125,0.09375 -0.0625,0.1875 -0.09375,0.28125l-3.5,7.6875c-0.19792,0.44791 -0.51562,0.68229 -0.95312,0.70313c-0.22917,0.04166 -0.45312,0 -0.67187,-0.125c-0.21875,-0.125 -0.38542,-0.31771 -0.5,-0.57812l-3.46875,-7.6875c-0.02083,-0.0625 -0.04687,-0.14062 -0.07812,-0.23437c-0.03125,-0.10417 -0.04687,-0.22917 -0.04687,-0.375c0,-0.21875 0.09896,-0.4375 0.29688,-0.65625c0.19792,-0.21875 0.46354,-0.32812 0.79688,-0.32812zM270.3221,177.89323c-1.0625,0 -1.98437,-0.21875 -2.76562,-0.65625c-0.77083,-0.44791 -1.36458,-1.05209 -1.78125,-1.8125c-0.41667,-0.76041 -0.625,-1.61459 -0.625,-2.5625c0,-1.125 0.22396,-2.08334 0.67188,-2.875c0.45833,-0.79167 1.05208,-1.39583 1.78125,-1.8125c0.73958,-0.42708 1.52083,-0.64062 2.34375,-0.64062c0.63542,0 1.23438,0.13021 1.79688,0.39063c0.5625,0.26042 1.0625,0.61979 1.5,1.07813c0.4375,0.45833 0.78125,0.98438 1.03125,1.57813c0.26042,0.59375 0.39063,1.22916 0.39063,1.90625c-0.01042,0.29166 -0.13021,0.53125 -0.35937,0.71875c-0.21875,0.1875 -0.47917,0.28125 -0.78125,0.28125h-7.125l-0.5625,-1.85937h6.84375l-0.40625,0.375v-0.51562c-0.02083,-0.35416 -0.15104,-0.67187 -0.39062,-0.95312c-0.22917,-0.29166 -0.51562,-0.52084 -0.85937,-0.6875c-0.33333,-0.16667 -0.69271,-0.25 -1.07812,-0.25c-0.375,0 -0.72396,0.05208 -1.04687,0.15625c-0.32292,0.09375 -0.60417,0.26041 -0.84375,0.5c-0.23958,0.22916 -0.42708,0.54688 -0.5625,0.95313c-0.13542,0.39584 -0.20312,0.89584 -0.20312,1.5c0,0.66666 0.14063,1.23438 0.42188,1.70313c0.28125,0.46875 0.64063,0.82813 1.07813,1.07813c0.44792,0.23959 0.91667,0.35938 1.40625,0.35938c0.46875,0 0.83854,-0.03646 1.10938,-0.10937c0.27083,-0.08334 0.48958,-0.17709 0.65625,-0.28125c0.16667,-0.10416 0.31771,-0.19271 0.45313,-0.26562c0.22917,-0.11459 0.44271,-0.17187 0.64063,-0.17187c0.27083,0 0.49479,0.09375 0.67188,0.28125c0.1875,0.1875 0.28125,0.40625 0.28125,0.65625c0,0.33334 -0.17187,0.63541 -0.51562,0.90625c-0.33333,0.28125 -0.79167,0.52604 -1.375,0.73438c-0.58333,0.19791 -1.18229,0.29688 -1.79687,0.29688zM286.91335,167.53386c0.875,0 1.65625,0.22396 2.34375,0.67188c0.6875,0.4375 1.23438,1.04167 1.64063,1.8125c0.40625,0.77084 0.60938,1.66666 0.60938,2.6875c0,1.02084 -0.20312,1.92188 -0.60937,2.70313c-0.40625,0.77084 -0.94792,1.38021 -1.625,1.82813c-0.67708,0.4375 -1.4375,0.65625 -2.28125,0.65625c-0.5,0 -0.96875,-0.07812 -1.40625,-0.23437c-0.42708,-0.16666 -0.80729,-0.375 -1.14062,-0.625c-0.32292,-0.25 -0.57812,-0.5 -0.76562,-0.75c-0.17708,-0.26041 -0.26562,-0.47916 -0.26562,-0.65625l0.57813,-0.23437v1.35938c0,0.32291 -0.10937,0.59375 -0.32812,0.8125c-0.20833,0.21875 -0.47396,0.32813 -0.79687,0.32813c-0.32292,0 -0.58854,-0.10416 -0.79687,-0.3125c-0.20833,-0.21875 -0.3125,-0.49479 -0.3125,-0.82812v-11.71875c0,-0.32291 0.10417,-0.59375 0.3125,-0.8125c0.20833,-0.21875 0.47396,-0.32812 0.79688,-0.32812c0.32292,0 0.58854,0.10938 0.79688,0.32813c0.21875,0.21875 0.32813,0.48959 0.32813,0.8125v4.75l-0.3125,-0.17187c0,-0.16667 0.08333,-0.36458 0.25,-0.59375c0.17708,-0.22917 0.41146,-0.45833 0.70313,-0.6875c0.30208,-0.22917 0.65104,-0.41667 1.04688,-0.5625c0.39583,-0.15625 0.80729,-0.23437 1.23438,-0.23437zM286.6321,169.59636c-0.54167,0 -1.02083,0.13542 -1.4375,0.40625c-0.40625,0.27084 -0.72396,0.64063 -0.95312,1.10938c-0.22917,0.46875 -0.34375,1 -0.34375,1.59375c0,0.58334 0.11458,1.11459 0.34375,1.59375c0.22917,0.47916 0.54688,0.85938 0.95313,1.14063c0.41667,0.27084 0.89583,0.40625 1.4375,0.40625c0.55208,0 1.03125,-0.13541 1.4375,-0.40625c0.40625,-0.28125 0.72396,-0.66146 0.95313,-1.14062c0.22917,-0.47916 0.34375,-1.01041 0.34375,-1.59375c0,-0.59375 -0.11458,-1.125 -0.34375,-1.59375c-0.22917,-0.46875 -0.54687,-0.83854 -0.95312,-1.10937c-0.40625,-0.27083 -0.88542,-0.40625 -1.4375,-0.40625zM302.95802,172.72136c0,1.02084 -0.22917,1.92188 -0.6875,2.70313c-0.44792,0.77084 -1.05729,1.375 -1.82812,1.8125c-0.76042,0.4375 -1.60937,0.65625 -2.54687,0.65625c-0.94792,0 -1.80729,-0.21875 -2.57812,-0.65625c-0.76042,-0.4375 -1.36979,-1.04166 -1.82812,-1.8125c-0.44792,-0.78125 -0.67187,-1.68229 -0.67187,-2.70312c0,-1.02084 0.22396,-1.91666 0.67188,-2.6875c0.45833,-0.78125 1.06771,-1.39062 1.82813,-1.82812c0.77083,-0.44792 1.63021,-0.67187 2.57813,-0.67187c0.9375,0 1.78646,0.22396 2.54688,0.67188c0.77083,0.4375 1.38021,1.04688 1.82813,1.82813c0.45833,0.77084 0.6875,1.66666 0.6875,2.6875zM300.72365,172.72136c0,-0.63541 -0.13021,-1.18229 -0.39062,-1.64062c-0.25,-0.46875 -0.58854,-0.83334 -1.01562,-1.09375c-0.42708,-0.26042 -0.90104,-0.39062 -1.42187,-0.39062c-0.53125,0 -1.01042,0.13021 -1.4375,0.39063c-0.42708,0.26041 -0.77083,0.625 -1.03125,1.09375c-0.25,0.45834 -0.375,1.00521 -0.375,1.64063c0,0.625 0.125,1.17188 0.375,1.64063c0.26042,0.45834 0.60417,0.82291 1.03125,1.09375c0.42708,0.26041 0.90625,0.39063 1.4375,0.39063c0.52083,0 0.99479,-0.13021 1.42188,-0.39062c0.42708,-0.27084 0.76563,-0.63541 1.01563,-1.09375c0.26042,-0.46875 0.39063,-1.01562 0.39063,-1.64062zM312.2411,167.72136c0.32292,0 0.58854,0.10938 0.79688,0.32813c0.20833,0.21875 0.3125,0.48958 0.3125,0.8125v4.73438c0,1.32291 -0.36979,2.36979 -1.10937,3.14063c-0.72917,0.77084 -1.78125,1.15625 -3.15625,1.15625c-1.38542,0 -2.44271,-0.38541 -3.17187,-1.15625c-0.71875,-0.77084 -1.07812,-1.81771 -1.07812,-3.14062v-4.73437c0,-0.32292 0.10417,-0.59375 0.3125,-0.8125c0.20833,-0.21875 0.47396,-0.32812 0.79688,-0.32812c0.32292,0 0.58854,0.10938 0.79688,0.32813c0.21875,0.21875 0.32813,0.48958 0.32813,0.8125v4.73438c0,0.76041 0.16667,1.32813 0.5,1.70313c0.33333,0.36459 0.83854,0.54688 1.51563,0.54688c0.6875,0 1.19792,-0.18229 1.53125,-0.54687c0.33333,-0.375 0.5,-0.94271 0.5,-1.70312v-4.73437c0,-0.32292 0.10417,-0.59375 0.3125,-0.8125c0.21875,-0.21875 0.48958,-0.32812 0.8125,-0.32812zM319.64632,167.53386c0.52083,0 0.99479,0.08333 1.42188,0.25c0.4375,0.15625 0.8125,0.35938 1.125,0.60938c0.32292,0.25 0.57292,0.50521 0.75,0.76563c0.1875,0.25 0.28125,0.46354 0.28125,0.64063l-0.48437,0.23438v-1.35937c0,-0.32292 0.10417,-0.59375 0.3125,-0.8125c0.21875,-0.21875 0.48958,-0.32812 0.8125,-0.32812c0.32292,0 0.58854,0.10938 0.79688,0.32813c0.20833,0.20833 0.3125,0.47917 0.3125,0.8125v8.29688c0,1.08334 -0.23437,1.95313 -0.70312,2.60938c-0.45833,0.65625 -1.06771,1.13021 -1.82812,1.42188c-0.76042,0.29166 -1.57812,0.4375 -2.45312,0.4375c-0.23958,0 -0.5625,-0.03125 -0.96875,-0.09375c-0.39583,-0.0625 -0.77604,-0.14062 -1.14062,-0.23437c-0.35417,-0.08334 -0.625,-0.16146 -0.8125,-0.23437c-0.375,-0.16666 -0.63542,-0.36979 -0.78125,-0.60937c-0.13542,-0.23959 -0.16146,-0.49479 -0.07812,-0.76562c0.11458,-0.36459 0.29688,-0.61459 0.54688,-0.75c0.25,-0.125 0.51042,-0.14062 0.78125,-0.04687c0.125,0.04166 0.32813,0.11979 0.60938,0.23438c0.29167,0.11459 0.60417,0.21354 0.9375,0.29688c0.34375,0.09375 0.64583,0.14063 0.90625,0.14063c0.9375,0 1.63021,-0.1875 2.07813,-0.5625c0.44792,-0.36459 0.67188,-0.875 0.67188,-1.53125v-1.625l0.21875,0.15625c0,0.16666 -0.08333,0.36459 -0.25,0.59375c-0.16667,0.22916 -0.39583,0.45834 -0.6875,0.6875c-0.29167,0.21875 -0.64062,0.40625 -1.04687,0.5625c-0.39583,0.15625 -0.81771,0.23438 -1.26562,0.23438c-0.875,0 -1.66667,-0.21875 -2.375,-0.65625c-0.70833,-0.44791 -1.27083,-1.05729 -1.6875,-1.82812c-0.40625,-0.78125 -0.60937,-1.67709 -0.60937,-2.6875c0,-1.02084 0.20313,-1.91666 0.60938,-2.6875c0.41667,-0.78125 0.96875,-1.39062 1.65625,-1.82812c0.69792,-0.44792 1.47917,-0.67187 2.34375,-0.67187zM319.99007,169.59636c-0.55208,0 -1.04167,0.13542 -1.46875,0.40625c-0.42708,0.27084 -0.76042,0.64584 -1,1.125c-0.22917,0.46875 -0.34375,1 -0.34375,1.59375c0,0.58334 0.11458,1.11459 0.34375,1.59375c0.23958,0.46875 0.57292,0.84375 1,1.125c0.42708,0.27084 0.91667,0.40625 1.46875,0.40625c0.57292,0 1.07292,-0.13541 1.5,-0.40625c0.42708,-0.28125 0.75521,-0.65625 0.98438,-1.125c0.23958,-0.47916 0.35938,-1.01041 0.35938,-1.59375c0,-0.59375 -0.11979,-1.125 -0.35937,-1.59375c-0.22917,-0.47916 -0.55729,-0.85416 -0.98437,-1.125c-0.42708,-0.27083 -0.92708,-0.40625 -1.5,-0.40625zM332.6432,167.53386c0.89583,0 1.57813,0.19271 2.04688,0.57813c0.46875,0.38542 0.78646,0.90104 0.95313,1.54688c0.17708,0.63541 0.26563,1.34896 0.26563,2.14063v4.76563c0,0.32291 -0.10937,0.59375 -0.32812,0.8125c-0.20833,0.21875 -0.47396,0.32813 -0.79687,0.32813c-0.32292,0 -0.58854,-0.10937 -0.79687,-0.32812c-0.20833,-0.21875 -0.3125,-0.48959 -0.3125,-0.8125v-4.76562c0,-0.41666 -0.05208,-0.78646 -0.15625,-1.10937c-0.09375,-0.33334 -0.27083,-0.59896 -0.53125,-0.79687c-0.26042,-0.19792 -0.63542,-0.29687 -1.125,-0.29687c-0.46875,0 -0.875,0.09896 -1.21875,0.29688c-0.33333,0.19791 -0.58333,0.46354 -0.75,0.79688c-0.16667,0.32291 -0.25,0.69271 -0.25,1.10938v4.76563c0,0.32291 -0.10937,0.59375 -0.32812,0.8125c-0.20833,0.21875 -0.47396,0.32813 -0.79687,0.32813c-0.32292,0 -0.58854,-0.10937 -0.79687,-0.32812c-0.20833,-0.21875 -0.3125,-0.48959 -0.3125,-0.8125v-11.53125c0,-0.32291 0.10417,-0.59375 0.3125,-0.8125c0.20833,-0.21875 0.47396,-0.32812 0.79688,-0.32812c0.32292,0 0.58854,0.10938 0.79688,0.32813c0.21875,0.21875 0.32813,0.48959 0.32813,0.8125v4.625l-0.28125,-0.04687c0.11458,-0.20833 0.27083,-0.43229 0.46875,-0.67187c0.19792,-0.25 0.4375,-0.47917 0.71875,-0.6875c0.29167,-0.21875 0.60938,-0.39062 0.95313,-0.51562c0.35417,-0.13542 0.73438,-0.20312 1.14063,-0.20312zM338.45076,167.90886h4.42188c0.29167,0 0.53646,0.09896 0.73438,0.29688c0.20833,0.19792 0.3125,0.44792 0.3125,0.75c0,0.28125 -0.10417,0.52083 -0.3125,0.71875c-0.19792,0.1875 -0.44271,0.28125 -0.73437,0.28125h-4.42187c-0.30208,0 -0.55208,-0.09896 -0.75,-0.29687c-0.19792,-0.19792 -0.29687,-0.44271 -0.29687,-0.73437c0,-0.29167 0.09896,-0.53125 0.29688,-0.71875c0.19792,-0.19792 0.44792,-0.29687 0.75,-0.29687zM340.45076,165.58073c0.32292,0 0.58333,0.10938 0.78125,0.32813c0.20833,0.21875 0.3125,0.48958 0.3125,0.8125v8.29688c0,0.17709 0.03125,0.32291 0.09375,0.4375c0.07292,0.10416 0.16667,0.18229 0.28125,0.23438c0.125,0.05209 0.25521,0.07813 0.39063,0.07813c0.14583,0 0.28125,-0.02604 0.40625,-0.07812c0.125,-0.0625 0.27083,-0.09375 0.4375,-0.09375c0.16667,0 0.32292,0.08334 0.46875,0.25c0.14583,0.15625 0.21875,0.38021 0.21875,0.67188c0,0.34375 -0.19271,0.63021 -0.57812,0.85938c-0.375,0.21875 -0.78125,0.32813 -1.21875,0.32813c-0.26042,0 -0.55208,-0.02084 -0.875,-0.0625c-0.3125,-0.04166 -0.60937,-0.14584 -0.89062,-0.3125c-0.27083,-0.17709 -0.5,-0.4375 -0.6875,-0.78125c-0.1875,-0.34375 -0.28125,-0.82291 -0.28125,-1.4375v-8.39062c0,-0.32292 0.10417,-0.59375 0.3125,-0.8125c0.21875,-0.21875 0.49479,-0.32812 0.82813,-0.32812zM358.60182,167.72136c0.32292,0 0.58854,0.10938 0.79688,0.32813c0.20833,0.21875 0.3125,0.48958 0.3125,0.8125v7.92188c0,1.14584 -0.21354,2.05729 -0.64062,2.73438c-0.42708,0.67709 -1.00521,1.16666 -1.73437,1.46875c-0.71875,0.30209 -1.52604,0.45313 -2.42187,0.45313c-0.39583,0 -0.81771,-0.03125 -1.26562,-0.09375c-0.44792,-0.0625 -0.8125,-0.15625 -1.09375,-0.28125c-0.375,-0.16666 -0.63542,-0.36979 -0.78125,-0.60937c-0.14583,-0.23959 -0.17187,-0.49479 -0.07812,-0.76562c0.11458,-0.36459 0.29167,-0.61459 0.53125,-0.75c0.25,-0.125 0.51563,-0.14062 0.79688,-0.04687c0.19792,0.0625 0.45833,0.15625 0.78125,0.28125c0.32292,0.13541 0.69271,0.20313 1.10938,0.20313c0.57292,0 1.04688,-0.07812 1.42188,-0.23437c0.38542,-0.14584 0.67188,-0.40625 0.85938,-0.78125c0.19792,-0.36459 0.29688,-0.86459 0.29688,-1.5v-1.25l0.39063,0.45313c-0.20833,0.40625 -0.47396,0.74479 -0.79687,1.01563c-0.3125,0.27084 -0.6875,0.47396 -1.125,0.60938c-0.4375,0.13541 -0.93229,0.20313 -1.48437,0.20313c-0.66667,0 -1.24479,-0.15104 -1.73437,-0.45312c-0.48958,-0.3125 -0.86979,-0.73437 -1.14062,-1.26562c-0.27083,-0.54166 -0.40625,-1.16146 -0.40625,-1.85937v-5.45312c0,-0.32292 0.10417,-0.59375 0.3125,-0.8125c0.20833,-0.21875 0.47396,-0.32812 0.79688,-0.32812c0.32292,0 0.58854,0.10938 0.79688,0.32813c0.21875,0.21875 0.32813,0.48958 0.32813,0.8125v4.78125c0,0.80209 0.17708,1.36979 0.53125,1.70313c0.35417,0.33334 0.84896,0.5 1.48438,0.5c0.4375,0 0.80208,-0.08334 1.09375,-0.25c0.30208,-0.17709 0.53125,-0.42709 0.6875,-0.75c0.16667,-0.33334 0.25,-0.73437 0.25,-1.20312v-4.78125c0,-0.32292 0.10417,-0.59375 0.3125,-0.8125c0.21875,-0.21875 0.48958,-0.32812 0.8125,-0.32812zM371.63155,172.72136c0,1.02084 -0.22917,1.92188 -0.6875,2.70313c-0.44792,0.77084 -1.05729,1.375 -1.82812,1.8125c-0.76042,0.4375 -1.60937,0.65625 -2.54687,0.65625c-0.94792,0 -1.80729,-0.21875 -2.57812,-0.65625c-0.76042,-0.4375 -1.36979,-1.04166 -1.82812,-1.8125c-0.44792,-0.78125 -0.67187,-1.68229 -0.67187,-2.70312c0,-1.02084 0.22396,-1.91666 0.67188,-2.6875c0.45833,-0.78125 1.06771,-1.39062 1.82813,-1.82812c0.77083,-0.44792 1.63021,-0.67187 2.57813,-0.67187c0.9375,0 1.78646,0.22396 2.54688,0.67188c0.77083,0.4375 1.38021,1.04688 1.82813,1.82813c0.45833,0.77084 0.6875,1.66666 0.6875,2.6875zM369.39717,172.72136c0,-0.63541 -0.13021,-1.18229 -0.39062,-1.64062c-0.25,-0.46875 -0.58854,-0.83334 -1.01562,-1.09375c-0.42708,-0.26042 -0.90104,-0.39062 -1.42187,-0.39062c-0.53125,0 -1.01042,0.13021 -1.4375,0.39063c-0.42708,0.26041 -0.77083,0.625 -1.03125,1.09375c-0.25,0.45834 -0.375,1.00521 -0.375,1.64063c0,0.625 0.125,1.17188 0.375,1.64063c0.26042,0.45834 0.60417,0.82291 1.03125,1.09375c0.42708,0.26041 0.90625,0.39063 1.4375,0.39063c0.52083,0 0.99479,-0.13021 1.42188,-0.39062c0.42708,-0.27084 0.76563,-0.63541 1.01563,-1.09375c0.26042,-0.46875 0.39063,-1.01562 0.39063,-1.64062zM380.91463,167.72136c0.32292,0 0.58854,0.10938 0.79688,0.32813c0.20833,0.21875 0.3125,0.48958 0.3125,0.8125v4.73438c0,1.32291 -0.36979,2.36979 -1.10937,3.14063c-0.72917,0.77084 -1.78125,1.15625 -3.15625,1.15625c-1.38542,0 -2.44271,-0.38541 -3.17187,-1.15625c-0.71875,-0.77084 -1.07812,-1.81771 -1.07812,-3.14062v-4.73437c0,-0.32292 0.10417,-0.59375 0.3125,-0.8125c0.20833,-0.21875 0.47396,-0.32812 0.79688,-0.32812c0.32292,0 0.58854,0.10938 0.79688,0.32813c0.21875,0.21875 0.32813,0.48958 0.32813,0.8125v4.73438c0,0.76041 0.16667,1.32813 0.5,1.70313c0.33333,0.36459 0.83854,0.54688 1.51563,0.54688c0.6875,0 1.19792,-0.18229 1.53125,-0.54687c0.33333,-0.375 0.5,-0.94271 0.5,-1.70312v-4.73437c0,-0.32292 0.10417,-0.59375 0.3125,-0.8125c0.21875,-0.21875 0.48958,-0.32812 0.8125,-0.32812zM385.56898,177.70573c-0.32292,0 -0.58854,-0.10937 -0.79687,-0.32812c-0.20833,-0.21875 -0.3125,-0.48959 -0.3125,-0.8125v-7.70312c0,-0.32292 0.10417,-0.59375 0.3125,-0.8125c0.20833,-0.21875 0.47396,-0.32812 0.79688,-0.32812c0.32292,0 0.58854,0.10938 0.79688,0.32813c0.21875,0.21875 0.32813,0.48958 0.32813,0.8125v1.75l-0.125,-1.25c0.13542,-0.29167 0.30729,-0.55208 0.51563,-0.78125c0.21875,-0.23958 0.46354,-0.43229 0.73438,-0.57812c0.28125,-0.15625 0.57813,-0.27083 0.89063,-0.34375c0.3125,-0.08333 0.625,-0.125 0.9375,-0.125c0.36458,0 0.67188,0.10938 0.92188,0.32813c0.26042,0.20833 0.39063,0.45313 0.39063,0.73438c0,0.41667 -0.10417,0.71354 -0.3125,0.89063c-0.20833,0.17708 -0.4375,0.26563 -0.6875,0.26563c-0.23958,0 -0.45833,-0.04167 -0.65625,-0.125c-0.1875,-0.08333 -0.40625,-0.125 -0.65625,-0.125c-0.21875,0 -0.44271,0.05208 -0.67187,0.15625c-0.22917,0.10417 -0.44271,0.27084 -0.64062,0.5c-0.1875,0.21875 -0.34375,0.49479 -0.46875,0.82813c-0.11458,0.32291 -0.17187,0.70834 -0.17187,1.15625v4.42188c0,0.32291 -0.10937,0.59375 -0.32812,0.8125c-0.20833,0.21875 -0.47396,0.32813 -0.79687,0.32813zM399.88954,176.56511c0,0.32291 -0.10937,0.59375 -0.32812,0.8125c-0.20833,0.21875 -0.47396,0.32813 -0.79687,0.32813c-0.32292,0 -0.59375,-0.10937 -0.8125,-0.32812c-0.20833,-0.21875 -0.3125,-0.48959 -0.3125,-0.8125v-7.70312c0,-0.32292 0.10417,-0.59375 0.3125,-0.8125c0.21875,-0.21875 0.48958,-0.32812 0.8125,-0.32812c0.32292,0 0.58854,0.10938 0.79688,0.32813c0.21875,0.21875 0.32813,0.48958 0.32813,0.8125zM398.65517,166.51823c-0.42708,0 -0.72917,-0.06771 -0.90625,-0.20312c-0.16667,-0.14583 -0.25,-0.39062 -0.25,-0.73437v-0.35937c0,-0.35416 0.09375,-0.59375 0.28125,-0.71875c0.19792,-0.13541 0.49479,-0.20312 0.89063,-0.20312c0.4375,0 0.73958,0.06771 0.90625,0.20313c0.17708,0.13541 0.26563,0.375 0.26563,0.71875v0.35938c0,0.36458 -0.09375,0.61458 -0.28125,0.75c-0.1875,0.125 -0.48958,0.1875 -0.90625,0.1875zM402.29243,167.90886h4.42188c0.29167,0 0.53646,0.09896 0.73438,0.29688c0.20833,0.19792 0.3125,0.44792 0.3125,0.75c0,0.28125 -0.10417,0.52083 -0.3125,0.71875c-0.19792,0.1875 -0.44271,0.28125 -0.73437,0.28125h-4.42187c-0.30208,0 -0.55208,-0.09896 -0.75,-0.29687c-0.19792,-0.19792 -0.29687,-0.44271 -0.29687,-0.73437c0,-0.29167 0.09896,-0.53125 0.29688,-0.71875c0.19792,-0.19792 0.44792,-0.29687 0.75,-0.29687zM404.29243,165.58073c0.32292,0 0.58333,0.10938 0.78125,0.32813c0.20833,0.21875 0.3125,0.48958 0.3125,0.8125v8.29688c0,0.17709 0.03125,0.32291 0.09375,0.4375c0.07292,0.10416 0.16667,0.18229 0.28125,0.23438c0.125,0.05209 0.25521,0.07813 0.39063,0.07813c0.14583,0 0.28125,-0.02604 0.40625,-0.07812c0.125,-0.0625 0.27083,-0.09375 0.4375,-0.09375c0.16667,0 0.32292,0.08334 0.46875,0.25c0.14583,0.15625 0.21875,0.38021 0.21875,0.67188c0,0.34375 -0.19271,0.63021 -0.57812,0.85938c-0.375,0.21875 -0.78125,0.32813 -1.21875,0.32813c-0.26042,0 -0.55208,-0.02084 -0.875,-0.0625c-0.3125,-0.04166 -0.60937,-0.14584 -0.89062,-0.3125c-0.27083,-0.17709 -0.5,-0.4375 -0.6875,-0.78125c-0.1875,-0.34375 -0.28125,-0.82291 -0.28125,-1.4375v-8.39062c0,-0.32292 0.10417,-0.59375 0.3125,-0.8125c0.21875,-0.21875 0.49479,-0.32812 0.82813,-0.32812zM414.32948,177.89323c-1.0625,0 -1.98437,-0.21875 -2.76562,-0.65625c-0.77083,-0.44791 -1.36458,-1.05209 -1.78125,-1.8125c-0.41667,-0.76041 -0.625,-1.61459 -0.625,-2.5625c0,-1.125 0.22396,-2.08334 0.67188,-2.875c0.45833,-0.79167 1.05208,-1.39583 1.78125,-1.8125c0.73958,-0.42708 1.52083,-0.64062 2.34375,-0.64062c0.63542,0 1.23438,0.13021 1.79688,0.39063c0.5625,0.26042 1.0625,0.61979 1.5,1.07813c0.4375,0.45833 0.78125,0.98438 1.03125,1.57813c0.26042,0.59375 0.39063,1.22916 0.39063,1.90625c-0.01042,0.29166 -0.13021,0.53125 -0.35937,0.71875c-0.21875,0.1875 -0.47917,0.28125 -0.78125,0.28125h-7.125l-0.5625,-1.85937h6.84375l-0.40625,0.375v-0.51562c-0.02083,-0.35416 -0.15104,-0.67187 -0.39062,-0.95312c-0.22917,-0.29166 -0.51562,-0.52084 -0.85937,-0.6875c-0.33333,-0.16667 -0.69271,-0.25 -1.07812,-0.25c-0.375,0 -0.72396,0.05208 -1.04687,0.15625c-0.32292,0.09375 -0.60417,0.26041 -0.84375,0.5c-0.23958,0.22916 -0.42708,0.54688 -0.5625,0.95313c-0.13542,0.39584 -0.20312,0.89584 -0.20312,1.5c0,0.66666 0.14063,1.23438 0.42188,1.70313c0.28125,0.46875 0.64063,0.82813 1.07813,1.07813c0.44792,0.23959 0.91667,0.35938 1.40625,0.35938c0.46875,0 0.83854,-0.03646 1.10938,-0.10937c0.27083,-0.08334 0.48958,-0.17709 0.65625,-0.28125c0.16667,-0.10416 0.31771,-0.19271 0.45313,-0.26562c0.22917,-0.11459 0.44271,-0.17187 0.64063,-0.17187c0.27083,0 0.49479,0.09375 0.67188,0.28125c0.1875,0.1875 0.28125,0.40625 0.28125,0.65625c0,0.33334 -0.17187,0.63541 -0.51562,0.90625c-0.33333,0.28125 -0.79167,0.52604 -1.375,0.73438c-0.58333,0.19791 -1.18229,0.29688 -1.79687,0.29688zM425.7751,167.53386c1,0 1.73438,0.23958 2.20313,0.71875c0.46875,0.47917 0.78125,1.09896 0.9375,1.85938l-0.32812,-0.17187l0.15625,-0.29687c0.14583,-0.28125 0.375,-0.58854 0.6875,-0.92187c0.3125,-0.33333 0.6875,-0.61458 1.125,-0.84375c0.44792,-0.22917 0.94271,-0.34375 1.48438,-0.34375c0.89583,0 1.57813,0.19271 2.04688,0.57813c0.46875,0.38542 0.78646,0.90104 0.95313,1.54688c0.17708,0.63541 0.26563,1.34896 0.26563,2.14063v4.76563c0,0.32291 -0.10417,0.59375 -0.3125,0.8125c-0.20833,0.21875 -0.47396,0.32813 -0.79687,0.32813c-0.32292,0 -0.59375,-0.10937 -0.8125,-0.32812c-0.20833,-0.21875 -0.3125,-0.48959 -0.3125,-0.8125v-4.76562c0,-0.41666 -0.05208,-0.78646 -0.15625,-1.10937c-0.09375,-0.33334 -0.27083,-0.59896 -0.53125,-0.79687c-0.26042,-0.19792 -0.63542,-0.29687 -1.125,-0.29687c-0.46875,0 -0.875,0.09896 -1.21875,0.29688c-0.33333,0.19791 -0.58333,0.46354 -0.75,0.79688c-0.16667,0.32291 -0.25,0.69271 -0.25,1.10938v4.76563c0,0.32291 -0.10937,0.59375 -0.32812,0.8125c-0.20833,0.21875 -0.47396,0.32813 -0.79687,0.32813c-0.32292,0 -0.58854,-0.10937 -0.79687,-0.32812c-0.20833,-0.21875 -0.3125,-0.48959 -0.3125,-0.8125v-4.76562c0,-0.41666 -0.05208,-0.78646 -0.15625,-1.10937c-0.09375,-0.33334 -0.27083,-0.59896 -0.53125,-0.79687c-0.26042,-0.19792 -0.63542,-0.29687 -1.125,-0.29687c-0.46875,0 -0.875,0.09896 -1.21875,0.29688c-0.33333,0.19791 -0.58333,0.46354 -0.75,0.79688c-0.16667,0.32291 -0.25,0.69271 -0.25,1.10938v4.76563c0,0.32291 -0.10937,0.59375 -0.32812,0.8125c-0.20833,0.21875 -0.47396,0.32813 -0.79687,0.32813c-0.32292,0 -0.58854,-0.10937 -0.79687,-0.32812c-0.20833,-0.21875 -0.3125,-0.48959 -0.3125,-0.8125v-7.70312c0,-0.32292 0.10417,-0.59375 0.3125,-0.8125c0.20833,-0.21875 0.47396,-0.32812 0.79688,-0.32812c0.32292,0 0.58854,0.10938 0.79688,0.32813c0.21875,0.21875 0.32813,0.48958 0.32813,0.8125v0.79688l-0.28125,-0.04687c0.11458,-0.20833 0.27083,-0.43229 0.46875,-0.67187c0.19792,-0.25 0.4375,-0.47917 0.71875,-0.6875c0.29167,-0.21875 0.60938,-0.39062 0.95313,-0.51562c0.35417,-0.13542 0.73438,-0.20312 1.14063,-0.20312zM438.72615,177.69011c-0.36458,0 -0.64583,-0.09375 -0.84375,-0.28125c-0.1875,-0.19791 -0.28125,-0.47916 -0.28125,-0.84375v-0.3125c0,-0.36459 0.09375,-0.64062 0.28125,-0.82812c0.19792,-0.19791 0.47917,-0.29687 0.84375,-0.29687h0.23438c0.36458,0 0.64063,0.09896 0.82813,0.29688c0.19792,0.1875 0.29688,0.46354 0.29688,0.82813v0.3125c0,0.36459 -0.09896,0.64584 -0.29687,0.84375c-0.1875,0.1875 -0.46354,0.28125 -0.82812,0.28125z" fill="#000000" fill-rule="nonzero"/></g></g></svg>