<svg version="1.1" xmlns="http://www.w3.org/2000/svg" xmlns:xlink="http://www.w3.org/1999/xlink" width="204.74878" height="90.33082" viewBox="0,0,204.74878,90.33082"><defs><linearGradient x1="-633.59479" y1="-387.79377" x2="-633.59479" y2="534.87111" gradientUnits="userSpaceOnUse" id="color-1"><stop offset="0" stop-color="#2a2a2a"/><stop offset="1" stop-color="#2a2a2a" stop-opacity="0"/></linearGradient><linearGradient x1="194.45083" y1="155" x2="222.57595" y2="155" gradientUnits="userSpaceOnUse" id="color-2"><stop offset="0" stop-color="#fff9df"/><stop offset="0.593" stop-color="#ffe177"/><stop offset="1" stop-color="#feb137"/></linearGradient><linearGradient x1="197.72031" y1="155" x2="220.34698" y2="155" gradientUnits="userSpaceOnUse" id="color-3"><stop offset="0" stop-color="#ffe177"/><stop offset="1" stop-color="#feb137"/></linearGradient><linearGradient x1="202.51553" y1="155" x2="214.89983" y2="155" gradientUnits="userSpaceOnUse" id="color-4"><stop offset="0" stop-color="#ffe177"/><stop offset="1" stop-color="#feb137"/></linearGradient><linearGradient x1="205.56706" y1="155" x2="220.83435" y2="155" gradientUnits="userSpaceOnUse" id="color-5"><stop offset="0" stop-color="#feb137"/><stop offset="1" stop-color="#eca026"/></linearGradient><linearGradient x1="202.13939" y1="155" x2="215.0555" y2="155" gradientUnits="userSpaceOnUse" id="color-6"><stop offset="0" stop-color="#fff9df"/><stop offset="0.593" stop-color="#ffe177"/><stop offset="1" stop-color="#feb137"/></linearGradient></defs><g transform="translate(-137.62561,-134.83459)"><g data-paper-data="{&quot;isPaintingLayer&quot;:true}" fill-rule="nonzero" stroke-linejoin="miter" stroke-miterlimit="10" stroke-dasharray="" stroke-dashoffset="0" style="mix-blend-mode: normal"><path d="M137.62561,225.16541v-90.33082h204.74878v90.33082z" data-paper-data="{&quot;index&quot;:null}" fill="url(#color-1)" stroke="#009dec" stroke-width="0" stroke-linecap="butt"/><g stroke="none" stroke-width="1" stroke-linecap="butt"><g><path d="M195.10473,155c0,-7.67415 6.22112,-13.89527 13.89527,-13.89527c7.67415,0 13.89527,6.22112 13.89527,13.89527c0,7.67415 -6.22112,13.89527 -13.89527,13.89527c-7.67415,0 -13.89527,-6.22112 -13.89527,-13.89527z" fill="url(#color-2)"/><path d="M222.89527,155c0,7.67416 -6.22111,13.89527 -13.89527,13.89527c-0.367,0 -0.73057,-0.01449 -1.09037,-0.04239c7.16446,-0.55615 12.8049,-6.54569 12.8049,-13.85288c0,-7.30717 -5.64044,-13.29674 -12.8049,-13.85288c0.35981,-0.0279 0.72338,-0.04239 1.09037,-0.04239c7.67416,0 13.89527,6.22111 13.89527,13.89527z" fill="url(#color-3)"/></g><path d="M199.18559,155c0,-5.42036 4.39407,-9.81441 9.81441,-9.81441c5.42036,0 9.81441,4.39407 9.81441,9.81441c0,5.42036 -4.39407,9.81441 -9.81441,9.81441c-5.42036,0 -9.81441,-4.39407 -9.81441,-9.81441z" fill="url(#color-4)"/><path d="M218.81441,154.99989c0,5.42036 -4.39407,9.81441 -9.81441,9.81441c-0.36864,0 -0.73231,-0.02098 -1.09037,-0.06059c4.90709,-0.54246 8.72405,-4.7021 8.72405,-9.75376c0,-5.05166 -3.81695,-9.21127 -8.72405,-9.75376c0.35805,-0.03956 0.72173,-0.06059 1.09037,-0.06059c5.42036,0 9.81441,4.39395 9.81441,9.81431z" fill="url(#color-5)"/><path d="M213.5679,157.53041c0,2.30721 -1.48859,3.70268 -3.66553,4.05621v0.53962c0,0.26053 -0.35347,0.50241 -0.70702,0.50241c-0.40933,0 -0.70702,-0.24188 -0.70702,-0.50241v-0.46512c-2.23283,-0.07444 -4.05628,-1.22802 -4.05628,-2.41886c0,-0.63259 0.55814,-1.56291 1.26519,-1.56291c0.78151,0 1.41422,1.09777 2.7911,1.33967v-3.0143c-1.71184,-0.65123 -3.72137,-1.45132 -3.72137,-3.83298c0,-2.36306 1.74906,-3.49811 3.72137,-3.77718v-0.52098c0,-0.26047 0.29768,-0.50235 0.70702,-0.50235c0.35349,0 0.70702,0.24188 0.70702,0.50235v0.46519c1.15358,0.03721 3.33062,0.33491 3.33062,1.61877c0,0.50235 -0.33484,1.52576 -1.15363,1.52576c-0.61394,0 -0.96745,-0.59542 -2.17693,-0.68844v2.7166c1.69315,0.63259 3.66553,1.50711 3.66547,4.01894zM208.67436,150.8507c-0.83725,0.16751 -1.19085,0.59542 -1.19085,1.04197c0,0.53958 0.48383,0.87453 1.19085,1.17221zM210.85134,157.82821c0,-0.61407 -0.46512,-1.00476 -1.135,-1.32107v2.4933c0.63264,-0.14886 1.13506,-0.50235 1.135,-1.17221z" fill="url(#color-6)"/></g><path d="M231.44426,164.18664c-0.6262,0 -1.29511,-0.09963 -2.0067,-0.29887c-0.71159,-0.19924 -1.29511,-0.48389 -1.75052,-0.85391c-0.22772,-0.18502 -0.4056,-0.42696 -0.53369,-0.72583c-0.12809,-0.29887 -0.19212,-0.5835 -0.19212,-0.85391c0,-0.28463 0.12097,-0.55504 0.36292,-0.81122c0.25617,-0.25617 0.61198,-0.38426 1.06739,-0.38426c0.31311,0 0.69737,0.16366 1.15278,0.49101c0.27041,0.17078 0.56216,0.32733 0.87527,0.46965c0.32733,0.12809 0.66179,0.19214 1.00336,0.19214c0.71159,0 1.36626,-0.16366 1.964,-0.49099c0.61198,-0.32733 1.09585,-0.7614 1.45165,-1.30221c0.37003,-0.54081 0.55504,-1.12433 0.55504,-1.75052c0,-0.65467 -0.14943,-1.20972 -0.4483,-1.66513c-0.28463,-0.45542 -0.6689,-0.81122 -1.15278,-1.06739c-0.48389,-0.25617 -1.01046,-0.38426 -1.57974,-0.38426c-0.52659,0 -0.98912,0.08539 -1.3876,0.25617c-0.38426,0.17078 -0.74006,0.34868 -1.06739,0.5337c-0.31311,0.17078 -0.63332,0.25617 -0.96065,0.25617c-0.55504,0 -0.96777,-0.12097 -1.23818,-0.36291c-0.27041,-0.25617 -0.44119,-0.54793 -0.51235,-0.87526c-0.07115,-0.34157 -0.09251,-0.64755 -0.06404,-0.91795l0.78988,-6.31897c0.07115,-0.37003 0.24906,-0.6689 0.5337,-0.89661c0.28463,-0.22772 0.61909,-0.34157 1.00336,-0.34157h7.36502c0.41272,0 0.75429,0.13521 1.0247,0.40562c0.27041,0.27041 0.40562,0.61198 0.40562,1.0247c0,0.3985 -0.13521,0.73295 -0.4056,1.00336c-0.27041,0.25617 -0.61198,0.38426 -1.0247,0.38426h-6.57514l0.27753,-0.23482l-0.68313,5.29427l-0.34157,-0.96065c0.11385,-0.17078 0.33445,-0.33445 0.66179,-0.49099c0.34157,-0.15655 0.73295,-0.28463 1.17414,-0.38426c0.45542,-0.11385 0.88949,-0.17078 1.30223,-0.17078c1.13855,0 2.15614,0.26329 3.05275,0.78988c0.91085,0.51235 1.62244,1.21683 2.13479,2.11345c0.52659,0.88237 0.78988,1.88573 0.78988,3.01006c0,0.88237 -0.19212,1.70783 -0.57639,2.47635c-0.37003,0.75429 -0.88237,1.4232 -1.53705,2.0067c-0.65467,0.5835 -1.40184,1.03893 -2.24152,1.36626c-0.83968,0.31311 -1.72917,0.46965 -2.66848,0.46965zM248.05986,164.18664c-1.46589,0 -2.70407,-0.38426 -3.71453,-1.15278c-1.01046,-0.78276 -1.77898,-1.86438 -2.30557,-3.24487c-0.52659,-1.3805 -0.78986,-2.97446 -0.78986,-4.78192c0,-1.82168 0.26329,-3.41566 0.78988,-4.78192c0.52659,-1.3805 1.29511,-2.455 2.30557,-3.22352c1.01046,-0.78276 2.24864,-1.17413 3.71453,-1.17413c1.45165,0 2.68271,0.39138 3.69319,1.17414c1.01046,0.76852 1.77898,1.84303 2.30557,3.22353c0.52659,1.36626 0.78988,2.96024 0.78988,4.78192c0,1.80746 -0.26329,3.40142 -0.78986,4.78192c-0.52659,1.3805 -1.29511,2.46212 -2.30557,3.24487c-1.01046,0.76852 -2.24152,1.15278 -3.69317,1.15278zM248.05986,161.1339c0.71159,0 1.32357,-0.22772 1.83592,-0.68313c0.52659,-0.45542 0.93219,-1.13143 1.21683,-2.02804c0.28463,-0.91085 0.42696,-2.04939 0.42696,-3.41566c0,-1.3805 -0.14232,-2.51905 -0.42696,-3.41566c-0.28463,-0.89661 -0.69025,-1.56551 -1.21682,-2.0067c-0.51235,-0.45542 -1.12433,-0.68313 -1.83592,-0.68313c-0.69737,0 -1.30933,0.22772 -1.83592,0.68313c-0.52659,0.44119 -0.93931,1.11009 -1.23818,2.0067c-0.28463,0.89661 -0.42696,2.03516 -0.42696,3.41566c0,1.36626 0.14232,2.50481 0.42696,3.41566c0.29887,0.89661 0.71159,1.57262 1.23818,2.02805c0.52659,0.45542 1.13855,0.68313 1.83592,0.68313zM263.7103,164.18664c-1.46589,0 -2.70407,-0.38426 -3.71453,-1.15278c-1.01046,-0.78276 -1.77898,-1.86438 -2.30557,-3.24487c-0.52659,-1.3805 -0.78986,-2.97446 -0.78986,-4.78192c0,-1.82168 0.26329,-3.41566 0.78988,-4.78192c0.52659,-1.3805 1.29511,-2.455 2.30557,-3.22352c1.01046,-0.78276 2.24864,-1.17413 3.71453,-1.17413c1.45165,0 2.68271,0.39138 3.69319,1.17414c1.01046,0.76852 1.77898,1.84303 2.30557,3.22353c0.52659,1.36626 0.78988,2.96024 0.78988,4.78192c0,1.80746 -0.26329,3.40142 -0.78986,4.78192c-0.52659,1.3805 -1.29511,2.46212 -2.30557,3.24487c-1.01046,0.76852 -2.24152,1.15278 -3.69317,1.15278zM263.7103,161.1339c0.71159,0 1.32357,-0.22772 1.83592,-0.68313c0.52659,-0.45542 0.93219,-1.13143 1.21683,-2.02804c0.28463,-0.91085 0.42696,-2.04939 0.42696,-3.41566c0,-1.3805 -0.14232,-2.51905 -0.42696,-3.41566c-0.28463,-0.89661 -0.69025,-1.56551 -1.21682,-2.0067c-0.51235,-0.45542 -1.12433,-0.68313 -1.83592,-0.68313c-0.69737,0 -1.30933,0.22772 -1.83592,0.68313c-0.52659,0.44119 -0.93931,1.11009 -1.23818,2.0067c-0.28463,0.89661 -0.42696,2.03516 -0.42696,3.41566c0,1.36626 0.14232,2.50481 0.42696,3.41566c0.29887,0.89661 0.71159,1.57262 1.23818,2.02805c0.52659,0.45542 1.13855,0.68313 1.83592,0.68313z" fill="#ffffff" stroke="none" stroke-width="1" stroke-linecap="square"/><path d="M150.81128,177.79316c0.26764,0 0.5066,0.10036 0.71689,0.30109c0.21029,0.19117 0.31543,0.44448 0.31543,0.75991c0,0.09559 -0.01434,0.20073 -0.04301,0.31543c-0.02867,0.10514 -0.07646,0.21029 -0.14337,0.31543l-3.88553,5.56304l0.3011,-1.19003v4.91785c0,0.29631 -0.10036,0.54484 -0.30109,0.74556c-0.20073,0.20073 -0.43013,0.3011 -0.68821,0.3011c-0.28675,0 -0.53049,-0.10036 -0.73122,-0.30109c-0.20073,-0.20073 -0.30109,-0.44925 -0.30109,-0.74556v-4.77446l0.14338,0.54483l-3.69914,-4.9035c-0.1147,-0.15294 -0.19594,-0.29632 -0.24374,-0.43014c-0.04779,-0.14337 -0.07169,-0.27241 -0.07169,-0.38711c0,-0.30587 0.11948,-0.55439 0.35845,-0.74556c0.23896,-0.19117 0.48748,-0.28675 0.74556,-0.28675c0.31543,0 0.59262,0.15772 0.83159,0.47315l3.28334,4.53072l-0.47314,-0.05735l3.02527,-4.4447c0.23896,-0.33454 0.52572,-0.50181 0.86026,-0.50181zM161.30138,185.24878c0,0.93673 -0.21029,1.76354 -0.63086,2.48043c-0.41102,0.70732 -0.97019,1.26173 -1.67751,1.66318c-0.69778,0.40145 -1.47678,0.60218 -2.33705,0.60218c-0.86983,0 -1.6584,-0.20073 -2.36572,-0.60218c-0.69778,-0.40145 -1.25695,-0.95586 -1.67752,-1.66318c-0.41102,-0.71688 -0.61651,-1.54369 -0.61651,-2.48042c0,-0.93673 0.2055,-1.75877 0.61652,-2.4661c0.42057,-0.71688 0.97974,-1.27605 1.67752,-1.67751c0.70732,-0.41102 1.49591,-0.61652 2.36574,-0.61652c0.86026,0 1.63928,0.20551 2.33705,0.61653c0.70732,0.40145 1.2665,0.96063 1.67752,1.67752c0.42057,0.70732 0.63086,1.52936 0.63086,2.46609zM159.25108,185.24878c0,-0.58307 -0.11948,-1.08489 -0.35844,-1.50546c-0.2294,-0.43013 -0.54005,-0.76468 -0.93195,-1.00364c-0.3919,-0.23897 -0.82681,-0.35844 -1.30473,-0.35844c-0.48749,0 -0.92718,0.11948 -1.31907,0.35845c-0.3919,0.23897 -0.70733,0.57351 -0.9463,1.00364c-0.2294,0.42057 -0.3441,0.9224 -0.3441,1.50547c0,0.57351 0.1147,1.07534 0.3441,1.50547c0.23897,0.42057 0.5544,0.75512 0.9463,1.00364c0.39189,0.23897 0.83158,0.35845 1.31907,0.35845c0.47792,0 0.91284,-0.11948 1.30474,-0.35844c0.3919,-0.24852 0.70255,-0.58307 0.93196,-1.00364c0.23896,-0.43013 0.35845,-0.93195 0.35845,-1.50546zM169.81965,180.6607c0.29631,0 0.54006,0.10037 0.73123,0.3011c0.19117,0.20073 0.28675,0.44924 0.28675,0.74556v4.34434c0,1.21393 -0.33933,2.17455 -1.01798,2.88189c-0.6691,0.70732 -1.6345,1.06099 -2.89623,1.06099c-1.27128,0 -2.24147,-0.35367 -2.91056,-1.06099c-0.65954,-0.70732 -0.9893,-1.66796 -0.9893,-2.88188v-4.34433c0,-0.29631 0.09559,-0.54484 0.28676,-0.74556c0.19116,-0.20073 0.43491,-0.30109 0.73122,-0.30109c0.29631,0 0.54005,0.10037 0.73123,0.3011c0.20073,0.20073 0.3011,0.44925 0.3011,0.74556v4.34434c0,0.69778 0.15294,1.21871 0.4588,1.56282c0.30587,0.33454 0.76946,0.50182 1.39077,0.50182c0.63086,0 1.09923,-0.16727 1.4051,-0.50181c0.30587,-0.34411 0.45881,-0.86504 0.45881,-1.56281v-4.34433c0,-0.29631 0.09559,-0.54483 0.28675,-0.74556c0.20073,-0.20073 0.44924,-0.30109 0.74556,-0.30109zM181.57945,180.48865c0.47792,0 0.91283,0.07646 1.30474,0.2294c0.40145,0.14337 0.74556,0.32977 1.03232,0.55918c0.29631,0.22941 0.52572,0.46359 0.68821,0.70255c0.17206,0.22941 0.25808,0.42535 0.25808,0.58785l-0.44447,0.21507v-1.24738c0,-0.29631 0.09559,-0.54483 0.28675,-0.74556c0.20073,-0.20073 0.44925,-0.30109 0.74556,-0.30109c0.29631,0 0.54006,0.10037 0.73123,0.3011c0.19117,0.19117 0.28675,0.43969 0.28675,0.74556v7.61335c0,0.99408 -0.21507,1.79223 -0.6452,2.39441c-0.42057,0.60218 -0.97975,1.03709 -1.67751,1.30473c-0.69778,0.26764 -1.4481,0.40146 -2.25102,0.40146c-0.21984,0 -0.51616,-0.02868 -0.88894,-0.08603c-0.36322,-0.05735 -0.71211,-0.12903 -1.04665,-0.21506c-0.32499,-0.07647 -0.57351,-0.14816 -0.74556,-0.21506c-0.34411,-0.15294 -0.58307,-0.33933 -0.71688,-0.55917c-0.12427,-0.21984 -0.14816,-0.45403 -0.07169,-0.70255c0.10514,-0.33454 0.27242,-0.56394 0.50182,-0.68821c0.22941,-0.1147 0.46836,-0.12904 0.71688,-0.04301c0.1147,0.03823 0.3011,0.10993 0.55918,0.21508c0.26764,0.10514 0.55439,0.19595 0.86026,0.27242c0.31543,0.08603 0.59262,0.12904 0.83159,0.12904c0.86026,0 1.4959,-0.17206 1.90693,-0.51616c0.41102,-0.33454 0.61652,-0.80291 0.61652,-1.4051v-1.49113l0.20073,0.14338c0,0.15294 -0.07646,0.33454 -0.2294,0.54483c-0.15294,0.21029 -0.36322,0.42057 -0.63086,0.63086c-0.26764,0.20073 -0.58784,0.37278 -0.96062,0.51615c-0.36322,0.14337 -0.75034,0.21508 -1.16135,0.21508c-0.80292,0 -1.52936,-0.20073 -2.17934,-0.60219c-0.64998,-0.41102 -1.16613,-0.97019 -1.54848,-1.67751c-0.37278,-0.71688 -0.55917,-1.53891 -0.55917,-2.46609c0,-0.93673 0.1864,-1.75877 0.55918,-2.46609c0.38234,-0.71688 0.88894,-1.27606 1.5198,-1.67751c0.64042,-0.41102 1.35731,-0.61652 2.15067,-0.61652zM181.89488,182.38123c-0.5066,0 -0.95585,0.12426 -1.34775,0.37278c-0.3919,0.24852 -0.69778,0.59262 -0.91762,1.03232c-0.21029,0.43013 -0.31543,0.91762 -0.31543,1.46245c0,0.53528 0.10514,1.02275 0.31543,1.46245c0.21984,0.43013 0.52572,0.77424 0.91762,1.03232c0.3919,0.24852 0.84115,0.37278 1.34775,0.37278c0.52572,0 0.98453,-0.12426 1.37643,-0.37278c0.3919,-0.25808 0.69299,-0.60219 0.90328,-1.03232c0.21984,-0.4397 0.32977,-0.92717 0.32977,-1.46245c0,-0.54484 -0.10992,-1.03232 -0.32976,-1.46245c-0.21029,-0.4397 -0.51138,-0.7838 -0.90328,-1.03232c-0.3919,-0.24852 -0.8507,-0.37278 -1.37642,-0.37278zM192.58952,189.99458c-0.97496,0 -1.82089,-0.20073 -2.53777,-0.60218c-0.70732,-0.41102 -1.25216,-0.96541 -1.6345,-1.66318c-0.38234,-0.69778 -0.57351,-1.48156 -0.57351,-2.35138c0,-1.03232 0.2055,-1.9117 0.61652,-2.63815c0.42057,-0.72645 0.96541,-1.28083 1.6345,-1.66318c0.67865,-0.3919 1.39554,-0.58784 2.15066,-0.58784c0.58307,0 1.13268,0.11948 1.64884,0.35844c0.51616,0.23897 0.97497,0.56873 1.37642,0.98931c0.40145,0.42057 0.71688,0.90328 0.94629,1.44812c0.23897,0.54484 0.35845,1.12791 0.35845,1.74921c-0.00956,0.26764 -0.11948,0.48748 -0.32977,0.65954c-0.20073,0.17206 -0.43969,0.25808 -0.71689,0.25808h-6.53801l-0.51615,-1.70619h6.27993l-0.37278,0.34411v-0.47314c-0.01911,-0.32499 -0.1386,-0.61652 -0.35844,-0.8746c-0.21029,-0.26764 -0.47314,-0.47792 -0.78857,-0.63086c-0.30587,-0.15294 -0.63564,-0.2294 -0.9893,-0.2294c-0.34411,0 -0.66432,0.04779 -0.96062,0.14338c-0.29631,0.08603 -0.5544,0.23897 -0.77424,0.45881c-0.21984,0.21029 -0.39189,0.50183 -0.51615,0.87461c-0.12427,0.36322 -0.18639,0.82202 -0.18639,1.37642c0,0.61175 0.12904,1.13269 0.38712,1.56282c0.25808,0.43013 0.58786,0.7599 0.98931,0.98931c0.41102,0.21984 0.84115,0.32977 1.29039,0.32977c0.43013,0 0.76946,-0.03346 1.01799,-0.10036c0.24852,-0.07647 0.44924,-0.16249 0.60218,-0.25807c0.15294,-0.09559 0.29153,-0.17684 0.4158,-0.24374c0.21029,-0.10514 0.40624,-0.15771 0.58785,-0.15771c0.24852,0 0.45403,0.08603 0.61653,0.25808c0.17206,0.17206 0.25808,0.37278 0.25808,0.60218c0,0.30587 -0.15772,0.58307 -0.47315,0.83159c-0.30587,0.25808 -0.72644,0.4827 -1.26172,0.67388c-0.53528,0.18161 -1.08488,0.27242 -1.64883,0.27242zM198.38941,180.83276h4.05758c0.26764,0 0.49227,0.09081 0.67388,0.27242c0.19117,0.18161 0.28675,0.41102 0.28675,0.68821c0,0.25808 -0.09559,0.47792 -0.28675,0.65954c-0.18161,0.17206 -0.40624,0.25808 -0.67387,0.25808h-4.05757c-0.2772,0 -0.5066,-0.09081 -0.68821,-0.27241c-0.18161,-0.18161 -0.27241,-0.40624 -0.27241,-0.67387c0,-0.26764 0.0908,-0.48748 0.27242,-0.65954c0.18161,-0.18161 0.41102,-0.27241 0.68822,-0.27241zM200.22464,178.69644c0.29631,0 0.53528,0.10037 0.71689,0.3011c0.19117,0.20073 0.28675,0.44925 0.28675,0.74556v7.61334c0,0.16249 0.02867,0.29631 0.08603,0.40145c0.06691,0.09559 0.15294,0.16728 0.25808,0.21508c0.1147,0.04779 0.23418,0.07169 0.35845,0.07169c0.13381,0 0.25808,-0.0239 0.37278,-0.07169c0.1147,-0.05735 0.24851,-0.08602 0.40145,-0.08602c0.15294,0 0.29632,0.07646 0.43014,0.2294c0.13381,0.14337 0.20073,0.34888 0.20073,0.61652c0,0.31543 -0.17683,0.57829 -0.53049,0.78858c-0.34411,0.20073 -0.71689,0.3011 -1.11835,0.3011c-0.23897,0 -0.5066,-0.01912 -0.80291,-0.05735c-0.28675,-0.03823 -0.55917,-0.13381 -0.81725,-0.28675c-0.24852,-0.16249 -0.4588,-0.40146 -0.63086,-0.71689c-0.17206,-0.31543 -0.25808,-0.75512 -0.25808,-1.31907v-7.69936c0,-0.29631 0.09559,-0.54483 0.28675,-0.74556c0.20073,-0.20073 0.45403,-0.30109 0.75991,-0.30109zM212.98044,189.99458c-0.42057,0 -0.86982,-0.06691 -1.34774,-0.20073c-0.47792,-0.13381 -0.86983,-0.32499 -1.1757,-0.57351c-0.15294,-0.12427 -0.27241,-0.28675 -0.35844,-0.48748c-0.08603,-0.20073 -0.12903,-0.3919 -0.12903,-0.57351c0,-0.19117 0.08124,-0.37278 0.24374,-0.54484c0.17206,-0.17206 0.41102,-0.25808 0.71689,-0.25808c0.21029,0 0.46837,0.10993 0.77424,0.32978c0.18161,0.1147 0.37757,0.21984 0.58785,0.31543c0.21984,0.08603 0.44447,0.12905 0.67388,0.12905c0.47792,0 0.91762,-0.10993 1.31907,-0.32977c0.41102,-0.21984 0.736,-0.51138 0.97496,-0.8746c0.24852,-0.36322 0.37278,-0.75512 0.37278,-1.17569c0,-0.4397 -0.10036,-0.81247 -0.30109,-1.11834c-0.19117,-0.30587 -0.44925,-0.54484 -0.77424,-0.71689c-0.32499,-0.17206 -0.67864,-0.25808 -1.06099,-0.25808c-0.35367,0 -0.66432,0.05736 -0.93195,0.17206c-0.25808,0.1147 -0.49705,0.23418 -0.71689,0.35845c-0.21029,0.1147 -0.42535,0.17205 -0.64519,0.17205c-0.37278,0 -0.64997,-0.08125 -0.83159,-0.24374c-0.18161,-0.17206 -0.29632,-0.368 -0.34411,-0.58784c-0.04779,-0.22941 -0.06214,-0.43491 -0.04301,-0.61652l0.5305,-4.24397c0.04779,-0.24852 0.16728,-0.44925 0.35845,-0.60219c0.19117,-0.15294 0.41579,-0.2294 0.67387,-0.2294h4.94653c0.2772,0 0.5066,0.09081 0.68821,0.27242c0.18161,0.18161 0.27242,0.41101 0.27242,0.68821c0,0.26764 -0.09081,0.49227 -0.27241,0.67388c-0.18161,0.17206 -0.41102,0.25808 -0.68821,0.25808h-4.41602l0.1864,-0.15771l-0.45881,3.55576l-0.22941,-0.6452c0.07647,-0.1147 0.22463,-0.22462 0.44448,-0.32976c0.22941,-0.10514 0.49227,-0.19117 0.78858,-0.25808c0.30587,-0.07647 0.59741,-0.1147 0.87461,-0.1147c0.76468,0 1.44812,0.17683 2.0503,0.5305c0.61175,0.34411 1.08967,0.81726 1.43377,1.41944c0.35367,0.59262 0.5305,1.2665 0.5305,2.02163c0,0.59262 -0.12903,1.14702 -0.38711,1.66318c-0.24852,0.5066 -0.59262,0.95585 -1.03232,1.34775c-0.4397,0.3919 -0.94151,0.69777 -1.50546,0.91761c-0.56395,0.21029 -1.16135,0.31543 -1.79221,0.31543zM228.77557,180.48865c0.64998,0 1.21393,0.0717 1.69186,0.21507c0.48748,0.13381 0.86505,0.32499 1.13269,0.57351c0.26764,0.23897 0.40146,0.5305 0.40146,0.87461c0,0.22941 -0.06691,0.44448 -0.20073,0.64521c-0.13381,0.20073 -0.33455,0.3011 -0.60219,0.3011c-0.18161,0 -0.33454,-0.0239 -0.45881,-0.07169c-0.1147,-0.05735 -0.21984,-0.12426 -0.31543,-0.20073c-0.08603,-0.08603 -0.19116,-0.16249 -0.31543,-0.22941c-0.1147,-0.06691 -0.29154,-0.11948 -0.53049,-0.15771c-0.22941,-0.03823 -0.40146,-0.05735 -0.51616,-0.05735c-0.58307,0 -1.08011,0.12426 -1.49113,0.37278c-0.40145,0.24852 -0.71211,0.58786 -0.93195,1.01799c-0.21029,0.43013 -0.31543,0.92239 -0.31543,1.47679c0,0.55439 0.10993,1.04666 0.32978,1.47679c0.22941,0.42057 0.54005,0.75991 0.93195,1.01799c0.3919,0.24852 0.84593,0.37278 1.36209,0.37278c0.28675,0 0.5305,-0.01911 0.73123,-0.05735c0.21029,-0.03823 0.38234,-0.09081 0.51616,-0.15771c0.16249,-0.08603 0.30587,-0.18161 0.43013,-0.28675c0.12427,-0.10514 0.31065,-0.15771 0.55918,-0.15771c0.29631,0 0.52572,0.09559 0.68821,0.28675c0.16249,0.19117 0.24374,0.42057 0.24374,0.68821c0,0.28675 -0.16249,0.54961 -0.48748,0.78858c-0.31543,0.22941 -0.736,0.41581 -1.26172,0.55918c-0.51616,0.14337 -1.07533,0.21507 -1.67751,0.21507c-0.8985,0 -1.68229,-0.20551 -2.35139,-0.61652c-0.65954,-0.42057 -1.17091,-0.9893 -1.53413,-1.70619c-0.35367,-0.72645 -0.5305,-1.53413 -0.5305,-2.42307c0,-0.93673 0.19117,-1.75877 0.57351,-2.46609c0.38234,-0.71688 0.91283,-1.27606 1.59149,-1.67751c0.67865,-0.41102 1.45767,-0.61652 2.33706,-0.61652zM242.39514,185.24878c0,0.93673 -0.21029,1.76354 -0.63086,2.48043c-0.41102,0.70732 -0.97018,1.26173 -1.67751,1.66318c-0.69778,0.40145 -1.47679,0.60218 -2.33705,0.60218c-0.86982,0 -1.6584,-0.20073 -2.36572,-0.60218c-0.69778,-0.40145 -1.25694,-0.95586 -1.67751,-1.66318c-0.41102,-0.71688 -0.61652,-1.54369 -0.61652,-2.48042c0,-0.93673 0.2055,-1.75877 0.61652,-2.4661c0.42057,-0.71688 0.97974,-1.27605 1.67752,-1.67751c0.70732,-0.41102 1.49591,-0.61652 2.36574,-0.61652c0.86026,0 1.63928,0.20551 2.33706,0.61653c0.70732,0.40145 1.2665,0.96063 1.67752,1.67752c0.42057,0.70732 0.63086,1.52936 0.63086,2.46609zM240.34484,185.24878c0,-0.58307 -0.11948,-1.08489 -0.35844,-1.50546c-0.22941,-0.43013 -0.54005,-0.76468 -0.93195,-1.00364c-0.3919,-0.23897 -0.82681,-0.35844 -1.30473,-0.35844c-0.48748,0 -0.92718,0.11948 -1.31907,0.35845c-0.3919,0.23897 -0.70732,0.57351 -0.94629,1.00364c-0.22941,0.42057 -0.3441,0.9224 -0.3441,1.50547c0,0.57351 0.1147,1.07534 0.3441,1.50547c0.23897,0.42057 0.55439,0.75512 0.94629,1.00364c0.3919,0.23897 0.83159,0.35845 1.31907,0.35845c0.47792,0 0.91283,-0.11948 1.30474,-0.35844c0.3919,-0.24852 0.70255,-0.58307 0.93196,-1.00364c0.23897,-0.43013 0.35845,-0.93195 0.35845,-1.50546zM246.05294,188.77587c0,0.29631 -0.10036,0.54483 -0.30109,0.74556c-0.19117,0.20073 -0.43492,0.3011 -0.73122,0.3011c-0.29631,0 -0.54483,-0.10036 -0.74556,-0.30109c-0.19117,-0.20073 -0.28675,-0.44925 -0.28675,-0.74556v-7.0685c0,-0.29631 0.09559,-0.54483 0.28675,-0.74556c0.20073,-0.20073 0.44924,-0.30109 0.74556,-0.30109c0.29631,0 0.54006,0.10037 0.73123,0.3011c0.20073,0.20073 0.3011,0.44925 0.3011,0.74556zM244.92026,179.5567c-0.3919,0 -0.66909,-0.06213 -0.83158,-0.18639c-0.15294,-0.13381 -0.22941,-0.35844 -0.22941,-0.67387v-0.32977c0,-0.32499 0.08603,-0.54484 0.25808,-0.65954c0.18161,-0.12427 0.45403,-0.18639 0.81725,-0.18639c0.40145,0 0.67865,0.06213 0.83159,0.1864c0.16249,0.12427 0.24375,0.34411 0.24375,0.65954v0.32977c0,0.33454 -0.08603,0.56394 -0.25808,0.68821c-0.17206,0.1147 -0.44925,0.17206 -0.83159,0.17206zM253.04665,180.48865c0.84115,0 1.48156,0.17683 1.92126,0.5305c0.4397,0.35367 0.74079,0.82681 0.90329,1.41944c0.17206,0.58307 0.25808,1.23782 0.25808,1.96427v4.37302c0,0.29631 -0.10036,0.54484 -0.30109,0.74556c-0.19117,0.20073 -0.43492,0.3011 -0.73122,0.3011c-0.29631,0 -0.54005,-0.10036 -0.73122,-0.30109c-0.19117,-0.20073 -0.28675,-0.44925 -0.28675,-0.74556v-4.37301c0,-0.38234 -0.05257,-0.72167 -0.15771,-1.01798c-0.09559,-0.30587 -0.26764,-0.54961 -0.51616,-0.73122c-0.24852,-0.18161 -0.60697,-0.27242 -1.07532,-0.27242c-0.45881,0 -0.84592,0.09081 -1.16135,0.27242c-0.30587,0.18161 -0.54484,0.42535 -0.71689,0.73123c-0.16249,0.29631 -0.24373,0.63564 -0.24373,1.01798v4.37302c0,0.29631 -0.10036,0.54484 -0.30109,0.74556c-0.19117,0.20073 -0.43492,0.3011 -0.73122,0.3011c-0.29631,0 -0.54005,-0.10036 -0.73122,-0.30109c-0.19117,-0.20073 -0.28675,-0.44925 -0.28675,-0.74556v-7.0685c0,-0.29631 0.09559,-0.54484 0.28675,-0.74556c0.19117,-0.20073 0.43491,-0.30109 0.73123,-0.30109c0.29631,0 0.54006,0.10037 0.73123,0.3011c0.20073,0.20073 0.3011,0.44925 0.3011,0.74556v0.73123l-0.25808,-0.04301c0.10514,-0.19117 0.2533,-0.39668 0.44448,-0.61652c0.19117,-0.22941 0.4158,-0.4397 0.67388,-0.63086c0.26764,-0.20073 0.56395,-0.35844 0.88894,-0.47314c0.33454,-0.12427 0.69778,-0.18638 1.08967,-0.18638zM257.83008,188.40308c-0.1147,-0.16249 -0.16728,-0.36799 -0.15772,-0.61651c0.00956,-0.24852 0.15772,-0.46359 0.44448,-0.6452c0.18161,-0.1147 0.37278,-0.1625 0.57351,-0.14338c0.21029,0.00956 0.41102,0.10993 0.60219,0.3011c0.33454,0.33454 0.68343,0.59262 1.04666,0.77424c0.36322,0.18161 0.82203,0.27242 1.37643,0.27242c0.17206,-0.00956 0.35844,-0.03346 0.55917,-0.07169c0.21029,-0.03823 0.39189,-0.12904 0.54483,-0.27241c0.15294,-0.14337 0.2294,-0.36322 0.2294,-0.65954c0,-0.24852 -0.08602,-0.44447 -0.25808,-0.58784c-0.17206,-0.15294 -0.40146,-0.28197 -0.68821,-0.38711c-0.2772,-0.10514 -0.58308,-0.20073 -0.91762,-0.28675c-0.35367,-0.10514 -0.71688,-0.21984 -1.08967,-0.34411c-0.37278,-0.13381 -0.7121,-0.29632 -1.01797,-0.48748c-0.30587,-0.20073 -0.55917,-0.46837 -0.7599,-0.80292c-0.19116,-0.33454 -0.28675,-0.75034 -0.28675,-1.24738c0,-0.57351 0.15772,-1.05621 0.47315,-1.44811c0.32499,-0.40145 0.74078,-0.71211 1.24739,-0.93195c0.50659,-0.21984 1.04188,-0.32976 1.60583,-0.32976c0.35366,0 0.72167,0.04302 1.10401,0.12904c0.39189,0.08603 0.76468,0.22462 1.11834,0.4158c0.35366,0.19117 0.64997,0.4397 0.88894,0.74556c0.12426,0.17206 0.19594,0.37756 0.21507,0.61652c0.02867,0.23897 -0.07646,0.45403 -0.31543,0.64521c-0.17206,0.14337 -0.37278,0.20551 -0.60219,0.1864c-0.2294,-0.01911 -0.4158,-0.09559 -0.55917,-0.22941c-0.20073,-0.25808 -0.46359,-0.45881 -0.78857,-0.60218c-0.32499,-0.15294 -0.69777,-0.22941 -1.11834,-0.22941c-0.17206,0 -0.35844,0.0239 -0.55917,0.0717c-0.20073,0.03823 -0.37757,0.12427 -0.5305,0.25808c-0.14337,0.12427 -0.21506,0.32977 -0.21506,0.61652c0,0.25808 0.08603,0.46838 0.25808,0.63087c0.17206,0.15294 0.40145,0.27719 0.68821,0.37278c0.29631,0.09559 0.61174,0.19117 0.94629,0.28675c0.33454,0.08603 0.67865,0.19116 1.03232,0.31543c0.35367,0.12427 0.67865,0.29154 0.97497,0.50182c0.30587,0.20073 0.54961,0.46359 0.73123,0.78858c0.18161,0.32499 0.27242,0.74078 0.27242,1.24739c0,0.58307 -0.17205,1.0801 -0.51616,1.49112c-0.34411,0.41102 -0.77424,0.72167 -1.2904,0.93196c-0.5066,0.21029 -1.02754,0.31543 -1.56281,0.31543c-0.67865,0 -1.3573,-0.1147 -2.03596,-0.34411c-0.6691,-0.23897 -1.22348,-0.65475 -1.66318,-1.24738zM276.13691,180.48865c0.80291,0 1.5198,0.2055 2.15066,0.61652c0.63086,0.40145 1.13269,0.95586 1.50547,1.66318c0.37278,0.70732 0.55918,1.52936 0.55918,2.46609c0,0.93673 -0.18639,1.76355 -0.55917,2.48044c-0.37278,0.70732 -0.86982,1.2665 -1.49113,1.67752c-0.6213,0.40145 -1.31907,0.60218 -2.09331,0.60218c-0.45881,0 -0.88894,-0.07169 -1.29039,-0.21506c-0.39189,-0.15294 -0.74078,-0.3441 -1.04665,-0.57351c-0.29631,-0.22941 -0.53049,-0.45881 -0.70254,-0.68822c-0.16249,-0.23897 -0.24374,-0.4397 -0.24374,-0.60218l0.5305,-0.21506v4.50205c0,0.29631 -0.10036,0.54484 -0.30109,0.74556c-0.19117,0.20073 -0.43492,0.3011 -0.73122,0.3011c-0.29632,0 -0.54006,-0.10036 -0.73122,-0.30109c-0.19117,-0.19117 -0.28676,-0.43969 -0.28676,-0.74556v-10.49523c0,-0.29631 0.09559,-0.54484 0.28676,-0.74556c0.19116,-0.20073 0.43491,-0.30109 0.73123,-0.30109c0.29631,0 0.54006,0.10037 0.73123,0.3011c0.20073,0.20073 0.3011,0.44925 0.3011,0.74556v0.84593l-0.28676,-0.15771c0,-0.15294 0.07647,-0.33455 0.2294,-0.54484c0.16249,-0.21029 0.37757,-0.42057 0.64521,-0.63086c0.2772,-0.21029 0.5974,-0.38234 0.96063,-0.51616c0.36322,-0.14337 0.74078,-0.21506 1.13268,-0.21506zM275.87883,182.38123c-0.49704,0 -0.93673,0.12426 -1.31907,0.37278c-0.37278,0.24852 -0.66431,0.58786 -0.87459,1.01799c-0.21029,0.43013 -0.31543,0.91761 -0.31543,1.46245c0,0.53528 0.10514,1.02276 0.31543,1.46245c0.21029,0.4397 0.50183,0.78858 0.87461,1.04666c0.38234,0.24852 0.82203,0.37278 1.31907,0.37278c0.5066,0 0.94629,-0.12426 1.31907,-0.37278c0.37278,-0.25808 0.66432,-0.60697 0.87461,-1.04665c0.21029,-0.4397 0.31543,-0.92717 0.31543,-1.46245c0,-0.54484 -0.10514,-1.03232 -0.31543,-1.46245c-0.21029,-0.43013 -0.50182,-0.76945 -0.87459,-1.01798c-0.37278,-0.24852 -0.81248,-0.37278 -1.31907,-0.37278zM286.30037,189.99458c-0.97496,0 -1.82089,-0.20073 -2.53777,-0.60218c-0.70733,-0.41102 -1.25216,-0.96541 -1.6345,-1.66318c-0.38234,-0.69778 -0.57351,-1.48156 -0.57351,-2.35138c0,-1.03232 0.20551,-1.9117 0.61653,-2.63815c0.42057,-0.72645 0.96541,-1.28083 1.6345,-1.66318c0.67865,-0.3919 1.39553,-0.58784 2.15066,-0.58784c0.58307,0 1.13268,0.11948 1.64884,0.35844c0.51616,0.23897 0.97496,0.56873 1.37642,0.98931c0.40145,0.42057 0.71689,0.90328 0.94629,1.44812c0.23897,0.54484 0.35845,1.12791 0.35845,1.74921c-0.00956,0.26764 -0.11948,0.48748 -0.32976,0.65954c-0.20073,0.17206 -0.43969,0.25808 -0.71689,0.25808h-6.53801l-0.51616,-1.70619h6.27993l-0.37278,0.34411v-0.47314c-0.01912,-0.32499 -0.1386,-0.61652 -0.35844,-0.8746c-0.21029,-0.26764 -0.47314,-0.47792 -0.78857,-0.63086c-0.30587,-0.15294 -0.63564,-0.2294 -0.9893,-0.2294c-0.34411,0 -0.66431,0.04779 -0.96062,0.14338c-0.29632,0.08603 -0.5544,0.23897 -0.77424,0.45881c-0.21984,0.21029 -0.3919,0.50183 -0.51616,0.87461c-0.12427,0.36322 -0.18639,0.82202 -0.18639,1.37642c0,0.61175 0.12905,1.13269 0.38713,1.56282c0.25808,0.43013 0.58785,0.7599 0.9893,0.98931c0.41102,0.21984 0.84116,0.32977 1.2904,0.32977c0.43013,0 0.76946,-0.03346 1.01799,-0.10036c0.24852,-0.07647 0.44925,-0.16249 0.60218,-0.25807c0.15294,-0.09559 0.29153,-0.17684 0.4158,-0.24374c0.21029,-0.10514 0.40624,-0.15771 0.58785,-0.15771c0.24852,0 0.45403,0.08603 0.61653,0.25808c0.17206,0.17206 0.25808,0.37278 0.25808,0.60218c0,0.30587 -0.15771,0.58307 -0.47314,0.83159c-0.30587,0.25808 -0.72645,0.4827 -1.26172,0.67388c-0.53528,0.18161 -1.08488,0.27242 -1.64884,0.27242zM293.01791,189.82252c-0.29632,0 -0.54006,-0.10036 -0.73122,-0.30109c-0.19117,-0.20073 -0.28676,-0.44925 -0.28676,-0.74556v-7.0685c0,-0.29631 0.09559,-0.54483 0.28676,-0.74556c0.19116,-0.20073 0.43491,-0.30109 0.73123,-0.30109c0.29631,0 0.54005,0.10037 0.73123,0.3011c0.20073,0.20073 0.3011,0.44925 0.3011,0.74556v1.60583l-0.11471,-1.14702c0.12427,-0.26764 0.28198,-0.5066 0.47315,-0.71689c0.20073,-0.21984 0.42536,-0.39667 0.67388,-0.53049c0.25808,-0.14337 0.5305,-0.24852 0.81725,-0.31543c0.28676,-0.07647 0.57351,-0.1147 0.86027,-0.1147c0.33454,0 0.61653,0.10037 0.84593,0.3011c0.23897,0.19117 0.35845,0.4158 0.35845,0.67388c0,0.38234 -0.09559,0.65475 -0.28675,0.81725c-0.19117,0.16249 -0.40146,0.24375 -0.63086,0.24375c-0.21984,0 -0.42057,-0.03824 -0.60218,-0.1147c-0.17206,-0.07647 -0.37278,-0.1147 -0.60218,-0.1147c-0.20073,0 -0.40624,0.04779 -0.61652,0.14337c-0.21029,0.09559 -0.40624,0.24852 -0.58785,0.45881c-0.17206,0.20073 -0.31543,0.45403 -0.43013,0.75991c-0.10514,0.29631 -0.15771,0.64997 -0.15771,1.06099v4.05759c0,0.29631 -0.10036,0.54483 -0.30109,0.74556c-0.19117,0.20073 -0.43492,0.3011 -0.73122,0.3011zM308.20897,180.48865c0.64997,0 1.21393,0.0717 1.69185,0.21507c0.48748,0.13381 0.86505,0.32499 1.13269,0.57351c0.26764,0.23897 0.40145,0.5305 0.40145,0.87461c0,0.22941 -0.06691,0.44448 -0.20072,0.64521c-0.13382,0.20073 -0.33455,0.3011 -0.60219,0.3011c-0.18161,0 -0.33454,-0.0239 -0.45881,-0.07169c-0.1147,-0.05735 -0.21984,-0.12426 -0.31543,-0.20073c-0.08602,-0.08603 -0.19116,-0.16249 -0.31543,-0.22941c-0.1147,-0.06691 -0.29154,-0.11948 -0.53049,-0.15771c-0.22941,-0.03823 -0.40146,-0.05735 -0.51616,-0.05735c-0.58307,0 -1.08011,0.12426 -1.49113,0.37278c-0.40145,0.24852 -0.71211,0.58786 -0.93195,1.01799c-0.21029,0.43013 -0.31543,0.92239 -0.31543,1.47679c0,0.55439 0.10992,1.04666 0.32978,1.47679c0.2294,0.42057 0.54005,0.75991 0.93196,1.01799c0.39189,0.24852 0.84593,0.37278 1.36209,0.37278c0.28676,0 0.5305,-0.01911 0.73123,-0.05735c0.21029,-0.03823 0.38234,-0.09081 0.51616,-0.15771c0.16249,-0.08603 0.30587,-0.18161 0.43013,-0.28675c0.12427,-0.10514 0.31066,-0.15771 0.55918,-0.15771c0.29631,0 0.52572,0.09559 0.68821,0.28675c0.16249,0.19117 0.24374,0.42057 0.24374,0.68821c0,0.28675 -0.16249,0.54961 -0.48748,0.78858c-0.31543,0.22941 -0.73601,0.41581 -1.26173,0.55918c-0.51616,0.14337 -1.07532,0.21507 -1.67751,0.21507c-0.8985,0 -1.68229,-0.20551 -2.35139,-0.61652c-0.65954,-0.42057 -1.17091,-0.9893 -1.53413,-1.70619c-0.35366,-0.72645 -0.53049,-1.53413 -0.53049,-2.42307c0,-0.93673 0.19117,-1.75877 0.57351,-2.46609c0.38234,-0.71688 0.91283,-1.27606 1.5915,-1.67751c0.67865,-0.41102 1.45766,-0.61652 2.33705,-0.61652zM315.26188,188.77587c0,0.29631 -0.10036,0.54483 -0.30109,0.74556c-0.20073,0.20073 -0.44925,0.3011 -0.74556,0.3011c-0.28678,0 -0.52575,-0.10036 -0.71692,-0.30109c-0.19116,-0.20073 -0.28675,-0.44925 -0.28675,-0.74556v-10.58125c0,-0.29631 0.09559,-0.54484 0.28675,-0.74556c0.20073,-0.20073 0.44925,-0.30109 0.74559,-0.30109c0.29632,0 0.54006,0.10037 0.73123,0.3011c0.19116,0.20073 0.28675,0.44925 0.28675,0.74556zM319.59731,188.77587c0,0.29631 -0.10036,0.54483 -0.30109,0.74556c-0.19116,0.20073 -0.43491,0.3011 -0.73122,0.3011c-0.29631,0 -0.54483,-0.10036 -0.74556,-0.30109c-0.19117,-0.20073 -0.28675,-0.44925 -0.28675,-0.74556v-7.0685c0,-0.29631 0.09559,-0.54483 0.28675,-0.74556c0.20073,-0.20073 0.44925,-0.30109 0.74556,-0.30109c0.29632,0 0.54006,0.10037 0.73123,0.3011c0.20073,0.20073 0.30109,0.44925 0.30109,0.74556zM318.46463,179.5567c-0.39189,0 -0.6691,-0.06213 -0.83159,-0.18639c-0.15294,-0.13381 -0.2294,-0.35844 -0.2294,-0.67387v-0.32977c0,-0.32499 0.08602,-0.54484 0.25808,-0.65954c0.18162,-0.12427 0.45403,-0.18639 0.81726,-0.18639c0.40145,0 0.67864,0.06213 0.83159,0.1864c0.16249,0.12427 0.24375,0.34411 0.24375,0.65954v0.32977c0,0.33454 -0.08602,0.56394 -0.25808,0.68821c-0.17206,0.1147 -0.44925,0.17206 -0.83159,0.17206zM325.68778,180.48865c0.64997,0 1.21393,0.0717 1.69185,0.21507c0.48748,0.13381 0.86505,0.32499 1.13269,0.57351c0.26764,0.23897 0.40146,0.5305 0.40146,0.87461c0,0.22941 -0.06691,0.44448 -0.20073,0.64521c-0.13382,0.20073 -0.33455,0.3011 -0.60218,0.3011c-0.18162,0 -0.33454,-0.0239 -0.45881,-0.07169c-0.1147,-0.05735 -0.21984,-0.12426 -0.31543,-0.20073c-0.08602,-0.08603 -0.19116,-0.16249 -0.31543,-0.22941c-0.1147,-0.06691 -0.29154,-0.11948 -0.53049,-0.15771c-0.2294,-0.03823 -0.40146,-0.05735 -0.51616,-0.05735c-0.58307,0 -1.08011,0.12426 -1.49113,0.37278c-0.40145,0.24852 -0.7121,0.58786 -0.93194,1.01799c-0.21029,0.43013 -0.31543,0.92239 -0.31543,1.47679c0,0.55439 0.10992,1.04666 0.32977,1.47679c0.22941,0.42057 0.54006,0.75991 0.93196,1.01799c0.39189,0.24852 0.84593,0.37278 1.36209,0.37278c0.28676,0 0.5305,-0.01911 0.73123,-0.05735c0.21029,-0.03823 0.38234,-0.09081 0.51615,-0.15771c0.16249,-0.08603 0.30587,-0.18161 0.43014,-0.28675c0.12426,-0.10514 0.31065,-0.15771 0.55917,-0.15771c0.29631,0 0.52572,0.09559 0.68821,0.28675c0.16249,0.19117 0.24375,0.42057 0.24375,0.68821c0,0.28675 -0.1625,0.54961 -0.48748,0.78858c-0.31543,0.22941 -0.736,0.41581 -1.26172,0.55918c-0.51616,0.14337 -1.07533,0.21507 -1.67751,0.21507c-0.8985,0 -1.68229,-0.20551 -2.35139,-0.61652c-0.65954,-0.42057 -1.17092,-0.9893 -1.53413,-1.70619c-0.35366,-0.72645 -0.53049,-1.53413 -0.53049,-2.42307c0,-0.93673 0.19116,-1.75877 0.5735,-2.46609c0.38234,-0.71688 0.91283,-1.27606 1.5915,-1.67751c0.67865,-0.41102 1.45767,-0.61652 2.33705,-0.61652zM331.70833,189.82252c-0.29631,0 -0.54005,-0.10036 -0.73122,-0.30109c-0.19116,-0.20073 -0.28675,-0.44925 -0.28675,-0.74556v-10.58125c0,-0.29631 0.09559,-0.54484 0.28675,-0.74556c0.19117,-0.20073 0.43492,-0.30109 0.73123,-0.30109c0.29631,0 0.54005,0.10037 0.73123,0.3011c0.20073,0.20073 0.30109,0.44925 0.30109,0.74556v10.58125c0,0.29631 -0.10035,0.54484 -0.30108,0.74556c-0.19117,0.20073 -0.43491,0.3011 -0.73122,0.3011zM337.15667,180.6607c0.25808,0 0.48271,0.10993 0.67388,0.32978c0.20073,0.21984 0.30109,0.43013 0.30109,0.63086c0,0.2772 -0.13859,0.53528 -0.41578,0.77424l-5.14724,4.74579l-0.08603,-2.36572l3.91421,-3.78516c0.21984,-0.21984 0.47315,-0.32977 0.75991,-0.32977zM337.41475,189.80818c-0.29632,0 -0.54962,-0.1147 -0.7599,-0.3441l-3.16863,-3.35503l1.56282,-1.43377l3.08262,3.35503c0.21984,0.22941 0.32977,0.4827 0.32977,0.7599c0,0.29631 -0.11949,0.54006 -0.35844,0.73123c-0.22941,0.19117 -0.4588,0.28675 -0.68821,0.28675z" fill="#ffffff" stroke="none" stroke-width="1" stroke-linecap="square"/><path d="M180.7581,214.62436c-0.26041,0 -0.47396,-0.08334 -0.64062,-0.25c-0.16666,-0.16666 -0.25,-0.38021 -0.25,-0.64062v-14.8125c0,-0.27084 0.08334,-0.48959 0.25,-0.65625c0.16666,-0.16666 0.38021,-0.25 0.64063,-0.25h3.9375c0.26041,0 0.47396,0.08334 0.64063,0.25c0.16666,0.16666 0.25,0.38541 0.25,0.65625c0,0.23959 -0.08334,0.44791 -0.25,0.625c-0.16666,0.16666 -0.38021,0.25 -0.64062,0.25h-2.78125l0.09375,-0.15625v13.4375l-0.21875,-0.23437h2.90625c0.26041,0 0.47396,0.08334 0.64063,0.25c0.16666,0.17709 0.25,0.39584 0.25,0.65625c0,0.25 -0.08334,0.45834 -0.25,0.625c-0.16666,0.16666 -0.38021,0.25 -0.64062,0.25zM196.50743,198.65561c0.32291,0.15625 0.51041,0.41146 0.5625,0.76563c0.05209,0.34375 -0.03646,0.66146 -0.26562,0.95313c-0.16666,0.21875 -0.38021,0.34375 -0.64062,0.375c-0.25,0.02084 -0.50521,-0.03125 -0.76562,-0.15625c-0.29166,-0.13541 -0.60416,-0.23959 -0.9375,-0.3125c-0.33334,-0.07291 -0.67709,-0.10937 -1.03125,-0.10937c-0.67709,0 -1.28125,0.10416 -1.8125,0.3125c-0.52084,0.20834 -0.96875,0.51041 -1.34375,0.90625c-0.375,0.38541 -0.66146,0.84896 -0.85937,1.39063c-0.1875,0.53125 -0.28125,1.11979 -0.28125,1.76563c0,0.76041 0.10938,1.42188 0.32813,1.98438c0.21875,0.55209 0.52084,1.01563 0.90625,1.39063c0.38541,0.375 0.83854,0.65625 1.35938,0.84375c0.52084,0.17709 1.08854,0.26563 1.70313,0.26563c0.33334,0 0.66666,-0.03125 1,-0.09375c0.33334,-0.0625 0.65625,-0.17709 0.96875,-0.34375c0.26041,-0.125 0.51563,-0.16666 0.76563,-0.125c0.26041,0.03125 0.47916,0.16146 0.65625,0.39063c0.25,0.3125 0.33854,0.63541 0.26563,0.96875c-0.0625,0.32291 -0.25,0.55729 -0.5625,0.70313c-0.32291,0.16666 -0.65625,0.30209 -1,0.40625c-0.34375,0.10416 -0.69271,0.18229 -1.04687,0.23438c-0.34375,0.0625 -0.69271,0.09375 -1.04687,0.09375c-0.89584,0 -1.74479,-0.14062 -2.54687,-0.42187c-0.80209,-0.29166 -1.52084,-0.71354 -2.15625,-1.26562c-0.625,-0.5625 -1.11979,-1.26562 -1.48437,-2.10937c-0.35416,-0.84375 -0.53125,-1.81771 -0.53125,-2.92187c0,-0.95834 0.16146,-1.83854 0.48438,-2.64062c0.33334,-0.8125 0.80209,-1.51041 1.40625,-2.09375c0.60416,-0.59375 1.3125,-1.05729 2.125,-1.39062c0.82291,-0.33334 1.72396,-0.5 2.70313,-0.5c0.54166,0 1.07291,0.0625 1.59375,0.1875c0.52084,0.125 1.01563,0.30729 1.48438,0.54688zM201.29866,209.93686c0,0.32291 -0.10937,0.59375 -0.32812,0.8125c-0.21875,0.21875 -0.48959,0.32813 -0.8125,0.32813c-0.3125,0 -0.57291,-0.10937 -0.78125,-0.32812c-0.20834,-0.21875 -0.3125,-0.48959 -0.3125,-0.8125v-11.53125c0,-0.32291 0.10416,-0.59375 0.3125,-0.8125c0.21875,-0.21875 0.48959,-0.32812 0.8125,-0.32812c0.32291,0 0.58854,0.10938 0.79688,0.32813c0.20834,0.21875 0.3125,0.48959 0.3125,0.8125zM206.02333,209.93686c0,0.32291 -0.10937,0.59375 -0.32812,0.8125c-0.20834,0.21875 -0.47396,0.32813 -0.79687,0.32813c-0.32291,0 -0.59375,-0.10937 -0.8125,-0.32812c-0.20834,-0.21875 -0.3125,-0.48959 -0.3125,-0.8125v-7.70312c0,-0.32291 0.10416,-0.59375 0.3125,-0.8125c0.21875,-0.21875 0.48959,-0.32812 0.8125,-0.32812c0.32291,0 0.58854,0.10938 0.79688,0.32813c0.21875,0.21875 0.32813,0.48959 0.32813,0.8125zM204.78896,199.88999c-0.42709,0 -0.72916,-0.06771 -0.90625,-0.20312c-0.16666,-0.14584 -0.25,-0.39062 -0.25,-0.73437v-0.35937c0,-0.35416 0.09375,-0.59375 0.28125,-0.71875c0.19791,-0.13541 0.49479,-0.20312 0.89063,-0.20312c0.4375,0 0.73959,0.06771 0.90625,0.20313c0.17709,0.13541 0.26563,0.375 0.26563,0.71875v0.35938c0,0.36459 -0.09375,0.61459 -0.28125,0.75c-0.1875,0.125 -0.48959,0.1875 -0.90625,0.1875zM212.6606,200.90561c0.70834,0 1.32291,0.07813 1.84375,0.23438c0.53125,0.14584 0.94271,0.35416 1.23438,0.625c0.29166,0.26041 0.4375,0.57813 0.4375,0.95313c0,0.25 -0.07291,0.48438 -0.21875,0.70313c-0.14584,0.21875 -0.36459,0.32813 -0.65625,0.32813c-0.19791,0 -0.36459,-0.02604 -0.5,-0.07812c-0.125,-0.0625 -0.23959,-0.13541 -0.34375,-0.21875c-0.09375,-0.09375 -0.20834,-0.17709 -0.34375,-0.25c-0.125,-0.07291 -0.31771,-0.13021 -0.57812,-0.17187c-0.25,-0.04166 -0.4375,-0.0625 -0.5625,-0.0625c-0.63541,0 -1.17709,0.13541 -1.625,0.40625c-0.4375,0.27084 -0.77604,0.64063 -1.01562,1.10938c-0.22916,0.46875 -0.34375,1.00521 -0.34375,1.60938c0,0.60416 0.11979,1.14063 0.35938,1.60938c0.25,0.45834 0.58854,0.82813 1.01563,1.10938c0.42709,0.27084 0.92188,0.40625 1.48438,0.40625c0.3125,0 0.57813,-0.02084 0.79688,-0.0625c0.22916,-0.04166 0.41666,-0.09896 0.5625,-0.17187c0.17709,-0.09375 0.33334,-0.19791 0.46875,-0.3125c0.13541,-0.11459 0.33854,-0.17187 0.60938,-0.17187c0.32291,0 0.57291,0.10416 0.75,0.3125c0.17709,0.20834 0.26563,0.45834 0.26563,0.75c0,0.3125 -0.17709,0.59896 -0.53125,0.85938c-0.34375,0.25 -0.80209,0.45313 -1.375,0.60938c-0.5625,0.15625 -1.17187,0.23438 -1.82812,0.23438c-0.97916,0 -1.83334,-0.22396 -2.5625,-0.67187c-0.71875,-0.45834 -1.27604,-1.07812 -1.67187,-1.85937c-0.38541,-0.79166 -0.57812,-1.67187 -0.57812,-2.64062c0,-1.02084 0.20834,-1.91666 0.625,-2.6875c0.41666,-0.78125 0.99479,-1.39062 1.73438,-1.82812c0.73959,-0.44791 1.58854,-0.67187 2.54688,-0.67187zM219.2217,211.07749c-0.32291,0 -0.58854,-0.10937 -0.79687,-0.32812c-0.20834,-0.21875 -0.3125,-0.48959 -0.3125,-0.8125v-11.53125c0,-0.32291 0.10416,-0.59375 0.3125,-0.8125c0.20834,-0.21875 0.47396,-0.32812 0.79688,-0.32812c0.32291,0 0.58854,0.10938 0.79688,0.32813c0.21875,0.21875 0.32813,0.48959 0.32813,0.8125v11.53125c0,0.32291 -0.10937,0.59375 -0.32812,0.8125c-0.20834,0.21875 -0.47396,0.32813 -0.79687,0.32813zM225.1592,201.09311c0.28125,0 0.52604,0.11979 0.73438,0.35938c0.21875,0.23959 0.32813,0.46875 0.32813,0.6875c0,0.30209 -0.15104,0.58334 -0.45312,0.84375l-5.60937,5.17188l-0.09375,-2.57812l4.26563,-4.125c0.23959,-0.23959 0.51563,-0.35937 0.82813,-0.35937zM225.44045,211.06186c-0.32291,0 -0.59896,-0.125 -0.82812,-0.375l-3.45312,-3.65625l1.70313,-1.5625l3.35938,3.65625c0.23959,0.25 0.35938,0.52604 0.35938,0.82813c0,0.32291 -0.13021,0.58854 -0.39062,0.79688c-0.25,0.20834 -0.5,0.3125 -0.75,0.3125zM233.87334,201.28061h4.42188c0.29166,0 0.53646,0.09896 0.73438,0.29688c0.20834,0.19791 0.3125,0.44791 0.3125,0.75c0,0.28125 -0.10416,0.52084 -0.3125,0.71875c-0.19791,0.1875 -0.44271,0.28125 -0.73437,0.28125h-4.42187c-0.30209,0 -0.55209,-0.09896 -0.75,-0.29687c-0.19791,-0.19791 -0.29687,-0.44271 -0.29687,-0.73437c0,-0.29166 0.09896,-0.53125 0.29688,-0.71875c0.19791,-0.19791 0.44791,-0.29687 0.75,-0.29687zM235.87334,198.95249c0.32291,0 0.58334,0.10938 0.78125,0.32813c0.20834,0.21875 0.3125,0.48959 0.3125,0.8125v8.29688c0,0.17709 0.03125,0.32291 0.09375,0.4375c0.07291,0.10416 0.16666,0.18229 0.28125,0.23438c0.125,0.05209 0.25521,0.07813 0.39063,0.07813c0.14584,0 0.28125,-0.02604 0.40625,-0.07812c0.125,-0.0625 0.27084,-0.09375 0.4375,-0.09375c0.16666,0 0.32291,0.08334 0.46875,0.25c0.14584,0.15625 0.21875,0.38021 0.21875,0.67188c0,0.34375 -0.19271,0.63021 -0.57812,0.85938c-0.375,0.21875 -0.78125,0.32813 -1.21875,0.32813c-0.26041,0 -0.55209,-0.02084 -0.875,-0.0625c-0.3125,-0.04166 -0.60937,-0.14584 -0.89062,-0.3125c-0.27084,-0.17709 -0.5,-0.4375 -0.6875,-0.78125c-0.1875,-0.34375 -0.28125,-0.82291 -0.28125,-1.4375v-8.39062c0,-0.32291 0.10416,-0.59375 0.3125,-0.8125c0.21875,-0.21875 0.49479,-0.32812 0.82813,-0.32812zM250.87917,206.09311c0,1.02084 -0.22916,1.92188 -0.6875,2.70313c-0.44791,0.77084 -1.05729,1.375 -1.82812,1.8125c-0.76041,0.4375 -1.60937,0.65625 -2.54687,0.65625c-0.94791,0 -1.80729,-0.21875 -2.57812,-0.65625c-0.76041,-0.4375 -1.36979,-1.04166 -1.82812,-1.8125c-0.44791,-0.78125 -0.67187,-1.68229 -0.67187,-2.70312c0,-1.02084 0.22396,-1.91666 0.67188,-2.6875c0.45834,-0.78125 1.06771,-1.39062 1.82813,-1.82812c0.77084,-0.44791 1.63021,-0.67187 2.57813,-0.67187c0.9375,0 1.78646,0.22396 2.54688,0.67188c0.77084,0.4375 1.38021,1.04688 1.82813,1.82813c0.45834,0.77084 0.6875,1.66666 0.6875,2.6875zM248.64479,206.09311c0,-0.63541 -0.13021,-1.18229 -0.39062,-1.64062c-0.25,-0.46875 -0.58854,-0.83334 -1.01562,-1.09375c-0.42709,-0.26041 -0.90104,-0.39062 -1.42187,-0.39062c-0.53125,0 -1.01041,0.13021 -1.4375,0.39063c-0.42709,0.26041 -0.77084,0.625 -1.03125,1.09375c-0.25,0.45834 -0.375,1.00521 -0.375,1.64063c0,0.625 0.125,1.17188 0.375,1.64063c0.26041,0.45834 0.60416,0.82291 1.03125,1.09375c0.42709,0.26041 0.90625,0.39063 1.4375,0.39063c0.52084,0 0.99479,-0.13021 1.42188,-0.39062c0.42709,-0.27084 0.76563,-0.63541 1.01563,-1.09375c0.26041,-0.46875 0.39063,-1.01562 0.39063,-1.64062zM263.13597,200.90561c0.875,0 1.65625,0.22396 2.34375,0.67188c0.6875,0.4375 1.23438,1.04166 1.64063,1.8125c0.40625,0.77084 0.60938,1.66666 0.60938,2.6875c0,1.02084 -0.20312,1.92188 -0.60937,2.70313c-0.40625,0.77084 -0.94792,1.38021 -1.625,1.82813c-0.67708,0.4375 -1.4375,0.65625 -2.28125,0.65625c-0.5,0 -0.96875,-0.07812 -1.40625,-0.23437c-0.42708,-0.16666 -0.80729,-0.375 -1.14062,-0.625c-0.32292,-0.25 -0.57812,-0.5 -0.76562,-0.75c-0.17708,-0.26041 -0.26562,-0.47916 -0.26562,-0.65625l0.57813,-0.23437v1.35938c0,0.32291 -0.10937,0.59375 -0.32812,0.8125c-0.20833,0.21875 -0.47396,0.32813 -0.79687,0.32813c-0.32292,0 -0.58854,-0.10416 -0.79687,-0.3125c-0.20833,-0.21875 -0.3125,-0.49479 -0.3125,-0.82812v-11.71875c0,-0.32291 0.10417,-0.59375 0.3125,-0.8125c0.20833,-0.21875 0.47396,-0.32812 0.79688,-0.32812c0.32292,0 0.58854,0.10938 0.79688,0.32813c0.21875,0.21875 0.32813,0.48959 0.32813,0.8125v4.75l-0.3125,-0.17187c0,-0.16666 0.08333,-0.36459 0.25,-0.59375c0.17708,-0.22916 0.41146,-0.45834 0.70313,-0.6875c0.30208,-0.22916 0.65104,-0.41666 1.04688,-0.5625c0.39583,-0.15625 0.80729,-0.23437 1.23438,-0.23437zM262.85472,202.96811c-0.54167,0 -1.02083,0.13541 -1.4375,0.40625c-0.40625,0.27084 -0.72396,0.64063 -0.95312,1.10938c-0.22917,0.46875 -0.34375,1 -0.34375,1.59375c0,0.58334 0.11458,1.11459 0.34375,1.59375c0.22917,0.47916 0.54688,0.85938 0.95313,1.14063c0.41667,0.27084 0.89583,0.40625 1.4375,0.40625c0.55208,0 1.03125,-0.13541 1.4375,-0.40625c0.40625,-0.28125 0.72396,-0.66146 0.95313,-1.14062c0.22917,-0.47916 0.34375,-1.01041 0.34375,-1.59375c0,-0.59375 -0.11458,-1.125 -0.34375,-1.59375c-0.22917,-0.46875 -0.54687,-0.83854 -0.95312,-1.10937c-0.40625,-0.27084 -0.88542,-0.40625 -1.4375,-0.40625zM277.00883,201.09311c0.32292,0 0.58854,0.10938 0.79688,0.32813c0.20833,0.21875 0.3125,0.48959 0.3125,0.8125v4.73438c0,1.32291 -0.36979,2.36979 -1.10937,3.14063c-0.72917,0.77084 -1.78125,1.15625 -3.15625,1.15625c-1.38542,0 -2.44271,-0.38541 -3.17187,-1.15625c-0.71875,-0.77084 -1.07812,-1.81771 -1.07812,-3.14062v-4.73437c0,-0.32291 0.10417,-0.59375 0.3125,-0.8125c0.20833,-0.21875 0.47396,-0.32812 0.79688,-0.32812c0.32292,0 0.58854,0.10938 0.79688,0.32813c0.21875,0.21875 0.32813,0.48959 0.32813,0.8125v4.73438c0,0.76041 0.16667,1.32813 0.5,1.70313c0.33333,0.36459 0.83854,0.54688 1.51563,0.54688c0.6875,0 1.19792,-0.18229 1.53125,-0.54687c0.33333,-0.375 0.5,-0.94271 0.5,-1.70312v-4.73437c0,-0.32291 0.10417,-0.59375 0.3125,-0.8125c0.21875,-0.21875 0.48958,-0.32812 0.8125,-0.32812zM287.96004,201.09311c0.32292,0 0.58854,0.10938 0.79688,0.32813c0.20833,0.21875 0.3125,0.48959 0.3125,0.8125v7.92188c0,1.14584 -0.21354,2.05729 -0.64062,2.73438c-0.42708,0.67709 -1.00521,1.16666 -1.73437,1.46875c-0.71875,0.30209 -1.52604,0.45313 -2.42187,0.45313c-0.39583,0 -0.81771,-0.03125 -1.26562,-0.09375c-0.44792,-0.0625 -0.8125,-0.15625 -1.09375,-0.28125c-0.375,-0.16666 -0.63542,-0.36979 -0.78125,-0.60937c-0.14583,-0.23959 -0.17187,-0.49479 -0.07812,-0.76562c0.11458,-0.36459 0.29167,-0.61459 0.53125,-0.75c0.25,-0.125 0.51563,-0.14062 0.79688,-0.04687c0.19792,0.0625 0.45833,0.15625 0.78125,0.28125c0.32292,0.13541 0.69271,0.20313 1.10938,0.20313c0.57292,0 1.04688,-0.07812 1.42188,-0.23437c0.38542,-0.14584 0.67188,-0.40625 0.85938,-0.78125c0.19792,-0.36459 0.29688,-0.86459 0.29688,-1.5v-1.25l0.39063,0.45313c-0.20833,0.40625 -0.47396,0.74479 -0.79687,1.01563c-0.3125,0.27084 -0.6875,0.47396 -1.125,0.60938c-0.4375,0.13541 -0.93229,0.20313 -1.48437,0.20313c-0.66667,0 -1.24479,-0.15104 -1.73437,-0.45312c-0.48958,-0.3125 -0.86979,-0.73437 -1.14062,-1.26562c-0.27083,-0.54166 -0.40625,-1.16146 -0.40625,-1.85937v-5.45312c0,-0.32291 0.10417,-0.59375 0.3125,-0.8125c0.20833,-0.21875 0.47396,-0.32812 0.79688,-0.32812c0.32292,0 0.58854,0.10938 0.79688,0.32813c0.21875,0.21875 0.32813,0.48959 0.32813,0.8125v4.78125c0,0.80209 0.17708,1.36979 0.53125,1.70313c0.35417,0.33334 0.84896,0.5 1.48438,0.5c0.4375,0 0.80208,-0.08334 1.09375,-0.25c0.30208,-0.17709 0.53125,-0.42709 0.6875,-0.75c0.16667,-0.33334 0.25,-0.73437 0.25,-1.20312v-4.78125c0,-0.32291 0.10417,-0.59375 0.3125,-0.8125c0.21875,-0.21875 0.48958,-0.32812 0.8125,-0.32812zM295.4894,198.01499c0.26042,0 0.47396,0.08334 0.64063,0.25c0.16667,0.16666 0.25,0.38541 0.25,0.65625v14.8125c0,0.26041 -0.08333,0.47396 -0.25,0.64063c-0.16667,0.16666 -0.38021,0.25 -0.64062,0.25h-3.9375c-0.26042,0 -0.47396,-0.08334 -0.64062,-0.25c-0.16667,-0.16666 -0.25,-0.38021 -0.25,-0.64062c0,-0.25 0.08333,-0.46354 0.25,-0.64062c0.16667,-0.16666 0.38021,-0.25 0.64063,-0.25h2.78125l-0.09375,0.15625v-13.4375l0.21875,0.23438h-2.90625c-0.26042,0 -0.47396,-0.08334 -0.64062,-0.25c-0.16667,-0.17709 -0.25,-0.39584 -0.25,-0.65625c0,-0.25 0.08333,-0.45834 0.25,-0.625c0.16667,-0.16666 0.38021,-0.25 0.64063,-0.25z" fill="#ffffff" stroke="none" stroke-width="1" stroke-linecap="square"/></g></g></svg>