<svg version="1.1" xmlns="http://www.w3.org/2000/svg" xmlns:xlink="http://www.w3.org/1999/xlink" width="204.74878" height="90.33082" viewBox="0,0,204.74878,90.33082"><defs><linearGradient x1="-633.59479" y1="-387.79377" x2="-633.59479" y2="534.87111" gradientUnits="userSpaceOnUse" id="color-1"><stop offset="0" stop-color="#2a2a2a"/><stop offset="1" stop-color="#2a2a2a" stop-opacity="0"/></linearGradient><linearGradient x1="187.45083" y1="156" x2="215.57595" y2="156" gradientUnits="userSpaceOnUse" id="color-2"><stop offset="0" stop-color="#fff9df"/><stop offset="0.593" stop-color="#ffe177"/><stop offset="1" stop-color="#feb137"/></linearGradient><linearGradient x1="190.72031" y1="156" x2="213.34698" y2="156" gradientUnits="userSpaceOnUse" id="color-3"><stop offset="0" stop-color="#ffe177"/><stop offset="1" stop-color="#feb137"/></linearGradient><linearGradient x1="195.51553" y1="156" x2="207.89983" y2="156" gradientUnits="userSpaceOnUse" id="color-4"><stop offset="0" stop-color="#ffe177"/><stop offset="1" stop-color="#feb137"/></linearGradient><linearGradient x1="198.56706" y1="156" x2="213.83435" y2="156" gradientUnits="userSpaceOnUse" id="color-5"><stop offset="0" stop-color="#feb137"/><stop offset="1" stop-color="#eca026"/></linearGradient><linearGradient x1="195.13939" y1="156" x2="208.0555" y2="156" gradientUnits="userSpaceOnUse" id="color-6"><stop offset="0" stop-color="#fff9df"/><stop offset="0.593" stop-color="#ffe177"/><stop offset="1" stop-color="#feb137"/></linearGradient></defs><g transform="translate(-137.62561,-134.83459)"><g data-paper-data="{&quot;isPaintingLayer&quot;:true}" fill-rule="nonzero" stroke-linejoin="miter" stroke-miterlimit="10" stroke-dasharray="" stroke-dashoffset="0" style="mix-blend-mode: normal"><path d="M137.62561,225.16541v-90.33082h204.74878v90.33082z" data-paper-data="{&quot;index&quot;:null}" fill="url(#color-1)" stroke="#009dec" stroke-width="0" stroke-linecap="butt"/><g stroke="none" stroke-width="1" stroke-linecap="butt"><g><path d="M188.10473,156c0,-7.67415 6.22112,-13.89527 13.89527,-13.89527c7.67415,0 13.89527,6.22112 13.89527,13.89527c0,7.67415 -6.22112,13.89527 -13.89527,13.89527c-7.67415,0 -13.89527,-6.22112 -13.89527,-13.89527z" fill="url(#color-2)"/><path d="M215.89527,156c0,7.67416 -6.22111,13.89527 -13.89527,13.89527c-0.367,0 -0.73057,-0.01449 -1.09037,-0.04239c7.16446,-0.55615 12.8049,-6.54569 12.8049,-13.85288c0,-7.30717 -5.64044,-13.29674 -12.8049,-13.85288c0.35981,-0.0279 0.72338,-0.04239 1.09037,-0.04239c7.67416,0 13.89527,6.22111 13.89527,13.89527z" fill="url(#color-3)"/></g><path d="M192.18559,156c0,-5.42036 4.39407,-9.81441 9.81441,-9.81441c5.42036,0 9.81441,4.39407 9.81441,9.81441c0,5.42036 -4.39407,9.81441 -9.81441,9.81441c-5.42036,0 -9.81441,-4.39407 -9.81441,-9.81441z" fill="url(#color-4)"/><path d="M211.81441,155.99989c0,5.42036 -4.39407,9.81441 -9.81441,9.81441c-0.36864,0 -0.73231,-0.02098 -1.09037,-0.06059c4.90709,-0.54246 8.72405,-4.7021 8.72405,-9.75376c0,-5.05166 -3.81695,-9.21127 -8.72405,-9.75376c0.35805,-0.03956 0.72173,-0.06059 1.09037,-0.06059c5.42036,0 9.81441,4.39395 9.81441,9.81431z" fill="url(#color-5)"/><path d="M206.5679,158.53041c0,2.30721 -1.48859,3.70268 -3.66553,4.05621v0.53962c0,0.26053 -0.35347,0.50241 -0.70702,0.50241c-0.40933,0 -0.70702,-0.24188 -0.70702,-0.50241v-0.46512c-2.23283,-0.07444 -4.05628,-1.22802 -4.05628,-2.41886c0,-0.63259 0.55814,-1.56291 1.26519,-1.56291c0.78151,0 1.41422,1.09777 2.7911,1.33967v-3.0143c-1.71184,-0.65123 -3.72137,-1.45132 -3.72137,-3.83298c0,-2.36306 1.74906,-3.49811 3.72137,-3.77718v-0.52098c0,-0.26047 0.29768,-0.50235 0.70702,-0.50235c0.35349,0 0.70702,0.24188 0.70702,0.50235v0.46519c1.15358,0.03721 3.33062,0.33491 3.33062,1.61877c0,0.50235 -0.33484,1.52576 -1.15363,1.52576c-0.61394,0 -0.96745,-0.59542 -2.17693,-0.68844v2.7166c1.69315,0.63259 3.66553,1.50711 3.66547,4.01894zM201.67436,151.8507c-0.83725,0.16751 -1.19085,0.59542 -1.19085,1.04197c0,0.53958 0.48383,0.87453 1.19085,1.17221zM203.85134,158.82821c0,-0.61407 -0.46512,-1.00476 -1.135,-1.32107v2.4933c0.63264,-0.14886 1.13506,-0.50235 1.135,-1.17221z" fill="url(#color-6)"/></g><path d="M222.7272,165.02193c-0.44559,0 -0.81691,-0.14177 -1.11396,-0.42532c-0.28355,-0.28355 -0.42532,-0.63462 -0.42532,-1.0532v-12.19283l0.34432,0.54686l-1.8431,1.11397c-0.24305,0.13503 -0.4996,0.20254 -0.76965,0.20254c-0.41858,0 -0.76965,-0.15528 -1.0532,-0.46583c-0.27005,-0.31055 -0.40508,-0.64812 -0.40508,-1.01269c0,-0.54011 0.2498,-0.95868 0.7494,-1.25574l3.6457,-2.16716c0.28355,-0.14852 0.63462,-0.22279 1.0532,-0.22279c0.41858,0 0.75614,0.14178 1.01269,0.42534c0.27005,0.28355 0.40508,0.63462 0.40508,1.0532v13.97517c0,0.41858 -0.14852,0.76965 -0.44559,1.0532c-0.29706,0.28355 -0.68188,0.42534 -1.15446,0.42534zM233.57548,165.26497c-1.39077,0 -2.56549,-0.36457 -3.52417,-1.09371c-0.95868,-0.74265 -1.68782,-1.76883 -2.18742,-3.07859c-0.4996,-1.30975 -0.74939,-2.82203 -0.74939,-4.53687c0,-1.72833 0.2498,-3.24062 0.7494,-4.53687c0.4996,-1.30975 1.22874,-2.32919 2.18742,-3.05833c0.95868,-0.74265 2.1334,-1.11396 3.52417,-1.11396c1.37726,0 2.54523,0.37132 3.50393,1.11397c0.95868,0.72914 1.68782,1.74859 2.18742,3.05834c0.4996,1.29625 0.7494,2.80854 0.7494,4.53687c0,1.71483 -0.2498,3.22711 -0.74939,4.53687c-0.4996,1.30975 -1.22874,2.33594 -2.18742,3.07859c-0.95868,0.72914 -2.12665,1.09371 -3.50391,1.09371zM233.57548,162.36868c0.67512,0 1.25574,-0.21605 1.74183,-0.64812c0.4996,-0.43208 0.88442,-1.07345 1.15448,-1.92411c0.27005,-0.86417 0.40508,-1.94437 0.40508,-3.24062c0,-1.30975 -0.13503,-2.38996 -0.40508,-3.24062c-0.27005,-0.85066 -0.65488,-1.48528 -1.15446,-1.90386c-0.48609,-0.43208 -1.06671,-0.64812 -1.74183,-0.64812c-0.66163,0 -1.24223,0.21605 -1.74183,0.64812c-0.4996,0.41858 -0.89117,1.0532 -1.17472,1.90386c-0.27005,0.85066 -0.40508,1.93086 -0.40508,3.24062c0,1.29625 0.13503,2.37645 0.40508,3.24062c0.28355,0.85066 0.67512,1.49203 1.17472,1.92412c0.4996,0.43208 1.0802,0.64812 1.74183,0.64812zM248.42393,165.26497c-1.39077,0 -2.56549,-0.36457 -3.52417,-1.09371c-0.95868,-0.74265 -1.68782,-1.76883 -2.18742,-3.07859c-0.4996,-1.30975 -0.74939,-2.82203 -0.74939,-4.53687c0,-1.72833 0.2498,-3.24062 0.7494,-4.53687c0.4996,-1.30975 1.22874,-2.32919 2.18742,-3.05833c0.95868,-0.74265 2.1334,-1.11396 3.52417,-1.11396c1.37726,0 2.54523,0.37132 3.50393,1.11397c0.95868,0.72914 1.68782,1.74859 2.18742,3.05834c0.4996,1.29625 0.7494,2.80854 0.7494,4.53687c0,1.71483 -0.2498,3.22711 -0.74939,4.53687c-0.4996,1.30975 -1.22874,2.33594 -2.18742,3.07859c-0.95868,0.72914 -2.12665,1.09371 -3.50391,1.09371zM248.42393,162.36868c0.67512,0 1.25574,-0.21605 1.74183,-0.64812c0.4996,-0.43208 0.88442,-1.07345 1.15448,-1.92411c0.27005,-0.86417 0.40508,-1.94437 0.40508,-3.24062c0,-1.30975 -0.13503,-2.38996 -0.40508,-3.24062c-0.27005,-0.85066 -0.65488,-1.48528 -1.15446,-1.90386c-0.48609,-0.43208 -1.06671,-0.64812 -1.74183,-0.64812c-0.66163,0 -1.24223,0.21605 -1.74183,0.64812c-0.4996,0.41858 -0.89117,1.0532 -1.17472,1.90386c-0.27005,0.85066 -0.40508,1.93086 -0.40508,3.24062c0,1.29625 0.13503,2.37645 0.40508,3.24062c0.28355,0.85066 0.67512,1.49203 1.17472,1.92412c0.4996,0.43208 1.0802,0.64812 1.74183,0.64812zM263.27235,165.26497c-1.39077,0 -2.56549,-0.36457 -3.52417,-1.09371c-0.95868,-0.74265 -1.68782,-1.76883 -2.18742,-3.07859c-0.4996,-1.30975 -0.74939,-2.82203 -0.74939,-4.53687c0,-1.72833 0.2498,-3.24062 0.7494,-4.53687c0.4996,-1.30975 1.22874,-2.32919 2.18742,-3.05833c0.95868,-0.74265 2.1334,-1.11396 3.52417,-1.11396c1.37726,0 2.54523,0.37132 3.50393,1.11397c0.95868,0.72914 1.68782,1.74859 2.18742,3.05834c0.4996,1.29625 0.7494,2.80854 0.7494,4.53687c0,1.71483 -0.2498,3.22711 -0.74939,4.53687c-0.4996,1.30975 -1.22874,2.33594 -2.18742,3.07859c-0.95868,0.72914 -2.12665,1.09371 -3.50391,1.09371zM263.27235,162.36868c0.67512,0 1.25574,-0.21605 1.74183,-0.64812c0.4996,-0.43208 0.88442,-1.07345 1.15448,-1.92411c0.27005,-0.86417 0.40508,-1.94437 0.40508,-3.24062c0,-1.30975 -0.13503,-2.38996 -0.40508,-3.24062c-0.27005,-0.85066 -0.65488,-1.48528 -1.15446,-1.90386c-0.48609,-0.43208 -1.06671,-0.64812 -1.74183,-0.64812c-0.66163,0 -1.24223,0.21605 -1.74183,0.64812c-0.4996,0.41858 -0.89117,1.0532 -1.17472,1.90386c-0.27005,0.85066 -0.40508,1.93086 -0.40508,3.24062c0,1.29625 0.13503,2.37645 0.40508,3.24062c0.28355,0.85066 0.67512,1.49203 1.17472,1.92412c0.4996,0.43208 1.0802,0.64812 1.74183,0.64812zM278.12081,165.26497c-1.39077,0 -2.56549,-0.36457 -3.52417,-1.09371c-0.95868,-0.74265 -1.68782,-1.76883 -2.18742,-3.07859c-0.4996,-1.30975 -0.74939,-2.82203 -0.74939,-4.53687c0,-1.72833 0.2498,-3.24062 0.7494,-4.53687c0.4996,-1.30975 1.22874,-2.32919 2.18742,-3.05833c0.95868,-0.74265 2.1334,-1.11396 3.52417,-1.11396c1.37726,0 2.54523,0.37132 3.50393,1.11397c0.95868,0.72914 1.68782,1.74859 2.18742,3.05834c0.4996,1.29625 0.7494,2.80854 0.7494,4.53687c0,1.71483 -0.2498,3.22711 -0.74939,4.53687c-0.4996,1.30975 -1.22874,2.33594 -2.18742,3.07859c-0.95868,0.72914 -2.12665,1.09371 -3.50391,1.09371zM278.12081,162.36868c0.67512,0 1.25574,-0.21605 1.74183,-0.64812c0.4996,-0.43208 0.88442,-1.07345 1.15448,-1.92411c0.27005,-0.86417 0.40508,-1.94437 0.40508,-3.24062c0,-1.30975 -0.13503,-2.38996 -0.40508,-3.24062c-0.27005,-0.85066 -0.65488,-1.48528 -1.15446,-1.90386c-0.48609,-0.43208 -1.06671,-0.64812 -1.74183,-0.64812c-0.66163,0 -1.24223,0.21605 -1.74183,0.64812c-0.4996,0.41858 -0.89117,1.0532 -1.17472,1.90386c-0.27005,0.85066 -0.40508,1.93086 -0.40508,3.24062c0,1.29625 0.13503,2.37645 0.40508,3.24062c0.28355,0.85066 0.67512,1.49203 1.17472,1.92412c0.4996,0.43208 1.0802,0.64812 1.74183,0.64812z" fill="#ffffff" stroke="none" stroke-width="1" stroke-linecap="square"/><path d="M155.67196,178.31306c0.24782,0 0.46908,0.09294 0.66379,0.2788c0.19471,0.17701 0.29207,0.41155 0.29207,0.70361c0,0.08851 -0.01327,0.18586 -0.03982,0.29207c-0.02656,0.09735 -0.0708,0.19471 -0.13276,0.29207l-3.59772,5.15099l0.2788,-1.10189v4.55359c0,0.27437 -0.09293,0.50447 -0.27879,0.69034c-0.18586,0.18586 -0.39827,0.2788 -0.63723,0.2788c-0.26551,0 -0.4912,-0.09293 -0.67706,-0.27879c-0.18586,-0.18586 -0.27879,-0.41597 -0.27879,-0.69034v-4.42082l0.13276,0.50447l-3.42515,-4.54031c-0.1062,-0.14161 -0.18144,-0.27437 -0.22569,-0.39827c-0.04425,-0.13276 -0.06637,-0.25223 -0.06637,-0.35844c0,-0.28321 0.11063,-0.51334 0.3319,-0.69034c0.22127,-0.17701 0.45137,-0.26551 0.69034,-0.26551c0.29207,0 0.54872,0.14604 0.76999,0.4381l3.04015,4.19514l-0.43809,-0.0531l2.80119,-4.11548c0.22127,-0.30976 0.48678,-0.46465 0.79654,-0.46465zM165.38507,185.21645c0,0.86735 -0.19471,1.63292 -0.58413,2.29671c-0.38058,0.65494 -0.89833,1.16827 -1.55326,1.53999c-0.64609,0.37172 -1.3674,0.55759 -2.16395,0.55759c-0.8054,0 -1.53556,-0.18586 -2.19049,-0.55759c-0.64609,-0.37172 -1.16384,-0.88505 -1.55326,-1.53999c-0.38058,-0.66379 -0.57085,-1.42936 -0.57085,-2.2967c0,-0.86735 0.19029,-1.6285 0.57086,-2.28343c0.38942,-0.66379 0.90718,-1.18153 1.55327,-1.55326c0.65494,-0.38058 1.38511,-0.57085 2.1905,-0.57085c0.79654,0 1.51786,0.19029 2.16396,0.57086c0.65494,0.37172 1.17269,0.88948 1.55327,1.55327c0.38942,0.65494 0.58413,1.41608 0.58413,2.28343zM163.48663,185.21645c0,-0.53988 -0.11063,-1.00453 -0.33189,-1.39395c-0.21241,-0.39827 -0.50005,-0.70804 -0.86292,-0.9293c-0.36287,-0.22127 -0.76557,-0.33189 -1.20809,-0.33189c-0.45137,0 -0.8585,0.11063 -1.22137,0.3319c-0.36287,0.22127 -0.65494,0.53103 -0.8762,0.9293c-0.21241,0.38942 -0.31862,0.85408 -0.31862,1.39396c0,0.53103 0.1062,0.99569 0.31862,1.39396c0.22127,0.38942 0.51334,0.69919 0.8762,0.9293c0.36287,0.22127 0.76999,0.3319 1.22137,0.3319c0.44252,0 0.84522,-0.11063 1.2081,-0.33189c0.36287,-0.23011 0.65051,-0.53988 0.86293,-0.9293c0.22127,-0.39827 0.3319,-0.86292 0.3319,-1.39395zM173.2724,180.96821c0.27437,0 0.50005,0.09294 0.67707,0.2788c0.17701,0.18586 0.26551,0.41597 0.26551,0.69034v4.02256c0,1.12401 -0.31419,2.01349 -0.94257,2.66843c-0.61954,0.65494 -1.51343,0.9824 -2.6817,0.9824c-1.17712,0 -2.07545,-0.32747 -2.69498,-0.9824c-0.61069,-0.65494 -0.91602,-1.54442 -0.91602,-2.66842v-4.02255c0,-0.27437 0.08851,-0.50447 0.26551,-0.69034c0.17701,-0.18586 0.4027,-0.27879 0.67707,-0.27879c0.27437,0 0.50005,0.09294 0.67707,0.2788c0.18586,0.18586 0.2788,0.41597 0.2788,0.69034v4.02256c0,0.64609 0.14161,1.12844 0.42483,1.44706c0.28321,0.30976 0.71247,0.46466 1.28776,0.46466c0.58413,0 1.01781,-0.15488 1.30103,-0.46465c0.28321,-0.31862 0.42483,-0.80098 0.42483,-1.44705v-4.02255c0,-0.27437 0.08851,-0.50447 0.26551,-0.69034c0.18586,-0.18586 0.41597,-0.27879 0.69034,-0.27879zM184.16116,180.8089c0.44252,0 0.84522,0.0708 1.2081,0.21241c0.37172,0.13276 0.69034,0.30534 0.95586,0.51776c0.27437,0.21241 0.48678,0.42925 0.63723,0.65051c0.15931,0.21241 0.23896,0.39384 0.23896,0.54431l-0.41155,0.19914v-1.15499c0,-0.27437 0.08851,-0.50447 0.26551,-0.69034c0.18586,-0.18586 0.41597,-0.27879 0.69034,-0.27879c0.27437,0 0.50005,0.09294 0.67707,0.2788c0.17701,0.17701 0.26551,0.40712 0.26551,0.69034v7.04942c0,0.92045 -0.19913,1.65947 -0.5974,2.21706c-0.38942,0.55759 -0.90718,0.96028 -1.55326,1.2081c-0.64609,0.24782 -1.34085,0.37172 -2.08429,0.37172c-0.20356,0 -0.47793,-0.02656 -0.8231,-0.07966c-0.33632,-0.0531 -0.65936,-0.11948 -0.96913,-0.19913c-0.30092,-0.0708 -0.53103,-0.13719 -0.69034,-0.19913c-0.31862,-0.14161 -0.53988,-0.31419 -0.66379,-0.51775c-0.11506,-0.20356 -0.13719,-0.4204 -0.06637,-0.6505c0.09735,-0.30976 0.25224,-0.52218 0.46466,-0.63723c0.21241,-0.1062 0.43368,-0.11948 0.66379,-0.03982c0.1062,0.03541 0.2788,0.10178 0.51776,0.19914c0.24782,0.09735 0.51334,0.18144 0.79654,0.25224c0.29207,0.07966 0.54872,0.11948 0.76999,0.11948c0.79654,0 1.38511,-0.15931 1.76568,-0.47793c0.38058,-0.30976 0.57086,-0.74344 0.57086,-1.30103v-1.38068l0.18586,0.13276c0,0.14161 -0.0708,0.30976 -0.21241,0.50447c-0.14161,0.19471 -0.33632,0.38942 -0.58413,0.58413c-0.24782,0.18586 -0.5443,0.34517 -0.88947,0.47793c-0.33632,0.13276 -0.69476,0.19914 -1.07533,0.19914c-0.74344,0 -1.41608,-0.18586 -2.01792,-0.55759c-0.60183,-0.38058 -1.07976,-0.89833 -1.43379,-1.55326c-0.34517,-0.66379 -0.51775,-1.42492 -0.51775,-2.28343c0,-0.86735 0.17259,-1.6285 0.51776,-2.28343c0.35402,-0.66379 0.8231,-1.18153 1.40723,-1.55326c0.59298,-0.38058 1.25677,-0.57085 1.99136,-0.57085zM184.45322,182.5613c-0.46908,0 -0.88505,0.11506 -1.24792,0.34517c-0.36287,0.23011 -0.64609,0.54872 -0.84965,0.95586c-0.19471,0.39827 -0.29207,0.84965 -0.29207,1.35413c0,0.49562 0.09735,0.947 0.29207,1.35413c0.20356,0.39827 0.48678,0.71689 0.84965,0.95586c0.36287,0.23011 0.77885,0.34517 1.24792,0.34517c0.48678,0 0.91161,-0.11506 1.27447,-0.34517c0.36287,-0.23896 0.64166,-0.55759 0.83637,-0.95586c0.20356,-0.40712 0.30534,-0.8585 0.30534,-1.35413c0,-0.50447 -0.10178,-0.95586 -0.30533,-1.35413c-0.19471,-0.40712 -0.4735,-0.72574 -0.83637,-0.95586c-0.36287,-0.23011 -0.78769,-0.34517 -1.27447,-0.34517zM194.35572,189.61072c-0.90275,0 -1.68602,-0.18586 -2.34981,-0.55759c-0.65494,-0.38058 -1.15941,-0.89389 -1.51343,-1.53999c-0.35402,-0.64609 -0.53103,-1.37182 -0.53103,-2.17722c0,-0.95586 0.19029,-1.7701 0.57086,-2.44273c0.38942,-0.67264 0.89389,-1.18597 1.51343,-1.53999c0.62838,-0.36287 1.29217,-0.5443 1.99136,-0.5443c0.53988,0 1.04879,0.11063 1.52671,0.3319c0.47793,0.22127 0.90275,0.5266 1.27447,0.91603c0.37172,0.38942 0.66379,0.83637 0.8762,1.34086c0.22127,0.50447 0.3319,1.04437 0.3319,1.61964c-0.00885,0.24782 -0.11063,0.45137 -0.30533,0.61069c-0.18586,0.15931 -0.40712,0.23896 -0.66379,0.23896h-6.05374l-0.47793,-1.57981h5.81478l-0.34517,0.31862v-0.43809c-0.01769,-0.30092 -0.12833,-0.57085 -0.33189,-0.80982c-0.19471,-0.24782 -0.43809,-0.44252 -0.73016,-0.58413c-0.28321,-0.14161 -0.58856,-0.21241 -0.91602,-0.21241c-0.31862,0 -0.61511,0.04425 -0.88947,0.13276c-0.27437,0.07966 -0.51334,0.22127 -0.71689,0.42483c-0.20356,0.19471 -0.36287,0.46466 -0.47793,0.80983c-0.11506,0.33632 -0.17258,0.76114 -0.17258,1.27447c0,0.56644 0.11948,1.04879 0.35845,1.44706c0.23896,0.39827 0.54431,0.70361 0.91603,0.91603c0.38058,0.20356 0.77885,0.30534 1.19482,0.30534c0.39827,0 0.71247,-0.03098 0.94258,-0.09293c0.23011,-0.0708 0.41597,-0.15045 0.55759,-0.23896c0.14161,-0.08851 0.26995,-0.16373 0.385,-0.22569c0.19471,-0.09735 0.37615,-0.14603 0.54431,-0.14603c0.23011,0 0.4204,0.07966 0.57086,0.23896c0.15931,0.15931 0.23896,0.34517 0.23896,0.55759c0,0.28321 -0.14603,0.53988 -0.43809,0.76999c-0.28321,0.23896 -0.67264,0.44695 -1.16827,0.62397c-0.49562,0.16816 -1.00453,0.25224 -1.52671,0.25224zM199.72601,181.12751h3.75705c0.24782,0 0.4558,0.08408 0.62397,0.25224c0.17701,0.16816 0.26551,0.38058 0.26551,0.63723c0,0.23896 -0.08851,0.44252 -0.26551,0.61069c-0.16816,0.15931 -0.37615,0.23896 -0.62396,0.23896h-3.75704c-0.25666,0 -0.46908,-0.08408 -0.63723,-0.25223c-0.16816,-0.16816 -0.25223,-0.37615 -0.25223,-0.62396c0,-0.24782 0.08408,-0.45137 0.25224,-0.61069c0.16816,-0.16816 0.38058,-0.25223 0.63723,-0.25223zM201.42531,179.14943c0.27437,0 0.49562,0.09294 0.66379,0.2788c0.17701,0.18586 0.26551,0.41597 0.26551,0.69034v7.04942c0,0.15045 0.02656,0.27437 0.07966,0.37172c0.06195,0.08851 0.14161,0.15488 0.23896,0.19914c0.1062,0.04425 0.21683,0.06638 0.3319,0.06638c0.12391,0 0.23896,-0.02212 0.34517,-0.06637c0.1062,-0.0531 0.23011,-0.07966 0.37172,-0.07966c0.14161,0 0.27437,0.0708 0.39827,0.21241c0.12391,0.13276 0.18586,0.32305 0.18586,0.57086c0,0.29207 -0.16373,0.53546 -0.4912,0.73017c-0.31862,0.18586 -0.66379,0.2788 -1.03551,0.2788c-0.22127,0 -0.46908,-0.01769 -0.74344,-0.0531c-0.26551,-0.03541 -0.51775,-0.12391 -0.75672,-0.26551c-0.23011,-0.15045 -0.42483,-0.37172 -0.58413,-0.66379c-0.15931,-0.29207 -0.23896,-0.69919 -0.23896,-1.22137v-7.12907c0,-0.27437 0.08851,-0.50447 0.26551,-0.69034c0.18586,-0.18586 0.4204,-0.27879 0.70361,-0.27879zM213.05043,189.45142c-0.29207,0 -0.53546,-0.09293 -0.73016,-0.27879c-0.18586,-0.18586 -0.27879,-0.41597 -0.27879,-0.69034v-7.992l0.2257,0.35845l-1.20809,0.73017c-0.15931,0.08851 -0.32747,0.13276 -0.50447,0.13276c-0.27437,0 -0.50447,-0.10178 -0.69034,-0.30533c-0.17701,-0.20356 -0.26551,-0.42483 -0.26551,-0.66379c0,-0.35402 0.16373,-0.62838 0.49121,-0.8231l2.38963,-1.4205c0.18586,-0.09735 0.41597,-0.14603 0.69034,-0.14603c0.27437,0 0.49562,0.09294 0.66379,0.2788c0.17701,0.18586 0.26551,0.41597 0.26551,0.69034v9.16027c0,0.27437 -0.09735,0.50447 -0.29207,0.69034c-0.19471,0.18586 -0.44695,0.2788 -0.75672,0.2788zM219.00618,189.61072c-0.38942,0 -0.8054,-0.06195 -1.24792,-0.18586c-0.44252,-0.12391 -0.8054,-0.30092 -1.08861,-0.53103c-0.14161,-0.11506 -0.25223,-0.26551 -0.33189,-0.45137c-0.07966,-0.18586 -0.11948,-0.36287 -0.11948,-0.53103c0,-0.17701 0.07523,-0.34517 0.2257,-0.50447c0.15931,-0.15931 0.38058,-0.23896 0.66379,-0.23896c0.19471,0 0.43368,0.10178 0.71689,0.30534c0.16816,0.1062 0.34959,0.20356 0.54431,0.29207c0.20356,0.07966 0.41155,0.11948 0.62397,0.11948c0.44252,0 0.84965,-0.10178 1.22137,-0.30533c0.38058,-0.20356 0.68148,-0.4735 0.90275,-0.80982c0.23011,-0.33632 0.34517,-0.69919 0.34517,-1.08861c0,-0.40712 -0.09293,-0.7523 -0.27879,-1.03551c-0.17701,-0.28321 -0.41597,-0.50447 -0.71689,-0.66379c-0.30092,-0.15931 -0.62838,-0.23896 -0.9824,-0.23896c-0.32747,0 -0.61511,0.0531 -0.86292,0.15931c-0.23896,0.1062 -0.46022,0.21683 -0.66379,0.3319c-0.19471,0.1062 -0.39384,0.15931 -0.5974,0.15931c-0.34517,0 -0.60183,-0.07523 -0.76999,-0.22569c-0.16816,-0.15931 -0.27437,-0.34074 -0.31862,-0.5443c-0.04425,-0.21241 -0.05753,-0.4027 -0.03982,-0.57085l0.49121,-3.92962c0.04425,-0.23011 0.15488,-0.41597 0.3319,-0.55759c0.17701,-0.14161 0.385,-0.21241 0.62397,-0.21241h4.58014c0.25666,0 0.46908,0.08408 0.63723,0.25224c0.16816,0.16816 0.25224,0.38058 0.25224,0.63723c0,0.24782 -0.08408,0.4558 -0.25223,0.62397c-0.16816,0.15931 -0.38058,0.23896 -0.63723,0.23896h-4.08893l0.17259,-0.14603l-0.42483,3.29239l-0.21241,-0.5974c0.0708,-0.1062 0.20798,-0.20798 0.41155,-0.30533c0.21241,-0.09735 0.4558,-0.17701 0.73017,-0.23896c0.28321,-0.0708 0.55315,-0.1062 0.80983,-0.1062c0.70804,0 1.34086,0.16373 1.89844,0.49121c0.56644,0.31862 1.00896,0.75673 1.32757,1.3143c0.32747,0.54872 0.49121,1.17269 0.49121,1.87189c0,0.54872 -0.11948,1.06206 -0.35844,1.53999c-0.23011,0.46908 -0.54872,0.88505 -0.95586,1.24792c-0.40712,0.36287 -0.87177,0.64609 -1.39395,0.84965c-0.52218,0.19471 -1.07533,0.29207 -1.65946,0.29207zM233.63135,180.8089c0.60183,0 1.12401,0.06638 1.56654,0.19914c0.45137,0.12391 0.80098,0.30092 1.04879,0.53103c0.24782,0.22127 0.37172,0.49121 0.37172,0.80983c0,0.21241 -0.06195,0.41155 -0.18586,0.59741c-0.12391,0.18586 -0.30976,0.2788 -0.55759,0.2788c-0.16816,0 -0.30976,-0.02212 -0.42483,-0.06637c-0.1062,-0.0531 -0.20356,-0.11506 -0.29207,-0.18586c-0.07966,-0.07966 -0.17701,-0.15045 -0.29207,-0.21241c-0.1062,-0.06195 -0.26995,-0.11063 -0.4912,-0.14603c-0.21241,-0.03541 -0.37172,-0.0531 -0.47793,-0.0531c-0.53988,0 -1.00011,0.11506 -1.38068,0.34517c-0.37172,0.23011 -0.65936,0.54431 -0.86292,0.94258c-0.19471,0.39827 -0.29207,0.85408 -0.29207,1.36741c0,0.51334 0.10178,0.96913 0.30534,1.36741c0.21241,0.38942 0.50005,0.70361 0.86293,0.94258c0.36287,0.23011 0.78327,0.34517 1.2612,0.34517c0.26551,0 0.49121,-0.01769 0.67707,-0.0531c0.19471,-0.03541 0.35402,-0.08408 0.47793,-0.14603c0.15045,-0.07966 0.28321,-0.16816 0.39827,-0.26551c0.11506,-0.09735 0.28764,-0.14603 0.51776,-0.14603c0.27437,0 0.48678,0.08851 0.63723,0.26551c0.15045,0.17701 0.2257,0.38942 0.2257,0.63723c0,0.26551 -0.15045,0.5089 -0.45137,0.73017c-0.29207,0.21241 -0.68148,0.385 -1.16827,0.51776c-0.47793,0.13276 -0.99568,0.19914 -1.55326,0.19914c-0.83195,0 -1.55768,-0.19029 -2.17722,-0.57085c-0.61069,-0.38942 -1.08418,-0.91602 -1.4205,-1.57981c-0.32747,-0.67264 -0.4912,-1.4205 -0.4912,-2.24359c0,-0.86735 0.17701,-1.6285 0.53103,-2.28343c0.35402,-0.66379 0.84522,-1.18153 1.47361,-1.55326c0.62838,-0.38058 1.3497,-0.57085 2.16396,-0.57085zM246.24213,185.21645c0,0.86735 -0.19471,1.63292 -0.58413,2.29671c-0.38058,0.65494 -0.89833,1.16827 -1.55326,1.53999c-0.64609,0.37172 -1.3674,0.55759 -2.16395,0.55759c-0.8054,0 -1.53556,-0.18586 -2.19049,-0.55759c-0.64609,-0.37172 -1.16384,-0.88505 -1.55326,-1.53999c-0.38058,-0.66379 -0.57085,-1.42936 -0.57085,-2.2967c0,-0.86735 0.19029,-1.6285 0.57086,-2.28343c0.38942,-0.66379 0.90718,-1.18153 1.55327,-1.55326c0.65494,-0.38058 1.38511,-0.57085 2.1905,-0.57085c0.79654,0 1.51786,0.19029 2.16396,0.57086c0.65494,0.37172 1.17269,0.88948 1.55327,1.55327c0.38942,0.65494 0.58413,1.41608 0.58413,2.28343zM244.34369,185.21645c0,-0.53988 -0.11063,-1.00453 -0.33189,-1.39395c-0.21241,-0.39827 -0.50005,-0.70804 -0.86292,-0.9293c-0.36287,-0.22127 -0.76557,-0.33189 -1.20809,-0.33189c-0.45137,0 -0.8585,0.11063 -1.22137,0.3319c-0.36287,0.22127 -0.65494,0.53103 -0.8762,0.9293c-0.21241,0.38942 -0.31862,0.85408 -0.31862,1.39396c0,0.53103 0.1062,0.99569 0.31862,1.39396c0.22127,0.38942 0.51334,0.69919 0.8762,0.9293c0.36287,0.22127 0.76999,0.3319 1.22137,0.3319c0.44252,0 0.84522,-0.11063 1.2081,-0.33189c0.36287,-0.23011 0.65051,-0.53988 0.86293,-0.9293c0.22127,-0.39827 0.3319,-0.86292 0.3319,-1.39395zM249.62898,188.48228c0,0.27437 -0.09293,0.50447 -0.27879,0.69034c-0.17701,0.18586 -0.4027,0.2788 -0.67706,0.2788c-0.27437,0 -0.50447,-0.09293 -0.69034,-0.27879c-0.17701,-0.18586 -0.26551,-0.41597 -0.26551,-0.69034v-6.54494c0,-0.27437 0.08851,-0.50447 0.26551,-0.69034c0.18586,-0.18586 0.41597,-0.27879 0.69034,-0.27879c0.27437,0 0.50005,0.09294 0.67707,0.2788c0.18586,0.18586 0.2788,0.41597 0.2788,0.69034zM248.58019,179.94598c-0.36287,0 -0.61954,-0.05753 -0.76999,-0.17258c-0.14161,-0.12391 -0.21241,-0.33189 -0.21241,-0.62396v-0.30533c0,-0.30092 0.07966,-0.50447 0.23896,-0.61069c0.16816,-0.11506 0.4204,-0.17258 0.75673,-0.17258c0.37172,0 0.62838,0.05753 0.76999,0.17259c0.15045,0.11506 0.2257,0.31862 0.2257,0.61069v0.30534c0,0.30976 -0.07966,0.52218 -0.23896,0.63723c-0.15931,0.1062 -0.41597,0.15931 -0.76999,0.15931zM256.10469,180.8089c0.77885,0 1.37182,0.16373 1.77895,0.49121c0.40712,0.32747 0.68591,0.76557 0.83637,1.3143c0.15931,0.53988 0.23896,1.14614 0.23896,1.81879v4.04911c0,0.27437 -0.09293,0.50447 -0.27879,0.69034c-0.17701,0.18586 -0.4027,0.2788 -0.67706,0.2788c-0.27437,0 -0.50005,-0.09293 -0.67706,-0.27879c-0.17701,-0.18586 -0.26551,-0.41597 -0.26551,-0.69034v-4.0491c0,-0.35402 -0.04868,-0.66822 -0.14603,-0.94257c-0.08851,-0.28321 -0.24782,-0.5089 -0.47793,-0.67706c-0.23011,-0.16816 -0.56201,-0.25223 -0.99568,-0.25223c-0.42483,0 -0.78326,0.08408 -1.07533,0.25224c-0.28321,0.16816 -0.50447,0.39384 -0.66379,0.67707c-0.15045,0.27437 -0.22569,0.58856 -0.22569,0.94258v4.04911c0,0.27437 -0.09293,0.50447 -0.27879,0.69034c-0.17701,0.18586 -0.4027,0.2788 -0.67706,0.2788c-0.27437,0 -0.50005,-0.09293 -0.67706,-0.27879c-0.17701,-0.18586 -0.26551,-0.41597 -0.26551,-0.69034v-6.54494c0,-0.27437 0.08851,-0.50447 0.26551,-0.69034c0.17701,-0.18586 0.4027,-0.27879 0.67707,-0.27879c0.27437,0 0.50005,0.09294 0.67707,0.2788c0.18586,0.18586 0.2788,0.41597 0.2788,0.69034v0.67707l-0.23896,-0.03982c0.09735,-0.17701 0.23454,-0.3673 0.41155,-0.57085c0.17701,-0.21241 0.385,-0.40712 0.62397,-0.58413c0.24782,-0.18586 0.52218,-0.33189 0.8231,-0.43809c0.30976,-0.11506 0.64609,-0.17258 1.00896,-0.17258zM260.53379,188.13712c-0.1062,-0.15045 -0.15488,-0.34074 -0.14603,-0.57085c0.00885,-0.23011 0.14604,-0.42925 0.41155,-0.5974c0.16816,-0.1062 0.34517,-0.15045 0.53103,-0.13276c0.19471,0.00885 0.38058,0.10178 0.55759,0.2788c0.30976,0.30976 0.63281,0.54872 0.96913,0.71689c0.33632,0.16816 0.76114,0.25224 1.27447,0.25224c0.15931,-0.00885 0.3319,-0.03098 0.51776,-0.06637c0.19471,-0.03541 0.36287,-0.11948 0.50447,-0.25223c0.14161,-0.13276 0.21241,-0.33632 0.21241,-0.61069c0,-0.23011 -0.07966,-0.41155 -0.23896,-0.5443c-0.15931,-0.14161 -0.37172,-0.26108 -0.63723,-0.35844c-0.25666,-0.09735 -0.53988,-0.18586 -0.84965,-0.26551c-0.32747,-0.09735 -0.66379,-0.20356 -1.00896,-0.31862c-0.34517,-0.12391 -0.65936,-0.27437 -0.94257,-0.45137c-0.28321,-0.18586 -0.51775,-0.43368 -0.70361,-0.74344c-0.17701,-0.30976 -0.26551,-0.69476 -0.26551,-1.15499c0,-0.53103 0.14604,-0.97798 0.4381,-1.34085c0.30092,-0.37172 0.68591,-0.65936 1.155,-0.86292c0.46908,-0.20356 0.96471,-0.30533 1.48689,-0.30533c0.32747,0 0.66822,0.03983 1.02224,0.11948c0.36287,0.07966 0.70804,0.20798 1.03551,0.385c0.32747,0.17701 0.60183,0.40712 0.8231,0.69034c0.11506,0.15931 0.18144,0.34959 0.19914,0.57086c0.02656,0.22127 -0.0708,0.4204 -0.29207,0.59741c-0.15931,0.13276 -0.34517,0.19029 -0.55759,0.17259c-0.21241,-0.01769 -0.38499,-0.08851 -0.51775,-0.21241c-0.18586,-0.23896 -0.42925,-0.42483 -0.73016,-0.55759c-0.30092,-0.14161 -0.64609,-0.21241 -1.03551,-0.21241c-0.15931,0 -0.33189,0.02212 -0.51775,0.06638c-0.18586,0.03541 -0.34959,0.11506 -0.4912,0.23896c-0.13276,0.11506 -0.19913,0.30534 -0.19913,0.57086c0,0.23896 0.07966,0.43368 0.23896,0.58413c0.15931,0.14161 0.37172,0.25666 0.63723,0.34517c0.27437,0.08851 0.56644,0.17701 0.8762,0.26551c0.30976,0.07966 0.62838,0.17701 0.95586,0.29207c0.32747,0.11506 0.62838,0.26995 0.90275,0.46466c0.28321,0.18586 0.5089,0.42925 0.67707,0.73017c0.16816,0.30092 0.25224,0.68591 0.25224,1.155c0,0.53988 -0.15931,1.00011 -0.47793,1.38068c-0.31862,0.38058 -0.71689,0.66822 -1.19482,0.86293c-0.46908,0.19471 -0.95143,0.29207 -1.44705,0.29207c-0.62838,0 -1.25677,-0.1062 -1.88516,-0.31862c-0.61954,-0.22127 -1.13286,-0.60626 -1.53999,-1.15499zM277.48465,180.8089c0.74344,0 1.40723,0.19029 1.99136,0.57086c0.58413,0.37172 1.04879,0.88505 1.39396,1.53999c0.34517,0.65494 0.51776,1.41608 0.51776,2.28343c0,0.86735 -0.17258,1.63292 -0.51775,2.29671c-0.34517,0.65494 -0.8054,1.17269 -1.38068,1.55327c-0.57528,0.37172 -1.22137,0.55759 -1.93826,0.55759c-0.42483,0 -0.8231,-0.06637 -1.19482,-0.19913c-0.36287,-0.14161 -0.68591,-0.31862 -0.96913,-0.53103c-0.27437,-0.21241 -0.4912,-0.42483 -0.6505,-0.63723c-0.15045,-0.22127 -0.22569,-0.40712 -0.22569,-0.55759l0.49121,-0.19913v4.16859c0,0.27437 -0.09293,0.50447 -0.27879,0.69034c-0.17701,0.18586 -0.4027,0.2788 -0.67706,0.2788c-0.27437,0 -0.50005,-0.09293 -0.67706,-0.27879c-0.17701,-0.17701 -0.26551,-0.40712 -0.26551,-0.69034v-9.71785c0,-0.27437 0.08851,-0.50447 0.26551,-0.69034c0.17701,-0.18586 0.4027,-0.27879 0.67707,-0.27879c0.27437,0 0.50005,0.09294 0.67707,0.2788c0.18586,0.18586 0.2788,0.41597 0.2788,0.69034v0.78327l-0.26551,-0.14603c0,-0.14161 0.0708,-0.30976 0.21241,-0.50447c0.15045,-0.19471 0.34959,-0.38942 0.59741,-0.58413c0.25666,-0.19471 0.55315,-0.35402 0.88948,-0.47793c0.33632,-0.13276 0.68591,-0.19913 1.04879,-0.19913zM277.24568,182.5613c-0.46022,0 -0.86735,0.11506 -1.22137,0.34517c-0.34517,0.23011 -0.61511,0.54431 -0.80982,0.94258c-0.19471,0.39827 -0.29207,0.84965 -0.29207,1.35413c0,0.49562 0.09735,0.947 0.29207,1.35413c0.19471,0.40712 0.46466,0.73017 0.80983,0.96913c0.35402,0.23011 0.76114,0.34517 1.22137,0.34517c0.46908,0 0.8762,-0.11506 1.22137,-0.34517c0.34517,-0.23896 0.61511,-0.56201 0.80983,-0.96913c0.19471,-0.40712 0.29207,-0.8585 0.29207,-1.35413c0,-0.50447 -0.09735,-0.95586 -0.29207,-1.35413c-0.19471,-0.39827 -0.46465,-0.71247 -0.80982,-0.94257c-0.34517,-0.23011 -0.7523,-0.34517 -1.22137,-0.34517zM286.89534,189.61072c-0.90275,0 -1.68602,-0.18586 -2.34981,-0.55759c-0.65494,-0.38058 -1.15941,-0.89389 -1.51343,-1.53999c-0.35402,-0.64609 -0.53103,-1.37182 -0.53103,-2.17722c0,-0.95586 0.19029,-1.7701 0.57086,-2.44273c0.38942,-0.67264 0.89389,-1.18597 1.51343,-1.53999c0.62838,-0.36287 1.29217,-0.5443 1.99136,-0.5443c0.53988,0 1.04879,0.11063 1.52671,0.3319c0.47793,0.22127 0.90275,0.5266 1.27447,0.91603c0.37172,0.38942 0.66379,0.83637 0.8762,1.34086c0.22127,0.50447 0.3319,1.04437 0.3319,1.61964c-0.00885,0.24782 -0.11063,0.45137 -0.30533,0.61069c-0.18586,0.15931 -0.40712,0.23896 -0.66379,0.23896h-6.05374l-0.47793,-1.57981h5.81478l-0.34517,0.31862v-0.43809c-0.01769,-0.30092 -0.12833,-0.57085 -0.33189,-0.80982c-0.19471,-0.24782 -0.43809,-0.44252 -0.73016,-0.58413c-0.28321,-0.14161 -0.58856,-0.21241 -0.91602,-0.21241c-0.31862,0 -0.61511,0.04425 -0.88947,0.13276c-0.27437,0.07966 -0.51334,0.22127 -0.71689,0.42483c-0.20356,0.19471 -0.36287,0.46466 -0.47793,0.80983c-0.11506,0.33632 -0.17258,0.76114 -0.17258,1.27447c0,0.56644 0.11948,1.04879 0.35845,1.44706c0.23896,0.39827 0.54431,0.70361 0.91603,0.91603c0.38058,0.20356 0.77885,0.30534 1.19482,0.30534c0.39827,0 0.71247,-0.03098 0.94258,-0.09293c0.23011,-0.0708 0.41597,-0.15045 0.55759,-0.23896c0.14161,-0.08851 0.26995,-0.16373 0.385,-0.22569c0.19471,-0.09735 0.37615,-0.14603 0.54431,-0.14603c0.23011,0 0.4204,0.07966 0.57086,0.23896c0.15931,0.15931 0.23896,0.34517 0.23896,0.55759c0,0.28321 -0.14603,0.53988 -0.43809,0.76999c-0.28321,0.23896 -0.67264,0.44695 -1.16827,0.62397c-0.49562,0.16816 -1.00453,0.25224 -1.52671,0.25224zM293.11529,189.45142c-0.27437,0 -0.50005,-0.09293 -0.67706,-0.27879c-0.17701,-0.18586 -0.26551,-0.41597 -0.26551,-0.69034v-6.54494c0,-0.27437 0.08851,-0.50447 0.26551,-0.69034c0.17701,-0.18586 0.4027,-0.27879 0.67707,-0.27879c0.27437,0 0.50005,0.09294 0.67707,0.2788c0.18586,0.18586 0.2788,0.41597 0.2788,0.69034v1.48689l-0.1062,-1.06206c0.11506,-0.24782 0.26108,-0.46908 0.4381,-0.66379c0.18586,-0.20356 0.39384,-0.3673 0.62397,-0.4912c0.23896,-0.13276 0.49121,-0.23011 0.75673,-0.29207c0.26551,-0.0708 0.53103,-0.1062 0.79654,-0.1062c0.30976,0 0.57086,0.09294 0.78327,0.2788c0.22127,0.17701 0.3319,0.385 0.3319,0.62397c0,0.35402 -0.08851,0.60626 -0.26551,0.75673c-0.17701,0.15045 -0.37172,0.2257 -0.58413,0.2257c-0.20356,0 -0.38942,-0.03541 -0.55759,-0.1062c-0.15931,-0.0708 -0.34517,-0.1062 -0.55759,-0.1062c-0.18586,0 -0.37615,0.04425 -0.57085,0.13276c-0.19471,0.08851 -0.37615,0.23011 -0.5443,0.42483c-0.15931,0.18586 -0.29207,0.4204 -0.39827,0.70361c-0.09735,0.27437 -0.14603,0.60183 -0.14603,0.9824v3.75705c0,0.27437 -0.09293,0.50447 -0.27879,0.69034c-0.17701,0.18586 -0.4027,0.2788 -0.67706,0.2788zM307.18116,180.8089c0.60183,0 1.12401,0.06638 1.56654,0.19914c0.45137,0.12391 0.80098,0.30092 1.04879,0.53103c0.24782,0.22127 0.37172,0.49121 0.37172,0.80983c0,0.21241 -0.06195,0.41155 -0.18586,0.59741c-0.12391,0.18586 -0.30976,0.2788 -0.55759,0.2788c-0.16816,0 -0.30976,-0.02212 -0.42483,-0.06637c-0.1062,-0.0531 -0.20356,-0.11506 -0.29207,-0.18586c-0.07966,-0.07966 -0.17701,-0.15045 -0.29207,-0.21241c-0.1062,-0.06195 -0.26995,-0.11063 -0.4912,-0.14603c-0.21241,-0.03541 -0.37172,-0.0531 -0.47793,-0.0531c-0.53986,0 -1.00008,0.11506 -1.38066,0.34517c-0.37172,0.23011 -0.65936,0.54431 -0.86292,0.94258c-0.19471,0.39827 -0.29207,0.85408 -0.29207,1.36741c0,0.51334 0.10178,0.96913 0.30534,1.36741c0.21241,0.38942 0.50005,0.70361 0.86293,0.94258c0.36287,0.23011 0.78325,0.34517 1.26116,0.34517c0.26551,0 0.49121,-0.01769 0.67707,-0.0531c0.19471,-0.03541 0.35402,-0.08408 0.47793,-0.14603c0.15045,-0.07966 0.28321,-0.16816 0.39827,-0.26551c0.11506,-0.09735 0.28764,-0.14603 0.51776,-0.14603c0.27437,0 0.48678,0.08851 0.63723,0.26551c0.15045,0.17701 0.2257,0.38942 0.2257,0.63723c0,0.26551 -0.15045,0.5089 -0.45137,0.73017c-0.29207,0.21241 -0.68148,0.385 -1.16827,0.51776c-0.47793,0.13276 -0.99568,0.19914 -1.55326,0.19914c-0.83193,0 -1.55766,-0.19029 -2.1772,-0.57085c-0.61069,-0.38942 -1.08418,-0.91602 -1.4205,-1.57981c-0.32747,-0.67264 -0.4912,-1.4205 -0.4912,-2.24359c0,-0.86735 0.17701,-1.6285 0.53103,-2.28343c0.35402,-0.66379 0.84522,-1.18153 1.47361,-1.55326c0.62838,-0.38058 1.34969,-0.57085 2.16392,-0.57085zM313.71163,188.48228c0,0.27437 -0.09293,0.50447 -0.27879,0.69034c-0.18586,0.18586 -0.41597,0.2788 -0.69034,0.2788c-0.26551,0 -0.48678,-0.09293 -0.66379,-0.27879c-0.17701,-0.18586 -0.26551,-0.41597 -0.26551,-0.69034v-9.7975c0,-0.27437 0.08851,-0.50447 0.26551,-0.69034c0.18586,-0.18586 0.41597,-0.27879 0.69034,-0.27879c0.27437,0 0.50005,0.09294 0.67707,0.2788c0.17701,0.18586 0.26551,0.41597 0.26551,0.69034zM317.72599,188.48228c0,0.27437 -0.09293,0.50447 -0.27879,0.69034c-0.17701,0.18586 -0.4027,0.2788 -0.67706,0.2788c-0.27437,0 -0.50447,-0.09293 -0.69034,-0.27879c-0.17701,-0.18586 -0.26551,-0.41597 -0.26551,-0.69034v-6.54494c0,-0.27437 0.08851,-0.50447 0.26551,-0.69034c0.18586,-0.18586 0.41597,-0.27879 0.69034,-0.27879c0.27437,0 0.50005,0.09294 0.67707,0.2788c0.18586,0.18586 0.2788,0.41597 0.2788,0.69034zM316.67721,179.94598c-0.36287,0 -0.61954,-0.05753 -0.76999,-0.17258c-0.14161,-0.12391 -0.21241,-0.33189 -0.21241,-0.62396v-0.30533c0,-0.30092 0.07966,-0.50447 0.23896,-0.61069c0.16816,-0.11506 0.4204,-0.17258 0.75673,-0.17258c0.37172,0 0.62838,0.05753 0.76999,0.17259c0.15045,0.11506 0.2257,0.31862 0.2257,0.61069v0.30534c0,0.30976 -0.07966,0.52218 -0.23896,0.63723c-0.15931,0.1062 -0.41597,0.15931 -0.76999,0.15931zM323.36528,180.8089c0.60183,0 1.12401,0.06638 1.56654,0.19914c0.45137,0.12391 0.80098,0.30092 1.04879,0.53103c0.24782,0.22127 0.37172,0.49121 0.37172,0.80983c0,0.21241 -0.06195,0.41155 -0.18586,0.59741c-0.12391,0.18586 -0.30976,0.2788 -0.55759,0.2788c-0.16816,0 -0.30976,-0.02212 -0.42483,-0.06637c-0.1062,-0.0531 -0.20356,-0.11506 -0.29207,-0.18586c-0.07966,-0.07966 -0.17701,-0.15045 -0.29207,-0.21241c-0.1062,-0.06195 -0.26995,-0.11063 -0.4912,-0.14603c-0.21241,-0.03541 -0.37172,-0.0531 -0.47793,-0.0531c-0.53988,0 -1.00011,0.11506 -1.38068,0.34517c-0.37172,0.23011 -0.65936,0.54431 -0.86292,0.94258c-0.19471,0.39827 -0.29207,0.85408 -0.29207,1.36741c0,0.51334 0.10178,0.96913 0.30534,1.36741c0.21241,0.38942 0.50005,0.70361 0.86293,0.94258c0.36287,0.23011 0.78327,0.34517 1.2612,0.34517c0.26551,0 0.49121,-0.01769 0.67707,-0.0531c0.19471,-0.03541 0.35402,-0.08408 0.47793,-0.14603c0.15045,-0.07966 0.28321,-0.16816 0.39827,-0.26551c0.11506,-0.09735 0.28764,-0.14603 0.51776,-0.14603c0.27437,0 0.48678,0.08851 0.63723,0.26551c0.15045,0.17701 0.2257,0.38942 0.2257,0.63723c0,0.26551 -0.15045,0.5089 -0.45137,0.73017c-0.29207,0.21241 -0.68148,0.385 -1.16827,0.51776c-0.47793,0.13276 -0.99568,0.19914 -1.55326,0.19914c-0.83195,0 -1.55768,-0.19029 -2.17722,-0.57085c-0.61069,-0.38942 -1.08418,-0.91602 -1.4205,-1.57981c-0.32747,-0.67264 -0.4912,-1.4205 -0.4912,-2.24359c0,-0.86735 0.17701,-1.6285 0.53103,-2.28343c0.35402,-0.66379 0.84522,-1.18153 1.47361,-1.55326c0.62838,-0.38058 1.3497,-0.57085 2.16396,-0.57085zM328.93991,189.45142c-0.27437,0 -0.50005,-0.09293 -0.67706,-0.27879c-0.17701,-0.18586 -0.26551,-0.41597 -0.26551,-0.69034v-9.7975c0,-0.27437 0.08851,-0.50447 0.26551,-0.69034c0.17701,-0.18586 0.4027,-0.27879 0.67707,-0.27879c0.27437,0 0.50005,0.09294 0.67707,0.2788c0.18586,0.18586 0.2788,0.41597 0.2788,0.69034v9.7975c0,0.27437 -0.09293,0.50447 -0.27879,0.69034c-0.17701,0.18586 -0.4027,0.2788 -0.67706,0.2788zM333.98469,180.96821c0.23896,0 0.44695,0.10178 0.62397,0.30534c0.18586,0.20356 0.2788,0.39827 0.2788,0.58413c0,0.25666 -0.12833,0.49562 -0.38499,0.71689l-4.76599,4.39428l-0.07966,-2.19049l3.62429,-3.5048c0.20356,-0.20356 0.4381,-0.30533 0.70361,-0.30533zM334.22366,189.43814c-0.27437,0 -0.5089,-0.1062 -0.70361,-0.31862l-2.93394,-3.10652l1.44706,-1.32757l2.85429,3.10652c0.20356,0.21241 0.30534,0.44695 0.30534,0.70361c0,0.27437 -0.11063,0.50005 -0.33189,0.67707c-0.21241,0.17701 -0.42483,0.26551 -0.63723,0.26551z" fill="#ffffff" stroke="none" stroke-width="1" stroke-linecap="square"/><path d="M180.7581,214.62436c-0.26041,0 -0.47396,-0.08334 -0.64062,-0.25c-0.16666,-0.16666 -0.25,-0.38021 -0.25,-0.64062v-14.8125c0,-0.27084 0.08334,-0.48959 0.25,-0.65625c0.16666,-0.16666 0.38021,-0.25 0.64063,-0.25h3.9375c0.26041,0 0.47396,0.08334 0.64063,0.25c0.16666,0.16666 0.25,0.38541 0.25,0.65625c0,0.23959 -0.08334,0.44791 -0.25,0.625c-0.16666,0.16666 -0.38021,0.25 -0.64062,0.25h-2.78125l0.09375,-0.15625v13.4375l-0.21875,-0.23437h2.90625c0.26041,0 0.47396,0.08334 0.64063,0.25c0.16666,0.17709 0.25,0.39584 0.25,0.65625c0,0.25 -0.08334,0.45834 -0.25,0.625c-0.16666,0.16666 -0.38021,0.25 -0.64062,0.25zM196.50743,198.65561c0.32291,0.15625 0.51041,0.41146 0.5625,0.76563c0.05209,0.34375 -0.03646,0.66146 -0.26562,0.95313c-0.16666,0.21875 -0.38021,0.34375 -0.64062,0.375c-0.25,0.02084 -0.50521,-0.03125 -0.76562,-0.15625c-0.29166,-0.13541 -0.60416,-0.23959 -0.9375,-0.3125c-0.33334,-0.07291 -0.67709,-0.10937 -1.03125,-0.10937c-0.67709,0 -1.28125,0.10416 -1.8125,0.3125c-0.52084,0.20834 -0.96875,0.51041 -1.34375,0.90625c-0.375,0.38541 -0.66146,0.84896 -0.85937,1.39063c-0.1875,0.53125 -0.28125,1.11979 -0.28125,1.76563c0,0.76041 0.10938,1.42188 0.32813,1.98438c0.21875,0.55209 0.52084,1.01563 0.90625,1.39063c0.38541,0.375 0.83854,0.65625 1.35938,0.84375c0.52084,0.17709 1.08854,0.26563 1.70313,0.26563c0.33334,0 0.66666,-0.03125 1,-0.09375c0.33334,-0.0625 0.65625,-0.17709 0.96875,-0.34375c0.26041,-0.125 0.51563,-0.16666 0.76563,-0.125c0.26041,0.03125 0.47916,0.16146 0.65625,0.39063c0.25,0.3125 0.33854,0.63541 0.26563,0.96875c-0.0625,0.32291 -0.25,0.55729 -0.5625,0.70313c-0.32291,0.16666 -0.65625,0.30209 -1,0.40625c-0.34375,0.10416 -0.69271,0.18229 -1.04687,0.23438c-0.34375,0.0625 -0.69271,0.09375 -1.04687,0.09375c-0.89584,0 -1.74479,-0.14062 -2.54687,-0.42187c-0.80209,-0.29166 -1.52084,-0.71354 -2.15625,-1.26562c-0.625,-0.5625 -1.11979,-1.26562 -1.48437,-2.10937c-0.35416,-0.84375 -0.53125,-1.81771 -0.53125,-2.92187c0,-0.95834 0.16146,-1.83854 0.48438,-2.64062c0.33334,-0.8125 0.80209,-1.51041 1.40625,-2.09375c0.60416,-0.59375 1.3125,-1.05729 2.125,-1.39062c0.82291,-0.33334 1.72396,-0.5 2.70313,-0.5c0.54166,0 1.07291,0.0625 1.59375,0.1875c0.52084,0.125 1.01563,0.30729 1.48438,0.54688zM201.29866,209.93686c0,0.32291 -0.10937,0.59375 -0.32812,0.8125c-0.21875,0.21875 -0.48959,0.32813 -0.8125,0.32813c-0.3125,0 -0.57291,-0.10937 -0.78125,-0.32812c-0.20834,-0.21875 -0.3125,-0.48959 -0.3125,-0.8125v-11.53125c0,-0.32291 0.10416,-0.59375 0.3125,-0.8125c0.21875,-0.21875 0.48959,-0.32812 0.8125,-0.32812c0.32291,0 0.58854,0.10938 0.79688,0.32813c0.20834,0.21875 0.3125,0.48959 0.3125,0.8125zM206.02333,209.93686c0,0.32291 -0.10937,0.59375 -0.32812,0.8125c-0.20834,0.21875 -0.47396,0.32813 -0.79687,0.32813c-0.32291,0 -0.59375,-0.10937 -0.8125,-0.32812c-0.20834,-0.21875 -0.3125,-0.48959 -0.3125,-0.8125v-7.70312c0,-0.32291 0.10416,-0.59375 0.3125,-0.8125c0.21875,-0.21875 0.48959,-0.32812 0.8125,-0.32812c0.32291,0 0.58854,0.10938 0.79688,0.32813c0.21875,0.21875 0.32813,0.48959 0.32813,0.8125zM204.78896,199.88999c-0.42709,0 -0.72916,-0.06771 -0.90625,-0.20312c-0.16666,-0.14584 -0.25,-0.39062 -0.25,-0.73437v-0.35937c0,-0.35416 0.09375,-0.59375 0.28125,-0.71875c0.19791,-0.13541 0.49479,-0.20312 0.89063,-0.20312c0.4375,0 0.73959,0.06771 0.90625,0.20313c0.17709,0.13541 0.26563,0.375 0.26563,0.71875v0.35938c0,0.36459 -0.09375,0.61459 -0.28125,0.75c-0.1875,0.125 -0.48959,0.1875 -0.90625,0.1875zM212.6606,200.90561c0.70834,0 1.32291,0.07813 1.84375,0.23438c0.53125,0.14584 0.94271,0.35416 1.23438,0.625c0.29166,0.26041 0.4375,0.57813 0.4375,0.95313c0,0.25 -0.07291,0.48438 -0.21875,0.70313c-0.14584,0.21875 -0.36459,0.32813 -0.65625,0.32813c-0.19791,0 -0.36459,-0.02604 -0.5,-0.07812c-0.125,-0.0625 -0.23959,-0.13541 -0.34375,-0.21875c-0.09375,-0.09375 -0.20834,-0.17709 -0.34375,-0.25c-0.125,-0.07291 -0.31771,-0.13021 -0.57812,-0.17187c-0.25,-0.04166 -0.4375,-0.0625 -0.5625,-0.0625c-0.63541,0 -1.17709,0.13541 -1.625,0.40625c-0.4375,0.27084 -0.77604,0.64063 -1.01562,1.10938c-0.22916,0.46875 -0.34375,1.00521 -0.34375,1.60938c0,0.60416 0.11979,1.14063 0.35938,1.60938c0.25,0.45834 0.58854,0.82813 1.01563,1.10938c0.42709,0.27084 0.92188,0.40625 1.48438,0.40625c0.3125,0 0.57813,-0.02084 0.79688,-0.0625c0.22916,-0.04166 0.41666,-0.09896 0.5625,-0.17187c0.17709,-0.09375 0.33334,-0.19791 0.46875,-0.3125c0.13541,-0.11459 0.33854,-0.17187 0.60938,-0.17187c0.32291,0 0.57291,0.10416 0.75,0.3125c0.17709,0.20834 0.26563,0.45834 0.26563,0.75c0,0.3125 -0.17709,0.59896 -0.53125,0.85938c-0.34375,0.25 -0.80209,0.45313 -1.375,0.60938c-0.5625,0.15625 -1.17187,0.23438 -1.82812,0.23438c-0.97916,0 -1.83334,-0.22396 -2.5625,-0.67187c-0.71875,-0.45834 -1.27604,-1.07812 -1.67187,-1.85937c-0.38541,-0.79166 -0.57812,-1.67187 -0.57812,-2.64062c0,-1.02084 0.20834,-1.91666 0.625,-2.6875c0.41666,-0.78125 0.99479,-1.39062 1.73438,-1.82812c0.73959,-0.44791 1.58854,-0.67187 2.54688,-0.67187zM219.2217,211.07749c-0.32291,0 -0.58854,-0.10937 -0.79687,-0.32812c-0.20834,-0.21875 -0.3125,-0.48959 -0.3125,-0.8125v-11.53125c0,-0.32291 0.10416,-0.59375 0.3125,-0.8125c0.20834,-0.21875 0.47396,-0.32812 0.79688,-0.32812c0.32291,0 0.58854,0.10938 0.79688,0.32813c0.21875,0.21875 0.32813,0.48959 0.32813,0.8125v11.53125c0,0.32291 -0.10937,0.59375 -0.32812,0.8125c-0.20834,0.21875 -0.47396,0.32813 -0.79687,0.32813zM225.1592,201.09311c0.28125,0 0.52604,0.11979 0.73438,0.35938c0.21875,0.23959 0.32813,0.46875 0.32813,0.6875c0,0.30209 -0.15104,0.58334 -0.45312,0.84375l-5.60937,5.17188l-0.09375,-2.57812l4.26563,-4.125c0.23959,-0.23959 0.51563,-0.35937 0.82813,-0.35937zM225.44045,211.06186c-0.32291,0 -0.59896,-0.125 -0.82812,-0.375l-3.45312,-3.65625l1.70313,-1.5625l3.35938,3.65625c0.23959,0.25 0.35938,0.52604 0.35938,0.82813c0,0.32291 -0.13021,0.58854 -0.39062,0.79688c-0.25,0.20834 -0.5,0.3125 -0.75,0.3125zM233.87334,201.28061h4.42188c0.29166,0 0.53646,0.09896 0.73438,0.29688c0.20834,0.19791 0.3125,0.44791 0.3125,0.75c0,0.28125 -0.10416,0.52084 -0.3125,0.71875c-0.19791,0.1875 -0.44271,0.28125 -0.73437,0.28125h-4.42187c-0.30209,0 -0.55209,-0.09896 -0.75,-0.29687c-0.19791,-0.19791 -0.29687,-0.44271 -0.29687,-0.73437c0,-0.29166 0.09896,-0.53125 0.29688,-0.71875c0.19791,-0.19791 0.44791,-0.29687 0.75,-0.29687zM235.87334,198.95249c0.32291,0 0.58334,0.10938 0.78125,0.32813c0.20834,0.21875 0.3125,0.48959 0.3125,0.8125v8.29688c0,0.17709 0.03125,0.32291 0.09375,0.4375c0.07291,0.10416 0.16666,0.18229 0.28125,0.23438c0.125,0.05209 0.25521,0.07813 0.39063,0.07813c0.14584,0 0.28125,-0.02604 0.40625,-0.07812c0.125,-0.0625 0.27084,-0.09375 0.4375,-0.09375c0.16666,0 0.32291,0.08334 0.46875,0.25c0.14584,0.15625 0.21875,0.38021 0.21875,0.67188c0,0.34375 -0.19271,0.63021 -0.57812,0.85938c-0.375,0.21875 -0.78125,0.32813 -1.21875,0.32813c-0.26041,0 -0.55209,-0.02084 -0.875,-0.0625c-0.3125,-0.04166 -0.60937,-0.14584 -0.89062,-0.3125c-0.27084,-0.17709 -0.5,-0.4375 -0.6875,-0.78125c-0.1875,-0.34375 -0.28125,-0.82291 -0.28125,-1.4375v-8.39062c0,-0.32291 0.10416,-0.59375 0.3125,-0.8125c0.21875,-0.21875 0.49479,-0.32812 0.82813,-0.32812zM250.87917,206.09311c0,1.02084 -0.22916,1.92188 -0.6875,2.70313c-0.44791,0.77084 -1.05729,1.375 -1.82812,1.8125c-0.76041,0.4375 -1.60937,0.65625 -2.54687,0.65625c-0.94791,0 -1.80729,-0.21875 -2.57812,-0.65625c-0.76041,-0.4375 -1.36979,-1.04166 -1.82812,-1.8125c-0.44791,-0.78125 -0.67187,-1.68229 -0.67187,-2.70312c0,-1.02084 0.22396,-1.91666 0.67188,-2.6875c0.45834,-0.78125 1.06771,-1.39062 1.82813,-1.82812c0.77084,-0.44791 1.63021,-0.67187 2.57813,-0.67187c0.9375,0 1.78646,0.22396 2.54688,0.67188c0.77084,0.4375 1.38021,1.04688 1.82813,1.82813c0.45834,0.77084 0.6875,1.66666 0.6875,2.6875zM248.64479,206.09311c0,-0.63541 -0.13021,-1.18229 -0.39062,-1.64062c-0.25,-0.46875 -0.58854,-0.83334 -1.01562,-1.09375c-0.42709,-0.26041 -0.90104,-0.39062 -1.42187,-0.39062c-0.53125,0 -1.01041,0.13021 -1.4375,0.39063c-0.42709,0.26041 -0.77084,0.625 -1.03125,1.09375c-0.25,0.45834 -0.375,1.00521 -0.375,1.64063c0,0.625 0.125,1.17188 0.375,1.64063c0.26041,0.45834 0.60416,0.82291 1.03125,1.09375c0.42709,0.26041 0.90625,0.39063 1.4375,0.39063c0.52084,0 0.99479,-0.13021 1.42188,-0.39062c0.42709,-0.27084 0.76563,-0.63541 1.01563,-1.09375c0.26041,-0.46875 0.39063,-1.01562 0.39063,-1.64062zM263.13597,200.90561c0.875,0 1.65625,0.22396 2.34375,0.67188c0.6875,0.4375 1.23438,1.04166 1.64063,1.8125c0.40625,0.77084 0.60938,1.66666 0.60938,2.6875c0,1.02084 -0.20312,1.92188 -0.60937,2.70313c-0.40625,0.77084 -0.94792,1.38021 -1.625,1.82813c-0.67708,0.4375 -1.4375,0.65625 -2.28125,0.65625c-0.5,0 -0.96875,-0.07812 -1.40625,-0.23437c-0.42708,-0.16666 -0.80729,-0.375 -1.14062,-0.625c-0.32292,-0.25 -0.57812,-0.5 -0.76562,-0.75c-0.17708,-0.26041 -0.26562,-0.47916 -0.26562,-0.65625l0.57813,-0.23437v1.35938c0,0.32291 -0.10937,0.59375 -0.32812,0.8125c-0.20833,0.21875 -0.47396,0.32813 -0.79687,0.32813c-0.32292,0 -0.58854,-0.10416 -0.79687,-0.3125c-0.20833,-0.21875 -0.3125,-0.49479 -0.3125,-0.82812v-11.71875c0,-0.32291 0.10417,-0.59375 0.3125,-0.8125c0.20833,-0.21875 0.47396,-0.32812 0.79688,-0.32812c0.32292,0 0.58854,0.10938 0.79688,0.32813c0.21875,0.21875 0.32813,0.48959 0.32813,0.8125v4.75l-0.3125,-0.17187c0,-0.16666 0.08333,-0.36459 0.25,-0.59375c0.17708,-0.22916 0.41146,-0.45834 0.70313,-0.6875c0.30208,-0.22916 0.65104,-0.41666 1.04688,-0.5625c0.39583,-0.15625 0.80729,-0.23437 1.23438,-0.23437zM262.85472,202.96811c-0.54167,0 -1.02083,0.13541 -1.4375,0.40625c-0.40625,0.27084 -0.72396,0.64063 -0.95312,1.10938c-0.22917,0.46875 -0.34375,1 -0.34375,1.59375c0,0.58334 0.11458,1.11459 0.34375,1.59375c0.22917,0.47916 0.54688,0.85938 0.95313,1.14063c0.41667,0.27084 0.89583,0.40625 1.4375,0.40625c0.55208,0 1.03125,-0.13541 1.4375,-0.40625c0.40625,-0.28125 0.72396,-0.66146 0.95313,-1.14062c0.22917,-0.47916 0.34375,-1.01041 0.34375,-1.59375c0,-0.59375 -0.11458,-1.125 -0.34375,-1.59375c-0.22917,-0.46875 -0.54687,-0.83854 -0.95312,-1.10937c-0.40625,-0.27084 -0.88542,-0.40625 -1.4375,-0.40625zM277.00883,201.09311c0.32292,0 0.58854,0.10938 0.79688,0.32813c0.20833,0.21875 0.3125,0.48959 0.3125,0.8125v4.73438c0,1.32291 -0.36979,2.36979 -1.10937,3.14063c-0.72917,0.77084 -1.78125,1.15625 -3.15625,1.15625c-1.38542,0 -2.44271,-0.38541 -3.17187,-1.15625c-0.71875,-0.77084 -1.07812,-1.81771 -1.07812,-3.14062v-4.73437c0,-0.32291 0.10417,-0.59375 0.3125,-0.8125c0.20833,-0.21875 0.47396,-0.32812 0.79688,-0.32812c0.32292,0 0.58854,0.10938 0.79688,0.32813c0.21875,0.21875 0.32813,0.48959 0.32813,0.8125v4.73438c0,0.76041 0.16667,1.32813 0.5,1.70313c0.33333,0.36459 0.83854,0.54688 1.51563,0.54688c0.6875,0 1.19792,-0.18229 1.53125,-0.54687c0.33333,-0.375 0.5,-0.94271 0.5,-1.70312v-4.73437c0,-0.32291 0.10417,-0.59375 0.3125,-0.8125c0.21875,-0.21875 0.48958,-0.32812 0.8125,-0.32812zM287.96004,201.09311c0.32292,0 0.58854,0.10938 0.79688,0.32813c0.20833,0.21875 0.3125,0.48959 0.3125,0.8125v7.92188c0,1.14584 -0.21354,2.05729 -0.64062,2.73438c-0.42708,0.67709 -1.00521,1.16666 -1.73437,1.46875c-0.71875,0.30209 -1.52604,0.45313 -2.42187,0.45313c-0.39583,0 -0.81771,-0.03125 -1.26562,-0.09375c-0.44792,-0.0625 -0.8125,-0.15625 -1.09375,-0.28125c-0.375,-0.16666 -0.63542,-0.36979 -0.78125,-0.60937c-0.14583,-0.23959 -0.17187,-0.49479 -0.07812,-0.76562c0.11458,-0.36459 0.29167,-0.61459 0.53125,-0.75c0.25,-0.125 0.51563,-0.14062 0.79688,-0.04687c0.19792,0.0625 0.45833,0.15625 0.78125,0.28125c0.32292,0.13541 0.69271,0.20313 1.10938,0.20313c0.57292,0 1.04688,-0.07812 1.42188,-0.23437c0.38542,-0.14584 0.67188,-0.40625 0.85938,-0.78125c0.19792,-0.36459 0.29688,-0.86459 0.29688,-1.5v-1.25l0.39063,0.45313c-0.20833,0.40625 -0.47396,0.74479 -0.79687,1.01563c-0.3125,0.27084 -0.6875,0.47396 -1.125,0.60938c-0.4375,0.13541 -0.93229,0.20313 -1.48437,0.20313c-0.66667,0 -1.24479,-0.15104 -1.73437,-0.45312c-0.48958,-0.3125 -0.86979,-0.73437 -1.14062,-1.26562c-0.27083,-0.54166 -0.40625,-1.16146 -0.40625,-1.85937v-5.45312c0,-0.32291 0.10417,-0.59375 0.3125,-0.8125c0.20833,-0.21875 0.47396,-0.32812 0.79688,-0.32812c0.32292,0 0.58854,0.10938 0.79688,0.32813c0.21875,0.21875 0.32813,0.48959 0.32813,0.8125v4.78125c0,0.80209 0.17708,1.36979 0.53125,1.70313c0.35417,0.33334 0.84896,0.5 1.48438,0.5c0.4375,0 0.80208,-0.08334 1.09375,-0.25c0.30208,-0.17709 0.53125,-0.42709 0.6875,-0.75c0.16667,-0.33334 0.25,-0.73437 0.25,-1.20312v-4.78125c0,-0.32291 0.10417,-0.59375 0.3125,-0.8125c0.21875,-0.21875 0.48958,-0.32812 0.8125,-0.32812zM295.4894,198.01499c0.26042,0 0.47396,0.08334 0.64063,0.25c0.16667,0.16666 0.25,0.38541 0.25,0.65625v14.8125c0,0.26041 -0.08333,0.47396 -0.25,0.64063c-0.16667,0.16666 -0.38021,0.25 -0.64062,0.25h-3.9375c-0.26042,0 -0.47396,-0.08334 -0.64062,-0.25c-0.16667,-0.16666 -0.25,-0.38021 -0.25,-0.64062c0,-0.25 0.08333,-0.46354 0.25,-0.64062c0.16667,-0.16666 0.38021,-0.25 0.64063,-0.25h2.78125l-0.09375,0.15625v-13.4375l0.21875,0.23438h-2.90625c-0.26042,0 -0.47396,-0.08334 -0.64062,-0.25c-0.16667,-0.17709 -0.25,-0.39584 -0.25,-0.65625c0,-0.25 0.08333,-0.45834 0.25,-0.625c0.16667,-0.16666 0.38021,-0.25 0.64063,-0.25z" fill="#ffffff" stroke="none" stroke-width="1" stroke-linecap="square"/></g></g></svg>