<svg version="1.1" xmlns="http://www.w3.org/2000/svg" xmlns:xlink="http://www.w3.org/1999/xlink" width="37.91253" height="31.27053" viewBox="0,0,37.91253,31.27053"><defs><linearGradient x1="327.09878" y1="479.98221" x2="327.09878" y2="510.09408" gradientUnits="userSpaceOnUse" id="color-1"><stop offset="0" stop-color="#0099ff"/><stop offset="1" stop-color="#2191ff"/></linearGradient></defs><g transform="translate(-221.04373,-164.36474)"><g data-paper-data="{&quot;isPaintingLayer&quot;:true}" fill="url(#color-1)" fill-rule="nonzero" stroke="#ffffff" stroke-width="1.15823" stroke-linecap="butt" stroke-linejoin="miter" stroke-miterlimit="10" stroke-dasharray="" stroke-dashoffset="0" style="mix-blend-mode: normal"><path d="M247.13998,183.33648c0,0 -15.28367,0.00647 -22.225,0.00647c-1.81827,0 -3.29213,-1.4742 -3.29213,-3.29213c0,-1.81827 1.47387,-3.29187 3.29213,-3.29187c5.81953,0 22.20713,-0.0068 22.20713,-0.0068c0,0 -1.1002,-1.1134 -6.17573,-6.1886c-1.28573,-1.2858 -1.28573,-3.37 0,-4.65547c1.2864,-1.28547 3.37033,-1.2858 4.6558,0c4.11553,4.11493 11.81087,11.81113 11.81087,11.81113c1.28547,1.2858 1.28547,3.37027 0,4.65547c0,0 -6.64087,6.64113 -11.71633,11.71667c-1.2864,1.2864 -3.3706,1.2864 -4.6558,0c-1.2858,-1.28553 -1.2858,-3.37033 0,-4.65487c4.1156,-4.1168 6.09907,-6.1 6.09907,-6.1z"/></g></g></svg>