<svg version="1.1" xmlns="http://www.w3.org/2000/svg" xmlns:xlink="http://www.w3.org/1999/xlink" width="59.44636" height="41.25146" viewBox="0,0,59.44636,41.25146"><g transform="translate(-210.27682,-159.37426)"><g data-paper-data="{&quot;isPaintingLayer&quot;:true}" stroke="none" stroke-width="1" stroke-miterlimit="10" stroke-dasharray="" stroke-dashoffset="0" style="mix-blend-mode: normal"><path d="M218.43683,159.37426h43.12667c4.50625,0 8.15968,5.43067 8.15968,12.12904v16.99338c0,6.69836 -3.65342,12.12904 -8.15968,12.12904h-43.12667c-4.50667,0 -8.16001,-5.43067 -8.16001,-12.12904v-16.99338c0,-6.69836 3.65334,-12.12904 8.16001,-12.12904z" fill="#ffc1c1" fill-rule="evenodd" stroke-linecap="round" stroke-linejoin="round" opacity="0.31775"/><path d="M228.18869,170.00182c1.4261,0 2.48637,0.33482 3.18082,1.00447c0.69445,0.66965 1.04167,1.65551 1.04167,2.9576c0,0.69445 -0.17361,1.30829 -0.52084,1.84153c-0.33482,0.52084 -0.83706,0.92386 -1.5067,1.20908c-0.65725,0.28522 -1.4757,0.42783 -2.45537,0.42783l0.09301,-1.00447c0.45883,0 0.97966,0.0682 1.56251,0.20461c0.59524,0.12401 1.17188,0.34722 1.72992,0.66965c0.55804,0.31002 1.01687,0.75025 1.37649,1.32069c0.35963,0.57044 0.53944,1.30209 0.53944,2.19495c0,0.96727 -0.16121,1.76712 -0.48363,2.39956c-0.31002,0.62004 -0.72545,1.10368 -1.24628,1.4509c-0.52084,0.33482 -1.07887,0.56424 -1.67411,0.68825c-0.58284,0.12401 -1.14708,0.18601 -1.69272,0.18601h-5.54318c-0.38442,0 -0.70685,-0.13021 -0.96727,-0.39063c-0.24802,-0.26042 -0.37203,-0.58284 -0.37203,-0.96727v-12.83488c0,-0.38442 0.12401,-0.70685 0.37203,-0.96727c0.26042,-0.26042 0.58284,-0.39063 0.96727,-0.39063zM227.79806,172.6246h-3.96207l0.29762,-0.35342v4.01787l-0.27902,-0.20461h3.99927c0.43403,0 0.81846,-0.13641 1.15328,-0.40923c0.34722,-0.28522 0.52084,-0.69445 0.52084,-1.22768c0,-0.63244 -0.16121,-1.09127 -0.48363,-1.37649c-0.31002,-0.29762 -0.72545,-0.44643 -1.24628,-0.44643zM227.96547,178.70721h-4.03648l0.20461,-0.16741v4.68752l-0.22322,-0.22322h4.22249c0.68204,0 1.22148,-0.17981 1.61831,-0.53944c0.39683,-0.37203 0.59524,-0.91766 0.59524,-1.63691c0,-0.66965 -0.13641,-1.15328 -0.40923,-1.4509c-0.26042,-0.29762 -0.57664,-0.48363 -0.94866,-0.55804c-0.37203,-0.07441 -0.71305,-0.11161 -1.02307,-0.11161zM244.3917,173.66627c0.38442,0 0.70065,0.13021 0.94866,0.39063c0.24802,0.26042 0.37203,0.58284 0.37203,0.96727v5.63618c0,1.57491 -0.44023,2.82119 -1.32069,3.73885c-0.86806,0.91766 -2.12054,1.37649 -3.75746,1.37649c-1.64931,0 -2.908,-0.45883 -3.77606,-1.37649c-0.85566,-0.91766 -1.28349,-2.16395 -1.28349,-3.73885v-5.63618c0,-0.38442 0.12401,-0.70685 0.37203,-0.96727c0.24802,-0.26042 0.56424,-0.39063 0.94866,-0.39063c0.38442,0 0.70065,0.13021 0.94866,0.39063c0.26042,0.26042 0.39063,0.58284 0.39063,0.96727v5.63618c0,0.90526 0.19841,1.58111 0.59524,2.02754c0.39683,0.43403 0.99827,0.65104 1.80432,0.65104c0.81846,0 1.4261,-0.21701 1.82292,-0.65104c0.39683,-0.44643 0.59524,-1.12228 0.59524,-2.02754v-5.63618c0,-0.38442 0.12401,-0.70685 0.37203,-0.96727c0.26042,-0.26042 0.58284,-0.39063 0.96727,-0.39063zM257.4289,173.66627c0.38442,0 0.70065,0.13021 0.94866,0.39063c0.24802,0.26042 0.37203,0.58284 0.37203,0.96727v9.43084c0,1.3641 -0.25422,2.44917 -0.76265,3.25522c-0.50844,0.80606 -1.19668,1.38889 -2.06474,1.74852c-0.85566,0.35963 -1.81672,0.53944 -2.8832,0.53944c-0.47123,0 -0.97347,-0.0372 -1.5067,-0.11161c-0.53323,-0.07441 -0.96727,-0.18601 -1.30209,-0.33482c-0.44643,-0.19841 -0.75645,-0.44023 -0.93006,-0.72545c-0.17361,-0.28522 -0.20461,-0.58904 -0.09301,-0.91146c0.13641,-0.43403 0.34722,-0.73165 0.63244,-0.89286c0.29762,-0.14881 0.61384,-0.16741 0.94866,-0.0558c0.23561,0.07441 0.54564,0.18601 0.93006,0.33482c0.38442,0.16121 0.82466,0.24182 1.32069,0.24182c0.68204,0 1.24628,-0.09301 1.69272,-0.27902c0.45883,-0.17361 0.79985,-0.48363 1.02307,-0.93006c0.23561,-0.43403 0.35342,-1.02927 0.35342,-1.78572v-1.4881l0.46503,0.53944c-0.24802,0.48363 -0.56424,0.88666 -0.94866,1.20908c-0.37203,0.32242 -0.81846,0.56424 -1.33929,0.72545c-0.52084,0.16121 -1.10987,0.24182 -1.76712,0.24182c-0.79365,0 -1.4819,-0.17981 -2.06474,-0.53944c-0.58284,-0.37203 -1.03547,-0.87426 -1.35789,-1.5067c-0.32242,-0.64484 -0.48363,-1.3827 -0.48363,-2.21355v-6.49184c0,-0.38442 0.12401,-0.70685 0.37203,-0.96727c0.24802,-0.26042 0.56424,-0.39063 0.94866,-0.39063c0.38442,0 0.70065,0.13021 0.94866,0.39063c0.26042,0.26042 0.39063,0.58284 0.39063,0.96727v5.69199c0,0.95487 0.21082,1.63071 0.63244,2.02754c0.42163,0.39683 1.01067,0.59524 1.76712,0.59524c0.52084,0 0.95487,-0.09921 1.30209,-0.29762c0.35963,-0.21082 0.63244,-0.50844 0.81846,-0.89286c0.19841,-0.39683 0.29762,-0.87426 0.29762,-1.4323v-5.69199c0,-0.38442 0.12401,-0.70685 0.37203,-0.96727c0.26042,-0.26042 0.58284,-0.39063 0.96727,-0.39063z" fill="#ffffff" fill-rule="nonzero" stroke-linecap="square" stroke-linejoin="miter"/></g></g></svg>