<svg version="1.1" xmlns="http://www.w3.org/2000/svg" xmlns:xlink="http://www.w3.org/1999/xlink" width="204.74878" height="90.33082" viewBox="0,0,204.74878,90.33082"><defs><linearGradient x1="-633.59479" y1="-387.79377" x2="-633.59479" y2="534.87111" gradientUnits="userSpaceOnUse" id="color-1"><stop offset="0" stop-color="#2a2a2a"/><stop offset="1" stop-color="#2a2a2a" stop-opacity="0"/></linearGradient><linearGradient x1="194.45083" y1="155" x2="222.57595" y2="155" gradientUnits="userSpaceOnUse" id="color-2"><stop offset="0" stop-color="#fff9df"/><stop offset="0.593" stop-color="#ffe177"/><stop offset="1" stop-color="#feb137"/></linearGradient><linearGradient x1="197.72031" y1="155" x2="220.34698" y2="155" gradientUnits="userSpaceOnUse" id="color-3"><stop offset="0" stop-color="#ffe177"/><stop offset="1" stop-color="#feb137"/></linearGradient><linearGradient x1="202.51553" y1="155" x2="214.89983" y2="155" gradientUnits="userSpaceOnUse" id="color-4"><stop offset="0" stop-color="#ffe177"/><stop offset="1" stop-color="#feb137"/></linearGradient><linearGradient x1="205.56706" y1="155" x2="220.83435" y2="155" gradientUnits="userSpaceOnUse" id="color-5"><stop offset="0" stop-color="#feb137"/><stop offset="1" stop-color="#eca026"/></linearGradient><linearGradient x1="202.13939" y1="155" x2="215.0555" y2="155" gradientUnits="userSpaceOnUse" id="color-6"><stop offset="0" stop-color="#fff9df"/><stop offset="0.593" stop-color="#ffe177"/><stop offset="1" stop-color="#feb137"/></linearGradient></defs><g transform="translate(-137.62561,-134.83459)"><g data-paper-data="{&quot;isPaintingLayer&quot;:true}" fill-rule="nonzero" stroke-linejoin="miter" stroke-miterlimit="10" stroke-dasharray="" stroke-dashoffset="0" style="mix-blend-mode: normal"><path d="M137.62561,225.16541v-90.33082h204.74878v90.33082z" data-paper-data="{&quot;index&quot;:null}" fill="url(#color-1)" stroke="#009dec" stroke-width="0" stroke-linecap="butt"/><g stroke="none" stroke-width="1" stroke-linecap="butt"><g><path d="M195.10473,155c0,-7.67415 6.22112,-13.89527 13.89527,-13.89527c7.67415,0 13.89527,6.22112 13.89527,13.89527c0,7.67415 -6.22112,13.89527 -13.89527,13.89527c-7.67415,0 -13.89527,-6.22112 -13.89527,-13.89527z" fill="url(#color-2)"/><path d="M222.89527,155c0,7.67416 -6.22111,13.89527 -13.89527,13.89527c-0.367,0 -0.73057,-0.01449 -1.09037,-0.04239c7.16446,-0.55615 12.8049,-6.54569 12.8049,-13.85288c0,-7.30717 -5.64044,-13.29674 -12.8049,-13.85288c0.35981,-0.0279 0.72338,-0.04239 1.09037,-0.04239c7.67416,0 13.89527,6.22111 13.89527,13.89527z" fill="url(#color-3)"/></g><path d="M199.18559,155c0,-5.42036 4.39407,-9.81441 9.81441,-9.81441c5.42036,0 9.81441,4.39407 9.81441,9.81441c0,5.42036 -4.39407,9.81441 -9.81441,9.81441c-5.42036,0 -9.81441,-4.39407 -9.81441,-9.81441z" fill="url(#color-4)"/><path d="M218.81441,154.99989c0,5.42036 -4.39407,9.81441 -9.81441,9.81441c-0.36864,0 -0.73231,-0.02098 -1.09037,-0.06059c4.90709,-0.54246 8.72405,-4.7021 8.72405,-9.75376c0,-5.05166 -3.81695,-9.21127 -8.72405,-9.75376c0.35805,-0.03956 0.72173,-0.06059 1.09037,-0.06059c5.42036,0 9.81441,4.39395 9.81441,9.81431z" fill="url(#color-5)"/><path d="M213.5679,157.53041c0,2.30721 -1.48859,3.70268 -3.66553,4.05621v0.53962c0,0.26053 -0.35347,0.50241 -0.70702,0.50241c-0.40933,0 -0.70702,-0.24188 -0.70702,-0.50241v-0.46512c-2.23283,-0.07444 -4.05628,-1.22802 -4.05628,-2.41886c0,-0.63259 0.55814,-1.56291 1.26519,-1.56291c0.78151,0 1.41422,1.09777 2.7911,1.33967v-3.0143c-1.71184,-0.65123 -3.72137,-1.45132 -3.72137,-3.83298c0,-2.36306 1.74906,-3.49811 3.72137,-3.77718v-0.52098c0,-0.26047 0.29768,-0.50235 0.70702,-0.50235c0.35349,0 0.70702,0.24188 0.70702,0.50235v0.46519c1.15358,0.03721 3.33062,0.33491 3.33062,1.61877c0,0.50235 -0.33484,1.52576 -1.15363,1.52576c-0.61394,0 -0.96745,-0.59542 -2.17693,-0.68844v2.7166c1.69315,0.63259 3.66553,1.50711 3.66547,4.01894zM208.67436,150.8507c-0.83725,0.16751 -1.19085,0.59542 -1.19085,1.04197c0,0.53958 0.48383,0.87453 1.19085,1.17221zM210.85134,157.82821c0,-0.61407 -0.46512,-1.00476 -1.135,-1.32107v2.4933c0.63264,-0.14886 1.13506,-0.50235 1.135,-1.17221z" fill="url(#color-6)"/></g><path d="M155.5676,181.81238c0.24458,0 0.46295,0.09172 0.65512,0.27516c0.19217,0.1747 0.28825,0.40617 0.28825,0.69443c0,0.08735 -0.0131,0.18344 -0.0393,0.28825c-0.02621,0.09608 -0.06987,0.19217 -0.13103,0.28825l-3.55075,5.08373l0.27516,-1.0875v4.49413c0,0.27079 -0.09171,0.49789 -0.27515,0.68132c-0.18344,0.18344 -0.39307,0.27516 -0.62891,0.27516c-0.26204,0 -0.48478,-0.09171 -0.66822,-0.27515c-0.18344,-0.18344 -0.27515,-0.41054 -0.27515,-0.68132v-4.3631l0.13103,0.49789l-3.38042,-4.48103c-0.10482,-0.13976 -0.17907,-0.27079 -0.22274,-0.39307c-0.04367,-0.13103 -0.0655,-0.24894 -0.0655,-0.35376c0,-0.27952 0.10919,-0.50663 0.32757,-0.68132c0.21838,-0.1747 0.44548,-0.26204 0.68132,-0.26204c0.28825,0 0.54156,0.14413 0.75994,0.43238l3.00046,4.14037l-0.43237,-0.05241l2.76461,-4.06175c0.21838,-0.30572 0.48042,-0.45858 0.78614,-0.45858zM165.15389,188.62564c0,0.85602 -0.19217,1.6116 -0.57651,2.26672c-0.37561,0.64639 -0.8866,1.15301 -1.53298,1.51988c-0.63765,0.36687 -1.34954,0.55031 -2.13569,0.55031c-0.79489,0 -1.51551,-0.18344 -2.16189,-0.55031c-0.63765,-0.36687 -1.14864,-0.87349 -1.53298,-1.51988c-0.37561,-0.65512 -0.5634,-1.4107 -0.5634,-2.26671c0,-0.85602 0.1878,-1.60724 0.56341,-2.25361c0.38433,-0.65512 0.89534,-1.16611 1.53299,-1.53298c0.64639,-0.37561 1.36702,-0.5634 2.1619,-0.5634c0.78614,0 1.49804,0.1878 2.1357,0.56341c0.64639,0.36687 1.15738,0.87786 1.53299,1.53299c0.38433,0.64639 0.57651,1.39759 0.57651,2.25361zM163.28025,188.62564c0,-0.53283 -0.10919,-0.99142 -0.32756,-1.37575c-0.20964,-0.39307 -0.49352,-0.6988 -0.85165,-0.91717c-0.35813,-0.21838 -0.75557,-0.32756 -1.19232,-0.32756c-0.44548,0 -0.84729,0.10919 -1.20542,0.32757c-0.35813,0.21838 -0.64639,0.5241 -0.86476,0.91717c-0.20964,0.38433 -0.31446,0.84293 -0.31446,1.37576c0,0.5241 0.10482,0.98269 0.31446,1.37576c0.21838,0.38433 0.50663,0.69006 0.86476,0.91717c0.35813,0.21838 0.75994,0.32757 1.20542,0.32757c0.43674,0 0.83418,-0.10919 1.19232,-0.32756c0.35813,-0.22711 0.64202,-0.53283 0.85166,-0.91717c0.21838,-0.39307 0.32757,-0.85165 0.32757,-1.37575zM172.93823,184.43286c0.27079,0 0.49352,0.09172 0.66823,0.27516c0.1747,0.18344 0.26204,0.41054 0.26204,0.68132v3.97003c0,1.10934 -0.31008,1.9872 -0.93026,2.63359c-0.61145,0.64639 -1.49367,0.96958 -2.64668,0.96958c-1.16175,0 -2.04835,-0.3232 -2.65979,-0.96958c-0.60271,-0.64639 -0.90406,-1.52425 -0.90406,-2.63358v-3.97003c0,-0.27079 0.08735,-0.49789 0.26204,-0.68132c0.1747,-0.18344 0.39744,-0.27515 0.66823,-0.27515c0.27079,0 0.49352,0.09172 0.66823,0.27516c0.18344,0.18344 0.27516,0.41054 0.27516,0.68132v3.97003c0,0.63765 0.13976,1.11371 0.41928,1.42817c0.27952,0.30572 0.70316,0.45859 1.27094,0.45859c0.57651,0 1.00452,-0.15286 1.28404,-0.45858c0.27952,-0.31446 0.41928,-0.79052 0.41928,-1.42816v-3.97003c0,-0.27079 0.08735,-0.49789 0.26204,-0.68132c0.18344,-0.18344 0.41054,-0.27515 0.68132,-0.27515zM183.68482,184.27564c0.43674,0 0.83418,0.06987 1.19232,0.20964c0.36687,0.13103 0.68132,0.30136 0.94338,0.511c0.27079,0.20964 0.48042,0.42365 0.62891,0.64202c0.15723,0.20964 0.23584,0.3887 0.23584,0.5372l-0.40617,0.19654v-1.13991c0,-0.27079 0.08735,-0.49789 0.26204,-0.68132c0.18344,-0.18344 0.41054,-0.27515 0.68132,-0.27515c0.27079,0 0.49352,0.09172 0.66823,0.27516c0.1747,0.1747 0.26204,0.40181 0.26204,0.68132v6.95738c0,0.90843 -0.19653,1.6378 -0.5896,2.18811c-0.38433,0.55031 -0.89534,0.94774 -1.53298,1.19232c-0.63765,0.24458 -1.32334,0.36687 -2.05707,0.36687c-0.2009,0 -0.47169,-0.02621 -0.81235,-0.07862c-0.33193,-0.05241 -0.65076,-0.11792 -0.95647,-0.19653c-0.29699,-0.06987 -0.5241,-0.13539 -0.68132,-0.19653c-0.31446,-0.13976 -0.53283,-0.31008 -0.65512,-0.51099c-0.11355,-0.2009 -0.13539,-0.41491 -0.0655,-0.64201c0.09608,-0.30572 0.24895,-0.51536 0.45859,-0.62891c0.20964,-0.10482 0.42802,-0.11792 0.65512,-0.0393c0.10482,0.03495 0.27516,0.10045 0.511,0.19654c0.24458,0.09608 0.50663,0.17907 0.78614,0.24895c0.28825,0.07862 0.54156,0.11792 0.75994,0.11792c0.78614,0 1.36702,-0.15723 1.74262,-0.47169c0.37561,-0.30572 0.56341,-0.73373 0.56341,-1.28404v-1.36266l0.18344,0.13103c0,0.13976 -0.06987,0.30572 -0.20964,0.49789c-0.13976,0.19217 -0.33193,0.38433 -0.57651,0.57651c-0.24458,0.18344 -0.53719,0.34066 -0.87785,0.47169c-0.33193,0.13103 -0.68569,0.19654 -1.06129,0.19654c-0.73373,0 -1.39759,-0.18344 -1.99157,-0.55031c-0.59397,-0.37561 -1.06566,-0.8866 -1.41506,-1.53298c-0.34066,-0.65512 -0.51099,-1.40632 -0.51099,-2.25361c0,-0.85602 0.17034,-1.60724 0.511,-2.25361c0.3494,-0.65512 0.81235,-1.16611 1.38886,-1.53298c0.58524,-0.37561 1.24037,-0.5634 1.96536,-0.5634zM183.97307,186.00515c-0.46295,0 -0.87349,0.11355 -1.23163,0.34066c-0.35813,0.22711 -0.63765,0.54156 -0.83856,0.94338c-0.19217,0.39307 -0.28825,0.83856 -0.28825,1.33645c0,0.48915 0.09608,0.93464 0.28825,1.33645c0.2009,0.39307 0.48042,0.70753 0.83856,0.94338c0.35813,0.22711 0.76868,0.34066 1.23163,0.34066c0.48042,0 0.8997,-0.11355 1.25783,-0.34066c0.35813,-0.23584 0.63328,-0.55031 0.82545,-0.94338c0.2009,-0.40181 0.30136,-0.84729 0.30136,-1.33645c0,-0.49789 -0.10045,-0.94338 -0.30135,-1.33645c-0.19217,-0.40181 -0.46732,-0.71627 -0.82544,-0.94338c-0.35813,-0.22711 -0.7774,-0.34066 -1.25783,-0.34066zM193.74627,192.96253c-0.89097,0 -1.664,-0.18344 -2.31913,-0.55031c-0.64639,-0.37561 -1.14427,-0.88222 -1.49367,-1.51988c-0.3494,-0.63765 -0.5241,-1.35391 -0.5241,-2.1488c0,-0.94338 0.1878,-1.74699 0.56341,-2.41084c0.38433,-0.66386 0.88222,-1.17048 1.49367,-1.51988c0.62018,-0.35813 1.2753,-0.53719 1.96536,-0.53719c0.53283,0 1.0351,0.10919 1.50678,0.32757c0.47169,0.21838 0.89097,0.51973 1.25783,0.90407c0.36687,0.38433 0.65512,0.82545 0.86476,1.32335c0.21838,0.49789 0.32757,1.03073 0.32757,1.59849c-0.00874,0.24458 -0.10919,0.44548 -0.30135,0.60271c-0.18344,0.15723 -0.40181,0.23584 -0.65512,0.23584h-5.9747l-0.47169,-1.55919h5.73886l-0.34066,0.31446v-0.43237c-0.01746,-0.29699 -0.12666,-0.5634 -0.32756,-0.79925c-0.19217,-0.24458 -0.43237,-0.43674 -0.72063,-0.57651c-0.27952,-0.13976 -0.58087,-0.20964 -0.90406,-0.20964c-0.31446,0 -0.60708,0.04367 -0.87785,0.13103c-0.27079,0.07862 -0.50663,0.21838 -0.70753,0.41928c-0.2009,0.19217 -0.35813,0.45859 -0.47169,0.79925c-0.11355,0.33193 -0.17033,0.7512 -0.17033,1.25783c0,0.55904 0.11792,1.0351 0.35377,1.42817c0.23584,0.39307 0.5372,0.69443 0.90407,0.90407c0.37561,0.2009 0.76868,0.30136 1.17922,0.30136c0.39307,0 0.70316,-0.03058 0.93027,-0.09171c0.22711,-0.06987 0.41054,-0.14849 0.55031,-0.23584c0.13976,-0.08735 0.26642,-0.16159 0.37997,-0.22274c0.19217,-0.09608 0.37124,-0.14412 0.5372,-0.14412c0.22711,0 0.41491,0.07862 0.56341,0.23584c0.15723,0.15723 0.23584,0.34066 0.23584,0.55031c0,0.27952 -0.14412,0.53283 -0.43237,0.75994c-0.27952,0.23584 -0.66386,0.44111 -1.15301,0.61582c-0.48915,0.16596 -0.99142,0.24895 -1.50678,0.24895zM199.04644,184.59009h3.70799c0.24458,0 0.44985,0.08299 0.61582,0.24895c0.1747,0.16596 0.26204,0.37561 0.26204,0.62891c0,0.23584 -0.08735,0.43674 -0.26204,0.60271c-0.16596,0.15723 -0.37124,0.23584 -0.61581,0.23584h-3.70798c-0.25331,0 -0.46295,-0.08299 -0.62891,-0.24894c-0.16596,-0.16596 -0.24894,-0.37124 -0.24894,-0.61581c0,-0.24458 0.08299,-0.44548 0.24895,-0.60271c0.16596,-0.16596 0.37561,-0.24894 0.62891,-0.24894zM200.72355,182.63783c0.27079,0 0.48915,0.09172 0.65512,0.27516c0.1747,0.18344 0.26204,0.41054 0.26204,0.68132v6.95738c0,0.14849 0.02621,0.27079 0.07862,0.36687c0.06115,0.08735 0.13976,0.15286 0.23584,0.19654c0.10482,0.04367 0.214,0.06551 0.32757,0.06551c0.12229,0 0.23584,-0.02183 0.34066,-0.0655c0.10482,-0.05241 0.22711,-0.07862 0.36687,-0.07862c0.13976,0 0.27079,0.06987 0.39307,0.20964c0.12229,0.13103 0.18344,0.31883 0.18344,0.56341c0,0.28825 -0.16159,0.52846 -0.48478,0.72064c-0.31446,0.18344 -0.65512,0.27516 -1.02198,0.27516c-0.21838,0 -0.46295,-0.01746 -0.73373,-0.05241c-0.26204,-0.03495 -0.51099,-0.12229 -0.74684,-0.26204c-0.22711,-0.14849 -0.41928,-0.36687 -0.57651,-0.65512c-0.15723,-0.28825 -0.23584,-0.69006 -0.23584,-1.20542v-7.03599c0,-0.27079 0.08735,-0.49789 0.26204,-0.68132c0.18344,-0.18344 0.41491,-0.27515 0.69443,-0.27515zM212.19688,192.80531c-0.28825,0 -0.52846,-0.09171 -0.72063,-0.27515c-0.18344,-0.18344 -0.27515,-0.41054 -0.27515,-0.68132v-7.88765l0.22275,0.35377l-1.19232,0.72064c-0.15723,0.08735 -0.3232,0.13103 -0.49789,0.13103c-0.27079,0 -0.49789,-0.10045 -0.68132,-0.30135c-0.1747,-0.2009 -0.26204,-0.41928 -0.26204,-0.65512c0,-0.3494 0.16159,-0.62018 0.48479,-0.81235l2.35843,-1.40195c0.18344,-0.09608 0.41054,-0.14412 0.68132,-0.14412c0.27079,0 0.48915,0.09172 0.65512,0.27516c0.1747,0.18344 0.26204,0.41054 0.26204,0.68132v9.04066c0,0.27079 -0.09608,0.49789 -0.28825,0.68132c-0.19217,0.18344 -0.44111,0.27516 -0.74684,0.27516zM219.21476,192.96253c-0.8997,0 -1.65964,-0.23584 -2.27982,-0.70753c-0.62018,-0.48042 -1.09187,-1.14427 -1.41506,-1.99157c-0.3232,-0.84729 -0.48478,-1.8256 -0.48478,-2.93494c0,-1.11807 0.16159,-2.09639 0.48479,-2.93494c0.3232,-0.84729 0.79489,-1.50678 1.41506,-1.97846c0.62018,-0.48042 1.38012,-0.72063 2.27982,-0.72063c0.89097,0 1.64653,0.24021 2.26672,0.72064c0.62018,0.47169 1.09187,1.13118 1.41506,1.97847c0.3232,0.83856 0.48479,1.81687 0.48479,2.93494c0,1.10934 -0.16159,2.08765 -0.48478,2.93494c-0.3232,0.84729 -0.79489,1.51115 -1.41506,1.99157c-0.62018,0.47169 -1.37575,0.70753 -2.26671,0.70753zM219.21476,191.08889c0.43674,0 0.81235,-0.13976 1.12681,-0.41928c0.3232,-0.27952 0.57214,-0.69443 0.74685,-1.24472c0.1747,-0.55904 0.26204,-1.25783 0.26204,-2.09639c0,-0.84729 -0.08735,-1.54608 -0.26204,-2.09639c-0.1747,-0.55031 -0.42365,-0.96084 -0.74684,-1.23163c-0.31446,-0.27952 -0.69006,-0.41928 -1.12681,-0.41928c-0.42802,0 -0.80361,0.13976 -1.12681,0.41928c-0.3232,0.27079 -0.57651,0.68132 -0.75994,1.23163c-0.1747,0.55031 -0.26204,1.24909 -0.26204,2.09639c0,0.83856 0.08735,1.53734 0.26204,2.09639c0.18344,0.55031 0.43674,0.96521 0.75994,1.24473c0.3232,0.27952 0.6988,0.41928 1.12681,0.41928zM233.05662,184.27564c0.59397,0 1.10934,0.06551 1.54608,0.19654c0.44548,0.12229 0.79052,0.29699 1.0351,0.5241c0.24458,0.21838 0.36687,0.48479 0.36687,0.79925c0,0.20964 -0.06115,0.40617 -0.18344,0.58961c-0.12229,0.18344 -0.30572,0.27516 -0.55031,0.27516c-0.16596,0 -0.30572,-0.02183 -0.41928,-0.0655c-0.10482,-0.05241 -0.2009,-0.11355 -0.28825,-0.18344c-0.07862,-0.07862 -0.1747,-0.14849 -0.28825,-0.20964c-0.10482,-0.06115 -0.26642,-0.10919 -0.48478,-0.14412c-0.20964,-0.03495 -0.36687,-0.05241 -0.47169,-0.05241c-0.53283,0 -0.98705,0.11355 -1.36266,0.34066c-0.36687,0.22711 -0.65076,0.5372 -0.85165,0.93027c-0.19217,0.39307 -0.28825,0.84293 -0.28825,1.34955c0,0.50663 0.10045,0.95648 0.30136,1.34955c0.20964,0.38433 0.49352,0.69443 0.85166,0.93027c0.35813,0.22711 0.77305,0.34066 1.24473,0.34066c0.26204,0 0.48479,-0.01746 0.66823,-0.05241c0.19217,-0.03495 0.3494,-0.08299 0.47169,-0.14412c0.14849,-0.07862 0.27952,-0.16596 0.39307,-0.26204c0.11355,-0.09608 0.28388,-0.14412 0.511,-0.14412c0.27079,0 0.48042,0.08735 0.62891,0.26204c0.14849,0.1747 0.22275,0.38433 0.22275,0.62891c0,0.26204 -0.14849,0.50226 -0.44548,0.72064c-0.28825,0.20964 -0.67259,0.37997 -1.15301,0.511c-0.47169,0.13103 -0.98268,0.19654 -1.53298,0.19654c-0.82109,0 -1.53734,-0.1878 -2.1488,-0.5634c-0.60271,-0.38433 -1.07003,-0.90406 -1.40195,-1.55919c-0.3232,-0.66386 -0.48478,-1.40195 -0.48478,-2.2143c0,-0.85602 0.1747,-1.60724 0.5241,-2.25361c0.3494,-0.65512 0.83418,-1.16611 1.45437,-1.53298c0.62018,-0.37561 1.33208,-0.5634 2.1357,-0.5634zM245.50273,188.62564c0,0.85602 -0.19217,1.6116 -0.57651,2.26672c-0.37561,0.64639 -0.8866,1.15301 -1.53298,1.51988c-0.63765,0.36687 -1.34954,0.55031 -2.13569,0.55031c-0.79489,0 -1.51551,-0.18344 -2.16189,-0.55031c-0.63765,-0.36687 -1.14864,-0.87349 -1.53298,-1.51988c-0.37561,-0.65512 -0.5634,-1.4107 -0.5634,-2.26671c0,-0.85602 0.1878,-1.60724 0.56341,-2.25361c0.38433,-0.65512 0.89534,-1.16611 1.53299,-1.53298c0.64639,-0.37561 1.36702,-0.5634 2.1619,-0.5634c0.78614,0 1.49804,0.1878 2.1357,0.56341c0.64639,0.36687 1.15738,0.87786 1.53299,1.53299c0.38433,0.64639 0.57651,1.39759 0.57651,2.25361zM243.62909,188.62564c0,-0.53283 -0.10919,-0.99142 -0.32756,-1.37575c-0.20964,-0.39307 -0.49352,-0.6988 -0.85165,-0.91717c-0.35813,-0.21838 -0.75557,-0.32756 -1.19232,-0.32756c-0.44548,0 -0.84729,0.10919 -1.20542,0.32757c-0.35813,0.21838 -0.64639,0.5241 -0.86476,0.91717c-0.20964,0.38433 -0.31446,0.84293 -0.31446,1.37576c0,0.5241 0.10482,0.98269 0.31446,1.37576c0.21838,0.38433 0.50663,0.69006 0.86476,0.91717c0.35813,0.21838 0.75994,0.32757 1.20542,0.32757c0.43674,0 0.83418,-0.10919 1.19232,-0.32756c0.35813,-0.22711 0.64202,-0.53283 0.85166,-0.91717c0.21838,-0.39307 0.32757,-0.85165 0.32757,-1.37575zM248.84538,191.84883c0,0.27079 -0.09171,0.49789 -0.27515,0.68132c-0.1747,0.18344 -0.39744,0.27516 -0.66822,0.27516c-0.27079,0 -0.49789,-0.09171 -0.68132,-0.27515c-0.1747,-0.18344 -0.26204,-0.41054 -0.26204,-0.68132v-6.45948c0,-0.27079 0.08735,-0.49789 0.26204,-0.68132c0.18344,-0.18344 0.41054,-0.27515 0.68132,-0.27515c0.27079,0 0.49352,0.09172 0.66823,0.27516c0.18344,0.18344 0.27516,0.41054 0.27516,0.68132zM247.8103,183.42398c-0.35813,0 -0.61145,-0.05678 -0.75994,-0.17033c-0.13976,-0.12229 -0.20964,-0.32756 -0.20964,-0.61581v-0.30135c0,-0.29699 0.07862,-0.49789 0.23584,-0.60271c0.16596,-0.11355 0.41491,-0.17033 0.74685,-0.17033c0.36687,0 0.62018,0.05678 0.75994,0.17034c0.14849,0.11355 0.22275,0.31446 0.22275,0.60271v0.30136c0,0.30572 -0.07862,0.51536 -0.23584,0.62891c-0.15723,0.10482 -0.41054,0.15723 -0.75994,0.15723zM255.23651,184.27564c0.76868,0 1.35391,0.16159 1.75573,0.48479c0.40181,0.3232 0.67695,0.75557 0.82545,1.29714c0.15723,0.53283 0.23584,1.13118 0.23584,1.79504v3.99624c0,0.27079 -0.09171,0.49789 -0.27515,0.68132c-0.1747,0.18344 -0.39744,0.27516 -0.66822,0.27516c-0.27079,0 -0.49352,-0.09171 -0.66822,-0.27515c-0.1747,-0.18344 -0.26204,-0.41054 -0.26204,-0.68132v-3.99623c0,-0.3494 -0.04804,-0.65949 -0.14412,-0.93026c-0.08735,-0.27952 -0.24458,-0.50226 -0.47169,-0.66822c-0.22711,-0.16596 -0.55467,-0.24894 -0.98268,-0.24894c-0.41928,0 -0.77304,0.08299 -1.06129,0.24895c-0.27952,0.16596 -0.49789,0.3887 -0.65512,0.66823c-0.14849,0.27079 -0.22274,0.58087 -0.22274,0.93027v3.99624c0,0.27079 -0.09171,0.49789 -0.27515,0.68132c-0.1747,0.18344 -0.39744,0.27516 -0.66822,0.27516c-0.27079,0 -0.49352,-0.09171 -0.66822,-0.27515c-0.1747,-0.18344 -0.26204,-0.41054 -0.26204,-0.68132v-6.45948c0,-0.27079 0.08735,-0.49789 0.26204,-0.68132c0.1747,-0.18344 0.39744,-0.27515 0.66823,-0.27515c0.27079,0 0.49352,0.09172 0.66823,0.27516c0.18344,0.18344 0.27516,0.41054 0.27516,0.68132v0.66823l-0.23584,-0.0393c0.09608,-0.1747 0.23148,-0.3625 0.40617,-0.5634c0.1747,-0.20964 0.37997,-0.40181 0.61582,-0.57651c0.24458,-0.18344 0.51536,-0.32756 0.81235,-0.43237c0.30572,-0.11355 0.63765,-0.17033 0.99578,-0.17033zM259.6078,191.50817c-0.10482,-0.14849 -0.15286,-0.33629 -0.14412,-0.5634c0.00874,-0.22711 0.14413,-0.42365 0.40617,-0.5896c0.16596,-0.10482 0.34066,-0.14849 0.5241,-0.13103c0.19217,0.00874 0.37561,0.10045 0.55031,0.27516c0.30572,0.30572 0.62455,0.54156 0.95648,0.70753c0.33193,0.16596 0.7512,0.24895 1.25783,0.24895c0.15723,-0.00874 0.32757,-0.03058 0.511,-0.0655c0.19217,-0.03495 0.35813,-0.11792 0.49789,-0.24894c0.13976,-0.13103 0.20964,-0.33193 0.20964,-0.60271c0,-0.22711 -0.07862,-0.40617 -0.23584,-0.53719c-0.15723,-0.13976 -0.36687,-0.25768 -0.62891,-0.35376c-0.25331,-0.09608 -0.53283,-0.18344 -0.83856,-0.26204c-0.3232,-0.09608 -0.65512,-0.2009 -0.99578,-0.31446c-0.34066,-0.12229 -0.65076,-0.27079 -0.93026,-0.44548c-0.27952,-0.18344 -0.51099,-0.42802 -0.69443,-0.73373c-0.1747,-0.30572 -0.26204,-0.68569 -0.26204,-1.13991c0,-0.5241 0.14413,-0.96521 0.43238,-1.32334c0.29699,-0.36687 0.67695,-0.65076 1.13992,-0.85165c0.46295,-0.2009 0.95211,-0.30135 1.46747,-0.30135c0.3232,0 0.65949,0.03931 1.00889,0.11792c0.35813,0.07862 0.6988,0.20527 1.02198,0.37997c0.3232,0.1747 0.59397,0.40181 0.81235,0.68132c0.11355,0.15723 0.17907,0.34503 0.19654,0.56341c0.02621,0.21838 -0.06987,0.41491 -0.28825,0.58961c-0.15723,0.13103 -0.34066,0.1878 -0.55031,0.17034c-0.20964,-0.01746 -0.37997,-0.08735 -0.51099,-0.20964c-0.18344,-0.23584 -0.42365,-0.41928 -0.72063,-0.55031c-0.29699,-0.13976 -0.63765,-0.20964 -1.02198,-0.20964c-0.15723,0 -0.32756,0.02183 -0.51099,0.06551c-0.18344,0.03495 -0.34503,0.11355 -0.48478,0.23584c-0.13103,0.11355 -0.19653,0.30136 -0.19653,0.56341c0,0.23584 0.07862,0.42802 0.23584,0.57651c0.15723,0.13976 0.36687,0.25331 0.62891,0.34066c0.27079,0.08735 0.55904,0.1747 0.86476,0.26204c0.30572,0.07862 0.62018,0.1747 0.94338,0.28825c0.3232,0.11355 0.62018,0.26642 0.89097,0.45859c0.27952,0.18344 0.50226,0.42365 0.66823,0.72064c0.16596,0.29699 0.24895,0.67695 0.24895,1.13992c0,0.53283 -0.15723,0.98705 -0.47169,1.36266c-0.31446,0.37561 -0.70753,0.65949 -1.17922,0.85166c-0.46295,0.19217 -0.93901,0.28825 -1.42816,0.28825c-0.62018,0 -1.24037,-0.10482 -1.86054,-0.31446c-0.61145,-0.21838 -1.11807,-0.59835 -1.51988,-1.13991zM276.33733,184.27564c0.73373,0 1.38886,0.1878 1.96536,0.56341c0.57651,0.36687 1.0351,0.87349 1.37576,1.51988c0.34066,0.64639 0.511,1.39759 0.511,2.25361c0,0.85602 -0.17033,1.6116 -0.51099,2.26672c-0.34066,0.64639 -0.79489,1.15738 -1.36266,1.53299c-0.56777,0.36687 -1.20542,0.55031 -1.91295,0.55031c-0.41928,0 -0.81235,-0.0655 -1.17922,-0.19653c-0.35813,-0.13976 -0.67695,-0.31446 -0.95647,-0.5241c-0.27079,-0.20964 -0.48478,-0.41928 -0.64201,-0.62891c-0.14849,-0.21838 -0.22274,-0.40181 -0.22274,-0.55031l0.48479,-0.19653v4.11416c0,0.27079 -0.09171,0.49789 -0.27515,0.68132c-0.1747,0.18344 -0.39744,0.27516 -0.66822,0.27516c-0.27079,0 -0.49352,-0.09171 -0.66822,-0.27515c-0.1747,-0.1747 -0.26204,-0.40181 -0.26204,-0.68132v-9.59097c0,-0.27079 0.08735,-0.49789 0.26204,-0.68132c0.1747,-0.18344 0.39744,-0.27515 0.66823,-0.27515c0.27079,0 0.49352,0.09172 0.66823,0.27516c0.18344,0.18344 0.27516,0.41054 0.27516,0.68132v0.77305l-0.26204,-0.14412c0,-0.13976 0.06987,-0.30572 0.20964,-0.49789c0.14849,-0.19217 0.34503,-0.38433 0.58961,-0.57651c0.25331,-0.19217 0.54593,-0.3494 0.87786,-0.47169c0.33193,-0.13103 0.67695,-0.19653 1.0351,-0.19653zM276.10149,186.00515c-0.45422,0 -0.85602,0.11355 -1.20542,0.34066c-0.34066,0.22711 -0.60708,0.5372 -0.79925,0.93027c-0.19217,0.39307 -0.28825,0.83856 -0.28825,1.33645c0,0.48915 0.09608,0.93464 0.28825,1.33645c0.19217,0.40181 0.45859,0.72064 0.79925,0.95648c0.3494,0.22711 0.7512,0.34066 1.20542,0.34066c0.46295,0 0.86476,-0.11355 1.20542,-0.34066c0.34066,-0.23584 0.60708,-0.55467 0.79925,-0.95647c0.19217,-0.40181 0.28825,-0.84729 0.28825,-1.33645c0,-0.49789 -0.09608,-0.94338 -0.28825,-1.33645c-0.19217,-0.39307 -0.45858,-0.70316 -0.79925,-0.93026c-0.34066,-0.22711 -0.74248,-0.34066 -1.20542,-0.34066zM285.62512,192.96253c-0.89097,0 -1.664,-0.18344 -2.31913,-0.55031c-0.64639,-0.37561 -1.14427,-0.88222 -1.49367,-1.51988c-0.3494,-0.63765 -0.5241,-1.35391 -0.5241,-2.1488c0,-0.94338 0.1878,-1.74699 0.56341,-2.41084c0.38433,-0.66386 0.88222,-1.17048 1.49367,-1.51988c0.62018,-0.35813 1.2753,-0.53719 1.96536,-0.53719c0.53283,0 1.0351,0.10919 1.50678,0.32757c0.47169,0.21838 0.89097,0.51973 1.25783,0.90407c0.36687,0.38433 0.65512,0.82545 0.86476,1.32335c0.21838,0.49789 0.32757,1.03073 0.32757,1.59849c-0.00874,0.24458 -0.10919,0.44548 -0.30135,0.60271c-0.18344,0.15723 -0.40181,0.23584 -0.65512,0.23584h-5.9747l-0.47169,-1.55919h5.73886l-0.34066,0.31446v-0.43237c-0.01746,-0.29699 -0.12666,-0.5634 -0.32756,-0.79925c-0.19217,-0.24458 -0.43237,-0.43674 -0.72063,-0.57651c-0.27952,-0.13976 -0.58087,-0.20964 -0.90406,-0.20964c-0.31446,0 -0.60708,0.04367 -0.87785,0.13103c-0.27079,0.07862 -0.50663,0.21838 -0.70753,0.41928c-0.2009,0.19217 -0.35813,0.45859 -0.47169,0.79925c-0.11355,0.33193 -0.17033,0.7512 -0.17033,1.25783c0,0.55904 0.11792,1.0351 0.35377,1.42817c0.23584,0.39307 0.5372,0.69443 0.90407,0.90407c0.37561,0.2009 0.76868,0.30136 1.17922,0.30136c0.39307,0 0.70316,-0.03058 0.93027,-0.09171c0.22711,-0.06987 0.41054,-0.14849 0.55031,-0.23584c0.13976,-0.08735 0.26642,-0.16159 0.37997,-0.22274c0.19217,-0.09608 0.37124,-0.14412 0.5372,-0.14412c0.22711,0 0.41491,0.07862 0.56341,0.23584c0.15723,0.15723 0.23584,0.34066 0.23584,0.55031c0,0.27952 -0.14412,0.53283 -0.43237,0.75994c-0.27952,0.23584 -0.66386,0.44111 -1.15301,0.61582c-0.48915,0.16596 -0.99142,0.24895 -1.50678,0.24895zM291.76388,192.80531c-0.27079,0 -0.49352,-0.09171 -0.66822,-0.27515c-0.1747,-0.18344 -0.26204,-0.41054 -0.26204,-0.68132v-6.45948c0,-0.27079 0.08735,-0.49789 0.26204,-0.68132c0.1747,-0.18344 0.39744,-0.27515 0.66823,-0.27515c0.27079,0 0.49352,0.09172 0.66823,0.27516c0.18344,0.18344 0.27516,0.41054 0.27516,0.68132v1.46747l-0.10482,-1.04819c0.11355,-0.24458 0.25768,-0.46295 0.43238,-0.65512c0.18344,-0.2009 0.3887,-0.3625 0.61582,-0.48478c0.23584,-0.13103 0.48479,-0.22711 0.74685,-0.28825c0.26204,-0.06987 0.5241,-0.10482 0.78614,-0.10482c0.30572,0 0.56341,0.09172 0.77305,0.27516c0.21838,0.1747 0.32757,0.37997 0.32757,0.61582c0,0.3494 -0.08735,0.59835 -0.26204,0.74685c-0.1747,0.14849 -0.36687,0.22275 -0.57651,0.22275c-0.2009,0 -0.38433,-0.03495 -0.55031,-0.10482c-0.15723,-0.06987 -0.34066,-0.10482 -0.55031,-0.10482c-0.18344,0 -0.37124,0.04367 -0.5634,0.13103c-0.19217,0.08735 -0.37124,0.22711 -0.53719,0.41928c-0.15723,0.18344 -0.28825,0.41491 -0.39307,0.69443c-0.09608,0.27079 -0.14412,0.59397 -0.14412,0.96958v3.70799c0,0.27079 -0.09171,0.49789 -0.27515,0.68132c-0.1747,0.18344 -0.39744,0.27516 -0.66822,0.27516zM305.64612,184.27564c0.59397,0 1.10934,0.06551 1.54608,0.19654c0.44548,0.12229 0.79052,0.29699 1.0351,0.5241c0.24458,0.21838 0.36687,0.48479 0.36687,0.79925c0,0.20964 -0.06115,0.40617 -0.18344,0.58961c-0.12229,0.18344 -0.30572,0.27516 -0.55031,0.27516c-0.16596,0 -0.30572,-0.02183 -0.41928,-0.0655c-0.10482,-0.05241 -0.2009,-0.11355 -0.28825,-0.18344c-0.07862,-0.07862 -0.1747,-0.14849 -0.28825,-0.20964c-0.10482,-0.06115 -0.26642,-0.10919 -0.48478,-0.14412c-0.20964,-0.03495 -0.36687,-0.05241 -0.47169,-0.05241c-0.53283,0 -0.98706,0.11355 -1.36267,0.34066c-0.36687,0.22711 -0.65076,0.5372 -0.85165,0.93027c-0.19217,0.39307 -0.28825,0.84293 -0.28825,1.34955c0,0.50663 0.10045,0.95648 0.30136,1.34955c0.20964,0.38433 0.49352,0.69443 0.85166,0.93027c0.35814,0.22711 0.77307,0.34066 1.24476,0.34066c0.26204,0 0.48479,-0.01746 0.66823,-0.05241c0.19217,-0.03495 0.3494,-0.08299 0.47169,-0.14412c0.14849,-0.07862 0.27952,-0.16596 0.39307,-0.26204c0.11355,-0.09608 0.28388,-0.14412 0.511,-0.14412c0.27079,0 0.48042,0.08735 0.62891,0.26204c0.14849,0.1747 0.22275,0.38433 0.22275,0.62891c0,0.26204 -0.14849,0.50226 -0.44548,0.72064c-0.28825,0.20964 -0.67259,0.37997 -1.15301,0.511c-0.47169,0.13103 -0.98268,0.19654 -1.53298,0.19654c-0.8211,0 -1.53737,-0.1878 -2.14882,-0.5634c-0.60271,-0.38433 -1.07003,-0.90406 -1.40195,-1.55919c-0.3232,-0.66386 -0.48478,-1.40195 -0.48478,-2.2143c0,-0.85602 0.1747,-1.60724 0.5241,-2.25361c0.3494,-0.65512 0.83418,-1.16611 1.45437,-1.53298c0.62018,-0.37561 1.33209,-0.5634 2.13572,-0.5634zM312.09133,191.84883c0,0.27079 -0.09171,0.49789 -0.27515,0.68132c-0.18344,0.18344 -0.41054,0.27516 -0.68132,0.27516c-0.26204,0 -0.48042,-0.09171 -0.65512,-0.27515c-0.1747,-0.18344 -0.26204,-0.41054 -0.26204,-0.68132v-9.66958c0,-0.27079 0.08735,-0.49789 0.26204,-0.68132c0.18344,-0.18344 0.41054,-0.27515 0.68132,-0.27515c0.27079,0 0.49352,0.09172 0.66823,0.27516c0.1747,0.18344 0.26204,0.41054 0.26204,0.68132zM316.05322,191.84883c0,0.27079 -0.09171,0.49789 -0.27515,0.68132c-0.1747,0.18344 -0.39744,0.27516 -0.66822,0.27516c-0.27079,0 -0.49789,-0.09171 -0.68132,-0.27515c-0.1747,-0.18344 -0.26204,-0.41054 -0.26204,-0.68132v-6.45948c0,-0.27079 0.08735,-0.49789 0.26204,-0.68132c0.18344,-0.18344 0.41054,-0.27515 0.68132,-0.27515c0.27079,0 0.49352,0.09172 0.66823,0.27516c0.18344,0.18344 0.27516,0.41054 0.27516,0.68132zM315.01813,183.42398c-0.35813,0 -0.61145,-0.05678 -0.75994,-0.17033c-0.13976,-0.12229 -0.20964,-0.32756 -0.20964,-0.61581v-0.30135c0,-0.29699 0.07862,-0.49789 0.23584,-0.60271c0.16596,-0.11355 0.41491,-0.17033 0.74685,-0.17033c0.36687,0 0.62018,0.05678 0.75994,0.17034c0.14849,0.11355 0.22275,0.31446 0.22275,0.60271v0.30136c0,0.30572 -0.07862,0.51536 -0.23584,0.62891c-0.15723,0.10482 -0.41054,0.15723 -0.75994,0.15723zM321.61893,184.27564c0.59397,0 1.10934,0.06551 1.54608,0.19654c0.44548,0.12229 0.79052,0.29699 1.0351,0.5241c0.24458,0.21838 0.36687,0.48479 0.36687,0.79925c0,0.20964 -0.06115,0.40617 -0.18344,0.58961c-0.12229,0.18344 -0.30572,0.27516 -0.55031,0.27516c-0.16596,0 -0.30572,-0.02183 -0.41928,-0.0655c-0.10482,-0.05241 -0.2009,-0.11355 -0.28825,-0.18344c-0.07862,-0.07862 -0.1747,-0.14849 -0.28825,-0.20964c-0.10482,-0.06115 -0.26642,-0.10919 -0.48478,-0.14412c-0.20964,-0.03495 -0.36687,-0.05241 -0.47169,-0.05241c-0.53283,0 -0.98705,0.11355 -1.36266,0.34066c-0.36687,0.22711 -0.65076,0.5372 -0.85165,0.93027c-0.19217,0.39307 -0.28825,0.84293 -0.28825,1.34955c0,0.50663 0.10045,0.95648 0.30136,1.34955c0.20964,0.38433 0.49352,0.69443 0.85166,0.93027c0.35813,0.22711 0.77305,0.34066 1.24473,0.34066c0.26204,0 0.48479,-0.01746 0.66823,-0.05241c0.19217,-0.03495 0.3494,-0.08299 0.47169,-0.14412c0.14849,-0.07862 0.27952,-0.16596 0.39307,-0.26204c0.11355,-0.09608 0.28388,-0.14412 0.511,-0.14412c0.27079,0 0.48042,0.08735 0.62891,0.26204c0.14849,0.1747 0.22275,0.38433 0.22275,0.62891c0,0.26204 -0.14849,0.50226 -0.44548,0.72064c-0.28825,0.20964 -0.67259,0.37997 -1.15301,0.511c-0.47169,0.13103 -0.98268,0.19654 -1.53298,0.19654c-0.82109,0 -1.53734,-0.1878 -2.1488,-0.5634c-0.60271,-0.38433 -1.07003,-0.90406 -1.40195,-1.55919c-0.3232,-0.66386 -0.48478,-1.40195 -0.48478,-2.2143c0,-0.85602 0.1747,-1.60724 0.5241,-2.25361c0.3494,-0.65512 0.83418,-1.16611 1.45437,-1.53298c0.62018,-0.37561 1.33208,-0.5634 2.1357,-0.5634zM327.12076,192.80531c-0.27079,0 -0.49352,-0.09171 -0.66822,-0.27515c-0.1747,-0.18344 -0.26204,-0.41054 -0.26204,-0.68132v-9.66958c0,-0.27079 0.08735,-0.49789 0.26204,-0.68132c0.1747,-0.18344 0.39744,-0.27515 0.66823,-0.27515c0.27079,0 0.49352,0.09172 0.66823,0.27516c0.18344,0.18344 0.27516,0.41054 0.27516,0.68132v9.66958c0,0.27079 -0.09171,0.49789 -0.27515,0.68132c-0.1747,0.18344 -0.39744,0.27516 -0.66822,0.27516zM332.09968,184.43286c0.23584,0 0.44111,0.10045 0.61582,0.30136c0.18344,0.2009 0.27516,0.39307 0.27516,0.57651c0,0.25331 -0.12666,0.48915 -0.37997,0.70753l-4.70376,4.3369l-0.07862,-2.16189l3.57696,-3.45903c0.2009,-0.2009 0.43238,-0.30135 0.69443,-0.30135zM332.33552,192.7922c-0.27079,0 -0.50226,-0.10482 -0.69443,-0.31446l-2.89563,-3.06596l1.42817,-1.31024l2.81702,3.06596c0.2009,0.20964 0.30136,0.44111 0.30136,0.69443c0,0.27079 -0.10919,0.49352 -0.32756,0.66823c-0.20964,0.1747 -0.41928,0.26204 -0.62891,0.26204z" fill="#ffffff" stroke="none" stroke-width="1" stroke-linecap="square"/><path d="M230.62835,162.54957c-0.39491,0 -0.72401,-0.12565 -0.98728,-0.37696c-0.25131,-0.25131 -0.37696,-0.56245 -0.37696,-0.93343v-10.80625l0.30517,0.48467l-1.6335,0.98729c-0.21541,0.11967 -0.44278,0.17951 -0.68212,0.17951c-0.37098,0 -0.68212,-0.13762 -0.93343,-0.41286c-0.23934,-0.27524 -0.35901,-0.57442 -0.35901,-0.89753c0,-0.47869 0.22139,-0.84966 0.66418,-1.11294l3.2311,-1.92071c0.25131,-0.13163 0.56245,-0.19745 0.93343,-0.19745c0.37098,0 0.67015,0.12566 0.89753,0.37697c0.23934,0.25131 0.35901,0.56245 0.35901,0.93343v12.3859c0,0.37098 -0.13163,0.68212 -0.39491,0.93343c-0.26328,0.25131 -0.60433,0.37697 -1.02318,0.37697zM240.24295,162.76498c-1.23261,0 -2.27374,-0.32311 -3.1234,-0.96933c-0.84966,-0.65819 -1.49588,-1.56768 -1.93866,-2.72849c-0.44278,-1.16081 -0.66417,-2.50111 -0.66417,-4.02093c0,-1.53178 0.22139,-2.87209 0.66418,-4.02093c0.44278,-1.16081 1.08901,-2.06431 1.93866,-2.71053c0.84966,-0.65819 1.89079,-0.98728 3.1234,-0.98728c1.22064,0 2.25579,0.3291 3.10546,0.98729c0.84966,0.64622 1.49588,1.54974 1.93866,2.71054c0.44278,1.14884 0.66418,2.48915 0.66418,4.02093c0,1.51982 -0.22139,2.86012 -0.66417,4.02093c-0.44278,1.16081 -1.08901,2.0703 -1.93866,2.72849c-0.84966,0.64622 -1.88481,0.96933 -3.10544,0.96933zM240.24295,160.19805c0.59835,0 1.11294,-0.19148 1.54375,-0.57442c0.44278,-0.38294 0.78384,-0.95137 1.02319,-1.7053c0.23934,-0.7659 0.35901,-1.72326 0.35901,-2.87209c0,-1.16081 -0.11967,-2.11817 -0.35901,-2.87209c-0.23934,-0.75392 -0.5804,-1.31637 -1.02318,-1.68735c-0.43081,-0.38294 -0.9454,-0.57442 -1.54375,-0.57442c-0.58639,0 -1.10097,0.19148 -1.54375,0.57442c-0.44278,0.37098 -0.78983,0.93343 -1.04113,1.68735c-0.23934,0.75392 -0.35901,1.71128 -0.35901,2.87209c0,1.14884 0.11967,2.1062 0.35901,2.87209c0.25131,0.75392 0.59835,1.32236 1.04113,1.70531c0.44278,0.38294 0.95736,0.57442 1.54375,0.57442zM253.40283,162.76498c-1.23261,0 -2.27374,-0.32311 -3.1234,-0.96933c-0.84966,-0.65819 -1.49588,-1.56768 -1.93866,-2.72849c-0.44278,-1.16081 -0.66417,-2.50111 -0.66417,-4.02093c0,-1.53178 0.22139,-2.87209 0.66418,-4.02093c0.44278,-1.16081 1.08901,-2.06431 1.93866,-2.71053c0.84966,-0.65819 1.89079,-0.98728 3.1234,-0.98728c1.22064,0 2.25579,0.3291 3.10546,0.98729c0.84966,0.64622 1.49588,1.54974 1.93866,2.71054c0.44278,1.14884 0.66418,2.48915 0.66418,4.02093c0,1.51982 -0.22139,2.86012 -0.66417,4.02093c-0.44278,1.16081 -1.08901,2.0703 -1.93866,2.72849c-0.84966,0.64622 -1.88481,0.96933 -3.10544,0.96933zM253.40283,160.19805c0.59835,0 1.11294,-0.19148 1.54375,-0.57442c0.44278,-0.38294 0.78384,-0.95137 1.02319,-1.7053c0.23934,-0.7659 0.35901,-1.72326 0.35901,-2.87209c0,-1.16081 -0.11967,-2.11817 -0.35901,-2.87209c-0.23934,-0.75392 -0.5804,-1.31637 -1.02318,-1.68735c-0.43081,-0.38294 -0.9454,-0.57442 -1.54375,-0.57442c-0.58639,0 -1.10097,0.19148 -1.54375,0.57442c-0.44278,0.37098 -0.78983,0.93343 -1.04113,1.68735c-0.23934,0.75392 -0.35901,1.71128 -0.35901,2.87209c0,1.14884 0.11967,2.1062 0.35901,2.87209c0.25131,0.75392 0.59835,1.32236 1.04113,1.70531c0.44278,0.38294 0.95736,0.57442 1.54375,0.57442zM266.56267,162.76498c-1.23261,0 -2.27374,-0.32311 -3.1234,-0.96933c-0.84966,-0.65819 -1.49588,-1.56768 -1.93866,-2.72849c-0.44278,-1.16081 -0.66417,-2.50111 -0.66417,-4.02093c0,-1.53178 0.22139,-2.87209 0.66418,-4.02093c0.44278,-1.16081 1.08901,-2.06431 1.93866,-2.71053c0.84966,-0.65819 1.89079,-0.98728 3.1234,-0.98728c1.22064,0 2.25579,0.3291 3.10546,0.98729c0.84966,0.64622 1.49588,1.54974 1.93866,2.71054c0.44278,1.14884 0.66418,2.48915 0.66418,4.02093c0,1.51982 -0.22139,2.86012 -0.66417,4.02093c-0.44278,1.16081 -1.08901,2.0703 -1.93866,2.72849c-0.84966,0.64622 -1.88481,0.96933 -3.10544,0.96933zM266.56267,160.19805c0.59835,0 1.11294,-0.19148 1.54375,-0.57442c0.44278,-0.38294 0.78384,-0.95137 1.02319,-1.7053c0.23934,-0.7659 0.35901,-1.72326 0.35901,-2.87209c0,-1.16081 -0.11967,-2.11817 -0.35901,-2.87209c-0.23934,-0.75392 -0.5804,-1.31637 -1.02318,-1.68735c-0.43081,-0.38294 -0.9454,-0.57442 -1.54375,-0.57442c-0.58639,0 -1.10097,0.19148 -1.54375,0.57442c-0.44278,0.37098 -0.78983,0.93343 -1.04113,1.68735c-0.23934,0.75392 -0.35901,1.71128 -0.35901,2.87209c0,1.14884 0.11967,2.1062 0.35901,2.87209c0.25131,0.75392 0.59835,1.32236 1.04113,1.70531c0.44278,0.38294 0.95736,0.57442 1.54375,0.57442z" fill="#ffffff" stroke="none" stroke-width="1" stroke-linecap="square"/><path d="M180.7581,214.62436c-0.26041,0 -0.47396,-0.08334 -0.64062,-0.25c-0.16666,-0.16666 -0.25,-0.38021 -0.25,-0.64062v-14.8125c0,-0.27084 0.08334,-0.48959 0.25,-0.65625c0.16666,-0.16666 0.38021,-0.25 0.64063,-0.25h3.9375c0.26041,0 0.47396,0.08334 0.64063,0.25c0.16666,0.16666 0.25,0.38541 0.25,0.65625c0,0.23959 -0.08334,0.44791 -0.25,0.625c-0.16666,0.16666 -0.38021,0.25 -0.64062,0.25h-2.78125l0.09375,-0.15625v13.4375l-0.21875,-0.23437h2.90625c0.26041,0 0.47396,0.08334 0.64063,0.25c0.16666,0.17709 0.25,0.39584 0.25,0.65625c0,0.25 -0.08334,0.45834 -0.25,0.625c-0.16666,0.16666 -0.38021,0.25 -0.64062,0.25zM196.50743,198.65561c0.32291,0.15625 0.51041,0.41146 0.5625,0.76563c0.05209,0.34375 -0.03646,0.66146 -0.26562,0.95313c-0.16666,0.21875 -0.38021,0.34375 -0.64062,0.375c-0.25,0.02084 -0.50521,-0.03125 -0.76562,-0.15625c-0.29166,-0.13541 -0.60416,-0.23959 -0.9375,-0.3125c-0.33334,-0.07291 -0.67709,-0.10937 -1.03125,-0.10937c-0.67709,0 -1.28125,0.10416 -1.8125,0.3125c-0.52084,0.20834 -0.96875,0.51041 -1.34375,0.90625c-0.375,0.38541 -0.66146,0.84896 -0.85937,1.39063c-0.1875,0.53125 -0.28125,1.11979 -0.28125,1.76563c0,0.76041 0.10938,1.42188 0.32813,1.98438c0.21875,0.55209 0.52084,1.01563 0.90625,1.39063c0.38541,0.375 0.83854,0.65625 1.35938,0.84375c0.52084,0.17709 1.08854,0.26563 1.70313,0.26563c0.33334,0 0.66666,-0.03125 1,-0.09375c0.33334,-0.0625 0.65625,-0.17709 0.96875,-0.34375c0.26041,-0.125 0.51563,-0.16666 0.76563,-0.125c0.26041,0.03125 0.47916,0.16146 0.65625,0.39063c0.25,0.3125 0.33854,0.63541 0.26563,0.96875c-0.0625,0.32291 -0.25,0.55729 -0.5625,0.70313c-0.32291,0.16666 -0.65625,0.30209 -1,0.40625c-0.34375,0.10416 -0.69271,0.18229 -1.04687,0.23438c-0.34375,0.0625 -0.69271,0.09375 -1.04687,0.09375c-0.89584,0 -1.74479,-0.14062 -2.54687,-0.42187c-0.80209,-0.29166 -1.52084,-0.71354 -2.15625,-1.26562c-0.625,-0.5625 -1.11979,-1.26562 -1.48437,-2.10937c-0.35416,-0.84375 -0.53125,-1.81771 -0.53125,-2.92187c0,-0.95834 0.16146,-1.83854 0.48438,-2.64062c0.33334,-0.8125 0.80209,-1.51041 1.40625,-2.09375c0.60416,-0.59375 1.3125,-1.05729 2.125,-1.39062c0.82291,-0.33334 1.72396,-0.5 2.70313,-0.5c0.54166,0 1.07291,0.0625 1.59375,0.1875c0.52084,0.125 1.01563,0.30729 1.48438,0.54688zM201.29866,209.93686c0,0.32291 -0.10937,0.59375 -0.32812,0.8125c-0.21875,0.21875 -0.48959,0.32813 -0.8125,0.32813c-0.3125,0 -0.57291,-0.10937 -0.78125,-0.32812c-0.20834,-0.21875 -0.3125,-0.48959 -0.3125,-0.8125v-11.53125c0,-0.32291 0.10416,-0.59375 0.3125,-0.8125c0.21875,-0.21875 0.48959,-0.32812 0.8125,-0.32812c0.32291,0 0.58854,0.10938 0.79688,0.32813c0.20834,0.21875 0.3125,0.48959 0.3125,0.8125zM206.02333,209.93686c0,0.32291 -0.10937,0.59375 -0.32812,0.8125c-0.20834,0.21875 -0.47396,0.32813 -0.79687,0.32813c-0.32291,0 -0.59375,-0.10937 -0.8125,-0.32812c-0.20834,-0.21875 -0.3125,-0.48959 -0.3125,-0.8125v-7.70312c0,-0.32291 0.10416,-0.59375 0.3125,-0.8125c0.21875,-0.21875 0.48959,-0.32812 0.8125,-0.32812c0.32291,0 0.58854,0.10938 0.79688,0.32813c0.21875,0.21875 0.32813,0.48959 0.32813,0.8125zM204.78896,199.88999c-0.42709,0 -0.72916,-0.06771 -0.90625,-0.20312c-0.16666,-0.14584 -0.25,-0.39062 -0.25,-0.73437v-0.35937c0,-0.35416 0.09375,-0.59375 0.28125,-0.71875c0.19791,-0.13541 0.49479,-0.20312 0.89063,-0.20312c0.4375,0 0.73959,0.06771 0.90625,0.20313c0.17709,0.13541 0.26563,0.375 0.26563,0.71875v0.35938c0,0.36459 -0.09375,0.61459 -0.28125,0.75c-0.1875,0.125 -0.48959,0.1875 -0.90625,0.1875zM212.6606,200.90561c0.70834,0 1.32291,0.07813 1.84375,0.23438c0.53125,0.14584 0.94271,0.35416 1.23438,0.625c0.29166,0.26041 0.4375,0.57813 0.4375,0.95313c0,0.25 -0.07291,0.48438 -0.21875,0.70313c-0.14584,0.21875 -0.36459,0.32813 -0.65625,0.32813c-0.19791,0 -0.36459,-0.02604 -0.5,-0.07812c-0.125,-0.0625 -0.23959,-0.13541 -0.34375,-0.21875c-0.09375,-0.09375 -0.20834,-0.17709 -0.34375,-0.25c-0.125,-0.07291 -0.31771,-0.13021 -0.57812,-0.17187c-0.25,-0.04166 -0.4375,-0.0625 -0.5625,-0.0625c-0.63541,0 -1.17709,0.13541 -1.625,0.40625c-0.4375,0.27084 -0.77604,0.64063 -1.01562,1.10938c-0.22916,0.46875 -0.34375,1.00521 -0.34375,1.60938c0,0.60416 0.11979,1.14063 0.35938,1.60938c0.25,0.45834 0.58854,0.82813 1.01563,1.10938c0.42709,0.27084 0.92188,0.40625 1.48438,0.40625c0.3125,0 0.57813,-0.02084 0.79688,-0.0625c0.22916,-0.04166 0.41666,-0.09896 0.5625,-0.17187c0.17709,-0.09375 0.33334,-0.19791 0.46875,-0.3125c0.13541,-0.11459 0.33854,-0.17187 0.60938,-0.17187c0.32291,0 0.57291,0.10416 0.75,0.3125c0.17709,0.20834 0.26563,0.45834 0.26563,0.75c0,0.3125 -0.17709,0.59896 -0.53125,0.85938c-0.34375,0.25 -0.80209,0.45313 -1.375,0.60938c-0.5625,0.15625 -1.17187,0.23438 -1.82812,0.23438c-0.97916,0 -1.83334,-0.22396 -2.5625,-0.67187c-0.71875,-0.45834 -1.27604,-1.07812 -1.67187,-1.85937c-0.38541,-0.79166 -0.57812,-1.67187 -0.57812,-2.64062c0,-1.02084 0.20834,-1.91666 0.625,-2.6875c0.41666,-0.78125 0.99479,-1.39062 1.73438,-1.82812c0.73959,-0.44791 1.58854,-0.67187 2.54688,-0.67187zM219.2217,211.07749c-0.32291,0 -0.58854,-0.10937 -0.79687,-0.32812c-0.20834,-0.21875 -0.3125,-0.48959 -0.3125,-0.8125v-11.53125c0,-0.32291 0.10416,-0.59375 0.3125,-0.8125c0.20834,-0.21875 0.47396,-0.32812 0.79688,-0.32812c0.32291,0 0.58854,0.10938 0.79688,0.32813c0.21875,0.21875 0.32813,0.48959 0.32813,0.8125v11.53125c0,0.32291 -0.10937,0.59375 -0.32812,0.8125c-0.20834,0.21875 -0.47396,0.32813 -0.79687,0.32813zM225.1592,201.09311c0.28125,0 0.52604,0.11979 0.73438,0.35938c0.21875,0.23959 0.32813,0.46875 0.32813,0.6875c0,0.30209 -0.15104,0.58334 -0.45312,0.84375l-5.60937,5.17188l-0.09375,-2.57812l4.26563,-4.125c0.23959,-0.23959 0.51563,-0.35937 0.82813,-0.35937zM225.44045,211.06186c-0.32291,0 -0.59896,-0.125 -0.82812,-0.375l-3.45312,-3.65625l1.70313,-1.5625l3.35938,3.65625c0.23959,0.25 0.35938,0.52604 0.35938,0.82813c0,0.32291 -0.13021,0.58854 -0.39062,0.79688c-0.25,0.20834 -0.5,0.3125 -0.75,0.3125zM233.87334,201.28061h4.42188c0.29166,0 0.53646,0.09896 0.73438,0.29688c0.20834,0.19791 0.3125,0.44791 0.3125,0.75c0,0.28125 -0.10416,0.52084 -0.3125,0.71875c-0.19791,0.1875 -0.44271,0.28125 -0.73437,0.28125h-4.42187c-0.30209,0 -0.55209,-0.09896 -0.75,-0.29687c-0.19791,-0.19791 -0.29687,-0.44271 -0.29687,-0.73437c0,-0.29166 0.09896,-0.53125 0.29688,-0.71875c0.19791,-0.19791 0.44791,-0.29687 0.75,-0.29687zM235.87334,198.95249c0.32291,0 0.58334,0.10938 0.78125,0.32813c0.20834,0.21875 0.3125,0.48959 0.3125,0.8125v8.29688c0,0.17709 0.03125,0.32291 0.09375,0.4375c0.07291,0.10416 0.16666,0.18229 0.28125,0.23438c0.125,0.05209 0.25521,0.07813 0.39063,0.07813c0.14584,0 0.28125,-0.02604 0.40625,-0.07812c0.125,-0.0625 0.27084,-0.09375 0.4375,-0.09375c0.16666,0 0.32291,0.08334 0.46875,0.25c0.14584,0.15625 0.21875,0.38021 0.21875,0.67188c0,0.34375 -0.19271,0.63021 -0.57812,0.85938c-0.375,0.21875 -0.78125,0.32813 -1.21875,0.32813c-0.26041,0 -0.55209,-0.02084 -0.875,-0.0625c-0.3125,-0.04166 -0.60937,-0.14584 -0.89062,-0.3125c-0.27084,-0.17709 -0.5,-0.4375 -0.6875,-0.78125c-0.1875,-0.34375 -0.28125,-0.82291 -0.28125,-1.4375v-8.39062c0,-0.32291 0.10416,-0.59375 0.3125,-0.8125c0.21875,-0.21875 0.49479,-0.32812 0.82813,-0.32812zM250.87917,206.09311c0,1.02084 -0.22916,1.92188 -0.6875,2.70313c-0.44791,0.77084 -1.05729,1.375 -1.82812,1.8125c-0.76041,0.4375 -1.60937,0.65625 -2.54687,0.65625c-0.94791,0 -1.80729,-0.21875 -2.57812,-0.65625c-0.76041,-0.4375 -1.36979,-1.04166 -1.82812,-1.8125c-0.44791,-0.78125 -0.67187,-1.68229 -0.67187,-2.70312c0,-1.02084 0.22396,-1.91666 0.67188,-2.6875c0.45834,-0.78125 1.06771,-1.39062 1.82813,-1.82812c0.77084,-0.44791 1.63021,-0.67187 2.57813,-0.67187c0.9375,0 1.78646,0.22396 2.54688,0.67188c0.77084,0.4375 1.38021,1.04688 1.82813,1.82813c0.45834,0.77084 0.6875,1.66666 0.6875,2.6875zM248.64479,206.09311c0,-0.63541 -0.13021,-1.18229 -0.39062,-1.64062c-0.25,-0.46875 -0.58854,-0.83334 -1.01562,-1.09375c-0.42709,-0.26041 -0.90104,-0.39062 -1.42187,-0.39062c-0.53125,0 -1.01041,0.13021 -1.4375,0.39063c-0.42709,0.26041 -0.77084,0.625 -1.03125,1.09375c-0.25,0.45834 -0.375,1.00521 -0.375,1.64063c0,0.625 0.125,1.17188 0.375,1.64063c0.26041,0.45834 0.60416,0.82291 1.03125,1.09375c0.42709,0.26041 0.90625,0.39063 1.4375,0.39063c0.52084,0 0.99479,-0.13021 1.42188,-0.39062c0.42709,-0.27084 0.76563,-0.63541 1.01563,-1.09375c0.26041,-0.46875 0.39063,-1.01562 0.39063,-1.64062zM263.13597,200.90561c0.875,0 1.65625,0.22396 2.34375,0.67188c0.6875,0.4375 1.23438,1.04166 1.64063,1.8125c0.40625,0.77084 0.60938,1.66666 0.60938,2.6875c0,1.02084 -0.20312,1.92188 -0.60937,2.70313c-0.40625,0.77084 -0.94792,1.38021 -1.625,1.82813c-0.67708,0.4375 -1.4375,0.65625 -2.28125,0.65625c-0.5,0 -0.96875,-0.07812 -1.40625,-0.23437c-0.42708,-0.16666 -0.80729,-0.375 -1.14062,-0.625c-0.32292,-0.25 -0.57812,-0.5 -0.76562,-0.75c-0.17708,-0.26041 -0.26562,-0.47916 -0.26562,-0.65625l0.57813,-0.23437v1.35938c0,0.32291 -0.10937,0.59375 -0.32812,0.8125c-0.20833,0.21875 -0.47396,0.32813 -0.79687,0.32813c-0.32292,0 -0.58854,-0.10416 -0.79687,-0.3125c-0.20833,-0.21875 -0.3125,-0.49479 -0.3125,-0.82812v-11.71875c0,-0.32291 0.10417,-0.59375 0.3125,-0.8125c0.20833,-0.21875 0.47396,-0.32812 0.79688,-0.32812c0.32292,0 0.58854,0.10938 0.79688,0.32813c0.21875,0.21875 0.32813,0.48959 0.32813,0.8125v4.75l-0.3125,-0.17187c0,-0.16666 0.08333,-0.36459 0.25,-0.59375c0.17708,-0.22916 0.41146,-0.45834 0.70313,-0.6875c0.30208,-0.22916 0.65104,-0.41666 1.04688,-0.5625c0.39583,-0.15625 0.80729,-0.23437 1.23438,-0.23437zM262.85472,202.96811c-0.54167,0 -1.02083,0.13541 -1.4375,0.40625c-0.40625,0.27084 -0.72396,0.64063 -0.95312,1.10938c-0.22917,0.46875 -0.34375,1 -0.34375,1.59375c0,0.58334 0.11458,1.11459 0.34375,1.59375c0.22917,0.47916 0.54688,0.85938 0.95313,1.14063c0.41667,0.27084 0.89583,0.40625 1.4375,0.40625c0.55208,0 1.03125,-0.13541 1.4375,-0.40625c0.40625,-0.28125 0.72396,-0.66146 0.95313,-1.14062c0.22917,-0.47916 0.34375,-1.01041 0.34375,-1.59375c0,-0.59375 -0.11458,-1.125 -0.34375,-1.59375c-0.22917,-0.46875 -0.54687,-0.83854 -0.95312,-1.10937c-0.40625,-0.27084 -0.88542,-0.40625 -1.4375,-0.40625zM277.00883,201.09311c0.32292,0 0.58854,0.10938 0.79688,0.32813c0.20833,0.21875 0.3125,0.48959 0.3125,0.8125v4.73438c0,1.32291 -0.36979,2.36979 -1.10937,3.14063c-0.72917,0.77084 -1.78125,1.15625 -3.15625,1.15625c-1.38542,0 -2.44271,-0.38541 -3.17187,-1.15625c-0.71875,-0.77084 -1.07812,-1.81771 -1.07812,-3.14062v-4.73437c0,-0.32291 0.10417,-0.59375 0.3125,-0.8125c0.20833,-0.21875 0.47396,-0.32812 0.79688,-0.32812c0.32292,0 0.58854,0.10938 0.79688,0.32813c0.21875,0.21875 0.32813,0.48959 0.32813,0.8125v4.73438c0,0.76041 0.16667,1.32813 0.5,1.70313c0.33333,0.36459 0.83854,0.54688 1.51563,0.54688c0.6875,0 1.19792,-0.18229 1.53125,-0.54687c0.33333,-0.375 0.5,-0.94271 0.5,-1.70312v-4.73437c0,-0.32291 0.10417,-0.59375 0.3125,-0.8125c0.21875,-0.21875 0.48958,-0.32812 0.8125,-0.32812zM287.96004,201.09311c0.32292,0 0.58854,0.10938 0.79688,0.32813c0.20833,0.21875 0.3125,0.48959 0.3125,0.8125v7.92188c0,1.14584 -0.21354,2.05729 -0.64062,2.73438c-0.42708,0.67709 -1.00521,1.16666 -1.73437,1.46875c-0.71875,0.30209 -1.52604,0.45313 -2.42187,0.45313c-0.39583,0 -0.81771,-0.03125 -1.26562,-0.09375c-0.44792,-0.0625 -0.8125,-0.15625 -1.09375,-0.28125c-0.375,-0.16666 -0.63542,-0.36979 -0.78125,-0.60937c-0.14583,-0.23959 -0.17187,-0.49479 -0.07812,-0.76562c0.11458,-0.36459 0.29167,-0.61459 0.53125,-0.75c0.25,-0.125 0.51563,-0.14062 0.79688,-0.04687c0.19792,0.0625 0.45833,0.15625 0.78125,0.28125c0.32292,0.13541 0.69271,0.20313 1.10938,0.20313c0.57292,0 1.04688,-0.07812 1.42188,-0.23437c0.38542,-0.14584 0.67188,-0.40625 0.85938,-0.78125c0.19792,-0.36459 0.29688,-0.86459 0.29688,-1.5v-1.25l0.39063,0.45313c-0.20833,0.40625 -0.47396,0.74479 -0.79687,1.01563c-0.3125,0.27084 -0.6875,0.47396 -1.125,0.60938c-0.4375,0.13541 -0.93229,0.20313 -1.48437,0.20313c-0.66667,0 -1.24479,-0.15104 -1.73437,-0.45312c-0.48958,-0.3125 -0.86979,-0.73437 -1.14062,-1.26562c-0.27083,-0.54166 -0.40625,-1.16146 -0.40625,-1.85937v-5.45312c0,-0.32291 0.10417,-0.59375 0.3125,-0.8125c0.20833,-0.21875 0.47396,-0.32812 0.79688,-0.32812c0.32292,0 0.58854,0.10938 0.79688,0.32813c0.21875,0.21875 0.32813,0.48959 0.32813,0.8125v4.78125c0,0.80209 0.17708,1.36979 0.53125,1.70313c0.35417,0.33334 0.84896,0.5 1.48438,0.5c0.4375,0 0.80208,-0.08334 1.09375,-0.25c0.30208,-0.17709 0.53125,-0.42709 0.6875,-0.75c0.16667,-0.33334 0.25,-0.73437 0.25,-1.20312v-4.78125c0,-0.32291 0.10417,-0.59375 0.3125,-0.8125c0.21875,-0.21875 0.48958,-0.32812 0.8125,-0.32812zM295.4894,198.01499c0.26042,0 0.47396,0.08334 0.64063,0.25c0.16667,0.16666 0.25,0.38541 0.25,0.65625v14.8125c0,0.26041 -0.08333,0.47396 -0.25,0.64063c-0.16667,0.16666 -0.38021,0.25 -0.64062,0.25h-3.9375c-0.26042,0 -0.47396,-0.08334 -0.64062,-0.25c-0.16667,-0.16666 -0.25,-0.38021 -0.25,-0.64062c0,-0.25 0.08333,-0.46354 0.25,-0.64062c0.16667,-0.16666 0.38021,-0.25 0.64063,-0.25h2.78125l-0.09375,0.15625v-13.4375l0.21875,0.23438h-2.90625c-0.26042,0 -0.47396,-0.08334 -0.64062,-0.25c-0.16667,-0.17709 -0.25,-0.39584 -0.25,-0.65625c0,-0.25 0.08333,-0.45834 0.25,-0.625c0.16667,-0.16666 0.38021,-0.25 0.64063,-0.25z" fill="#ffffff" stroke="none" stroke-width="1" stroke-linecap="square"/></g></g></svg>