<svg version="1.1" xmlns="http://www.w3.org/2000/svg" xmlns:xlink="http://www.w3.org/1999/xlink" width="59.44636" height="27.75147" viewBox="0,0,59.44636,27.75147"><g transform="translate(-210.27682,-166.12426)"><g data-paper-data="{&quot;isPaintingLayer&quot;:true}" stroke="none" stroke-width="1" stroke-miterlimit="10" stroke-dasharray="" stroke-dashoffset="0" style="mix-blend-mode: normal"><path d="M218.43683,166.12426h43.12667c4.50625,0 8.15968,3.65342 8.15968,8.15968v11.43211c0,4.50625 -3.65342,8.15968 -8.15968,8.15968h-43.12667c-4.50667,0 -8.16001,-3.65342 -8.16001,-8.15968v-11.43211c0,-4.50625 3.65334,-8.15968 8.16001,-8.15968z" fill="#000000" fill-rule="evenodd" stroke-linecap="round" stroke-linejoin="round" opacity="0.31775"/><path d="M222.97173,185.22656c-0.86459,0 -1.64584,-0.10937 -2.34375,-0.32812c-0.69791,-0.21875 -1.36459,-0.59896 -2,-1.14062c-0.16666,-0.14584 -0.29166,-0.30209 -0.375,-0.46875c-0.08334,-0.17709 -0.125,-0.35416 -0.125,-0.53125c0,-0.28125 0.09896,-0.53125 0.29688,-0.75c0.20834,-0.21875 0.46875,-0.32812 0.78125,-0.32812c0.23959,0 0.45313,0.07291 0.64063,0.21875c0.46875,0.38541 0.9375,0.68229 1.40625,0.89063c0.46875,0.19791 1.04166,0.29688 1.71875,0.29688c0.45834,0 0.88021,-0.07291 1.26563,-0.21875c0.38541,-0.14584 0.69791,-0.33854 0.9375,-0.57812c0.23959,-0.23959 0.35938,-0.51562 0.35938,-0.82812c0,-0.375 -0.11459,-0.69271 -0.34375,-0.95312c-0.21875,-0.26041 -0.5625,-0.47916 -1.03125,-0.65625c-0.45834,-0.1875 -1.04166,-0.32812 -1.75,-0.42187c-0.66666,-0.10416 -1.25521,-0.25521 -1.76562,-0.45312c-0.51041,-0.20834 -0.9375,-0.46875 -1.28125,-0.78125c-0.34375,-0.32291 -0.60416,-0.69791 -0.78125,-1.125c-0.16666,-0.4375 -0.25,-0.92187 -0.25,-1.45312c0,-0.8125 0.20834,-1.5 0.625,-2.0625c0.41666,-0.57292 0.97916,-1.01042 1.6875,-1.3125c0.70834,-0.30209 1.48959,-0.45312 2.34375,-0.45312c0.8125,0 1.5625,0.125 2.25,0.375c0.69791,0.23959 1.26041,0.54688 1.6875,0.92188c0.36459,0.28125 0.54688,0.60938 0.54688,0.98438c0,0.27083 -0.10937,0.52083 -0.32812,0.75c-0.20834,0.21875 -0.45312,0.32813 -0.73437,0.32813c-0.1875,0 -0.35416,-0.05729 -0.5,-0.17187c-0.19791,-0.16667 -0.46875,-0.32812 -0.8125,-0.48437c-0.33334,-0.15625 -0.6875,-0.28646 -1.0625,-0.39062c-0.375,-0.10417 -0.72396,-0.15625 -1.04687,-0.15625c-0.53125,0 -0.97916,0.06771 -1.34375,0.20313c-0.36459,0.13541 -0.64062,0.32291 -0.82812,0.5625c-0.1875,0.22916 -0.28125,0.5 -0.28125,0.8125c0,0.375 0.10938,0.68229 0.32813,0.92188c0.21875,0.23959 0.53125,0.43229 0.9375,0.57813c0.40625,0.14584 0.89584,0.27604 1.46875,0.39063c0.75,0.13541 1.40625,0.29688 1.96875,0.48438c0.57291,0.1875 1.04166,0.42709 1.40625,0.71875c0.375,0.29166 0.65625,0.65625 0.84375,1.09375c0.1875,0.4375 0.28125,0.97396 0.28125,1.60938c0,0.8125 -0.22396,1.51041 -0.67187,2.09375c-0.44791,0.58334 -1.03646,1.03125 -1.76562,1.34375c-0.72916,0.3125 -1.51562,0.46875 -2.35937,0.46875zM234.96889,174.86719c0.89584,0 1.57813,0.19271 2.04688,0.57813c0.46875,0.38541 0.78646,0.90104 0.95313,1.54688c0.17709,0.63541 0.26563,1.34896 0.26563,2.14063v4.76563c0,0.32291 -0.10937,0.59375 -0.32812,0.8125c-0.20834,0.21875 -0.47396,0.32813 -0.79687,0.32813c-0.32291,0 -0.58854,-0.10937 -0.79687,-0.32812c-0.20834,-0.21875 -0.3125,-0.48959 -0.3125,-0.8125v-4.76562c0,-0.41666 -0.05209,-0.78646 -0.15625,-1.10937c-0.09375,-0.33334 -0.27084,-0.59896 -0.53125,-0.79687c-0.26041,-0.19791 -0.63541,-0.29687 -1.125,-0.29687c-0.46875,0 -0.875,0.09896 -1.21875,0.29688c-0.33334,0.19791 -0.58334,0.46354 -0.75,0.79688c-0.16666,0.32291 -0.25,0.69271 -0.25,1.10938v4.76563c0,0.32291 -0.10937,0.59375 -0.32812,0.8125c-0.20834,0.21875 -0.47396,0.32813 -0.79687,0.32813c-0.32291,0 -0.58854,-0.10937 -0.79687,-0.32812c-0.20834,-0.21875 -0.3125,-0.48959 -0.3125,-0.8125v-11.53125c0,-0.32291 0.10416,-0.59375 0.3125,-0.8125c0.20834,-0.21875 0.47396,-0.32812 0.79688,-0.32812c0.32291,0 0.58854,0.10938 0.79688,0.32813c0.21875,0.21875 0.32813,0.48959 0.32813,0.8125v4.625l-0.28125,-0.04687c0.11459,-0.20834 0.27084,-0.43229 0.46875,-0.67187c0.19791,-0.25 0.4375,-0.47917 0.71875,-0.6875c0.29166,-0.21875 0.60938,-0.39062 0.95313,-0.51562c0.35416,-0.13542 0.73438,-0.20312 1.14063,-0.20312zM250.24521,180.05469c0,1.02084 -0.22916,1.92188 -0.6875,2.70313c-0.44791,0.77084 -1.05729,1.375 -1.82812,1.8125c-0.76042,0.4375 -1.60937,0.65625 -2.54687,0.65625c-0.94792,0 -1.80729,-0.21875 -2.57812,-0.65625c-0.76042,-0.4375 -1.36979,-1.04166 -1.82812,-1.8125c-0.44792,-0.78125 -0.67187,-1.68229 -0.67187,-2.70312c0,-1.02084 0.22396,-1.91666 0.67188,-2.6875c0.45833,-0.78125 1.06771,-1.39062 1.82813,-1.82812c0.77083,-0.44792 1.63021,-0.67187 2.57813,-0.67187c0.9375,0 1.78646,0.22396 2.54688,0.67188c0.77083,0.4375 1.38021,1.04688 1.82812,1.82813c0.45834,0.77084 0.6875,1.66666 0.6875,2.6875zM248.01084,180.05469c0,-0.63541 -0.13021,-1.18229 -0.39062,-1.64062c-0.25,-0.46875 -0.58854,-0.83334 -1.01562,-1.09375c-0.42709,-0.26041 -0.90104,-0.39062 -1.42187,-0.39062c-0.53125,0 -1.01042,0.13021 -1.4375,0.39063c-0.42709,0.26041 -0.77084,0.625 -1.03125,1.09375c-0.25,0.45834 -0.375,1.00521 -0.375,1.64063c0,0.625 0.125,1.17188 0.375,1.64063c0.26041,0.45834 0.60416,0.82291 1.03125,1.09375c0.42708,0.26041 0.90625,0.39063 1.4375,0.39063c0.52083,0 0.99479,-0.13021 1.42188,-0.39062c0.42708,-0.27084 0.76563,-0.63541 1.01563,-1.09375c0.26041,-0.46875 0.39063,-1.01562 0.39063,-1.64062zM257.27828,174.86719c0.875,0 1.65625,0.22396 2.34375,0.67188c0.6875,0.4375 1.23438,1.04166 1.64062,1.8125c0.40625,0.77084 0.60938,1.66666 0.60938,2.6875c0,1.02084 -0.20312,1.92188 -0.60937,2.70313c-0.40625,0.77084 -0.94791,1.38021 -1.625,1.82813c-0.67708,0.4375 -1.4375,0.65625 -2.28125,0.65625c-0.5,0 -0.96875,-0.07812 -1.40625,-0.23437c-0.42708,-0.16667 -0.80729,-0.375 -1.14062,-0.625c-0.32292,-0.25 -0.57812,-0.5 -0.76562,-0.75c-0.17708,-0.26041 -0.26562,-0.47916 -0.26562,-0.65625l0.57813,-0.23437v4.90625c0,0.32291 -0.10937,0.59375 -0.32812,0.8125c-0.20833,0.21875 -0.47396,0.32813 -0.79687,0.32813c-0.32292,0 -0.58854,-0.10937 -0.79687,-0.32812c-0.20834,-0.20834 -0.3125,-0.47917 -0.3125,-0.8125v-11.4375c0,-0.32292 0.10416,-0.59375 0.3125,-0.8125c0.20833,-0.21875 0.47396,-0.32812 0.79688,-0.32812c0.32292,0 0.58854,0.10938 0.79688,0.32813c0.21875,0.21875 0.32813,0.48958 0.32813,0.8125v0.92188l-0.3125,-0.17187c0,-0.16666 0.08333,-0.36459 0.25,-0.59375c0.17708,-0.22916 0.41146,-0.45834 0.70313,-0.6875c0.30208,-0.22917 0.65104,-0.41667 1.04688,-0.5625c0.39583,-0.15625 0.80729,-0.23437 1.23438,-0.23437zM256.99703,176.92969c-0.54167,0 -1.02083,0.13541 -1.4375,0.40625c-0.40625,0.27084 -0.72396,0.64063 -0.95312,1.10938c-0.22917,0.46875 -0.34375,1 -0.34375,1.59375c0,0.58334 0.11458,1.11459 0.34375,1.59375c0.22917,0.47916 0.54688,0.85938 0.95313,1.14063c0.41667,0.27084 0.89583,0.40625 1.4375,0.40625c0.55208,0 1.03125,-0.13541 1.4375,-0.40625c0.40625,-0.28125 0.72396,-0.66146 0.95313,-1.14062c0.22917,-0.47916 0.34375,-1.01041 0.34375,-1.59375c0,-0.59375 -0.11458,-1.125 -0.34375,-1.59375c-0.22917,-0.46875 -0.54687,-0.83854 -0.95312,-1.10937c-0.40625,-0.27084 -0.88542,-0.40625 -1.4375,-0.40625z" fill="#ffffff" fill-rule="nonzero" stroke-linecap="square" stroke-linejoin="miter"/></g></g></svg>