<svg version="1.1" xmlns="http://www.w3.org/2000/svg" xmlns:xlink="http://www.w3.org/1999/xlink" width="19.79054" height="19.79054" viewBox="0,0,19.79054,19.79054"><defs><linearGradient x1="229.63907" y1="180" x2="249.66787" y2="180" gradientUnits="userSpaceOnUse" id="color-1"><stop offset="0" stop-color="#fff9df"/><stop offset="0.593" stop-color="#ffe177"/><stop offset="1" stop-color="#feb137"/></linearGradient><linearGradient x1="231.96737" y1="180" x2="248.08055" y2="180" gradientUnits="userSpaceOnUse" id="color-2"><stop offset="0" stop-color="#ffe177"/><stop offset="1" stop-color="#feb137"/></linearGradient><linearGradient x1="235.3822" y1="180" x2="244.20146" y2="180" gradientUnits="userSpaceOnUse" id="color-3"><stop offset="0" stop-color="#ffe177"/><stop offset="1" stop-color="#feb137"/></linearGradient><linearGradient x1="237.55529" y1="180" x2="248.42762" y2="180" gradientUnits="userSpaceOnUse" id="color-4"><stop offset="0" stop-color="#feb137"/><stop offset="1" stop-color="#eca026"/></linearGradient><linearGradient x1="235.11434" y1="180" x2="244.31232" y2="180" gradientUnits="userSpaceOnUse" id="color-5"><stop offset="0" stop-color="#fff9df"/><stop offset="0.593" stop-color="#ffe177"/><stop offset="1" stop-color="#feb137"/></linearGradient></defs><g transform="translate(-230.10473,-170.10473)"><g data-paper-data="{&quot;isPaintingLayer&quot;:true}" fill-rule="nonzero" stroke="none" stroke-width="1" stroke-linecap="butt" stroke-linejoin="miter" stroke-miterlimit="10" stroke-dasharray="" stroke-dashoffset="0" style="mix-blend-mode: normal"><g><path d="M230.10473,180c0,-5.46501 4.43026,-9.89527 9.89527,-9.89527c5.46501,0 9.89527,4.43026 9.89527,9.89527c0,5.46501 -4.43026,9.89527 -9.89527,9.89527c-5.46501,0 -9.89527,-4.43026 -9.89527,-9.89527z" fill="url(#color-1)"/><path d="M249.89527,180c0,5.46502 -4.43025,9.89527 -9.89527,9.89527c-0.26135,0 -0.52026,-0.01032 -0.77649,-0.03019c5.10204,-0.39605 9.11878,-4.6614 9.11878,-9.86508c0,-5.20367 -4.01674,-9.46904 -9.11878,-9.86508c0.25623,-0.01987 0.51514,-0.03019 0.77649,-0.03019c5.46502,0 9.89527,4.43025 9.89527,9.89527z" fill="url(#color-2)"/></g><path d="M233.01084,180c0,-3.86001 3.12916,-6.98916 6.98916,-6.98916c3.86001,0 6.98916,3.12916 6.98916,6.98916c0,3.86001 -3.12916,6.98916 -6.98916,6.98916c-3.86001,0 -6.98916,-3.12916 -6.98916,-6.98916z" fill="url(#color-3)"/><path d="M246.98916,179.99992c0,3.86001 -3.12916,6.98916 -6.98916,6.98916c-0.26252,0 -0.5215,-0.01494 -0.77649,-0.04315c3.4945,-0.3863 6.21268,-3.34852 6.21268,-6.94597c0,-3.59745 -2.71817,-6.55964 -6.21268,-6.94597c0.25498,-0.02817 0.51397,-0.04315 0.77649,-0.04315c3.86001,0 6.98916,3.12907 6.98916,6.98909z" fill="url(#color-4)"/><path d="M243.25295,181.80199c0,1.64304 -1.06007,2.6368 -2.61034,2.88856v0.38428c0,0.18553 -0.25172,0.35778 -0.50349,0.35778c-0.2915,0 -0.50349,-0.17225 -0.50349,-0.35778v-0.33123c-1.59007,-0.05301 -2.88861,-0.87451 -2.88861,-1.72255c0,-0.45049 0.39747,-1.113 0.90098,-1.113c0.55654,0 1.00711,0.78176 1.98763,0.95402v-2.14658c-1.21906,-0.46376 -2.65011,-1.03353 -2.65011,-2.72959c0,-1.68281 1.24556,-2.49112 2.65011,-2.68985v-0.37101c0,-0.18549 0.21199,-0.35774 0.50349,-0.35774c0.25173,0 0.50349,0.17225 0.50349,0.35774v0.33128c0.8215,0.0265 2.37184,0.2385 2.37184,1.15278c0,0.35774 -0.23845,1.08654 -0.82154,1.08654c-0.43721,0 -0.68895,-0.42402 -1.55026,-0.49026v1.93458c1.20575,0.45049 2.61034,1.07326 2.6103,2.86202zM239.7681,177.04515c-0.59623,0.11929 -0.84804,0.42402 -0.84804,0.74202c0,0.38425 0.34455,0.62278 0.84804,0.83477zM241.3184,182.01406c0,-0.4373 -0.33123,-0.71552 -0.80827,-0.94078v1.77556c0.45052,-0.10601 0.80831,-0.35774 0.80827,-0.83477z" fill="url(#color-5)"/></g></g></svg>