<svg version="1.1" xmlns="http://www.w3.org/2000/svg" xmlns:xlink="http://www.w3.org/1999/xlink" width="204.74878" height="90.33082" viewBox="0,0,204.74878,90.33082"><defs><linearGradient x1="-633.59479" y1="-387.79377" x2="-633.59479" y2="534.87111" gradientUnits="userSpaceOnUse" id="color-1"><stop offset="0" stop-color="#2a2a2a"/><stop offset="1" stop-color="#2a2a2a" stop-opacity="0"/></linearGradient><linearGradient x1="187.45083" y1="156" x2="215.57595" y2="156" gradientUnits="userSpaceOnUse" id="color-2"><stop offset="0" stop-color="#fff9df"/><stop offset="0.593" stop-color="#ffe177"/><stop offset="1" stop-color="#feb137"/></linearGradient><linearGradient x1="190.72031" y1="156" x2="213.34698" y2="156" gradientUnits="userSpaceOnUse" id="color-3"><stop offset="0" stop-color="#ffe177"/><stop offset="1" stop-color="#feb137"/></linearGradient><linearGradient x1="195.51553" y1="156" x2="207.89983" y2="156" gradientUnits="userSpaceOnUse" id="color-4"><stop offset="0" stop-color="#ffe177"/><stop offset="1" stop-color="#feb137"/></linearGradient><linearGradient x1="198.56706" y1="156" x2="213.83435" y2="156" gradientUnits="userSpaceOnUse" id="color-5"><stop offset="0" stop-color="#feb137"/><stop offset="1" stop-color="#eca026"/></linearGradient><linearGradient x1="195.13939" y1="156" x2="208.0555" y2="156" gradientUnits="userSpaceOnUse" id="color-6"><stop offset="0" stop-color="#fff9df"/><stop offset="0.593" stop-color="#ffe177"/><stop offset="1" stop-color="#feb137"/></linearGradient></defs><g transform="translate(-137.62561,-134.83459)"><g data-paper-data="{&quot;isPaintingLayer&quot;:true}" fill-rule="nonzero" stroke-linejoin="miter" stroke-miterlimit="10" stroke-dasharray="" stroke-dashoffset="0" style="mix-blend-mode: normal"><path d="M137.62561,225.16541v-90.33082h204.74878v90.33082z" data-paper-data="{&quot;index&quot;:null}" fill="url(#color-1)" stroke="#009dec" stroke-width="0" stroke-linecap="butt"/><g stroke="none" stroke-width="1" stroke-linecap="butt"><g><path d="M188.10473,156c0,-7.67415 6.22112,-13.89527 13.89527,-13.89527c7.67415,0 13.89527,6.22112 13.89527,13.89527c0,7.67415 -6.22112,13.89527 -13.89527,13.89527c-7.67415,0 -13.89527,-6.22112 -13.89527,-13.89527z" fill="url(#color-2)"/><path d="M215.89527,156c0,7.67416 -6.22111,13.89527 -13.89527,13.89527c-0.367,0 -0.73057,-0.01449 -1.09037,-0.04239c7.16446,-0.55615 12.8049,-6.54569 12.8049,-13.85288c0,-7.30717 -5.64044,-13.29674 -12.8049,-13.85288c0.35981,-0.0279 0.72338,-0.04239 1.09037,-0.04239c7.67416,0 13.89527,6.22111 13.89527,13.89527z" fill="url(#color-3)"/></g><path d="M192.18559,156c0,-5.42036 4.39407,-9.81441 9.81441,-9.81441c5.42036,0 9.81441,4.39407 9.81441,9.81441c0,5.42036 -4.39407,9.81441 -9.81441,9.81441c-5.42036,0 -9.81441,-4.39407 -9.81441,-9.81441z" fill="url(#color-4)"/><path d="M211.81441,155.99989c0,5.42036 -4.39407,9.81441 -9.81441,9.81441c-0.36864,0 -0.73231,-0.02098 -1.09037,-0.06059c4.90709,-0.54246 8.72405,-4.7021 8.72405,-9.75376c0,-5.05166 -3.81695,-9.21127 -8.72405,-9.75376c0.35805,-0.03956 0.72173,-0.06059 1.09037,-0.06059c5.42036,0 9.81441,4.39395 9.81441,9.81431z" fill="url(#color-5)"/><path d="M206.5679,158.53041c0,2.30721 -1.48859,3.70268 -3.66553,4.05621v0.53962c0,0.26053 -0.35347,0.50241 -0.70702,0.50241c-0.40933,0 -0.70702,-0.24188 -0.70702,-0.50241v-0.46512c-2.23283,-0.07444 -4.05628,-1.22802 -4.05628,-2.41886c0,-0.63259 0.55814,-1.56291 1.26519,-1.56291c0.78151,0 1.41422,1.09777 2.7911,1.33967v-3.0143c-1.71184,-0.65123 -3.72137,-1.45132 -3.72137,-3.83298c0,-2.36306 1.74906,-3.49811 3.72137,-3.77718v-0.52098c0,-0.26047 0.29768,-0.50235 0.70702,-0.50235c0.35349,0 0.70702,0.24188 0.70702,0.50235v0.46519c1.15358,0.03721 3.33062,0.33491 3.33062,1.61877c0,0.50235 -0.33484,1.52576 -1.15363,1.52576c-0.61394,0 -0.96745,-0.59542 -2.17693,-0.68844v2.7166c1.69315,0.63259 3.66553,1.50711 3.66547,4.01894zM201.67436,151.8507c-0.83725,0.16751 -1.19085,0.59542 -1.19085,1.04197c0,0.53958 0.48383,0.87453 1.19085,1.17221zM203.85134,158.82821c0,-0.61407 -0.46512,-1.00476 -1.135,-1.32107v2.4933c0.63264,-0.14886 1.13506,-0.50235 1.135,-1.17221z" fill="url(#color-6)"/></g><path d="M227.58442,161.58945c0.36209,0 0.66175,0.11862 0.89899,0.35586c0.23724,0.23724 0.35586,0.5369 0.35586,0.89899c0,0.33712 -0.11862,0.62429 -0.35584,0.86153c-0.23724,0.22475 -0.5369,0.33712 -0.89899,0.33712h-7.60395c-0.38707,0 -0.69296,-0.11862 -0.91771,-0.35584c-0.22475,-0.23724 -0.33712,-0.54313 -0.33712,-0.91771c0,-0.37458 0.13734,-0.70545 0.41204,-0.99263l4.86952,-5.20664c0.5369,-0.57436 0.96766,-1.16119 1.2923,-1.76052c0.33712,-0.61182 0.50569,-1.17992 0.50569,-1.70433c0,-0.46198 -0.11237,-0.88025 -0.33712,-1.25483c-0.22475,-0.37458 -0.51817,-0.668 -0.88025,-0.88025c-0.34961,-0.22475 -0.73667,-0.33712 -1.16119,-0.33712c-0.42453,0 -0.86153,0.14359 -1.31103,0.43077c-0.44949,0.28717 -0.84904,0.668 -1.19865,1.14247c-0.1748,0.23724 -0.34961,0.38707 -0.52441,0.44949c-0.1748,0.06243 -0.33712,0.09365 -0.48695,0.09365c-0.33712,0 -0.64303,-0.11862 -0.91771,-0.35584c-0.2747,-0.24972 -0.41204,-0.54313 -0.41204,-0.88025c0,-0.24972 0.08741,-0.4932 0.26221,-0.73042c0.1748,-0.23724 0.38707,-0.48071 0.63678,-0.73042c0.56187,-0.57436 1.21739,-1.03009 1.96654,-1.36721c0.74916,-0.34961 1.4671,-0.52441 2.15383,-0.52441c1.01136,0 1.87914,0.21226 2.60333,0.63678c0.73667,0.41204 1.30478,0.98639 1.70434,1.72306c0.39955,0.72419 0.59933,1.54826 0.59933,2.47222c0,0.62429 -0.11862,1.26108 -0.35584,1.91035c-0.22475,0.64927 -0.5369,1.27981 -0.93645,1.89163c-0.39955,0.61182 -0.86153,1.19865 -1.38594,1.76052l-3.01535,3.22138l-0.24347,-0.18729zM236.38673,164.2677c-1.28606,0 -2.37234,-0.33712 -3.25884,-1.01136c-0.8865,-0.68673 -1.56074,-1.63566 -2.02273,-2.8468c-0.46198,-1.21114 -0.69296,-2.60956 -0.69296,-4.19528c0,-1.5982 0.23099,-2.99663 0.69298,-4.19528c0.46198,-1.21114 1.13623,-2.15382 2.02273,-2.82806c0.8865,-0.68673 1.97278,-1.03009 3.25884,-1.03009c1.27357,0 2.3536,0.34337 3.24011,1.0301c0.8865,0.67424 1.56074,1.61693 2.02273,2.82808c0.46198,1.19865 0.69298,2.59708 0.69298,4.19528c0,1.58572 -0.23099,2.98414 -0.69296,4.19528c-0.46198,1.21114 -1.13623,2.16007 -2.02273,2.8468c-0.8865,0.67424 -1.96653,1.01136 -3.2401,1.01136zM236.38673,161.58945c0.62429,0 1.16119,-0.19978 1.61069,-0.59933c0.46198,-0.39955 0.81783,-0.99263 1.06756,-1.77924c0.24972,-0.79911 0.37458,-1.79798 0.37458,-2.99663c0,-1.21114 -0.12486,-2.21001 -0.37458,-2.99663c-0.24972,-0.78662 -0.60557,-1.37345 -1.06754,-1.76052c-0.44949,-0.39955 -0.98639,-0.59933 -1.61069,-0.59933c-0.61182,0 -1.1487,0.19978 -1.61069,0.59933c-0.46198,0.38707 -0.82407,0.9739 -1.08628,1.76052c-0.24972,0.78662 -0.37458,1.78549 -0.37458,2.99663c0,1.19865 0.12486,2.19752 0.37458,2.99663c0.26221,0.78662 0.62429,1.3797 1.08628,1.77926c0.46198,0.39955 0.99887,0.59933 1.61069,0.59933zM250.1172,164.2677c-1.28606,0 -2.37234,-0.33712 -3.25884,-1.01136c-0.8865,-0.68673 -1.56074,-1.63566 -2.02273,-2.8468c-0.46198,-1.21114 -0.69296,-2.60956 -0.69296,-4.19528c0,-1.5982 0.23099,-2.99663 0.69298,-4.19528c0.46198,-1.21114 1.13623,-2.15382 2.02273,-2.82806c0.8865,-0.68673 1.97278,-1.03009 3.25884,-1.03009c1.27357,0 2.3536,0.34337 3.24011,1.0301c0.8865,0.67424 1.56074,1.61693 2.02273,2.82808c0.46198,1.19865 0.69298,2.59708 0.69298,4.19528c0,1.58572 -0.23099,2.98414 -0.69296,4.19528c-0.46198,1.21114 -1.13623,2.16007 -2.02273,2.8468c-0.8865,0.67424 -1.96653,1.01136 -3.2401,1.01136zM250.1172,161.58945c0.62429,0 1.16119,-0.19978 1.61069,-0.59933c0.46198,-0.39955 0.81783,-0.99263 1.06756,-1.77924c0.24972,-0.79911 0.37458,-1.79798 0.37458,-2.99663c0,-1.21114 -0.12486,-2.21001 -0.37458,-2.99663c-0.24972,-0.78662 -0.60557,-1.37345 -1.06754,-1.76052c-0.44949,-0.39955 -0.98639,-0.59933 -1.61069,-0.59933c-0.61182,0 -1.1487,0.19978 -1.61069,0.59933c-0.46198,0.38707 -0.82407,0.9739 -1.08628,1.76052c-0.24972,0.78662 -0.37458,1.78549 -0.37458,2.99663c0,1.19865 0.12486,2.19752 0.37458,2.99663c0.26221,0.78662 0.62429,1.3797 1.08628,1.77926c0.46198,0.39955 0.99887,0.59933 1.61069,0.59933zM263.84771,164.2677c-1.28606,0 -2.37234,-0.33712 -3.25884,-1.01136c-0.8865,-0.68673 -1.56074,-1.63566 -2.02273,-2.8468c-0.46198,-1.21114 -0.69296,-2.60956 -0.69296,-4.19528c0,-1.5982 0.23099,-2.99663 0.69298,-4.19528c0.46198,-1.21114 1.13623,-2.15382 2.02273,-2.82806c0.8865,-0.68673 1.97278,-1.03009 3.25884,-1.03009c1.27357,0 2.3536,0.34337 3.24011,1.0301c0.8865,0.67424 1.56074,1.61693 2.02273,2.82808c0.46198,1.19865 0.69298,2.59708 0.69298,4.19528c0,1.58572 -0.23099,2.98414 -0.69296,4.19528c-0.46198,1.21114 -1.13623,2.16007 -2.02273,2.8468c-0.8865,0.67424 -1.96653,1.01136 -3.2401,1.01136zM263.84771,161.58945c0.62429,0 1.16119,-0.19978 1.61069,-0.59933c0.46198,-0.39955 0.81783,-0.99263 1.06756,-1.77924c0.24972,-0.79911 0.37458,-1.79798 0.37458,-2.99663c0,-1.21114 -0.12486,-2.21001 -0.37458,-2.99663c-0.24972,-0.78662 -0.60557,-1.37345 -1.06754,-1.76052c-0.44949,-0.39955 -0.98639,-0.59933 -1.61069,-0.59933c-0.61182,0 -1.1487,0.19978 -1.61069,0.59933c-0.46198,0.38707 -0.82407,0.9739 -1.08628,1.76052c-0.24972,0.78662 -0.37458,1.78549 -0.37458,2.99663c0,1.19865 0.12486,2.19752 0.37458,2.99663c0.26221,0.78662 0.62429,1.3797 1.08628,1.77926c0.46198,0.39955 0.99887,0.59933 1.61069,0.59933zM277.57817,164.2677c-1.28606,0 -2.37234,-0.33712 -3.25884,-1.01136c-0.8865,-0.68673 -1.56074,-1.63566 -2.02273,-2.8468c-0.46198,-1.21114 -0.69296,-2.60956 -0.69296,-4.19528c0,-1.5982 0.23099,-2.99663 0.69298,-4.19528c0.46198,-1.21114 1.13623,-2.15382 2.02273,-2.82806c0.8865,-0.68673 1.97278,-1.03009 3.25884,-1.03009c1.27357,0 2.3536,0.34337 3.24011,1.0301c0.8865,0.67424 1.56074,1.61693 2.02273,2.82808c0.46198,1.19865 0.69298,2.59708 0.69298,4.19528c0,1.58572 -0.23099,2.98414 -0.69296,4.19528c-0.46198,1.21114 -1.13623,2.16007 -2.02273,2.8468c-0.8865,0.67424 -1.96653,1.01136 -3.2401,1.01136zM277.57817,161.58945c0.62429,0 1.16119,-0.19978 1.61069,-0.59933c0.46198,-0.39955 0.81783,-0.99263 1.06756,-1.77924c0.24972,-0.79911 0.37458,-1.79798 0.37458,-2.99663c0,-1.21114 -0.12486,-2.21001 -0.37458,-2.99663c-0.24972,-0.78662 -0.60557,-1.37345 -1.06754,-1.76052c-0.44949,-0.39955 -0.98639,-0.59933 -1.61069,-0.59933c-0.61182,0 -1.1487,0.19978 -1.61069,0.59933c-0.46198,0.38707 -0.82407,0.9739 -1.08628,1.76052c-0.24972,0.78662 -0.37458,1.78549 -0.37458,2.99663c0,1.19865 0.12486,2.19752 0.37458,2.99663c0.26221,0.78662 0.62429,1.3797 1.08628,1.77926c0.46198,0.39955 0.99887,0.59933 1.61069,0.59933z" fill="#ffffff" stroke="none" stroke-width="1" stroke-linecap="square"/><path d="M149.91943,175.68923c0.25032,0 0.47382,0.09388 0.6705,0.28162c0.19668,0.1788 0.29502,0.41571 0.29502,0.71073c0,0.0894 -0.0134,0.18774 -0.04023,0.29502c-0.02682,0.09834 -0.07151,0.19668 -0.1341,0.29502l-3.6341,5.20307l0.28162,-1.11303v4.59963c0,0.27715 -0.09387,0.50958 -0.28161,0.69732c-0.18774,0.18774 -0.4023,0.28162 -0.64368,0.28162c-0.2682,0 -0.49616,-0.09387 -0.6839,-0.28161c-0.18774,-0.18774 -0.28161,-0.42018 -0.28161,-0.69732v-4.46552l0.1341,0.50958l-3.45978,-4.58622c-0.10728,-0.14304 -0.18327,-0.27715 -0.22797,-0.4023c-0.0447,-0.1341 -0.06704,-0.25478 -0.06704,-0.36206c0,-0.28608 0.11175,-0.51853 0.33526,-0.69732c0.22351,-0.1788 0.45594,-0.2682 0.69732,-0.2682c0.29502,0 0.55427,0.14751 0.77778,0.44253l3.07089,4.23756l-0.44252,-0.05364l2.82951,-4.1571c0.22351,-0.31289 0.4917,-0.46935 0.8046,-0.46935zM159.73075,182.66241c0,0.87612 -0.19668,1.64944 -0.59004,2.31993c-0.38442,0.66156 -0.90741,1.18008 -1.56896,1.55556c-0.65262,0.37548 -1.38122,0.56322 -2.18583,0.56322c-0.81355,0 -1.55109,-0.18774 -2.21264,-0.56322c-0.65262,-0.37548 -1.17561,-0.894 -1.56896,-1.55556c-0.38442,-0.6705 -0.57663,-1.44381 -0.57663,-2.31992c0,-0.87612 0.19221,-1.64496 0.57664,-2.30652c0.39336,-0.6705 0.91635,-1.19348 1.56897,-1.56896c0.66156,-0.38442 1.39911,-0.57663 2.21265,-0.57663c0.8046,0 1.53321,0.19221 2.18584,0.57664c0.66156,0.37548 1.18455,0.89847 1.56897,1.56897c0.39336,0.66156 0.59004,1.4304 0.59004,2.30652zM157.81312,182.66241c0,-0.54534 -0.11175,-1.01469 -0.33525,-1.40805c-0.21456,-0.4023 -0.5051,-0.7152 -0.87165,-0.9387c-0.36654,-0.22351 -0.77331,-0.33525 -1.2203,-0.33525c-0.45594,0 -0.86718,0.11175 -1.23372,0.33526c-0.36654,0.22351 -0.66156,0.5364 -0.88506,0.9387c-0.21456,0.39336 -0.32184,0.86271 -0.32184,1.40806c0,0.5364 0.10728,1.00576 0.32184,1.40806c0.22351,0.39336 0.51853,0.70626 0.88506,0.9387c0.36654,0.22351 0.77778,0.33526 1.23372,0.33526c0.447,0 0.85376,-0.11175 1.22031,-0.33525c0.36654,-0.23244 0.65709,-0.54534 0.87166,-0.9387c0.22351,-0.4023 0.33526,-0.87165 0.33526,-1.40805zM167.69783,178.37122c0.27715,0 0.5051,0.09388 0.68391,0.28162c0.1788,0.18774 0.2682,0.42018 0.2682,0.69732v4.06323c0,1.13538 -0.31736,2.03385 -0.9521,2.69541c-0.6258,0.66156 -1.52874,0.99234 -2.70881,0.99234c-1.18902,0 -2.09643,-0.33079 -2.72223,-0.99234c-0.61686,-0.66156 -0.92529,-1.56003 -0.92529,-2.6954v-4.06322c0,-0.27715 0.0894,-0.50958 0.2682,-0.69732c0.1788,-0.18774 0.40677,-0.28161 0.68391,-0.28161c0.27715,0 0.5051,0.09388 0.68391,0.28162c0.18774,0.18774 0.28162,0.42018 0.28162,0.69732v4.06323c0,0.65262 0.14304,1.13985 0.42912,1.46169c0.28608,0.31289 0.71967,0.46936 1.30078,0.46936c0.59004,0 1.0281,-0.15645 1.31418,-0.46935c0.28608,-0.32184 0.42912,-0.80908 0.42912,-1.46168v-4.06322c0,-0.27715 0.0894,-0.50958 0.2682,-0.69732c0.18774,-0.18774 0.42018,-0.28161 0.69732,-0.28161zM178.69669,178.2103c0.447,0 0.85376,0.07151 1.22031,0.21456c0.37548,0.1341 0.69732,0.30843 0.96552,0.523c0.27715,0.21456 0.4917,0.43359 0.64368,0.65709c0.16092,0.21456 0.24138,0.39783 0.24138,0.54981l-0.41571,0.20115v-1.16667c0,-0.27715 0.0894,-0.50958 0.2682,-0.69732c0.18774,-0.18774 0.42018,-0.28161 0.69732,-0.28161c0.27715,0 0.5051,0.09388 0.68391,0.28162c0.1788,0.1788 0.2682,0.41124 0.2682,0.69732v7.1207c0,0.92976 -0.20114,1.67625 -0.60344,2.23947c-0.39336,0.56322 -0.91635,0.96999 -1.56896,1.22031c-0.65262,0.25032 -1.35441,0.37548 -2.10536,0.37548c-0.20561,0 -0.48276,-0.02682 -0.83142,-0.08046c-0.33972,-0.05364 -0.66603,-0.12069 -0.97892,-0.20114c-0.30396,-0.07151 -0.5364,-0.13857 -0.69732,-0.20114c-0.32184,-0.14304 -0.54534,-0.31736 -0.6705,-0.52299c-0.11622,-0.20561 -0.13857,-0.42465 -0.06704,-0.65708c0.09834,-0.31289 0.25479,-0.52746 0.46936,-0.64368c0.21456,-0.10728 0.43806,-0.12069 0.6705,-0.04023c0.10728,0.03577 0.28162,0.10281 0.523,0.20115c0.25032,0.09834 0.51853,0.18327 0.8046,0.25479c0.29502,0.08046 0.55427,0.12069 0.77778,0.12069c0.8046,0 1.39911,-0.16092 1.78353,-0.48276c0.38442,-0.31289 0.57664,-0.75096 0.57664,-1.31418v-1.39464l0.18774,0.1341c0,0.14304 -0.07151,0.31289 -0.21456,0.50958c-0.14304,0.19668 -0.33972,0.39336 -0.59004,0.59004c-0.25032,0.18774 -0.5498,0.34866 -0.89846,0.48276c-0.33972,0.1341 -0.70179,0.20115 -1.0862,0.20115c-0.75096,0 -1.4304,-0.18774 -2.03832,-0.56322c-0.60791,-0.38442 -1.09067,-0.90741 -1.44828,-1.56896c-0.34866,-0.6705 -0.52299,-1.43933 -0.52299,-2.30652c0,-0.87612 0.17434,-1.64496 0.523,-2.30652c0.3576,-0.6705 0.83142,-1.19348 1.42146,-1.56896c0.59898,-0.38442 1.26948,-0.57663 2.0115,-0.57663zM178.99171,179.98042c-0.47382,0 -0.894,0.11622 -1.26054,0.34866c-0.36654,0.23244 -0.65262,0.55427 -0.85824,0.96552c-0.19668,0.4023 -0.29502,0.85824 -0.29502,1.36782c0,0.50063 0.09834,0.95658 0.29502,1.36782c0.20561,0.4023 0.4917,0.72414 0.85824,0.96552c0.36654,0.23244 0.78672,0.34866 1.26054,0.34866c0.4917,0 0.92082,-0.11622 1.28736,-0.34866c0.36654,-0.24138 0.64815,-0.56322 0.84483,-0.96552c0.20561,-0.41124 0.30843,-0.86718 0.30843,-1.36782c0,-0.50958 -0.10281,-0.96552 -0.30842,-1.36782c-0.19668,-0.41124 -0.47829,-0.73308 -0.84482,-0.96552c-0.36654,-0.23244 -0.79565,-0.34866 -1.28736,-0.34866zM188.99433,187.10113c-0.91188,0 -1.70307,-0.18774 -2.37357,-0.56322c-0.66156,-0.38442 -1.17114,-0.90293 -1.52874,-1.55556c-0.3576,-0.65262 -0.5364,-1.38569 -0.5364,-2.19924c0,-0.96552 0.19221,-1.788 0.57664,-2.46743c0.39336,-0.67944 0.90293,-1.19796 1.52874,-1.55556c0.63474,-0.36654 1.30524,-0.5498 2.0115,-0.5498c0.54534,0 1.0594,0.11175 1.54215,0.33526c0.48276,0.22351 0.91188,0.53193 1.28736,0.92529c0.37548,0.39336 0.6705,0.84483 0.88506,1.35442c0.22351,0.50958 0.33526,1.05493 0.33526,1.63601c-0.00894,0.25032 -0.11175,0.45594 -0.30842,0.61686c-0.18774,0.16092 -0.41124,0.24138 -0.6705,0.24138h-6.11495l-0.48276,-1.59579h5.87357l-0.34866,0.32184v-0.44252c-0.01787,-0.30396 -0.12963,-0.57663 -0.33525,-0.81801c-0.19668,-0.25032 -0.44252,-0.447 -0.73754,-0.59004c-0.28608,-0.14304 -0.59451,-0.21456 -0.92529,-0.21456c-0.32184,0 -0.62133,0.0447 -0.89846,0.1341c-0.27715,0.08046 -0.51853,0.22351 -0.72414,0.42912c-0.20561,0.19668 -0.36654,0.46936 -0.48276,0.81802c-0.11622,0.33972 -0.17433,0.76884 -0.17433,1.28736c0,0.57217 0.12069,1.0594 0.36207,1.46169c0.24138,0.4023 0.54981,0.71073 0.92529,0.92529c0.38442,0.20561 0.78672,0.30843 1.2069,0.30843c0.4023,0 0.71967,-0.03129 0.95211,-0.09387c0.23244,-0.07151 0.42018,-0.15198 0.56322,-0.24138c0.14304,-0.0894 0.27268,-0.16539 0.38889,-0.22797c0.19668,-0.09834 0.37995,-0.14751 0.54981,-0.14751c0.23244,0 0.42465,0.08046 0.57664,0.24138c0.16092,0.16092 0.24138,0.34866 0.24138,0.56322c0,0.28608 -0.14751,0.54534 -0.44252,0.77778c-0.28608,0.24138 -0.67944,0.45147 -1.18008,0.63028c-0.50063,0.16986 -1.01469,0.25479 -1.54215,0.25479zM194.41892,178.53214h3.79503c0.25032,0 0.46041,0.08493 0.63028,0.25479c0.1788,0.16986 0.2682,0.38442 0.2682,0.64368c0,0.24138 -0.0894,0.447 -0.2682,0.61686c-0.16986,0.16092 -0.37995,0.24138 -0.63027,0.24138h-3.79503c-0.25925,0 -0.47382,-0.08493 -0.64368,-0.25478c-0.16986,-0.16986 -0.25478,-0.37995 -0.25478,-0.63027c0,-0.25032 0.08493,-0.45594 0.25479,-0.61686c0.16986,-0.16986 0.38442,-0.25478 0.64368,-0.25478zM196.1354,176.53406c0.27715,0 0.50063,0.09388 0.6705,0.28162c0.1788,0.18774 0.2682,0.42018 0.2682,0.69732v7.1207c0,0.15198 0.02682,0.27715 0.08046,0.37548c0.06258,0.0894 0.14304,0.15645 0.24138,0.20115c0.10728,0.0447 0.21903,0.06705 0.33526,0.06705c0.12516,0 0.24138,-0.02234 0.34866,-0.06704c0.10728,-0.05364 0.23244,-0.08046 0.37548,-0.08046c0.14304,0 0.27715,0.07151 0.4023,0.21456c0.12516,0.1341 0.18774,0.32631 0.18774,0.57664c0,0.29502 -0.16539,0.54087 -0.49616,0.73755c-0.32184,0.18774 -0.6705,0.28162 -1.04598,0.28162c-0.22351,0 -0.47382,-0.01787 -0.75096,-0.05364c-0.2682,-0.03577 -0.52299,-0.12516 -0.76437,-0.2682c-0.23244,-0.15198 -0.42912,-0.37548 -0.59004,-0.6705c-0.16092,-0.29502 -0.24138,-0.70626 -0.24138,-1.23372v-7.20116c0,-0.27715 0.0894,-0.50958 0.2682,-0.69732c0.18774,-0.18774 0.42465,-0.28161 0.71073,-0.28161zM211.51218,185.18349c0.25925,0 0.47382,0.08493 0.64368,0.25479c0.16986,0.16986 0.25479,0.38442 0.25479,0.64368c0,0.24138 -0.08493,0.447 -0.25478,0.61686c-0.16986,0.16092 -0.38442,0.24138 -0.64368,0.24138h-5.44445c-0.27715,0 -0.49616,-0.08493 -0.65708,-0.25478c-0.16092,-0.16986 -0.24138,-0.38889 -0.24138,-0.65708c0,-0.2682 0.09834,-0.5051 0.29502,-0.71073l3.48659,-3.72797c0.38442,-0.41124 0.69285,-0.83142 0.92529,-1.26054c0.24138,-0.43806 0.36207,-0.84482 0.36207,-1.2203c0,-0.33079 -0.08046,-0.63027 -0.24138,-0.89846c-0.16092,-0.2682 -0.37101,-0.47829 -0.63027,-0.63027c-0.25032,-0.16092 -0.52746,-0.24138 -0.83142,-0.24138c-0.30396,0 -0.61686,0.10281 -0.9387,0.30843c-0.32184,0.20561 -0.60791,0.47829 -0.85824,0.81802c-0.12516,0.16986 -0.25032,0.27715 -0.37548,0.32184c-0.12516,0.0447 -0.24138,0.06705 -0.34866,0.06705c-0.24138,0 -0.46041,-0.08493 -0.65708,-0.25478c-0.19668,-0.1788 -0.29502,-0.38889 -0.29502,-0.63027c0,-0.1788 0.06258,-0.35313 0.18774,-0.52299c0.12516,-0.16986 0.27715,-0.34419 0.45594,-0.52299c0.4023,-0.41124 0.87166,-0.73754 1.40806,-0.97892c0.5364,-0.25032 1.05045,-0.37548 1.54215,-0.37548c0.72414,0 1.34547,0.15198 1.86399,0.45594c0.52746,0.29502 0.93423,0.70626 1.22031,1.23372c0.28608,0.51853 0.42912,1.10857 0.42912,1.77012c0,0.447 -0.08493,0.90293 -0.25478,1.36782c-0.16092,0.46488 -0.38442,0.91635 -0.6705,1.35442c-0.28608,0.43806 -0.61686,0.85824 -0.99234,1.26054l-2.159,2.30652l-0.17433,-0.1341zM217.81465,187.10113c-0.92082,0 -1.6986,-0.24138 -2.33334,-0.72414c-0.63474,-0.4917 -1.1175,-1.17114 -1.44828,-2.03832c-0.33079,-0.86718 -0.49616,-1.86845 -0.49616,-3.00383c0,-1.14431 0.16539,-2.1456 0.49617,-3.00383c0.33079,-0.86718 0.81355,-1.54215 1.44828,-2.0249c0.63474,-0.4917 1.41252,-0.73754 2.33334,-0.73754c0.91188,0 1.68518,0.24585 2.31993,0.73755c0.63474,0.48276 1.1175,1.15773 1.44828,2.02491c0.33079,0.85824 0.49617,1.85952 0.49617,3.00383c0,1.13538 -0.16539,2.13666 -0.49616,3.00383c-0.33079,0.86718 -0.81355,1.54662 -1.44828,2.03832c-0.63474,0.48276 -1.40805,0.72414 -2.31992,0.72414zM217.81465,185.18349c0.447,0 0.83142,-0.14304 1.15326,-0.42912c0.33079,-0.28608 0.58557,-0.71073 0.76438,-1.27394c0.1788,-0.57217 0.2682,-1.28736 0.2682,-2.1456c0,-0.86718 -0.0894,-1.58238 -0.2682,-2.1456c-0.1788,-0.56322 -0.43359,-0.98339 -0.76437,-1.26054c-0.32184,-0.28608 -0.70626,-0.42912 -1.15326,-0.42912c-0.43806,0 -0.82248,0.14304 -1.15326,0.42912c-0.33079,0.27715 -0.59004,0.69732 -0.77778,1.26054c-0.1788,0.56322 -0.2682,1.27841 -0.2682,2.1456c0,0.85824 0.0894,1.57343 0.2682,2.1456c0.18774,0.56322 0.447,0.98787 0.77778,1.27395c0.33079,0.28608 0.7152,0.42912 1.15326,0.42912zM231.98147,178.2103c0.60791,0 1.13538,0.06705 1.58238,0.20115c0.45594,0.12516 0.80908,0.30396 1.0594,0.5364c0.25032,0.22351 0.37548,0.49617 0.37548,0.81802c0,0.21456 -0.06258,0.41571 -0.18774,0.60345c-0.12516,0.18774 -0.31289,0.28162 -0.56322,0.28162c-0.16986,0 -0.31289,-0.02234 -0.42912,-0.06704c-0.10728,-0.05364 -0.20561,-0.11622 -0.29502,-0.18774c-0.08046,-0.08046 -0.1788,-0.15198 -0.29502,-0.21456c-0.10728,-0.06258 -0.27268,-0.11175 -0.49616,-0.14751c-0.21456,-0.03577 -0.37548,-0.05364 -0.48276,-0.05364c-0.54534,0 -1.01022,0.11622 -1.39464,0.34866c-0.37548,0.23244 -0.66603,0.54981 -0.87165,0.95211c-0.19668,0.4023 -0.29502,0.86271 -0.29502,1.38123c0,0.51853 0.10281,0.97893 0.30843,1.38123c0.21456,0.39336 0.5051,0.71073 0.87166,0.95211c0.36654,0.23244 0.79119,0.34866 1.27395,0.34866c0.2682,0 0.49617,-0.01787 0.68391,-0.05364c0.19668,-0.03577 0.3576,-0.08493 0.48276,-0.14751c0.15198,-0.08046 0.28608,-0.16986 0.4023,-0.2682c0.11622,-0.09834 0.29055,-0.14751 0.523,-0.14751c0.27715,0 0.4917,0.0894 0.64368,0.2682c0.15198,0.1788 0.22798,0.39336 0.22798,0.64368c0,0.2682 -0.15198,0.51405 -0.45594,0.73755c-0.29502,0.21456 -0.68838,0.38889 -1.18008,0.523c-0.48276,0.1341 -1.00575,0.20115 -1.56896,0.20115c-0.84036,0 -1.57343,-0.19221 -2.19924,-0.57663c-0.61686,-0.39336 -1.09514,-0.92529 -1.43486,-1.59579c-0.33079,-0.67944 -0.49616,-1.43486 -0.49616,-2.26628c0,-0.87612 0.1788,-1.64496 0.5364,-2.30652c0.3576,-0.6705 0.85376,-1.19348 1.48851,-1.56896c0.63474,-0.38442 1.36335,-0.57663 2.18584,-0.57663zM244.71976,182.66241c0,0.87612 -0.19668,1.64944 -0.59004,2.31993c-0.38442,0.66156 -0.90741,1.18008 -1.56896,1.55556c-0.65262,0.37548 -1.38122,0.56322 -2.18583,0.56322c-0.81355,0 -1.55109,-0.18774 -2.21264,-0.56322c-0.65262,-0.37548 -1.17561,-0.894 -1.56896,-1.55556c-0.38442,-0.6705 -0.57663,-1.44381 -0.57663,-2.31992c0,-0.87612 0.19221,-1.64496 0.57664,-2.30652c0.39336,-0.6705 0.91635,-1.19348 1.56897,-1.56896c0.66156,-0.38442 1.39911,-0.57663 2.21265,-0.57663c0.8046,0 1.53321,0.19221 2.18584,0.57664c0.66156,0.37548 1.18455,0.89847 1.56897,1.56897c0.39336,0.66156 0.59004,1.4304 0.59004,2.30652zM242.80212,182.66241c0,-0.54534 -0.11175,-1.01469 -0.33525,-1.40805c-0.21456,-0.4023 -0.5051,-0.7152 -0.87165,-0.9387c-0.36654,-0.22351 -0.77331,-0.33525 -1.2203,-0.33525c-0.45594,0 -0.86718,0.11175 -1.23372,0.33526c-0.36654,0.22351 -0.66156,0.5364 -0.88506,0.9387c-0.21456,0.39336 -0.32184,0.86271 -0.32184,1.40806c0,0.5364 0.10728,1.00576 0.32184,1.40806c0.22351,0.39336 0.51853,0.70626 0.88506,0.9387c0.36654,0.22351 0.77778,0.33526 1.23372,0.33526c0.447,0 0.85376,-0.11175 1.22031,-0.33525c0.36654,-0.23244 0.65709,-0.54534 0.87166,-0.9387c0.22351,-0.4023 0.33526,-0.87165 0.33526,-1.40805zM248.14084,185.96128c0,0.27715 -0.09387,0.50958 -0.28161,0.69732c-0.1788,0.18774 -0.40677,0.28162 -0.6839,0.28162c-0.27715,0 -0.50958,-0.09387 -0.69732,-0.28161c-0.1788,-0.18774 -0.2682,-0.42018 -0.2682,-0.69732v-6.61112c0,-0.27715 0.0894,-0.50958 0.2682,-0.69732c0.18774,-0.18774 0.42018,-0.28161 0.69732,-0.28161c0.27715,0 0.5051,0.09388 0.68391,0.28162c0.18774,0.18774 0.28162,0.42018 0.28162,0.69732zM247.08146,177.33866c-0.36654,0 -0.6258,-0.05811 -0.77778,-0.17433c-0.14304,-0.12516 -0.21456,-0.33525 -0.21456,-0.63027v-0.30842c0,-0.30396 0.08046,-0.50958 0.24138,-0.61686c0.16986,-0.11622 0.42465,-0.17433 0.76438,-0.17433c0.37548,0 0.63474,0.05811 0.77778,0.17434c0.15198,0.11622 0.22798,0.32184 0.22798,0.61686v0.30843c0,0.31289 -0.08046,0.52746 -0.24138,0.64368c-0.16092,0.10728 -0.42018,0.16092 -0.77778,0.16092zM254.68205,178.2103c0.78672,0 1.38569,0.16539 1.79694,0.49617c0.41124,0.33079 0.69285,0.77331 0.84483,1.32759c0.16092,0.54534 0.24138,1.15773 0.24138,1.83718v4.09005c0,0.27715 -0.09387,0.50958 -0.28161,0.69732c-0.1788,0.18774 -0.40677,0.28162 -0.6839,0.28162c-0.27715,0 -0.5051,-0.09387 -0.6839,-0.28161c-0.1788,-0.18774 -0.2682,-0.42018 -0.2682,-0.69732v-4.09004c0,-0.3576 -0.04917,-0.67497 -0.14751,-0.9521c-0.0894,-0.28608 -0.25032,-0.51405 -0.48276,-0.6839c-0.23244,-0.16986 -0.56769,-0.25478 -1.00575,-0.25478c-0.42912,0 -0.79118,0.08493 -1.0862,0.25479c-0.28608,0.16986 -0.50958,0.39783 -0.6705,0.68391c-0.15198,0.27715 -0.22797,0.59451 -0.22797,0.95211v4.09005c0,0.27715 -0.09387,0.50958 -0.28161,0.69732c-0.1788,0.18774 -0.40677,0.28162 -0.6839,0.28162c-0.27715,0 -0.5051,-0.09387 -0.6839,-0.28161c-0.1788,-0.18774 -0.2682,-0.42018 -0.2682,-0.69732v-6.61112c0,-0.27715 0.0894,-0.50958 0.2682,-0.69732c0.1788,-0.18774 0.40677,-0.28161 0.68391,-0.28161c0.27715,0 0.5051,0.09388 0.68391,0.28162c0.18774,0.18774 0.28162,0.42018 0.28162,0.69732v0.68391l-0.24138,-0.04023c0.09834,-0.1788 0.23691,-0.37101 0.41571,-0.57663c0.1788,-0.21456 0.38889,-0.41124 0.63028,-0.59004c0.25032,-0.18774 0.52746,-0.33525 0.83142,-0.44252c0.31289,-0.11622 0.65262,-0.17433 1.01916,-0.17433zM259.15593,185.61262c-0.10728,-0.15198 -0.15645,-0.34419 -0.14751,-0.57663c0.00894,-0.23244 0.14751,-0.43359 0.41571,-0.60344c0.16986,-0.10728 0.34866,-0.15198 0.5364,-0.1341c0.19668,0.00894 0.38442,0.10281 0.56322,0.28162c0.31289,0.31289 0.63921,0.55427 0.97893,0.72414c0.33972,0.16986 0.76884,0.25479 1.28736,0.25479c0.16092,-0.00894 0.33526,-0.03129 0.523,-0.06704c0.19668,-0.03577 0.36654,-0.12069 0.50958,-0.25478c0.14304,-0.1341 0.21456,-0.33972 0.21456,-0.61686c0,-0.23244 -0.08046,-0.41571 -0.24138,-0.5498c-0.16092,-0.14304 -0.37548,-0.26372 -0.64368,-0.36206c-0.25925,-0.09834 -0.54534,-0.18774 -0.85824,-0.2682c-0.33079,-0.09834 -0.6705,-0.20561 -1.01916,-0.32184c-0.34866,-0.12516 -0.66603,-0.27715 -0.9521,-0.45594c-0.28608,-0.18774 -0.52299,-0.43806 -0.71073,-0.75096c-0.1788,-0.31289 -0.2682,-0.70179 -0.2682,-1.16667c0,-0.5364 0.14751,-0.98787 0.44253,-1.35441c0.30396,-0.37548 0.69285,-0.66603 1.16667,-0.87165c0.47382,-0.20561 0.97446,-0.30842 1.50192,-0.30842c0.33079,0 0.67497,0.04024 1.03257,0.12069c0.36654,0.08046 0.7152,0.21009 1.04598,0.38889c0.33079,0.1788 0.60791,0.41124 0.83142,0.69732c0.11622,0.16092 0.18327,0.35313 0.20115,0.57664c0.02682,0.22351 -0.07151,0.42465 -0.29502,0.60345c-0.16092,0.1341 -0.34866,0.19221 -0.56322,0.17434c-0.21456,-0.01787 -0.38889,-0.0894 -0.52299,-0.21456c-0.18774,-0.24138 -0.43359,-0.42912 -0.73754,-0.56322c-0.30396,-0.14304 -0.65262,-0.21456 -1.04598,-0.21456c-0.16092,0 -0.33525,0.02234 -0.52299,0.06705c-0.18774,0.03577 -0.35313,0.11622 -0.49616,0.24138c-0.1341,0.11622 -0.20114,0.30843 -0.20114,0.57664c0,0.24138 0.08046,0.43806 0.24138,0.59004c0.16092,0.14304 0.37548,0.25925 0.64368,0.34866c0.27715,0.0894 0.57217,0.1788 0.88506,0.2682c0.31289,0.08046 0.63474,0.1788 0.96552,0.29502c0.33079,0.11622 0.63474,0.27268 0.91188,0.46936c0.28608,0.18774 0.51405,0.43359 0.68391,0.73755c0.16986,0.30396 0.25479,0.69285 0.25479,1.16667c0,0.54534 -0.16092,1.01022 -0.48276,1.39464c-0.32184,0.38442 -0.72414,0.67497 -1.2069,0.87166c-0.47382,0.19668 -0.96105,0.29502 -1.46168,0.29502c-0.63474,0 -1.26948,-0.10728 -1.90422,-0.32184c-0.6258,-0.22351 -1.14431,-0.61239 -1.55556,-1.16667zM276.27817,178.2103c0.75096,0 1.42146,0.19221 2.0115,0.57664c0.59004,0.37548 1.0594,0.894 1.40806,1.55556c0.34866,0.66156 0.523,1.4304 0.523,2.30652c0,0.87612 -0.17433,1.64944 -0.52299,2.31993c-0.34866,0.66156 -0.81355,1.18455 -1.39464,1.56897c-0.5811,0.37548 -1.23372,0.56322 -1.95786,0.56322c-0.42912,0 -0.83142,-0.06704 -1.2069,-0.20114c-0.36654,-0.14304 -0.69285,-0.32184 -0.97892,-0.5364c-0.27715,-0.21456 -0.49616,-0.42912 -0.65708,-0.64368c-0.15198,-0.22351 -0.22797,-0.41124 -0.22797,-0.56322l0.49617,-0.20114v4.21074c0,0.27715 -0.09387,0.50958 -0.28161,0.69732c-0.1788,0.18774 -0.40677,0.28162 -0.6839,0.28162c-0.27715,0 -0.5051,-0.09387 -0.6839,-0.28161c-0.1788,-0.1788 -0.2682,-0.41124 -0.2682,-0.69732v-9.81611c0,-0.27715 0.0894,-0.50958 0.2682,-0.69732c0.1788,-0.18774 0.40677,-0.28161 0.68391,-0.28161c0.27715,0 0.5051,0.09388 0.68391,0.28162c0.18774,0.18774 0.28162,0.42018 0.28162,0.69732v0.79119l-0.2682,-0.14751c0,-0.14304 0.07151,-0.31289 0.21456,-0.50958c0.15198,-0.19668 0.35313,-0.39336 0.60345,-0.59004c0.25925,-0.19668 0.55874,-0.3576 0.89847,-0.48276c0.33972,-0.1341 0.69285,-0.20114 1.0594,-0.20114zM276.03679,179.98042c-0.46488,0 -0.87612,0.11622 -1.23372,0.34866c-0.34866,0.23244 -0.62133,0.54981 -0.81801,0.95211c-0.19668,0.4023 -0.29502,0.85824 -0.29502,1.36782c0,0.50063 0.09834,0.95658 0.29502,1.36782c0.19668,0.41124 0.46936,0.73755 0.81802,0.97893c0.3576,0.23244 0.76884,0.34866 1.23372,0.34866c0.47382,0 0.88506,-0.11622 1.23372,-0.34866c0.34866,-0.24138 0.62133,-0.56769 0.81802,-0.97892c0.19668,-0.41124 0.29502,-0.86718 0.29502,-1.36782c0,-0.50958 -0.09834,-0.96552 -0.29502,-1.36782c-0.19668,-0.4023 -0.46935,-0.71967 -0.81801,-0.9521c-0.34866,-0.23244 -0.75991,-0.34866 -1.23372,-0.34866zM285.78401,187.10113c-0.91188,0 -1.70307,-0.18774 -2.37357,-0.56322c-0.66156,-0.38442 -1.17114,-0.90293 -1.52874,-1.55556c-0.3576,-0.65262 -0.5364,-1.38569 -0.5364,-2.19924c0,-0.96552 0.19221,-1.788 0.57664,-2.46743c0.39336,-0.67944 0.90293,-1.19796 1.52874,-1.55556c0.63474,-0.36654 1.30524,-0.5498 2.0115,-0.5498c0.54534,0 1.0594,0.11175 1.54215,0.33526c0.48276,0.22351 0.91188,0.53193 1.28736,0.92529c0.37548,0.39336 0.6705,0.84483 0.88506,1.35442c0.22351,0.50958 0.33526,1.05493 0.33526,1.63601c-0.00894,0.25032 -0.11175,0.45594 -0.30842,0.61686c-0.18774,0.16092 -0.41124,0.24138 -0.6705,0.24138h-6.11495l-0.48276,-1.59579h5.87357l-0.34866,0.32184v-0.44252c-0.01787,-0.30396 -0.12963,-0.57663 -0.33525,-0.81801c-0.19668,-0.25032 -0.44252,-0.447 -0.73754,-0.59004c-0.28608,-0.14304 -0.59451,-0.21456 -0.92529,-0.21456c-0.32184,0 -0.62133,0.0447 -0.89846,0.1341c-0.27715,0.08046 -0.51853,0.22351 -0.72414,0.42912c-0.20561,0.19668 -0.36654,0.46936 -0.48276,0.81802c-0.11622,0.33972 -0.17433,0.76884 -0.17433,1.28736c0,0.57217 0.12069,1.0594 0.36207,1.46169c0.24138,0.4023 0.54981,0.71073 0.92529,0.92529c0.38442,0.20561 0.78672,0.30843 1.2069,0.30843c0.4023,0 0.71967,-0.03129 0.95211,-0.09387c0.23244,-0.07151 0.42018,-0.15198 0.56322,-0.24138c0.14304,-0.0894 0.27268,-0.16539 0.38889,-0.22797c0.19668,-0.09834 0.37995,-0.14751 0.54981,-0.14751c0.23244,0 0.42465,0.08046 0.57664,0.24138c0.16092,0.16092 0.24138,0.34866 0.24138,0.56322c0,0.28608 -0.14751,0.54534 -0.44252,0.77778c-0.28608,0.24138 -0.67944,0.45147 -1.18008,0.63028c-0.50063,0.16986 -1.01469,0.25479 -1.54215,0.25479zM292.06685,186.94021c-0.27715,0 -0.5051,-0.09387 -0.6839,-0.28161c-0.1788,-0.18774 -0.2682,-0.42018 -0.2682,-0.69732v-6.61112c0,-0.27715 0.0894,-0.50958 0.2682,-0.69732c0.1788,-0.18774 0.40677,-0.28161 0.68391,-0.28161c0.27715,0 0.5051,0.09388 0.68391,0.28162c0.18774,0.18774 0.28162,0.42018 0.28162,0.69732v1.50192l-0.10728,-1.0728c0.11622,-0.25032 0.26372,-0.47382 0.44253,-0.6705c0.18774,-0.20561 0.39783,-0.37101 0.63028,-0.49616c0.24138,-0.1341 0.49617,-0.23244 0.76438,-0.29502c0.2682,-0.07151 0.5364,-0.10728 0.8046,-0.10728c0.31289,0 0.57664,0.09388 0.79119,0.28162c0.22351,0.1788 0.33526,0.38889 0.33526,0.63028c0,0.3576 -0.0894,0.61239 -0.2682,0.76438c-0.1788,0.15198 -0.37548,0.22798 -0.59004,0.22798c-0.20561,0 -0.39336,-0.03577 -0.56322,-0.10728c-0.16092,-0.07151 -0.34866,-0.10728 -0.56322,-0.10728c-0.18774,0 -0.37995,0.0447 -0.57663,0.1341c-0.19668,0.0894 -0.37995,0.23244 -0.5498,0.42912c-0.16092,0.18774 -0.29502,0.42465 -0.4023,0.71073c-0.09834,0.27715 -0.14751,0.60791 -0.14751,0.99234v3.79503c0,0.27715 -0.09387,0.50958 -0.28161,0.69732c-0.1788,0.18774 -0.40677,0.28162 -0.6839,0.28162zM306.27497,178.2103c0.60791,0 1.13538,0.06705 1.58238,0.20115c0.45594,0.12516 0.80908,0.30396 1.0594,0.5364c0.25032,0.22351 0.37548,0.49617 0.37548,0.81802c0,0.21456 -0.06258,0.41571 -0.18774,0.60345c-0.12516,0.18774 -0.31289,0.28162 -0.56322,0.28162c-0.16986,0 -0.31289,-0.02234 -0.42912,-0.06704c-0.10728,-0.05364 -0.20561,-0.11622 -0.29502,-0.18774c-0.08046,-0.08046 -0.1788,-0.15198 -0.29502,-0.21456c-0.10728,-0.06258 -0.27268,-0.11175 -0.49616,-0.14751c-0.21456,-0.03577 -0.37548,-0.05364 -0.48276,-0.05364c-0.54534,0 -1.01022,0.11622 -1.39464,0.34866c-0.37548,0.23244 -0.66603,0.54981 -0.87165,0.95211c-0.19668,0.4023 -0.29502,0.86271 -0.29502,1.38123c0,0.51853 0.10281,0.97893 0.30843,1.38123c0.21456,0.39336 0.5051,0.71073 0.87166,0.95211c0.36654,0.23244 0.79119,0.34866 1.27395,0.34866c0.2682,0 0.49617,-0.01787 0.68391,-0.05364c0.19668,-0.03577 0.3576,-0.08493 0.48276,-0.14751c0.15198,-0.08046 0.28608,-0.16986 0.4023,-0.2682c0.11622,-0.09834 0.29055,-0.14751 0.523,-0.14751c0.27715,0 0.4917,0.0894 0.64368,0.2682c0.15198,0.1788 0.22798,0.39336 0.22798,0.64368c0,0.2682 -0.15198,0.51405 -0.45594,0.73755c-0.29502,0.21456 -0.68838,0.38889 -1.18008,0.523c-0.48276,0.1341 -1.00575,0.20115 -1.56896,0.20115c-0.84036,0 -1.57343,-0.19221 -2.19924,-0.57663c-0.61686,-0.39336 -1.09514,-0.92529 -1.43486,-1.59579c-0.33079,-0.67944 -0.49616,-1.43486 -0.49616,-2.26628c0,-0.87612 0.1788,-1.64496 0.5364,-2.30652c0.3576,-0.6705 0.85376,-1.19348 1.48851,-1.56896c0.63474,-0.38442 1.36335,-0.57663 2.18584,-0.57663zM312.87148,185.96128c0,0.27715 -0.09387,0.50958 -0.28161,0.69732c-0.18774,0.18774 -0.42018,0.28162 -0.69732,0.28162c-0.2682,0 -0.4917,-0.09387 -0.6705,-0.28161c-0.1788,-0.18774 -0.2682,-0.42018 -0.2682,-0.69732v-9.89657c0,-0.27715 0.0894,-0.50958 0.2682,-0.69732c0.18774,-0.18774 0.42018,-0.28161 0.69732,-0.28161c0.27715,0 0.5051,0.09388 0.68391,0.28162c0.1788,0.18774 0.2682,0.42018 0.2682,0.69732zM316.92637,185.96128c0,0.27715 -0.09387,0.50958 -0.28161,0.69732c-0.1788,0.18774 -0.40677,0.28162 -0.6839,0.28162c-0.27715,0 -0.50958,-0.09387 -0.69732,-0.28161c-0.1788,-0.18774 -0.2682,-0.42018 -0.2682,-0.69732v-6.61112c0,-0.27715 0.0894,-0.50958 0.2682,-0.69732c0.18774,-0.18774 0.42018,-0.28161 0.69732,-0.28161c0.27715,0 0.5051,0.09388 0.68391,0.28162c0.18774,0.18774 0.28162,0.42018 0.28162,0.69732zM315.86699,177.33866c-0.36654,0 -0.6258,-0.05811 -0.77778,-0.17433c-0.14304,-0.12516 -0.21456,-0.33525 -0.21456,-0.63027v-0.30842c0,-0.30396 0.08046,-0.50958 0.24138,-0.61686c0.16986,-0.11622 0.42465,-0.17433 0.76438,-0.17433c0.37548,0 0.63474,0.05811 0.77778,0.17434c0.15198,0.11622 0.22798,0.32184 0.22798,0.61686v0.30843c0,0.31289 -0.08046,0.52746 -0.24138,0.64368c-0.16092,0.10728 -0.42018,0.16092 -0.77778,0.16092zM322.62274,178.2103c0.60791,0 1.13538,0.06705 1.58238,0.20115c0.45594,0.12516 0.80908,0.30396 1.0594,0.5364c0.25032,0.22351 0.37548,0.49617 0.37548,0.81802c0,0.21456 -0.06258,0.41571 -0.18774,0.60345c-0.12516,0.18774 -0.31289,0.28162 -0.56322,0.28162c-0.16986,0 -0.31289,-0.02234 -0.42912,-0.06704c-0.10728,-0.05364 -0.20561,-0.11622 -0.29502,-0.18774c-0.08046,-0.08046 -0.1788,-0.15198 -0.29502,-0.21456c-0.10728,-0.06258 -0.27268,-0.11175 -0.49616,-0.14751c-0.21456,-0.03577 -0.37548,-0.05364 -0.48276,-0.05364c-0.54534,0 -1.01022,0.11622 -1.39464,0.34866c-0.37548,0.23244 -0.66603,0.54981 -0.87165,0.95211c-0.19668,0.4023 -0.29502,0.86271 -0.29502,1.38123c0,0.51853 0.10281,0.97893 0.30843,1.38123c0.21456,0.39336 0.5051,0.71073 0.87166,0.95211c0.36654,0.23244 0.79119,0.34866 1.27395,0.34866c0.2682,0 0.49617,-0.01787 0.68391,-0.05364c0.19668,-0.03577 0.3576,-0.08493 0.48276,-0.14751c0.15198,-0.08046 0.28608,-0.16986 0.4023,-0.2682c0.11622,-0.09834 0.29055,-0.14751 0.523,-0.14751c0.27715,0 0.4917,0.0894 0.64368,0.2682c0.15198,0.1788 0.22798,0.39336 0.22798,0.64368c0,0.2682 -0.15198,0.51405 -0.45594,0.73755c-0.29502,0.21456 -0.68838,0.38889 -1.18008,0.523c-0.48276,0.1341 -1.00575,0.20115 -1.56896,0.20115c-0.84036,0 -1.57343,-0.19221 -2.19924,-0.57663c-0.61686,-0.39336 -1.09514,-0.92529 -1.43486,-1.59579c-0.33079,-0.67944 -0.49616,-1.43486 -0.49616,-2.26628c0,-0.87612 0.1788,-1.64496 0.5364,-2.30652c0.3576,-0.6705 0.85376,-1.19348 1.48851,-1.56896c0.63474,-0.38442 1.36335,-0.57663 2.18584,-0.57663zM328.25372,186.94021c-0.27715,0 -0.5051,-0.09387 -0.6839,-0.28161c-0.1788,-0.18774 -0.2682,-0.42018 -0.2682,-0.69732v-9.89657c0,-0.27715 0.0894,-0.50958 0.2682,-0.69732c0.1788,-0.18774 0.40677,-0.28161 0.68391,-0.28161c0.27715,0 0.5051,0.09388 0.68391,0.28162c0.18774,0.18774 0.28162,0.42018 0.28162,0.69732v9.89657c0,0.27715 -0.09387,0.50958 -0.28161,0.69732c-0.1788,0.18774 -0.40677,0.28162 -0.6839,0.28162zM333.34952,178.37122c0.24138,0 0.45147,0.10281 0.63028,0.30843c0.18774,0.20561 0.28162,0.4023 0.28162,0.59004c0,0.25925 -0.12963,0.50063 -0.38889,0.72414l-4.81418,4.43871l-0.08046,-2.21264l3.66093,-3.54023c0.20561,-0.20561 0.44253,-0.30842 0.71073,-0.30842zM333.5909,186.9268c-0.27715,0 -0.51405,-0.10728 -0.71073,-0.32184l-2.96361,-3.13794l1.46169,-1.34099l2.88315,3.13794c0.20561,0.21456 0.30843,0.45147 0.30843,0.71073c0,0.27715 -0.11175,0.5051 -0.33525,0.68391c-0.21456,0.1788 -0.42912,0.2682 -0.64368,0.2682z" fill="#ffffff" stroke="none" stroke-width="1" stroke-linecap="square"/><path d="M180.7581,214.62436c-0.26042,0 -0.47396,-0.08334 -0.64062,-0.25c-0.16667,-0.16666 -0.25,-0.38021 -0.25,-0.64062v-14.8125c0,-0.27084 0.08333,-0.48959 0.25,-0.65625c0.16666,-0.16666 0.38021,-0.25 0.64063,-0.25h3.9375c0.26041,0 0.47396,0.08334 0.64063,0.25c0.16666,0.16666 0.25,0.38541 0.25,0.65625c0,0.23959 -0.08334,0.44791 -0.25,0.625c-0.16667,0.16666 -0.38021,0.25 -0.64062,0.25h-2.78125l0.09375,-0.15625v13.4375l-0.21875,-0.23437h2.90625c0.26041,0 0.47396,0.08334 0.64063,0.25c0.16666,0.17709 0.25,0.39584 0.25,0.65625c0,0.25 -0.08334,0.45834 -0.25,0.625c-0.16667,0.16666 -0.38021,0.25 -0.64062,0.25zM196.50743,198.65561c0.32291,0.15625 0.51041,0.41146 0.5625,0.76563c0.05209,0.34375 -0.03646,0.66146 -0.26562,0.95313c-0.16666,0.21875 -0.38021,0.34375 -0.64062,0.375c-0.25,0.02084 -0.50521,-0.03125 -0.76562,-0.15625c-0.29166,-0.13541 -0.60416,-0.23959 -0.9375,-0.3125c-0.33334,-0.07291 -0.67709,-0.10937 -1.03125,-0.10937c-0.67709,0 -1.28125,0.10416 -1.8125,0.3125c-0.52084,0.20834 -0.96875,0.51041 -1.34375,0.90625c-0.375,0.38541 -0.66146,0.84896 -0.85937,1.39063c-0.1875,0.53125 -0.28125,1.11979 -0.28125,1.76563c0,0.76041 0.10938,1.42188 0.32813,1.98438c0.21875,0.55209 0.52084,1.01563 0.90625,1.39063c0.38541,0.375 0.83854,0.65625 1.35938,0.84375c0.52084,0.17709 1.08854,0.26563 1.70313,0.26563c0.33334,0 0.66666,-0.03125 1,-0.09375c0.33334,-0.0625 0.65625,-0.17709 0.96875,-0.34375c0.26041,-0.125 0.51563,-0.16666 0.76563,-0.125c0.26041,0.03125 0.47916,0.16146 0.65625,0.39063c0.25,0.3125 0.33854,0.63541 0.26563,0.96875c-0.0625,0.32291 -0.25,0.55729 -0.5625,0.70313c-0.32291,0.16666 -0.65625,0.30209 -1,0.40625c-0.34375,0.10416 -0.69271,0.18229 -1.04687,0.23438c-0.34375,0.0625 -0.69271,0.09375 -1.04687,0.09375c-0.89584,0 -1.74479,-0.14062 -2.54687,-0.42187c-0.80209,-0.29166 -1.52084,-0.71354 -2.15625,-1.26562c-0.625,-0.5625 -1.11979,-1.26562 -1.48437,-2.10937c-0.35416,-0.84375 -0.53125,-1.81771 -0.53125,-2.92187c0,-0.95834 0.16146,-1.83854 0.48438,-2.64062c0.33334,-0.8125 0.80209,-1.51041 1.40625,-2.09375c0.60416,-0.59375 1.3125,-1.05729 2.125,-1.39062c0.82291,-0.33334 1.72396,-0.5 2.70313,-0.5c0.54166,0 1.07291,0.0625 1.59375,0.1875c0.52084,0.125 1.01563,0.30729 1.48438,0.54688zM201.29866,209.93686c0,0.32291 -0.10937,0.59375 -0.32812,0.8125c-0.21875,0.21875 -0.48958,0.32813 -0.8125,0.32813c-0.3125,0 -0.57291,-0.10937 -0.78125,-0.32812c-0.20833,-0.21875 -0.3125,-0.48959 -0.3125,-0.8125v-11.53125c0,-0.32291 0.10417,-0.59375 0.3125,-0.8125c0.21875,-0.21875 0.48959,-0.32812 0.8125,-0.32812c0.32292,0 0.58854,0.10938 0.79688,0.32813c0.20834,0.21875 0.3125,0.48959 0.3125,0.8125zM206.02333,209.93686c0,0.32291 -0.10937,0.59375 -0.32812,0.8125c-0.20833,0.21875 -0.47396,0.32813 -0.79687,0.32813c-0.32291,0 -0.59375,-0.10937 -0.8125,-0.32812c-0.20833,-0.21875 -0.3125,-0.48959 -0.3125,-0.8125v-7.70312c0,-0.32291 0.10417,-0.59375 0.3125,-0.8125c0.21875,-0.21875 0.48959,-0.32812 0.8125,-0.32812c0.32292,0 0.58854,0.10938 0.79688,0.32813c0.21875,0.21875 0.32813,0.48959 0.32813,0.8125zM204.78895,199.88999c-0.42708,0 -0.72916,-0.06771 -0.90625,-0.20312c-0.16666,-0.14584 -0.25,-0.39062 -0.25,-0.73437v-0.35937c0,-0.35416 0.09375,-0.59375 0.28125,-0.71875c0.19792,-0.13541 0.49479,-0.20312 0.89063,-0.20312c0.4375,0 0.73959,0.06771 0.90625,0.20313c0.17709,0.13541 0.26563,0.375 0.26563,0.71875v0.35938c0,0.36459 -0.09375,0.61459 -0.28125,0.75c-0.1875,0.125 -0.48958,0.1875 -0.90625,0.1875zM212.66059,200.90561c0.70834,0 1.32291,0.07813 1.84375,0.23438c0.53125,0.14584 0.94271,0.35416 1.23438,0.625c0.29166,0.26041 0.4375,0.57813 0.4375,0.95313c0,0.25 -0.07291,0.48438 -0.21875,0.70313c-0.14584,0.21875 -0.36459,0.32813 -0.65625,0.32813c-0.19791,0 -0.36459,-0.02604 -0.5,-0.07812c-0.125,-0.0625 -0.23959,-0.13541 -0.34375,-0.21875c-0.09375,-0.09375 -0.20834,-0.17709 -0.34375,-0.25c-0.125,-0.07291 -0.31771,-0.13021 -0.57812,-0.17187c-0.25,-0.04166 -0.4375,-0.0625 -0.5625,-0.0625c-0.63541,0 -1.17709,0.13541 -1.625,0.40625c-0.4375,0.27084 -0.77604,0.64063 -1.01562,1.10938c-0.22916,0.46875 -0.34375,1.00521 -0.34375,1.60938c0,0.60416 0.11979,1.14063 0.35938,1.60938c0.25,0.45834 0.58854,0.82813 1.01563,1.10938c0.42709,0.27084 0.92188,0.40625 1.48438,0.40625c0.3125,0 0.57813,-0.02084 0.79688,-0.0625c0.22916,-0.04166 0.41666,-0.09896 0.5625,-0.17187c0.17709,-0.09375 0.33334,-0.19791 0.46875,-0.3125c0.13541,-0.11459 0.33854,-0.17187 0.60938,-0.17187c0.32291,0 0.57291,0.10416 0.75,0.3125c0.17709,0.20834 0.26563,0.45834 0.26563,0.75c0,0.3125 -0.17709,0.59896 -0.53125,0.85938c-0.34375,0.25 -0.80209,0.45313 -1.375,0.60938c-0.5625,0.15625 -1.17187,0.23438 -1.82812,0.23438c-0.97916,0 -1.83334,-0.22396 -2.5625,-0.67187c-0.71875,-0.45834 -1.27604,-1.07812 -1.67187,-1.85937c-0.38541,-0.79166 -0.57812,-1.67187 -0.57812,-2.64062c0,-1.02084 0.20834,-1.91666 0.625,-2.6875c0.41666,-0.78125 0.99479,-1.39062 1.73438,-1.82812c0.73959,-0.44791 1.58854,-0.67187 2.54688,-0.67187zM219.2217,211.07749c-0.32292,0 -0.58854,-0.10937 -0.79687,-0.32812c-0.20834,-0.21875 -0.3125,-0.48959 -0.3125,-0.8125v-11.53125c0,-0.32291 0.10416,-0.59375 0.3125,-0.8125c0.20833,-0.21875 0.47396,-0.32812 0.79688,-0.32812c0.32291,0 0.58854,0.10938 0.79688,0.32813c0.21875,0.21875 0.32813,0.48959 0.32813,0.8125v11.53125c0,0.32291 -0.10937,0.59375 -0.32812,0.8125c-0.20834,0.21875 -0.47396,0.32813 -0.79687,0.32813zM225.1592,201.09311c0.28125,0 0.52604,0.11979 0.73438,0.35938c0.21875,0.23959 0.32813,0.46875 0.32813,0.6875c0,0.30209 -0.15104,0.58334 -0.45312,0.84375l-5.60937,5.17188l-0.09375,-2.57812l4.26563,-4.125c0.23959,-0.23959 0.51563,-0.35937 0.82813,-0.35937zM225.44045,211.06186c-0.32291,0 -0.59896,-0.125 -0.82812,-0.375l-3.45312,-3.65625l1.70313,-1.5625l3.35938,3.65625c0.23959,0.25 0.35938,0.52604 0.35938,0.82813c0,0.32291 -0.13021,0.58854 -0.39062,0.79688c-0.25,0.20834 -0.5,0.3125 -0.75,0.3125zM233.87333,201.28061h4.42188c0.29166,0 0.53646,0.09896 0.73438,0.29688c0.20834,0.19791 0.3125,0.44791 0.3125,0.75c0,0.28125 -0.10416,0.52084 -0.3125,0.71875c-0.19791,0.1875 -0.44271,0.28125 -0.73437,0.28125h-4.42187c-0.30209,0 -0.55209,-0.09896 -0.75,-0.29687c-0.19791,-0.19791 -0.29687,-0.44271 -0.29687,-0.73437c0,-0.29166 0.09896,-0.53125 0.29688,-0.71875c0.19791,-0.19791 0.44791,-0.29687 0.75,-0.29687zM235.87333,198.95249c0.32291,0 0.58334,0.10938 0.78125,0.32813c0.20834,0.21875 0.3125,0.48959 0.3125,0.8125v8.29688c0,0.17709 0.03125,0.32291 0.09375,0.4375c0.07291,0.10416 0.16666,0.18229 0.28125,0.23438c0.125,0.05209 0.25521,0.07813 0.39063,0.07813c0.14584,0 0.28125,-0.02604 0.40625,-0.07812c0.125,-0.0625 0.27084,-0.09375 0.4375,-0.09375c0.16666,0 0.32291,0.08334 0.46875,0.25c0.14584,0.15625 0.21875,0.38021 0.21875,0.67188c0,0.34375 -0.19271,0.63021 -0.57812,0.85938c-0.375,0.21875 -0.78125,0.32813 -1.21875,0.32813c-0.26041,0 -0.55209,-0.02084 -0.875,-0.0625c-0.3125,-0.04166 -0.60937,-0.14584 -0.89062,-0.3125c-0.27084,-0.17709 -0.5,-0.4375 -0.6875,-0.78125c-0.1875,-0.34375 -0.28125,-0.82291 -0.28125,-1.4375v-8.39062c0,-0.32291 0.10416,-0.59375 0.3125,-0.8125c0.21875,-0.21875 0.49479,-0.32812 0.82813,-0.32812zM250.87916,206.09311c0,1.02084 -0.22916,1.92188 -0.6875,2.70313c-0.44791,0.77084 -1.05729,1.375 -1.82812,1.8125c-0.76041,0.4375 -1.60937,0.65625 -2.54687,0.65625c-0.94791,0 -1.80729,-0.21875 -2.57812,-0.65625c-0.76041,-0.4375 -1.36979,-1.04166 -1.82812,-1.8125c-0.44791,-0.78125 -0.67187,-1.68229 -0.67187,-2.70312c0,-1.02084 0.22396,-1.91666 0.67188,-2.6875c0.45834,-0.78125 1.06771,-1.39062 1.82813,-1.82812c0.77084,-0.44791 1.63021,-0.67187 2.57813,-0.67187c0.9375,0 1.78646,0.22396 2.54688,0.67188c0.77084,0.4375 1.38021,1.04688 1.82813,1.82813c0.45834,0.77084 0.6875,1.66666 0.6875,2.6875zM248.64479,206.09311c0,-0.63541 -0.13021,-1.18229 -0.39062,-1.64062c-0.25,-0.46875 -0.58854,-0.83334 -1.01562,-1.09375c-0.42709,-0.26041 -0.90104,-0.39062 -1.42187,-0.39062c-0.53125,0 -1.01041,0.13021 -1.4375,0.39063c-0.42709,0.26041 -0.77084,0.625 -1.03125,1.09375c-0.25,0.45834 -0.375,1.00521 -0.375,1.64063c0,0.625 0.125,1.17188 0.375,1.64063c0.26041,0.45834 0.60416,0.82291 1.03125,1.09375c0.42709,0.26041 0.90625,0.39063 1.4375,0.39063c0.52084,0 0.99479,-0.13021 1.42188,-0.39062c0.42709,-0.27084 0.76563,-0.63541 1.01563,-1.09375c0.26041,-0.46875 0.39063,-1.01562 0.39063,-1.64062zM263.13597,200.90561c0.875,0 1.65625,0.22396 2.34375,0.67188c0.6875,0.4375 1.23438,1.04166 1.64063,1.8125c0.40625,0.77084 0.60938,1.66666 0.60938,2.6875c0,1.02084 -0.20312,1.92188 -0.60937,2.70313c-0.40625,0.77084 -0.94791,1.38021 -1.625,1.82813c-0.67708,0.4375 -1.4375,0.65625 -2.28125,0.65625c-0.5,0 -0.96875,-0.07812 -1.40625,-0.23437c-0.42708,-0.16666 -0.80729,-0.375 -1.14062,-0.625c-0.32291,-0.25 -0.57812,-0.5 -0.76562,-0.75c-0.17708,-0.26041 -0.26562,-0.47916 -0.26562,-0.65625l0.57813,-0.23437v1.35938c0,0.32291 -0.10937,0.59375 -0.32812,0.8125c-0.20833,0.21875 -0.47396,0.32813 -0.79687,0.32813c-0.32291,0 -0.58854,-0.10416 -0.79687,-0.3125c-0.20833,-0.21875 -0.3125,-0.49479 -0.3125,-0.82812v-11.71875c0,-0.32291 0.10417,-0.59375 0.3125,-0.8125c0.20834,-0.21875 0.47396,-0.32812 0.79688,-0.32812c0.32292,0 0.58854,0.10938 0.79688,0.32813c0.21875,0.21875 0.32813,0.48959 0.32813,0.8125v4.75l-0.3125,-0.17187c0,-0.16666 0.08334,-0.36459 0.25,-0.59375c0.17709,-0.22916 0.41146,-0.45834 0.70313,-0.6875c0.30209,-0.22916 0.65104,-0.41666 1.04688,-0.5625c0.39584,-0.15625 0.80729,-0.23437 1.23438,-0.23437zM262.85472,202.96811c-0.54166,0 -1.02083,0.13541 -1.4375,0.40625c-0.40625,0.27084 -0.72396,0.64063 -0.95312,1.10938c-0.22916,0.46875 -0.34375,1 -0.34375,1.59375c0,0.58334 0.11459,1.11459 0.34375,1.59375c0.22917,0.47916 0.54688,0.85938 0.95313,1.14063c0.41667,0.27084 0.89584,0.40625 1.4375,0.40625c0.55209,0 1.03125,-0.13541 1.4375,-0.40625c0.40625,-0.28125 0.72396,-0.66146 0.95313,-1.14062c0.22917,-0.47916 0.34375,-1.01041 0.34375,-1.59375c0,-0.59375 -0.11458,-1.125 -0.34375,-1.59375c-0.22916,-0.46875 -0.54687,-0.83854 -0.95312,-1.10937c-0.40625,-0.27084 -0.88541,-0.40625 -1.4375,-0.40625zM277.00883,201.09311c0.32291,0 0.58854,0.10938 0.79688,0.32813c0.20834,0.21875 0.3125,0.48959 0.3125,0.8125v4.73438c0,1.32291 -0.36979,2.36979 -1.10937,3.14063c-0.72916,0.77084 -1.78125,1.15625 -3.15625,1.15625c-1.38541,0 -2.44271,-0.38541 -3.17187,-1.15625c-0.71875,-0.77084 -1.07812,-1.81771 -1.07812,-3.14062v-4.73437c0,-0.32291 0.10416,-0.59375 0.3125,-0.8125c0.20834,-0.21875 0.47396,-0.32812 0.79688,-0.32812c0.32291,0 0.58854,0.10938 0.79688,0.32813c0.21875,0.21875 0.32813,0.48959 0.32813,0.8125v4.73438c0,0.76041 0.16666,1.32813 0.5,1.70313c0.33334,0.36459 0.83854,0.54688 1.51563,0.54688c0.6875,0 1.19791,-0.18229 1.53125,-0.54687c0.33334,-0.375 0.5,-0.94271 0.5,-1.70312v-4.73437c0,-0.32291 0.10416,-0.59375 0.3125,-0.8125c0.21875,-0.21875 0.48959,-0.32812 0.8125,-0.32812zM287.96003,201.09311c0.32292,0 0.58854,0.10938 0.79688,0.32813c0.20834,0.21875 0.3125,0.48959 0.3125,0.8125v7.92188c0,1.14584 -0.21354,2.05729 -0.64062,2.73438c-0.42708,0.67709 -1.00521,1.16666 -1.73437,1.46875c-0.71875,0.30209 -1.52604,0.45313 -2.42187,0.45313c-0.39583,0 -0.81771,-0.03125 -1.26562,-0.09375c-0.44791,-0.0625 -0.8125,-0.15625 -1.09375,-0.28125c-0.375,-0.16666 -0.63541,-0.36979 -0.78125,-0.60937c-0.14583,-0.23959 -0.17187,-0.49479 -0.07812,-0.76562c0.11459,-0.36459 0.29167,-0.61459 0.53125,-0.75c0.25,-0.125 0.51563,-0.14062 0.79688,-0.04687c0.19792,0.0625 0.45834,0.15625 0.78125,0.28125c0.32292,0.13541 0.69271,0.20313 1.10938,0.20313c0.57292,0 1.04688,-0.07812 1.42188,-0.23437c0.38542,-0.14584 0.67188,-0.40625 0.85938,-0.78125c0.19792,-0.36459 0.29688,-0.86459 0.29688,-1.5v-1.25l0.39063,0.45313c-0.20833,0.40625 -0.47396,0.74479 -0.79687,1.01563c-0.3125,0.27084 -0.6875,0.47396 -1.125,0.60938c-0.4375,0.13541 -0.93229,0.20313 -1.48437,0.20313c-0.66666,0 -1.24479,-0.15104 -1.73437,-0.45312c-0.48958,-0.3125 -0.86979,-0.73437 -1.14062,-1.26562c-0.27083,-0.54166 -0.40625,-1.16146 -0.40625,-1.85937v-5.45312c0,-0.32291 0.10417,-0.59375 0.3125,-0.8125c0.20834,-0.21875 0.47396,-0.32812 0.79688,-0.32812c0.32292,0 0.58854,0.10938 0.79688,0.32813c0.21875,0.21875 0.32813,0.48959 0.32813,0.8125v4.78125c0,0.80209 0.17709,1.36979 0.53125,1.70313c0.35417,0.33334 0.84896,0.5 1.48438,0.5c0.4375,0 0.80209,-0.08334 1.09375,-0.25c0.30209,-0.17709 0.53125,-0.42709 0.6875,-0.75c0.16667,-0.33334 0.25,-0.73437 0.25,-1.20312v-4.78125c0,-0.32291 0.10417,-0.59375 0.3125,-0.8125c0.21875,-0.21875 0.48959,-0.32812 0.8125,-0.32812zM295.48939,198.01499c0.26042,0 0.47396,0.08334 0.64063,0.25c0.16667,0.16666 0.25,0.38541 0.25,0.65625v14.8125c0,0.26041 -0.08333,0.47396 -0.25,0.64063c-0.16666,0.16666 -0.38021,0.25 -0.64062,0.25h-3.9375c-0.26041,0 -0.47396,-0.08334 -0.64062,-0.25c-0.16666,-0.16666 -0.25,-0.38021 -0.25,-0.64062c0,-0.25 0.08334,-0.46354 0.25,-0.64062c0.16667,-0.16666 0.38021,-0.25 0.64063,-0.25h2.78125l-0.09375,0.15625v-13.4375l0.21875,0.23438h-2.90625c-0.26041,0 -0.47396,-0.08334 -0.64062,-0.25c-0.16666,-0.17709 -0.25,-0.39584 -0.25,-0.65625c0,-0.25 0.08334,-0.45834 0.25,-0.625c0.16667,-0.16666 0.38021,-0.25 0.64063,-0.25z" fill="#ffffff" stroke="none" stroke-width="1" stroke-linecap="square"/></g></g></svg>