<svg version="1.1" xmlns="http://www.w3.org/2000/svg" xmlns:xlink="http://www.w3.org/1999/xlink" width="37.91253" height="31.27051" viewBox="0,0,37.91253,31.27051"><defs><linearGradient x1="152.90121" y1="479.98221" x2="152.90121" y2="510.09408" gradientUnits="userSpaceOnUse" id="color-1"><stop offset="0" stop-color="#0098ff"/><stop offset="1" stop-color="#811150"/></linearGradient></defs><g transform="translate(-221.04374,-164.36475)"><g data-paper-data="{&quot;isPaintingLayer&quot;:true}" fill="url(#color-1)" fill-rule="nonzero" stroke="#ffffff" stroke-width="1.15823" stroke-linecap="butt" stroke-linejoin="miter" stroke-miterlimit="10" stroke-dasharray="" stroke-dashoffset="0" style="mix-blend-mode: normal"><path d="M238.95908,189.43648c1.2858,1.28454 1.2858,3.36933 0,4.65487c-1.2852,1.2864 -3.3694,1.2864 -4.6558,0c-5.07547,-5.07554 -11.71633,-11.71666 -11.71633,-11.71666c-1.28546,-1.2852 -1.28546,-3.36967 0,-4.65547c0,0 7.69533,-7.6962 11.81087,-11.81113c1.28546,-1.2858 3.3694,-1.28546 4.6558,0c1.28573,1.28546 1.28573,3.36966 0,4.65546c-5.07554,5.0752 -6.17573,6.1886 -6.17573,6.1886c0,0 16.3876,0.0068 22.20713,0.0068c1.81826,0 3.29213,1.4736 3.29213,3.29187c0,1.81794 -1.47387,3.29213 -3.29213,3.29213c-6.94134,0 -22.225,-0.00646 -22.225,-0.00646c0,0 1.98347,1.9832 6.09907,6.1z" data-paper-data="{&quot;index&quot;:null}"/></g></g></svg>