<svg version="1.1" xmlns="http://www.w3.org/2000/svg" xmlns:xlink="http://www.w3.org/1999/xlink" width="204.74878" height="90.33082" viewBox="0,0,204.74878,90.33082"><defs><linearGradient x1="-633.59479" y1="-387.79377" x2="-633.59479" y2="534.87111" gradientUnits="userSpaceOnUse" id="color-1"><stop offset="0" stop-color="#2a2a2a"/><stop offset="1" stop-color="#2a2a2a" stop-opacity="0"/></linearGradient><linearGradient x1="194.45083" y1="155" x2="222.57595" y2="155" gradientUnits="userSpaceOnUse" id="color-2"><stop offset="0" stop-color="#fff9df"/><stop offset="0.593" stop-color="#ffe177"/><stop offset="1" stop-color="#feb137"/></linearGradient><linearGradient x1="197.72031" y1="155" x2="220.34698" y2="155" gradientUnits="userSpaceOnUse" id="color-3"><stop offset="0" stop-color="#ffe177"/><stop offset="1" stop-color="#feb137"/></linearGradient><linearGradient x1="202.51553" y1="155" x2="214.89983" y2="155" gradientUnits="userSpaceOnUse" id="color-4"><stop offset="0" stop-color="#ffe177"/><stop offset="1" stop-color="#feb137"/></linearGradient><linearGradient x1="205.56706" y1="155" x2="220.83435" y2="155" gradientUnits="userSpaceOnUse" id="color-5"><stop offset="0" stop-color="#feb137"/><stop offset="1" stop-color="#eca026"/></linearGradient><linearGradient x1="202.13939" y1="155" x2="215.0555" y2="155" gradientUnits="userSpaceOnUse" id="color-6"><stop offset="0" stop-color="#fff9df"/><stop offset="0.593" stop-color="#ffe177"/><stop offset="1" stop-color="#feb137"/></linearGradient></defs><g transform="translate(-137.62561,-134.83459)"><g data-paper-data="{&quot;isPaintingLayer&quot;:true}" fill-rule="nonzero" stroke-linejoin="miter" stroke-miterlimit="10" stroke-dasharray="" stroke-dashoffset="0" style="mix-blend-mode: normal"><path d="M137.62561,225.16541v-90.33082h204.74878v90.33082z" data-paper-data="{&quot;index&quot;:null}" fill="url(#color-1)" stroke="#009dec" stroke-width="0" stroke-linecap="butt"/><path d="M232.63997,165.9798c-0.52282,0 -0.95851,-0.16634 -1.30704,-0.49905c-0.3327,-0.3327 -0.49905,-0.74462 -0.49905,-1.23576v-14.30625l0.404,0.64165l-2.16256,1.30706c-0.28517,0.15844 -0.5862,0.23765 -0.90305,0.23765c-0.49114,0 -0.90305,-0.18219 -1.23576,-0.54658c-0.31686,-0.36438 -0.47529,-0.76046 -0.47529,-1.18823c0,-0.63373 0.2931,-1.12485 0.8793,-1.4734l4.27762,-2.5428c0.3327,-0.17427 0.74462,-0.2614 1.23576,-0.2614c0.49114,0 0.8872,0.16636 1.18823,0.49906c0.31686,0.3327 0.47529,0.74462 0.47529,1.23576v16.39752c0,0.49114 -0.17427,0.90305 -0.52282,1.23576c-0.34855,0.3327 -0.80007,0.49906 -1.35457,0.49906zM245.36861,166.26497c-1.63184,0 -3.01018,-0.42776 -4.13503,-1.28328c-1.12485,-0.87137 -1.98037,-2.07543 -2.56657,-3.61221c-0.5862,-1.53678 -0.87928,-3.31119 -0.87928,-5.32325c0,-2.0279 0.2931,-3.80232 0.8793,-5.32325c0.5862,-1.53678 1.44172,-2.73291 2.56657,-3.58844c1.12485,-0.87137 2.50319,-1.30704 4.13503,-1.30704c1.61599,0 2.98641,0.43569 4.11127,1.30706c1.12485,0.85552 1.98037,2.05167 2.56657,3.58845c0.5862,1.52093 0.8793,3.29535 0.8793,5.32325c0,2.01207 -0.2931,3.78648 -0.87928,5.32325c-0.5862,1.53678 -1.44172,2.74084 -2.56657,3.61221c-1.12485,0.85552 -2.49527,1.28328 -4.11126,1.28328zM245.36861,162.86665c0.79215,0 1.4734,-0.25349 2.04375,-0.76046c0.5862,-0.50697 1.03772,-1.25951 1.35459,-2.25762c0.31686,-1.01396 0.47529,-2.28139 0.47529,-3.80232c0,-1.53678 -0.15844,-2.80421 -0.47529,-3.80232c-0.31686,-0.99811 -0.76839,-1.74273 -1.35457,-2.23387c-0.57035,-0.50697 -1.2516,-0.76046 -2.04375,-0.76046c-0.77631,0 -1.45755,0.25349 -2.04375,0.76046c-0.5862,0.49114 -1.04564,1.23576 -1.37834,2.23387c-0.31686,0.99811 -0.47529,2.26555 -0.47529,3.80232c0,1.52093 0.15844,2.78837 0.47529,3.80232c0.3327,0.99811 0.79215,1.75065 1.37834,2.25764c0.5862,0.50697 1.26744,0.76046 2.04375,0.76046zM262.79079,166.26497c-1.63184,0 -3.01018,-0.42776 -4.13503,-1.28328c-1.12485,-0.87137 -1.98037,-2.07543 -2.56657,-3.61221c-0.5862,-1.53678 -0.87928,-3.31119 -0.87928,-5.32325c0,-2.0279 0.2931,-3.80232 0.8793,-5.32325c0.5862,-1.53678 1.44172,-2.73291 2.56657,-3.58844c1.12485,-0.87137 2.50319,-1.30704 4.13503,-1.30704c1.61599,0 2.98641,0.43569 4.11127,1.30706c1.12485,0.85552 1.98037,2.05167 2.56657,3.58845c0.5862,1.52093 0.8793,3.29535 0.8793,5.32325c0,2.01207 -0.2931,3.78648 -0.87928,5.32325c-0.5862,1.53678 -1.44172,2.74084 -2.56657,3.61221c-1.12485,0.85552 -2.49527,1.28328 -4.11126,1.28328zM262.79079,162.86665c0.79215,0 1.4734,-0.25349 2.04375,-0.76046c0.5862,-0.50697 1.03772,-1.25951 1.35459,-2.25762c0.31686,-1.01396 0.47529,-2.28139 0.47529,-3.80232c0,-1.53678 -0.15844,-2.80421 -0.47529,-3.80232c-0.31686,-0.99811 -0.76839,-1.74273 -1.35457,-2.23387c-0.57035,-0.50697 -1.2516,-0.76046 -2.04375,-0.76046c-0.77631,0 -1.45755,0.25349 -2.04375,0.76046c-0.5862,0.49114 -1.04564,1.23576 -1.37834,2.23387c-0.31686,0.99811 -0.47529,2.26555 -0.47529,3.80232c0,1.52093 0.15844,2.78837 0.47529,3.80232c0.3327,0.99811 0.79215,1.75065 1.37834,2.25764c0.5862,0.50697 1.26744,0.76046 2.04375,0.76046z" fill="#ffffff" stroke="none" stroke-width="1" stroke-linecap="square"/><g stroke="none" stroke-width="1" stroke-linecap="butt"><g><path d="M195.10473,155c0,-7.67415 6.22112,-13.89527 13.89527,-13.89527c7.67415,0 13.89527,6.22112 13.89527,13.89527c0,7.67415 -6.22112,13.89527 -13.89527,13.89527c-7.67415,0 -13.89527,-6.22112 -13.89527,-13.89527z" fill="url(#color-2)"/><path d="M222.89527,155c0,7.67416 -6.22111,13.89527 -13.89527,13.89527c-0.367,0 -0.73057,-0.01449 -1.09037,-0.04239c7.16446,-0.55615 12.8049,-6.54569 12.8049,-13.85288c0,-7.30717 -5.64044,-13.29674 -12.8049,-13.85288c0.35981,-0.0279 0.72338,-0.04239 1.09037,-0.04239c7.67416,0 13.89527,6.22111 13.89527,13.89527z" fill="url(#color-3)"/></g><path d="M199.18559,155c0,-5.42036 4.39407,-9.81441 9.81441,-9.81441c5.42036,0 9.81441,4.39407 9.81441,9.81441c0,5.42036 -4.39407,9.81441 -9.81441,9.81441c-5.42036,0 -9.81441,-4.39407 -9.81441,-9.81441z" fill="url(#color-4)"/><path d="M218.81441,154.99989c0,5.42036 -4.39407,9.81441 -9.81441,9.81441c-0.36864,0 -0.73231,-0.02098 -1.09037,-0.06059c4.90709,-0.54246 8.72405,-4.7021 8.72405,-9.75376c0,-5.05166 -3.81695,-9.21127 -8.72405,-9.75376c0.35805,-0.03956 0.72173,-0.06059 1.09037,-0.06059c5.42036,0 9.81441,4.39395 9.81441,9.81431z" fill="url(#color-5)"/><path d="M213.5679,157.53041c0,2.30721 -1.48859,3.70268 -3.66553,4.05621v0.53962c0,0.26053 -0.35347,0.50241 -0.70702,0.50241c-0.40933,0 -0.70702,-0.24188 -0.70702,-0.50241v-0.46512c-2.23283,-0.07444 -4.05628,-1.22802 -4.05628,-2.41886c0,-0.63259 0.55814,-1.56291 1.26519,-1.56291c0.78151,0 1.41422,1.09777 2.7911,1.33967v-3.0143c-1.71184,-0.65123 -3.72137,-1.45132 -3.72137,-3.83298c0,-2.36306 1.74906,-3.49811 3.72137,-3.77718v-0.52098c0,-0.26047 0.29768,-0.50235 0.70702,-0.50235c0.35349,0 0.70702,0.24188 0.70702,0.50235v0.46519c1.15358,0.03721 3.33062,0.33491 3.33062,1.61877c0,0.50235 -0.33484,1.52576 -1.15363,1.52576c-0.61394,0 -0.96745,-0.59542 -2.17693,-0.68844v2.7166c1.69315,0.63259 3.66553,1.50711 3.66547,4.01894zM208.67436,150.8507c-0.83725,0.16751 -1.19085,0.59542 -1.19085,1.04197c0,0.53958 0.48383,0.87453 1.19085,1.17221zM210.85134,157.82821c0,-0.61407 -0.46512,-1.00476 -1.135,-1.32107v2.4933c0.63264,-0.14886 1.13506,-0.50235 1.135,-1.17221z" fill="url(#color-6)"/></g><path d="M152.04765,179.82785c0.25947,0 0.49112,0.0973 0.69499,0.2919c0.20387,0.18533 0.3058,0.4309 0.3058,0.7367c0,0.09267 -0.0139,0.1946 -0.0417,0.3058c-0.0278,0.10193 -0.07413,0.20387 -0.139,0.3058l-3.76685,5.39313l0.2919,-1.15368v4.76764c0,0.28727 -0.09729,0.52819 -0.29189,0.72279c-0.1946,0.1946 -0.41699,0.2919 -0.66719,0.2919c-0.278,0 -0.51429,-0.09729 -0.70889,-0.29189c-0.1946,-0.1946 -0.29189,-0.43552 -0.29189,-0.72279v-4.62864l0.139,0.52819l-3.58615,-4.75374c-0.1112,-0.14827 -0.18996,-0.28727 -0.23629,-0.41699c-0.04633,-0.139 -0.06949,-0.26409 -0.06949,-0.37529c0,-0.29653 0.11583,-0.53746 0.3475,-0.72279c0.23167,-0.18533 0.47259,-0.278 0.72279,-0.278c0.3058,0 0.57452,0.1529 0.80619,0.4587l3.18306,4.39234l-0.45869,-0.0556l2.93287,-4.30894c0.23167,-0.32433 0.50966,-0.48649 0.83399,-0.48649zM162.21735,187.05575c0,0.90812 -0.20387,1.70968 -0.61159,2.40467c-0.39846,0.68572 -0.94055,1.22318 -1.62627,1.61238c-0.67646,0.3892 -1.43168,0.58379 -2.26567,0.58379c-0.84326,0 -1.60774,-0.1946 -2.29347,-0.58379c-0.67646,-0.3892 -1.21855,-0.92666 -1.62627,-1.61238c-0.39846,-0.69499 -0.59769,-1.49655 -0.59769,-2.40466c0,-0.90812 0.19923,-1.70505 0.5977,-2.39077c0.40773,-0.69499 0.94982,-1.23708 1.62628,-1.62627c0.68572,-0.39846 1.45022,-0.59769 2.29348,-0.59769c0.83399,0 1.58921,0.19923 2.26568,0.5977c0.68572,0.3892 1.22782,0.93129 1.62628,1.62628c0.40773,0.68572 0.61159,1.48265 0.61159,2.39077zM160.22967,187.05575c0,-0.56526 -0.11583,-1.05175 -0.34749,-1.45948c-0.2224,-0.41699 -0.52356,-0.74132 -0.90348,-0.97299c-0.37993,-0.23167 -0.80155,-0.34749 -1.26488,-0.34749c-0.47259,0 -0.89886,0.11583 -1.27878,0.3475c-0.37993,0.23167 -0.68572,0.55599 -0.91739,0.97299c-0.2224,0.40773 -0.3336,0.89422 -0.3336,1.45949c0,0.55599 0.1112,1.04249 0.3336,1.45949c0.23167,0.40773 0.53746,0.73206 0.91739,0.97299c0.37993,0.23167 0.80619,0.3475 1.27878,0.3475c0.46332,0 0.88495,-0.11583 1.26489,-0.34749c0.37993,-0.24093 0.6811,-0.56526 0.90349,-0.97299c0.23167,-0.41699 0.3475,-0.90348 0.3475,-1.45948zM170.47545,182.60781c0.28727,0 0.52356,0.0973 0.7089,0.2919c0.18533,0.1946 0.278,0.43552 0.278,0.72279v4.21165c0,1.17685 -0.32896,2.10814 -0.98688,2.79387c-0.64866,0.68572 -1.58458,1.02859 -2.80776,1.02859c-1.23245,0 -2.17301,-0.34287 -2.82166,-1.02859c-0.63939,-0.68572 -0.95908,-1.61701 -0.95908,-2.79386v-4.21164c0,-0.28727 0.09267,-0.52819 0.278,-0.72279c0.18533,-0.1946 0.42163,-0.29189 0.7089,-0.29189c0.28727,0 0.52356,0.0973 0.7089,0.2919c0.1946,0.1946 0.2919,0.43552 0.2919,0.72279v4.21165c0,0.67646 0.14827,1.18149 0.44479,1.51509c0.29653,0.32433 0.74596,0.4865 1.34829,0.4865c0.61159,0 1.06566,-0.16216 1.36218,-0.48649c0.29653,-0.3336 0.44479,-0.83862 0.44479,-1.51508v-4.21164c0,-0.28727 0.09267,-0.52819 0.278,-0.72279c0.1946,-0.1946 0.43552,-0.29189 0.72279,-0.29189zM181.87607,182.44101c0.46332,0 0.88495,0.07413 1.26489,0.2224c0.3892,0.139 0.72279,0.3197 1.00079,0.5421c0.28727,0.2224 0.50966,0.44943 0.66719,0.6811c0.1668,0.2224 0.2502,0.41236 0.2502,0.5699l-0.43089,0.2085v-1.20928c0,-0.28727 0.09267,-0.52819 0.278,-0.72279c0.1946,-0.1946 0.43552,-0.29189 0.72279,-0.29189c0.28727,0 0.52356,0.0973 0.7089,0.2919c0.18533,0.18533 0.278,0.42626 0.278,0.72279v7.38081c0,0.96372 -0.20849,1.73748 -0.62549,2.32127c-0.40773,0.58379 -0.94982,1.00542 -1.62627,1.26489c-0.67646,0.25947 -1.40388,0.3892 -2.18227,0.3892c-0.21313,0 -0.50039,-0.0278 -0.86179,-0.0834c-0.35213,-0.0556 -0.69036,-0.12509 -1.01468,-0.20849c-0.31507,-0.07413 -0.55599,-0.14363 -0.72279,-0.20849c-0.3336,-0.14827 -0.56526,-0.32896 -0.69499,-0.54209c-0.12047,-0.21313 -0.14363,-0.44016 -0.06949,-0.68109c0.10193,-0.32433 0.2641,-0.54672 0.4865,-0.66719c0.2224,-0.1112 0.45406,-0.12509 0.69499,-0.0417c0.1112,0.03707 0.2919,0.10656 0.5421,0.2085c0.25947,0.10193 0.53746,0.18996 0.83399,0.2641c0.3058,0.0834 0.57452,0.1251 0.80619,0.1251c0.83399,0 1.45022,-0.1668 1.84868,-0.50039c0.39846,-0.32433 0.5977,-0.77839 0.5977,-1.36218v-1.44558l0.1946,0.139c0,0.14827 -0.07413,0.32433 -0.2224,0.52819c-0.14827,0.20387 -0.35213,0.40773 -0.61159,0.61159c-0.25947,0.1946 -0.56989,0.3614 -0.93128,0.50039c-0.35213,0.139 -0.72743,0.2085 -1.12588,0.2085c-0.77839,0 -1.48265,-0.1946 -2.11277,-0.58379c-0.63012,-0.39846 -1.13052,-0.94055 -1.50118,-1.62627c-0.3614,-0.69499 -0.54209,-1.49191 -0.54209,-2.39077c0,-0.90812 0.1807,-1.70505 0.5421,-2.39077c0.37066,-0.69499 0.86179,-1.23708 1.47338,-1.62627c0.62086,-0.39846 1.31585,-0.59769 2.08497,-0.59769zM182.18187,184.27579c-0.49112,0 -0.92666,0.12047 -1.30658,0.3614c-0.37993,0.24093 -0.67646,0.57452 -0.88959,1.00079c-0.20387,0.41699 -0.3058,0.88959 -0.3058,1.41778c0,0.51892 0.10193,0.99152 0.3058,1.41778c0.21313,0.41699 0.50966,0.75059 0.88959,1.00079c0.37993,0.24093 0.81546,0.3614 1.30658,0.3614c0.50966,0 0.95446,-0.12047 1.33438,-0.3614c0.37993,-0.2502 0.67183,-0.58379 0.87569,-1.00079c0.21313,-0.42626 0.3197,-0.89886 0.3197,-1.41778c0,-0.52819 -0.10656,-1.00079 -0.31969,-1.41778c-0.20387,-0.42626 -0.49576,-0.75986 -0.87568,-1.00079c-0.37993,-0.24093 -0.82472,-0.3614 -1.33438,-0.3614zM192.54986,191.6566c-0.94519,0 -1.76527,-0.1946 -2.46026,-0.58379c-0.68572,-0.39846 -1.21391,-0.93592 -1.58458,-1.61238c-0.37066,-0.67646 -0.55599,-1.43631 -0.55599,-2.27957c0,-1.00079 0.19923,-1.85331 0.5977,-2.55757c0.40773,-0.70426 0.93592,-1.24171 1.58458,-1.61238c0.65792,-0.37993 1.35291,-0.56989 2.08497,-0.56989c0.56526,0 1.09809,0.11583 1.59848,0.3475c0.50039,0.23167 0.94519,0.55136 1.33438,0.95909c0.3892,0.40773 0.69499,0.87569 0.91739,1.40389c0.23167,0.52819 0.3475,1.09346 0.3475,1.69578c-0.00927,0.25947 -0.11583,0.47259 -0.31969,0.63939c-0.1946,0.1668 -0.42626,0.2502 -0.69499,0.2502h-6.33832l-0.50039,-1.65407h6.08812l-0.3614,0.3336v-0.45869c-0.01853,-0.31507 -0.13436,-0.59769 -0.34749,-0.84788c-0.20387,-0.25947 -0.45869,-0.46332 -0.76449,-0.61159c-0.29653,-0.14827 -0.61623,-0.2224 -0.95908,-0.2224c-0.3336,0 -0.64403,0.04633 -0.93128,0.139c-0.28727,0.0834 -0.53746,0.23167 -0.75059,0.44479c-0.21313,0.20387 -0.37993,0.4865 -0.50039,0.84789c-0.12047,0.35213 -0.18069,0.79692 -0.18069,1.33438c0,0.59306 0.1251,1.09809 0.3753,1.51509c0.2502,0.41699 0.5699,0.7367 0.95909,0.95909c0.39846,0.21313 0.81546,0.3197 1.25098,0.3197c0.41699,0 0.74596,-0.03243 0.98689,-0.09729c0.24093,-0.07413 0.43552,-0.15753 0.58379,-0.2502c0.14827,-0.09267 0.28263,-0.17143 0.4031,-0.23629c0.20387,-0.10193 0.39383,-0.15289 0.5699,-0.15289c0.24093,0 0.44016,0.0834 0.5977,0.2502c0.1668,0.1668 0.2502,0.3614 0.2502,0.58379c0,0.29653 -0.15289,0.56526 -0.45869,0.80619c-0.29653,0.2502 -0.70426,0.46796 -1.22318,0.6533c-0.51892,0.17607 -1.05175,0.2641 -1.59848,0.2641zM198.1726,182.77461h3.93365c0.25947,0 0.47723,0.08803 0.6533,0.2641c0.18533,0.17607 0.278,0.39846 0.278,0.66719c0,0.2502 -0.09267,0.46332 -0.278,0.63939c-0.17607,0.1668 -0.39383,0.2502 -0.65329,0.2502h-3.93365c-0.26873,0 -0.49112,-0.08803 -0.66719,-0.26409c-0.17607,-0.17607 -0.26409,-0.39383 -0.26409,-0.65329c0,-0.25947 0.08803,-0.47259 0.2641,-0.63939c0.17607,-0.17607 0.39846,-0.26409 0.66719,-0.26409zM199.95178,180.70354c0.28727,0 0.51892,0.0973 0.69499,0.2919c0.18533,0.1946 0.278,0.43552 0.278,0.72279v7.38081c0,0.15753 0.0278,0.28727 0.0834,0.3892c0.06487,0.09267 0.14827,0.16216 0.2502,0.2085c0.1112,0.04633 0.22703,0.0695 0.3475,0.0695c0.12973,0 0.2502,-0.02316 0.3614,-0.06949c0.1112,-0.0556 0.24093,-0.0834 0.3892,-0.0834c0.14827,0 0.28727,0.07413 0.41699,0.2224c0.12973,0.139 0.1946,0.33823 0.1946,0.5977c0,0.3058 -0.17143,0.56063 -0.51429,0.76449c-0.3336,0.1946 -0.69499,0.2919 -1.08419,0.2919c-0.23167,0 -0.49112,-0.01853 -0.77839,-0.0556c-0.278,-0.03707 -0.54209,-0.12973 -0.79229,-0.278c-0.24093,-0.15753 -0.44479,-0.3892 -0.61159,-0.69499c-0.1668,-0.3058 -0.2502,-0.73206 -0.2502,-1.27878v-7.4642c0,-0.28727 0.09267,-0.52819 0.278,-0.72279c0.1946,-0.1946 0.44016,-0.29189 0.7367,-0.29189zM210.12181,189.15463c0.10193,0 0.2085,0.01853 0.3197,0.0556c0.12047,0.0278 0.2502,0.09267 0.3892,0.1946c0.18533,0.139 0.40773,0.2641 0.66719,0.3753c0.26873,0.1112 0.57452,0.1668 0.91739,0.1668c0.34287,0 0.66256,-0.0834 0.95909,-0.2502c0.3058,-0.17607 0.55599,-0.42163 0.75059,-0.73669c0.20387,-0.31507 0.3058,-0.69499 0.3058,-1.13979c0,-0.41699 -0.08803,-0.76449 -0.26409,-1.04248c-0.1668,-0.278 -0.39383,-0.48649 -0.68109,-0.62549c-0.278,-0.14827 -0.57452,-0.2224 -0.88959,-0.2224c-0.2502,0 -0.45406,0.02316 -0.61159,0.0695c-0.15753,0.04633 -0.31043,0.09267 -0.45869,0.139c-0.14827,0.04633 -0.32433,0.0695 -0.52819,0.0695c-0.2502,0 -0.44479,-0.08803 -0.58379,-0.26409c-0.139,-0.17607 -0.20849,-0.38456 -0.20849,-0.62549c0,-0.15753 0.0278,-0.29653 0.0834,-0.41699c0.06487,-0.12047 0.15753,-0.25483 0.278,-0.40309l2.91896,-3.18305l0.44479,0.3892h-4.07264c-0.26873,0 -0.49112,-0.08803 -0.66719,-0.26409c-0.17607,-0.18533 -0.26409,-0.40773 -0.26409,-0.66719c0,-0.25947 0.08803,-0.47259 0.2641,-0.63939c0.17607,-0.17607 0.39846,-0.26409 0.66719,-0.26409h5.07344c0.34287,0 0.5977,0.0973 0.76449,0.2919c0.17607,0.18533 0.2641,0.42163 0.2641,0.7089c0,0.139 -0.03707,0.278 -0.1112,0.41699c-0.06487,0.12973 -0.16216,0.25483 -0.29189,0.3753l-2.93286,3.23866l-0.44479,-0.56989c0.12047,-0.0556 0.28727,-0.10193 0.50039,-0.139c0.2224,-0.04633 0.4031,-0.06949 0.5421,-0.06949c0.65792,0 1.22318,0.17143 1.69578,0.5143c0.48186,0.3336 0.85252,0.76912 1.11199,1.30658c0.26873,0.53746 0.4031,1.11199 0.4031,1.72358c0,0.82472 -0.18533,1.53825 -0.55599,2.14057c-0.3614,0.59306 -0.87568,1.05175 -1.54288,1.37609c-0.66719,0.31507 -1.44095,0.47259 -2.32127,0.47259c-0.40773,0 -0.81082,-0.05096 -1.20928,-0.15289c-0.39846,-0.10193 -0.74132,-0.23167 -1.02859,-0.3892c-0.2502,-0.139 -0.41699,-0.28727 -0.50039,-0.44479c-0.07413,-0.15753 -0.1112,-0.31043 -0.1112,-0.45869c0,-0.2502 0.08803,-0.48649 0.2641,-0.70889c0.18533,-0.23167 0.41699,-0.34749 0.69499,-0.34749zM226.6847,182.44101c0.63012,0 1.17685,0.0695 1.64018,0.2085c0.47259,0.12973 0.83862,0.31507 1.09809,0.55599c0.25947,0.23167 0.3892,0.5143 0.3892,0.84789c0,0.2224 -0.06487,0.4309 -0.1946,0.6255c-0.12973,0.1946 -0.32433,0.2919 -0.58379,0.2919c-0.17607,0 -0.32433,-0.02316 -0.44479,-0.06949c-0.1112,-0.0556 -0.21313,-0.12047 -0.3058,-0.1946c-0.0834,-0.0834 -0.18533,-0.15753 -0.3058,-0.2224c-0.1112,-0.06487 -0.28263,-0.11583 -0.51429,-0.15289c-0.2224,-0.03707 -0.3892,-0.0556 -0.50039,-0.0556c-0.56526,0 -1.04712,0.12047 -1.44558,0.3614c-0.3892,0.24093 -0.69036,0.5699 -0.90348,0.98689c-0.20387,0.41699 -0.3058,0.89422 -0.3058,1.43169c0,0.53746 0.10656,1.01469 0.3197,1.43169c0.2224,0.40773 0.52356,0.7367 0.90349,0.98689c0.37993,0.24093 0.82009,0.3614 1.32049,0.3614c0.278,0 0.5143,-0.01853 0.7089,-0.0556c0.20387,-0.03707 0.37066,-0.08803 0.50039,-0.15289c0.15753,-0.0834 0.29653,-0.17607 0.41699,-0.278c0.12047,-0.10193 0.30116,-0.15289 0.5421,-0.15289c0.28727,0 0.50966,0.09267 0.66719,0.278c0.15753,0.18533 0.2363,0.40773 0.2363,0.66719c0,0.278 -0.15753,0.53283 -0.47259,0.76449c-0.3058,0.2224 -0.71352,0.4031 -1.22318,0.5421c-0.50039,0.139 -1.04248,0.2085 -1.62627,0.2085c-0.87106,0 -1.63091,-0.19923 -2.27957,-0.59769c-0.63939,-0.40773 -1.13515,-0.95908 -1.48728,-1.65407c-0.34287,-0.70426 -0.51429,-1.48728 -0.51429,-2.34907c0,-0.90812 0.18533,-1.70505 0.55599,-2.39077c0.37066,-0.69499 0.88495,-1.23708 1.54288,-1.62627c0.65792,-0.39846 1.41315,-0.59769 2.26568,-0.59769zM239.88828,187.05575c0,0.90812 -0.20387,1.70968 -0.61159,2.40467c-0.39846,0.68572 -0.94055,1.22318 -1.62627,1.61238c-0.67646,0.3892 -1.43168,0.58379 -2.26567,0.58379c-0.84326,0 -1.60774,-0.1946 -2.29347,-0.58379c-0.67646,-0.3892 -1.21855,-0.92666 -1.62627,-1.61238c-0.39846,-0.69499 -0.59769,-1.49655 -0.59769,-2.40466c0,-0.90812 0.19923,-1.70505 0.5977,-2.39077c0.40773,-0.69499 0.94982,-1.23708 1.62628,-1.62627c0.68572,-0.39846 1.45022,-0.59769 2.29348,-0.59769c0.83399,0 1.58921,0.19923 2.26568,0.5977c0.68572,0.3892 1.22782,0.93129 1.62628,1.62628c0.40773,0.68572 0.61159,1.48265 0.61159,2.39077zM237.90061,187.05575c0,-0.56526 -0.11583,-1.05175 -0.34749,-1.45948c-0.2224,-0.41699 -0.52356,-0.74132 -0.90348,-0.97299c-0.37993,-0.23167 -0.80155,-0.34749 -1.26488,-0.34749c-0.47259,0 -0.89886,0.11583 -1.27878,0.3475c-0.37993,0.23167 -0.68572,0.55599 -0.91739,0.97299c-0.2224,0.40773 -0.3336,0.89422 -0.3336,1.45949c0,0.55599 0.1112,1.04249 0.3336,1.45949c0.23167,0.40773 0.53746,0.73206 0.91739,0.97299c0.37993,0.23167 0.80619,0.3475 1.27878,0.3475c0.46332,0 0.88495,-0.11583 1.26489,-0.34749c0.37993,-0.24093 0.6811,-0.56526 0.90349,-0.97299c0.23167,-0.41699 0.3475,-0.90348 0.3475,-1.45948zM243.43434,190.47511c0,0.28727 -0.09729,0.52819 -0.29189,0.72279c-0.18533,0.1946 -0.42163,0.2919 -0.70889,0.2919c-0.28727,0 -0.52819,-0.09729 -0.72279,-0.29189c-0.18533,-0.1946 -0.278,-0.43552 -0.278,-0.72279v-6.85261c0,-0.28727 0.09267,-0.52819 0.278,-0.72279c0.1946,-0.1946 0.43552,-0.29189 0.72279,-0.29189c0.28727,0 0.52356,0.0973 0.7089,0.2919c0.1946,0.1946 0.2919,0.43552 0.2919,0.72279zM242.33625,181.53753c-0.37993,0 -0.64866,-0.06023 -0.80619,-0.18069c-0.14827,-0.12973 -0.2224,-0.34749 -0.2224,-0.65329v-0.31969c0,-0.31507 0.0834,-0.52819 0.2502,-0.63939c0.17607,-0.12047 0.44016,-0.18069 0.79229,-0.18069c0.3892,0 0.65792,0.06023 0.80619,0.1807c0.15753,0.12047 0.2363,0.3336 0.2363,0.63939v0.3197c0,0.32433 -0.0834,0.54672 -0.2502,0.66719c-0.1668,0.1112 -0.43552,0.1668 -0.80619,0.1668zM250.21447,182.44101c0.81546,0 1.43631,0.17143 1.86258,0.5143c0.42626,0.34287 0.71816,0.80155 0.87569,1.37609c0.1668,0.56526 0.2502,1.20002 0.2502,1.90428v4.23945c0,0.28727 -0.09729,0.52819 -0.29189,0.72279c-0.18533,0.1946 -0.42163,0.2919 -0.70889,0.2919c-0.28727,0 -0.52356,-0.09729 -0.70889,-0.29189c-0.18533,-0.1946 -0.278,-0.43552 -0.278,-0.72279v-4.23944c0,-0.37066 -0.05096,-0.69963 -0.15289,-0.98688c-0.09267,-0.29653 -0.25947,-0.53283 -0.50039,-0.70889c-0.24093,-0.17607 -0.58843,-0.26409 -1.04248,-0.26409c-0.44479,0 -0.82009,0.08803 -1.12588,0.2641c-0.29653,0.17607 -0.52819,0.41236 -0.69499,0.7089c-0.15753,0.28727 -0.23629,0.61623 -0.23629,0.98689v4.23945c0,0.28727 -0.09729,0.52819 -0.29189,0.72279c-0.18533,0.1946 -0.42163,0.2919 -0.70889,0.2919c-0.28727,0 -0.52356,-0.09729 -0.70889,-0.29189c-0.18533,-0.1946 -0.278,-0.43552 -0.278,-0.72279v-6.85261c0,-0.28727 0.09267,-0.52819 0.278,-0.72279c0.18533,-0.1946 0.42163,-0.29189 0.7089,-0.29189c0.28727,0 0.52356,0.0973 0.7089,0.2919c0.1946,0.1946 0.2919,0.43552 0.2919,0.72279v0.7089l-0.2502,-0.0417c0.10193,-0.18533 0.24556,-0.38456 0.4309,-0.59769c0.18533,-0.2224 0.4031,-0.42626 0.6533,-0.61159c0.25947,-0.1946 0.54672,-0.34749 0.86179,-0.45869c0.32433,-0.12047 0.67646,-0.18069 1.05639,-0.18069zM254.85177,190.11372c-0.1112,-0.15753 -0.16216,-0.35676 -0.15289,-0.59769c0.00927,-0.24093 0.1529,-0.44943 0.4309,-0.62549c0.17607,-0.1112 0.3614,-0.15753 0.55599,-0.139c0.20387,0.00927 0.39846,0.10656 0.58379,0.2919c0.32433,0.32433 0.66256,0.57452 1.01469,0.75059c0.35213,0.17607 0.79692,0.2641 1.33438,0.2641c0.1668,-0.00927 0.3475,-0.03243 0.5421,-0.06949c0.20387,-0.03707 0.37993,-0.12509 0.52819,-0.26409c0.14827,-0.139 0.2224,-0.35213 0.2224,-0.63939c0,-0.24093 -0.0834,-0.43089 -0.2502,-0.56989c-0.1668,-0.14827 -0.3892,-0.27336 -0.66719,-0.37529c-0.26873,-0.10193 -0.56526,-0.1946 -0.88959,-0.278c-0.34287,-0.10193 -0.69499,-0.21313 -1.05639,-0.3336c-0.3614,-0.12973 -0.69036,-0.28727 -0.98688,-0.47259c-0.29653,-0.1946 -0.54209,-0.45406 -0.73669,-0.77839c-0.18533,-0.32433 -0.278,-0.72743 -0.278,-1.20928c0,-0.55599 0.1529,-1.02395 0.4587,-1.40388c0.31507,-0.3892 0.71816,-0.69036 1.20929,-0.90348c0.49112,-0.21313 1.01006,-0.31969 1.55678,-0.31969c0.34287,0 0.69963,0.0417 1.07029,0.1251c0.37993,0.0834 0.74132,0.21776 1.08419,0.4031c0.34287,0.18533 0.63012,0.42626 0.86179,0.72279c0.12047,0.1668 0.18996,0.36603 0.2085,0.5977c0.0278,0.23167 -0.07413,0.44016 -0.3058,0.6255c-0.1668,0.139 -0.3614,0.19923 -0.58379,0.1807c-0.2224,-0.01853 -0.40309,-0.09267 -0.54209,-0.2224c-0.1946,-0.2502 -0.44943,-0.44479 -0.76449,-0.58379c-0.31507,-0.14827 -0.67646,-0.2224 -1.08419,-0.2224c-0.1668,0 -0.34749,0.02316 -0.54209,0.0695c-0.1946,0.03707 -0.36603,0.12047 -0.51429,0.2502c-0.139,0.12047 -0.20849,0.3197 -0.20849,0.5977c0,0.2502 0.0834,0.45406 0.2502,0.61159c0.1668,0.14827 0.3892,0.26873 0.66719,0.3614c0.28727,0.09267 0.59306,0.18533 0.91739,0.278c0.32433,0.0834 0.65792,0.18533 1.00079,0.3058c0.34287,0.12047 0.65792,0.28263 0.94519,0.4865c0.29653,0.1946 0.53283,0.44943 0.7089,0.76449c0.17607,0.31507 0.2641,0.71816 0.2641,1.20929c0,0.56526 -0.1668,1.04712 -0.50039,1.44558c-0.3336,0.39846 -0.75059,0.69963 -1.25098,0.90349c-0.49112,0.20387 -0.99615,0.3058 -1.51508,0.3058c-0.65792,0 -1.31585,-0.1112 -1.97377,-0.3336c-0.64866,-0.23167 -1.18612,-0.63476 -1.61238,-1.20928zM272.59945,182.44101c0.77839,0 1.47338,0.19923 2.08497,0.5977c0.61159,0.3892 1.09809,0.92666 1.45949,1.61238c0.3614,0.68572 0.5421,1.48265 0.5421,2.39077c0,0.90812 -0.18069,1.70968 -0.54209,2.40467c-0.3614,0.68572 -0.84326,1.22782 -1.44558,1.62628c-0.60232,0.3892 -1.27878,0.58379 -2.02937,0.58379c-0.44479,0 -0.86179,-0.06949 -1.25098,-0.20849c-0.37993,-0.14827 -0.71816,-0.3336 -1.01468,-0.55599c-0.28727,-0.2224 -0.51429,-0.44479 -0.68109,-0.66719c-0.15753,-0.23167 -0.23629,-0.42626 -0.23629,-0.58379l0.5143,-0.20849v4.36454c0,0.28727 -0.09729,0.52819 -0.29189,0.72279c-0.18533,0.1946 -0.42163,0.2919 -0.70889,0.2919c-0.28727,0 -0.52356,-0.09729 -0.70889,-0.29189c-0.18533,-0.18533 -0.278,-0.42626 -0.278,-0.72279v-10.17467c0,-0.28727 0.09267,-0.52819 0.278,-0.72279c0.18533,-0.1946 0.42163,-0.29189 0.7089,-0.29189c0.28727,0 0.52356,0.0973 0.7089,0.2919c0.1946,0.1946 0.2919,0.43552 0.2919,0.72279v0.82009l-0.278,-0.15289c0,-0.14827 0.07413,-0.32433 0.2224,-0.52819c0.15753,-0.20387 0.36603,-0.40773 0.6255,-0.61159c0.26873,-0.20387 0.57916,-0.37066 0.93129,-0.50039c0.35213,-0.139 0.71816,-0.20849 1.09809,-0.20849zM272.34925,184.27579c-0.48186,0 -0.90812,0.12047 -1.27878,0.3614c-0.3614,0.24093 -0.64403,0.5699 -0.84788,0.98689c-0.20387,0.41699 -0.3058,0.88959 -0.3058,1.41778c0,0.51892 0.10193,0.99152 0.3058,1.41778c0.20387,0.42626 0.4865,0.76449 0.84789,1.01469c0.37066,0.24093 0.79692,0.3614 1.27878,0.3614c0.49112,0 0.91739,-0.12047 1.27878,-0.3614c0.3614,-0.2502 0.64403,-0.58843 0.84789,-1.01468c0.20387,-0.42626 0.3058,-0.89886 0.3058,-1.41778c0,-0.52819 -0.10193,-1.00079 -0.3058,-1.41778c-0.20387,-0.41699 -0.48649,-0.74596 -0.84788,-0.98688c-0.3614,-0.24093 -0.78766,-0.3614 -1.27878,-0.3614zM282.45253,191.6566c-0.94519,0 -1.76527,-0.1946 -2.46026,-0.58379c-0.68572,-0.39846 -1.21391,-0.93592 -1.58458,-1.61238c-0.37066,-0.67646 -0.55599,-1.43631 -0.55599,-2.27957c0,-1.00079 0.19923,-1.85331 0.5977,-2.55757c0.40773,-0.70426 0.93592,-1.24171 1.58458,-1.61238c0.65792,-0.37993 1.35291,-0.56989 2.08497,-0.56989c0.56526,0 1.09809,0.11583 1.59848,0.3475c0.50039,0.23167 0.94519,0.55136 1.33438,0.95909c0.3892,0.40773 0.69499,0.87569 0.91739,1.40389c0.23167,0.52819 0.3475,1.09346 0.3475,1.69578c-0.00927,0.25947 -0.11583,0.47259 -0.31969,0.63939c-0.1946,0.1668 -0.42626,0.2502 -0.69499,0.2502h-6.33832l-0.50039,-1.65407h6.08812l-0.3614,0.3336v-0.45869c-0.01853,-0.31507 -0.13436,-0.59769 -0.34749,-0.84788c-0.20387,-0.25947 -0.45869,-0.46332 -0.76449,-0.61159c-0.29653,-0.14827 -0.61623,-0.2224 -0.95908,-0.2224c-0.3336,0 -0.64403,0.04633 -0.93128,0.139c-0.28727,0.0834 -0.53746,0.23167 -0.75059,0.44479c-0.21313,0.20387 -0.37993,0.4865 -0.50039,0.84789c-0.12047,0.35213 -0.18069,0.79692 -0.18069,1.33438c0,0.59306 0.1251,1.09809 0.3753,1.51509c0.2502,0.41699 0.5699,0.7367 0.95909,0.95909c0.39846,0.21313 0.81546,0.3197 1.25098,0.3197c0.41699,0 0.74596,-0.03243 0.98689,-0.09729c0.24093,-0.07413 0.43552,-0.15753 0.58379,-0.2502c0.14827,-0.09267 0.28263,-0.17143 0.4031,-0.23629c0.20387,-0.10193 0.39383,-0.15289 0.5699,-0.15289c0.24093,0 0.44016,0.0834 0.5977,0.2502c0.1668,0.1668 0.2502,0.3614 0.2502,0.58379c0,0.29653 -0.15289,0.56526 -0.45869,0.80619c-0.29653,0.2502 -0.70426,0.46796 -1.22318,0.6533c-0.51892,0.17607 -1.05175,0.2641 -1.59848,0.2641zM288.96487,191.4898c-0.28727,0 -0.52356,-0.09729 -0.70889,-0.29189c-0.18533,-0.1946 -0.278,-0.43552 -0.278,-0.72279v-6.85261c0,-0.28727 0.09267,-0.52819 0.278,-0.72279c0.18533,-0.1946 0.42163,-0.29189 0.7089,-0.29189c0.28727,0 0.52356,0.0973 0.7089,0.2919c0.1946,0.1946 0.2919,0.43552 0.2919,0.72279v1.55678l-0.1112,-1.11199c0.12047,-0.25947 0.27336,-0.49112 0.4587,-0.69499c0.1946,-0.21313 0.41236,-0.38456 0.6533,-0.51429c0.2502,-0.139 0.5143,-0.24093 0.79229,-0.3058c0.278,-0.07413 0.55599,-0.1112 0.83399,-0.1112c0.32433,0 0.5977,0.0973 0.82009,0.2919c0.23167,0.18533 0.3475,0.4031 0.3475,0.6533c0,0.37066 -0.09267,0.63476 -0.278,0.79229c-0.18533,0.15753 -0.3892,0.2363 -0.61159,0.2363c-0.21313,0 -0.40773,-0.03707 -0.58379,-0.1112c-0.1668,-0.07413 -0.3614,-0.1112 -0.58379,-0.1112c-0.1946,0 -0.39383,0.04633 -0.59769,0.139c-0.20387,0.09267 -0.39383,0.24093 -0.56989,0.44479c-0.1668,0.1946 -0.3058,0.44016 -0.41699,0.7367c-0.10193,0.28727 -0.15289,0.63012 -0.15289,1.02859v3.93365c0,0.28727 -0.09729,0.52819 -0.29189,0.72279c-0.18533,0.1946 -0.42163,0.2919 -0.70889,0.2919zM303.69197,182.44101c0.63012,0 1.17685,0.0695 1.64018,0.2085c0.47259,0.12973 0.83862,0.31507 1.09809,0.55599c0.25947,0.23167 0.3892,0.5143 0.3892,0.84789c0,0.2224 -0.06487,0.4309 -0.1946,0.6255c-0.12973,0.1946 -0.32433,0.2919 -0.58379,0.2919c-0.17607,0 -0.32433,-0.02316 -0.44479,-0.06949c-0.1112,-0.0556 -0.21313,-0.12047 -0.3058,-0.1946c-0.0834,-0.0834 -0.18533,-0.15753 -0.3058,-0.2224c-0.1112,-0.06487 -0.28263,-0.11583 -0.51429,-0.15289c-0.2224,-0.03707 -0.3892,-0.0556 -0.50039,-0.0556c-0.56526,0 -1.04712,0.12047 -1.44558,0.3614c-0.3892,0.24093 -0.69036,0.5699 -0.90348,0.98689c-0.20387,0.41699 -0.3058,0.89422 -0.3058,1.43169c0,0.53746 0.10656,1.01469 0.3197,1.43169c0.2224,0.40773 0.52356,0.7367 0.90349,0.98689c0.37993,0.24093 0.82009,0.3614 1.32049,0.3614c0.278,0 0.5143,-0.01853 0.7089,-0.0556c0.20387,-0.03707 0.37066,-0.08803 0.50039,-0.15289c0.15753,-0.0834 0.29653,-0.17607 0.41699,-0.278c0.12047,-0.10193 0.30116,-0.15289 0.5421,-0.15289c0.28727,0 0.50966,0.09267 0.66719,0.278c0.15753,0.18533 0.2363,0.40773 0.2363,0.66719c0,0.278 -0.15753,0.53283 -0.47259,0.76449c-0.3058,0.2224 -0.71352,0.4031 -1.22318,0.5421c-0.50039,0.139 -1.04248,0.2085 -1.62627,0.2085c-0.87106,0 -1.63091,-0.19923 -2.27957,-0.59769c-0.63939,-0.40773 -1.13515,-0.95908 -1.48728,-1.65407c-0.34287,-0.70426 -0.51429,-1.48728 -0.51429,-2.34907c0,-0.90812 0.18533,-1.70505 0.55599,-2.39077c0.37066,-0.69499 0.88495,-1.23708 1.54288,-1.62627c0.65792,-0.39846 1.41315,-0.59769 2.26568,-0.59769zM310.52943,190.47511c0,0.28727 -0.09729,0.52819 -0.29189,0.72279c-0.1946,0.1946 -0.43552,0.2919 -0.72279,0.2919c-0.278,0 -0.50966,-0.09729 -0.69499,-0.29189c-0.18533,-0.1946 -0.278,-0.43552 -0.278,-0.72279v-10.25807c0,-0.28727 0.09267,-0.52819 0.278,-0.72279c0.1946,-0.1946 0.43552,-0.29189 0.72279,-0.29189c0.28727,0 0.52356,0.0973 0.7089,0.2919c0.18533,0.1946 0.278,0.43552 0.278,0.72279zM314.73244,190.47511c0,0.28727 -0.09729,0.52819 -0.29189,0.72279c-0.18533,0.1946 -0.42163,0.2919 -0.70889,0.2919c-0.28727,0 -0.52819,-0.09729 -0.72279,-0.29189c-0.18533,-0.1946 -0.278,-0.43552 -0.278,-0.72279v-6.85261c0,-0.28727 0.09267,-0.52819 0.278,-0.72279c0.1946,-0.1946 0.43552,-0.29189 0.72279,-0.29189c0.28727,0 0.52356,0.0973 0.7089,0.2919c0.1946,0.1946 0.2919,0.43552 0.2919,0.72279zM313.63436,181.53753c-0.37993,0 -0.64866,-0.06023 -0.80619,-0.18069c-0.14827,-0.12973 -0.2224,-0.34749 -0.2224,-0.65329v-0.31969c0,-0.31507 0.0834,-0.52819 0.2502,-0.63939c0.17607,-0.12047 0.44016,-0.18069 0.79229,-0.18069c0.3892,0 0.65792,0.06023 0.80619,0.1807c0.15753,0.12047 0.2363,0.3336 0.2363,0.63939v0.3197c0,0.32433 -0.0834,0.54672 -0.2502,0.66719c-0.1668,0.1112 -0.43552,0.1668 -0.80619,0.1668zM320.63688,182.44101c0.63012,0 1.17685,0.0695 1.64018,0.2085c0.47259,0.12973 0.83862,0.31507 1.09809,0.55599c0.25947,0.23167 0.3892,0.5143 0.3892,0.84789c0,0.2224 -0.06487,0.4309 -0.1946,0.6255c-0.12973,0.1946 -0.32433,0.2919 -0.58379,0.2919c-0.17607,0 -0.32433,-0.02316 -0.44479,-0.06949c-0.1112,-0.0556 -0.21313,-0.12047 -0.3058,-0.1946c-0.0834,-0.0834 -0.18533,-0.15753 -0.3058,-0.2224c-0.1112,-0.06487 -0.28263,-0.11583 -0.51429,-0.15289c-0.2224,-0.03707 -0.3892,-0.0556 -0.50039,-0.0556c-0.56526,0 -1.04712,0.12047 -1.44558,0.3614c-0.3892,0.24093 -0.69036,0.5699 -0.90348,0.98689c-0.20387,0.41699 -0.3058,0.89422 -0.3058,1.43169c0,0.53746 0.10656,1.01469 0.3197,1.43169c0.2224,0.40773 0.52356,0.7367 0.90349,0.98689c0.37993,0.24093 0.82009,0.3614 1.32049,0.3614c0.278,0 0.5143,-0.01853 0.7089,-0.0556c0.20387,-0.03707 0.37066,-0.08803 0.50039,-0.15289c0.15753,-0.0834 0.29653,-0.17607 0.41699,-0.278c0.12047,-0.10193 0.30116,-0.15289 0.5421,-0.15289c0.28727,0 0.50966,0.09267 0.66719,0.278c0.15753,0.18533 0.2363,0.40773 0.2363,0.66719c0,0.278 -0.15753,0.53283 -0.47259,0.76449c-0.3058,0.2224 -0.71352,0.4031 -1.22318,0.5421c-0.50039,0.139 -1.04248,0.2085 -1.62627,0.2085c-0.87106,0 -1.63091,-0.19923 -2.27957,-0.59769c-0.63939,-0.40773 -1.13515,-0.95908 -1.48728,-1.65407c-0.34287,-0.70426 -0.51429,-1.48728 -0.51429,-2.34907c0,-0.90812 0.18533,-1.70505 0.55599,-2.39077c0.37066,-0.69499 0.88495,-1.23708 1.54288,-1.62627c0.65792,-0.39846 1.41315,-0.59769 2.26568,-0.59769zM326.47356,191.4898c-0.28727,0 -0.52356,-0.09729 -0.70889,-0.29189c-0.18533,-0.1946 -0.278,-0.43552 -0.278,-0.72279v-10.25807c0,-0.28727 0.09267,-0.52819 0.278,-0.72279c0.18533,-0.1946 0.42163,-0.29189 0.7089,-0.29189c0.28727,0 0.52356,0.0973 0.7089,0.2919c0.1946,0.1946 0.2919,0.43552 0.2919,0.72279v10.25807c0,0.28727 -0.09729,0.52819 -0.29189,0.72279c-0.18533,0.1946 -0.42163,0.2919 -0.70889,0.2919zM331.75549,182.60781c0.2502,0 0.46796,0.10656 0.6533,0.3197c0.1946,0.21313 0.2919,0.41699 0.2919,0.61159c0,0.26873 -0.13436,0.51892 -0.40309,0.75059l-4.99003,4.60085l-0.0834,-2.29347l3.79466,-3.66955c0.21313,-0.21313 0.4587,-0.31969 0.7367,-0.31969zM332.00569,191.4759c-0.28727,0 -0.53283,-0.1112 -0.73669,-0.3336l-3.07186,-3.25256l1.51509,-1.38998l2.98847,3.25256c0.21313,0.2224 0.3197,0.46796 0.3197,0.7367c0,0.28727 -0.11583,0.52356 -0.34749,0.7089c-0.2224,0.18533 -0.44479,0.278 -0.66719,0.278z" fill="#ffffff" stroke="none" stroke-width="1" stroke-linecap="square"/><path d="M180.7581,214.62436c-0.26041,0 -0.47396,-0.08334 -0.64062,-0.25c-0.16666,-0.16666 -0.25,-0.38021 -0.25,-0.64062v-14.8125c0,-0.27084 0.08334,-0.48959 0.25,-0.65625c0.16666,-0.16666 0.38021,-0.25 0.64063,-0.25h3.9375c0.26041,0 0.47396,0.08334 0.64063,0.25c0.16666,0.16666 0.25,0.38541 0.25,0.65625c0,0.23959 -0.08334,0.44791 -0.25,0.625c-0.16666,0.16666 -0.38021,0.25 -0.64062,0.25h-2.78125l0.09375,-0.15625v13.4375l-0.21875,-0.23437h2.90625c0.26041,0 0.47396,0.08334 0.64063,0.25c0.16666,0.17709 0.25,0.39584 0.25,0.65625c0,0.25 -0.08334,0.45834 -0.25,0.625c-0.16666,0.16666 -0.38021,0.25 -0.64062,0.25zM196.50743,198.65561c0.32291,0.15625 0.51041,0.41146 0.5625,0.76563c0.05209,0.34375 -0.03646,0.66146 -0.26562,0.95313c-0.16666,0.21875 -0.38021,0.34375 -0.64062,0.375c-0.25,0.02084 -0.50521,-0.03125 -0.76562,-0.15625c-0.29166,-0.13541 -0.60416,-0.23959 -0.9375,-0.3125c-0.33334,-0.07291 -0.67709,-0.10937 -1.03125,-0.10937c-0.67709,0 -1.28125,0.10416 -1.8125,0.3125c-0.52084,0.20834 -0.96875,0.51041 -1.34375,0.90625c-0.375,0.38541 -0.66146,0.84896 -0.85937,1.39063c-0.1875,0.53125 -0.28125,1.11979 -0.28125,1.76563c0,0.76041 0.10938,1.42188 0.32813,1.98438c0.21875,0.55209 0.52084,1.01563 0.90625,1.39063c0.38541,0.375 0.83854,0.65625 1.35938,0.84375c0.52084,0.17709 1.08854,0.26563 1.70313,0.26563c0.33334,0 0.66666,-0.03125 1,-0.09375c0.33334,-0.0625 0.65625,-0.17709 0.96875,-0.34375c0.26041,-0.125 0.51563,-0.16666 0.76563,-0.125c0.26041,0.03125 0.47916,0.16146 0.65625,0.39063c0.25,0.3125 0.33854,0.63541 0.26563,0.96875c-0.0625,0.32291 -0.25,0.55729 -0.5625,0.70313c-0.32291,0.16666 -0.65625,0.30209 -1,0.40625c-0.34375,0.10416 -0.69271,0.18229 -1.04687,0.23438c-0.34375,0.0625 -0.69271,0.09375 -1.04687,0.09375c-0.89584,0 -1.74479,-0.14062 -2.54687,-0.42187c-0.80209,-0.29166 -1.52084,-0.71354 -2.15625,-1.26562c-0.625,-0.5625 -1.11979,-1.26562 -1.48437,-2.10937c-0.35416,-0.84375 -0.53125,-1.81771 -0.53125,-2.92187c0,-0.95834 0.16146,-1.83854 0.48438,-2.64062c0.33334,-0.8125 0.80209,-1.51041 1.40625,-2.09375c0.60416,-0.59375 1.3125,-1.05729 2.125,-1.39062c0.82291,-0.33334 1.72396,-0.5 2.70313,-0.5c0.54166,0 1.07291,0.0625 1.59375,0.1875c0.52084,0.125 1.01563,0.30729 1.48438,0.54688zM201.29866,209.93686c0,0.32291 -0.10937,0.59375 -0.32812,0.8125c-0.21875,0.21875 -0.48959,0.32813 -0.8125,0.32813c-0.3125,0 -0.57291,-0.10937 -0.78125,-0.32812c-0.20834,-0.21875 -0.3125,-0.48959 -0.3125,-0.8125v-11.53125c0,-0.32291 0.10416,-0.59375 0.3125,-0.8125c0.21875,-0.21875 0.48959,-0.32812 0.8125,-0.32812c0.32291,0 0.58854,0.10938 0.79688,0.32813c0.20834,0.21875 0.3125,0.48959 0.3125,0.8125zM206.02333,209.93686c0,0.32291 -0.10937,0.59375 -0.32812,0.8125c-0.20834,0.21875 -0.47396,0.32813 -0.79687,0.32813c-0.32291,0 -0.59375,-0.10937 -0.8125,-0.32812c-0.20834,-0.21875 -0.3125,-0.48959 -0.3125,-0.8125v-7.70312c0,-0.32291 0.10416,-0.59375 0.3125,-0.8125c0.21875,-0.21875 0.48959,-0.32812 0.8125,-0.32812c0.32291,0 0.58854,0.10938 0.79688,0.32813c0.21875,0.21875 0.32813,0.48959 0.32813,0.8125zM204.78896,199.88999c-0.42709,0 -0.72916,-0.06771 -0.90625,-0.20312c-0.16666,-0.14584 -0.25,-0.39062 -0.25,-0.73437v-0.35937c0,-0.35416 0.09375,-0.59375 0.28125,-0.71875c0.19791,-0.13541 0.49479,-0.20312 0.89063,-0.20312c0.4375,0 0.73959,0.06771 0.90625,0.20313c0.17709,0.13541 0.26563,0.375 0.26563,0.71875v0.35938c0,0.36459 -0.09375,0.61459 -0.28125,0.75c-0.1875,0.125 -0.48959,0.1875 -0.90625,0.1875zM212.6606,200.90561c0.70834,0 1.32291,0.07813 1.84375,0.23438c0.53125,0.14584 0.94271,0.35416 1.23438,0.625c0.29166,0.26041 0.4375,0.57813 0.4375,0.95313c0,0.25 -0.07291,0.48438 -0.21875,0.70313c-0.14584,0.21875 -0.36459,0.32813 -0.65625,0.32813c-0.19791,0 -0.36459,-0.02604 -0.5,-0.07812c-0.125,-0.0625 -0.23959,-0.13541 -0.34375,-0.21875c-0.09375,-0.09375 -0.20834,-0.17709 -0.34375,-0.25c-0.125,-0.07291 -0.31771,-0.13021 -0.57812,-0.17187c-0.25,-0.04166 -0.4375,-0.0625 -0.5625,-0.0625c-0.63541,0 -1.17709,0.13541 -1.625,0.40625c-0.4375,0.27084 -0.77604,0.64063 -1.01562,1.10938c-0.22916,0.46875 -0.34375,1.00521 -0.34375,1.60938c0,0.60416 0.11979,1.14063 0.35938,1.60938c0.25,0.45834 0.58854,0.82813 1.01563,1.10938c0.42709,0.27084 0.92188,0.40625 1.48438,0.40625c0.3125,0 0.57813,-0.02084 0.79688,-0.0625c0.22916,-0.04166 0.41666,-0.09896 0.5625,-0.17187c0.17709,-0.09375 0.33334,-0.19791 0.46875,-0.3125c0.13541,-0.11459 0.33854,-0.17187 0.60938,-0.17187c0.32291,0 0.57291,0.10416 0.75,0.3125c0.17709,0.20834 0.26563,0.45834 0.26563,0.75c0,0.3125 -0.17709,0.59896 -0.53125,0.85938c-0.34375,0.25 -0.80209,0.45313 -1.375,0.60938c-0.5625,0.15625 -1.17187,0.23438 -1.82812,0.23438c-0.97916,0 -1.83334,-0.22396 -2.5625,-0.67187c-0.71875,-0.45834 -1.27604,-1.07812 -1.67187,-1.85937c-0.38541,-0.79166 -0.57812,-1.67187 -0.57812,-2.64062c0,-1.02084 0.20834,-1.91666 0.625,-2.6875c0.41666,-0.78125 0.99479,-1.39062 1.73438,-1.82812c0.73959,-0.44791 1.58854,-0.67187 2.54688,-0.67187zM219.2217,211.07749c-0.32291,0 -0.58854,-0.10937 -0.79687,-0.32812c-0.20834,-0.21875 -0.3125,-0.48959 -0.3125,-0.8125v-11.53125c0,-0.32291 0.10416,-0.59375 0.3125,-0.8125c0.20834,-0.21875 0.47396,-0.32812 0.79688,-0.32812c0.32291,0 0.58854,0.10938 0.79688,0.32813c0.21875,0.21875 0.32813,0.48959 0.32813,0.8125v11.53125c0,0.32291 -0.10937,0.59375 -0.32812,0.8125c-0.20834,0.21875 -0.47396,0.32813 -0.79687,0.32813zM225.1592,201.09311c0.28125,0 0.52604,0.11979 0.73438,0.35938c0.21875,0.23959 0.32813,0.46875 0.32813,0.6875c0,0.30209 -0.15104,0.58334 -0.45312,0.84375l-5.60937,5.17188l-0.09375,-2.57812l4.26563,-4.125c0.23959,-0.23959 0.51563,-0.35937 0.82813,-0.35937zM225.44045,211.06186c-0.32291,0 -0.59896,-0.125 -0.82812,-0.375l-3.45312,-3.65625l1.70313,-1.5625l3.35938,3.65625c0.23959,0.25 0.35938,0.52604 0.35938,0.82813c0,0.32291 -0.13021,0.58854 -0.39062,0.79688c-0.25,0.20834 -0.5,0.3125 -0.75,0.3125zM233.87334,201.28061h4.42188c0.29166,0 0.53646,0.09896 0.73438,0.29688c0.20834,0.19791 0.3125,0.44791 0.3125,0.75c0,0.28125 -0.10416,0.52084 -0.3125,0.71875c-0.19791,0.1875 -0.44271,0.28125 -0.73437,0.28125h-4.42187c-0.30209,0 -0.55209,-0.09896 -0.75,-0.29687c-0.19791,-0.19791 -0.29687,-0.44271 -0.29687,-0.73437c0,-0.29166 0.09896,-0.53125 0.29688,-0.71875c0.19791,-0.19791 0.44791,-0.29687 0.75,-0.29687zM235.87334,198.95249c0.32291,0 0.58334,0.10938 0.78125,0.32813c0.20834,0.21875 0.3125,0.48959 0.3125,0.8125v8.29688c0,0.17709 0.03125,0.32291 0.09375,0.4375c0.07291,0.10416 0.16666,0.18229 0.28125,0.23438c0.125,0.05209 0.25521,0.07813 0.39063,0.07813c0.14584,0 0.28125,-0.02604 0.40625,-0.07812c0.125,-0.0625 0.27084,-0.09375 0.4375,-0.09375c0.16666,0 0.32291,0.08334 0.46875,0.25c0.14584,0.15625 0.21875,0.38021 0.21875,0.67188c0,0.34375 -0.19271,0.63021 -0.57812,0.85938c-0.375,0.21875 -0.78125,0.32813 -1.21875,0.32813c-0.26041,0 -0.55209,-0.02084 -0.875,-0.0625c-0.3125,-0.04166 -0.60937,-0.14584 -0.89062,-0.3125c-0.27084,-0.17709 -0.5,-0.4375 -0.6875,-0.78125c-0.1875,-0.34375 -0.28125,-0.82291 -0.28125,-1.4375v-8.39062c0,-0.32291 0.10416,-0.59375 0.3125,-0.8125c0.21875,-0.21875 0.49479,-0.32812 0.82813,-0.32812zM250.87917,206.09311c0,1.02084 -0.22916,1.92188 -0.6875,2.70313c-0.44791,0.77084 -1.05729,1.375 -1.82812,1.8125c-0.76041,0.4375 -1.60937,0.65625 -2.54687,0.65625c-0.94791,0 -1.80729,-0.21875 -2.57812,-0.65625c-0.76041,-0.4375 -1.36979,-1.04166 -1.82812,-1.8125c-0.44791,-0.78125 -0.67187,-1.68229 -0.67187,-2.70312c0,-1.02084 0.22396,-1.91666 0.67188,-2.6875c0.45834,-0.78125 1.06771,-1.39062 1.82813,-1.82812c0.77084,-0.44791 1.63021,-0.67187 2.57813,-0.67187c0.9375,0 1.78646,0.22396 2.54688,0.67188c0.77084,0.4375 1.38021,1.04688 1.82813,1.82813c0.45834,0.77084 0.6875,1.66666 0.6875,2.6875zM248.64479,206.09311c0,-0.63541 -0.13021,-1.18229 -0.39062,-1.64062c-0.25,-0.46875 -0.58854,-0.83334 -1.01562,-1.09375c-0.42709,-0.26041 -0.90104,-0.39062 -1.42187,-0.39062c-0.53125,0 -1.01041,0.13021 -1.4375,0.39063c-0.42709,0.26041 -0.77084,0.625 -1.03125,1.09375c-0.25,0.45834 -0.375,1.00521 -0.375,1.64063c0,0.625 0.125,1.17188 0.375,1.64063c0.26041,0.45834 0.60416,0.82291 1.03125,1.09375c0.42709,0.26041 0.90625,0.39063 1.4375,0.39063c0.52084,0 0.99479,-0.13021 1.42188,-0.39062c0.42709,-0.27084 0.76563,-0.63541 1.01563,-1.09375c0.26041,-0.46875 0.39063,-1.01562 0.39063,-1.64062zM263.13597,200.90561c0.875,0 1.65625,0.22396 2.34375,0.67188c0.6875,0.4375 1.23438,1.04166 1.64063,1.8125c0.40625,0.77084 0.60938,1.66666 0.60938,2.6875c0,1.02084 -0.20312,1.92188 -0.60937,2.70313c-0.40625,0.77084 -0.94792,1.38021 -1.625,1.82813c-0.67708,0.4375 -1.4375,0.65625 -2.28125,0.65625c-0.5,0 -0.96875,-0.07812 -1.40625,-0.23437c-0.42708,-0.16666 -0.80729,-0.375 -1.14062,-0.625c-0.32292,-0.25 -0.57812,-0.5 -0.76562,-0.75c-0.17708,-0.26041 -0.26562,-0.47916 -0.26562,-0.65625l0.57813,-0.23437v1.35938c0,0.32291 -0.10937,0.59375 -0.32812,0.8125c-0.20833,0.21875 -0.47396,0.32813 -0.79687,0.32813c-0.32292,0 -0.58854,-0.10416 -0.79687,-0.3125c-0.20833,-0.21875 -0.3125,-0.49479 -0.3125,-0.82812v-11.71875c0,-0.32291 0.10417,-0.59375 0.3125,-0.8125c0.20833,-0.21875 0.47396,-0.32812 0.79688,-0.32812c0.32292,0 0.58854,0.10938 0.79688,0.32813c0.21875,0.21875 0.32813,0.48959 0.32813,0.8125v4.75l-0.3125,-0.17187c0,-0.16666 0.08333,-0.36459 0.25,-0.59375c0.17708,-0.22916 0.41146,-0.45834 0.70313,-0.6875c0.30208,-0.22916 0.65104,-0.41666 1.04688,-0.5625c0.39583,-0.15625 0.80729,-0.23437 1.23438,-0.23437zM262.85472,202.96811c-0.54167,0 -1.02083,0.13541 -1.4375,0.40625c-0.40625,0.27084 -0.72396,0.64063 -0.95312,1.10938c-0.22917,0.46875 -0.34375,1 -0.34375,1.59375c0,0.58334 0.11458,1.11459 0.34375,1.59375c0.22917,0.47916 0.54688,0.85938 0.95313,1.14063c0.41667,0.27084 0.89583,0.40625 1.4375,0.40625c0.55208,0 1.03125,-0.13541 1.4375,-0.40625c0.40625,-0.28125 0.72396,-0.66146 0.95313,-1.14062c0.22917,-0.47916 0.34375,-1.01041 0.34375,-1.59375c0,-0.59375 -0.11458,-1.125 -0.34375,-1.59375c-0.22917,-0.46875 -0.54687,-0.83854 -0.95312,-1.10937c-0.40625,-0.27084 -0.88542,-0.40625 -1.4375,-0.40625zM277.00883,201.09311c0.32292,0 0.58854,0.10938 0.79688,0.32813c0.20833,0.21875 0.3125,0.48959 0.3125,0.8125v4.73438c0,1.32291 -0.36979,2.36979 -1.10937,3.14063c-0.72917,0.77084 -1.78125,1.15625 -3.15625,1.15625c-1.38542,0 -2.44271,-0.38541 -3.17187,-1.15625c-0.71875,-0.77084 -1.07812,-1.81771 -1.07812,-3.14062v-4.73437c0,-0.32291 0.10417,-0.59375 0.3125,-0.8125c0.20833,-0.21875 0.47396,-0.32812 0.79688,-0.32812c0.32292,0 0.58854,0.10938 0.79688,0.32813c0.21875,0.21875 0.32813,0.48959 0.32813,0.8125v4.73438c0,0.76041 0.16667,1.32813 0.5,1.70313c0.33333,0.36459 0.83854,0.54688 1.51563,0.54688c0.6875,0 1.19792,-0.18229 1.53125,-0.54687c0.33333,-0.375 0.5,-0.94271 0.5,-1.70312v-4.73437c0,-0.32291 0.10417,-0.59375 0.3125,-0.8125c0.21875,-0.21875 0.48958,-0.32812 0.8125,-0.32812zM287.96004,201.09311c0.32292,0 0.58854,0.10938 0.79688,0.32813c0.20833,0.21875 0.3125,0.48959 0.3125,0.8125v7.92188c0,1.14584 -0.21354,2.05729 -0.64062,2.73438c-0.42708,0.67709 -1.00521,1.16666 -1.73437,1.46875c-0.71875,0.30209 -1.52604,0.45313 -2.42187,0.45313c-0.39583,0 -0.81771,-0.03125 -1.26562,-0.09375c-0.44792,-0.0625 -0.8125,-0.15625 -1.09375,-0.28125c-0.375,-0.16666 -0.63542,-0.36979 -0.78125,-0.60937c-0.14583,-0.23959 -0.17187,-0.49479 -0.07812,-0.76562c0.11458,-0.36459 0.29167,-0.61459 0.53125,-0.75c0.25,-0.125 0.51563,-0.14062 0.79688,-0.04687c0.19792,0.0625 0.45833,0.15625 0.78125,0.28125c0.32292,0.13541 0.69271,0.20313 1.10938,0.20313c0.57292,0 1.04688,-0.07812 1.42188,-0.23437c0.38542,-0.14584 0.67188,-0.40625 0.85938,-0.78125c0.19792,-0.36459 0.29688,-0.86459 0.29688,-1.5v-1.25l0.39063,0.45313c-0.20833,0.40625 -0.47396,0.74479 -0.79687,1.01563c-0.3125,0.27084 -0.6875,0.47396 -1.125,0.60938c-0.4375,0.13541 -0.93229,0.20313 -1.48437,0.20313c-0.66667,0 -1.24479,-0.15104 -1.73437,-0.45312c-0.48958,-0.3125 -0.86979,-0.73437 -1.14062,-1.26562c-0.27083,-0.54166 -0.40625,-1.16146 -0.40625,-1.85937v-5.45312c0,-0.32291 0.10417,-0.59375 0.3125,-0.8125c0.20833,-0.21875 0.47396,-0.32812 0.79688,-0.32812c0.32292,0 0.58854,0.10938 0.79688,0.32813c0.21875,0.21875 0.32813,0.48959 0.32813,0.8125v4.78125c0,0.80209 0.17708,1.36979 0.53125,1.70313c0.35417,0.33334 0.84896,0.5 1.48438,0.5c0.4375,0 0.80208,-0.08334 1.09375,-0.25c0.30208,-0.17709 0.53125,-0.42709 0.6875,-0.75c0.16667,-0.33334 0.25,-0.73437 0.25,-1.20312v-4.78125c0,-0.32291 0.10417,-0.59375 0.3125,-0.8125c0.21875,-0.21875 0.48958,-0.32812 0.8125,-0.32812zM295.4894,198.01499c0.26042,0 0.47396,0.08334 0.64063,0.25c0.16667,0.16666 0.25,0.38541 0.25,0.65625v14.8125c0,0.26041 -0.08333,0.47396 -0.25,0.64063c-0.16667,0.16666 -0.38021,0.25 -0.64062,0.25h-3.9375c-0.26042,0 -0.47396,-0.08334 -0.64062,-0.25c-0.16667,-0.16666 -0.25,-0.38021 -0.25,-0.64062c0,-0.25 0.08333,-0.46354 0.25,-0.64062c0.16667,-0.16666 0.38021,-0.25 0.64063,-0.25h2.78125l-0.09375,0.15625v-13.4375l0.21875,0.23438h-2.90625c-0.26042,0 -0.47396,-0.08334 -0.64062,-0.25c-0.16667,-0.17709 -0.25,-0.39584 -0.25,-0.65625c0,-0.25 0.08333,-0.45834 0.25,-0.625c0.16667,-0.16666 0.38021,-0.25 0.64063,-0.25z" fill="#ffffff" stroke="none" stroke-width="1" stroke-linecap="square"/></g></g></svg>